<svg width="414" height="896" viewBox="0 0 414 896" fill="none" xmlns="http://www.w3.org/2000/svg">
<g clip-path="url(#clip0)">
<rect width="414" height="896" fill="#254433"/>
<path d="M325.954 324.969C448.678 205.835 259.192 172.37 362.28 -7L-4.21309e-05 -6.99999L0 673C0 673 99.1608 660.953 126.651 543.158C154.141 425.362 203.23 444.102 325.954 324.969Z" fill="#41FF98"/>
<rect x="23" y="166" width="368" height="564" rx="10" fill="white"/>
<line y1="-3" x2="295.007" y2="-3" transform="matrix(0.999978 -0.00655724 0.00405194 0.999992 59 262)" stroke="black" stroke-width="6"/>
<path d="M118.528 232.917V237.81H123.862V239.385H118.528V244.425H124.492V246H116.617V231.342H124.492V232.917H118.528ZM141.223 234.282C142.119 234.282 142.917 234.471 143.617 234.849C144.317 235.213 144.87 235.766 145.276 236.508C145.682 237.25 145.885 238.153 145.885 239.217V246H143.995V239.49C143.995 238.342 143.708 237.467 143.134 236.865C142.574 236.249 141.811 235.941 140.845 235.941C139.851 235.941 139.06 236.263 138.472 236.907C137.884 237.537 137.59 238.454 137.59 239.658V246H135.7V239.49C135.7 238.342 135.413 237.467 134.839 236.865C134.279 236.249 133.516 235.941 132.55 235.941C131.556 235.941 130.765 236.263 130.177 236.907C129.589 237.537 129.295 238.454 129.295 239.658V246H127.384V234.492H129.295V236.151C129.673 235.549 130.177 235.087 130.807 234.765C131.451 234.443 132.158 234.282 132.928 234.282C133.894 234.282 134.748 234.499 135.49 234.933C136.232 235.367 136.785 236.004 137.149 236.844C137.471 236.032 138.003 235.402 138.745 234.954C139.487 234.506 140.313 234.282 141.223 234.282ZM148.305 240.204C148.305 239.028 148.543 237.999 149.019 237.117C149.495 236.221 150.146 235.528 150.972 235.038C151.812 234.548 152.743 234.303 153.765 234.303C154.773 234.303 155.648 234.52 156.39 234.954C157.132 235.388 157.685 235.934 158.049 236.592V234.492H159.981V246H158.049V243.858C157.671 244.53 157.104 245.09 156.348 245.538C155.606 245.972 154.738 246.189 153.744 246.189C152.722 246.189 151.798 245.937 150.972 245.433C150.146 244.929 149.495 244.222 149.019 243.312C148.543 242.402 148.305 241.366 148.305 240.204ZM158.049 240.225C158.049 239.357 157.874 238.601 157.524 237.957C157.174 237.313 156.698 236.823 156.096 236.487C155.508 236.137 154.857 235.962 154.143 235.962C153.429 235.962 152.778 236.13 152.19 236.466C151.602 236.802 151.133 237.292 150.783 237.936C150.433 238.58 150.258 239.336 150.258 240.204C150.258 241.086 150.433 241.856 150.783 242.514C151.133 243.158 151.602 243.655 152.19 244.005C152.778 244.341 153.429 244.509 154.143 244.509C154.857 244.509 155.508 244.341 156.096 244.005C156.698 243.655 157.174 243.158 157.524 242.514C157.874 241.856 158.049 241.093 158.049 240.225ZM164.198 232.623C163.834 232.623 163.526 232.497 163.274 232.245C163.022 231.993 162.896 231.685 162.896 231.321C162.896 230.957 163.022 230.649 163.274 230.397C163.526 230.145 163.834 230.019 164.198 230.019C164.548 230.019 164.842 230.145 165.08 230.397C165.332 230.649 165.458 230.957 165.458 231.321C165.458 231.685 165.332 231.993 165.08 232.245C164.842 232.497 164.548 232.623 164.198 232.623ZM165.122 234.492V246H163.211V234.492H165.122ZM170.29 230.46V246H168.379V230.46H170.29ZM181.056 231.363V246H179.145V231.363H181.056ZM188.87 231.363C190.466 231.363 191.845 231.664 193.007 232.266C194.183 232.854 195.079 233.701 195.695 234.807C196.325 235.913 196.64 237.215 196.64 238.713C196.64 240.211 196.325 241.513 195.695 242.619C195.079 243.711 194.183 244.551 193.007 245.139C191.845 245.713 190.466 246 188.87 246H184.313V231.363H188.87ZM188.87 244.425C190.76 244.425 192.202 243.928 193.196 242.934C194.19 241.926 194.687 240.519 194.687 238.713C194.687 236.893 194.183 235.472 193.175 234.45C192.181 233.428 190.746 232.917 188.87 232.917H186.224V244.425H188.87Z" fill="#626262"/>
<path d="M93.2 230H70.8C69.26 230 68.014 231.181 68.014 232.625L68 248.375C68 249.819 69.26 251 70.8 251H93.2C94.74 251 96 249.819 96 248.375V232.625C96 231.181 94.74 230 93.2 230ZM93.2 235.25L82 241.812L70.8 235.25V232.625L82 239.188L93.2 232.625V235.25Z" fill="black"/>
<line y1="-3" x2="295.756" y2="-3" transform="matrix(0.999983 -0.00578064 0.00677175 0.999977 58.5811 337.003)" stroke="black" stroke-width="6"/>
<path d="M129.366 305.667L123.581 321L121.271 321L115.484 305.666L117.618 305.666L122.437 318.888L127.254 305.667L129.366 305.667ZM142.562 314.511C142.562 314.892 142.54 315.296 142.496 315.721L132.86 315.721C132.933 316.909 133.337 317.84 134.07 318.515C134.818 319.175 135.72 319.505 136.776 319.505C137.641 319.505 138.36 319.307 138.932 318.911C139.519 318.5 139.929 317.958 140.164 317.283L142.32 317.283C141.997 318.442 141.352 319.388 140.384 320.121C139.416 320.84 138.213 321.199 136.776 321.199C135.632 321.199 134.605 320.942 133.696 320.429C132.801 319.915 132.097 319.189 131.584 318.251C131.071 317.297 130.814 316.197 130.814 314.951C130.814 313.704 131.063 312.611 131.562 311.673C132.06 310.734 132.757 310.015 133.652 309.517C134.561 309.003 135.602 308.747 136.776 308.747C137.92 308.747 138.932 308.996 139.812 309.495C140.692 309.994 141.366 310.683 141.836 311.563C142.32 312.428 142.562 313.411 142.562 314.511ZM140.494 314.093C140.494 313.33 140.325 312.678 139.988 312.135C139.65 311.578 139.188 311.16 138.602 310.881C138.03 310.588 137.392 310.441 136.688 310.441C135.676 310.441 134.81 310.763 134.092 311.409C133.388 312.054 132.984 312.949 132.882 314.093L140.494 314.093ZM147.206 310.903C147.558 310.214 148.057 309.679 148.702 309.297C149.362 308.916 150.162 308.725 151.1 308.725L151.1 310.793L150.572 310.793C148.328 310.793 147.206 312.011 147.206 314.445L147.207 321.001L145.205 321.001L145.204 308.945L147.206 308.945L147.206 310.903ZM154.445 306.988C154.064 306.988 153.741 306.856 153.477 306.592C153.213 306.328 153.081 306.005 153.081 305.624C153.081 305.242 153.213 304.92 153.477 304.656C153.741 304.392 154.064 304.26 154.445 304.26C154.812 304.26 155.12 304.392 155.369 304.656C155.633 304.92 155.765 305.242 155.765 305.624C155.765 306.005 155.633 306.328 155.369 306.592C155.12 306.856 154.812 306.988 154.445 306.988ZM155.413 308.946L155.414 321.002L153.412 321.002L153.411 308.946L155.413 308.946ZM163.731 310.596L161.201 310.596L161.202 321.002L159.2 321.002L159.199 310.596L157.637 310.596L157.637 308.946L159.199 308.946L159.199 308.088C159.199 306.738 159.544 305.756 160.233 305.14C160.937 304.509 162.059 304.194 163.599 304.194L163.599 305.866C162.719 305.866 162.096 306.042 161.729 306.394C161.377 306.731 161.201 307.296 161.201 308.088L161.201 308.946L163.731 308.946L163.731 310.596ZM167.099 306.988C166.718 306.988 166.395 306.856 166.131 306.592C165.867 306.328 165.735 306.005 165.735 305.624C165.735 305.243 165.867 304.92 166.131 304.656C166.395 304.392 166.718 304.26 167.099 304.26C167.466 304.26 167.774 304.392 168.023 304.656C168.287 304.92 168.419 305.243 168.419 305.624C168.419 306.005 168.287 306.328 168.023 306.592C167.774 306.856 167.466 306.988 167.099 306.988ZM168.068 308.946L168.068 321.002L166.066 321.002L166.066 308.946L168.068 308.946ZM170.732 314.952C170.732 313.706 170.981 312.62 171.48 311.696C171.978 310.758 172.668 310.032 173.548 309.518C174.442 309.005 175.462 308.748 176.606 308.748C178.087 308.749 179.304 309.108 180.258 309.827C181.226 310.545 181.864 311.543 182.172 312.819L180.016 312.819C179.81 312.085 179.407 311.506 178.806 311.081C178.219 310.655 177.486 310.442 176.606 310.442C175.462 310.442 174.538 310.838 173.834 311.63C173.13 312.408 172.778 313.515 172.778 314.952C172.778 316.404 173.13 317.526 173.834 318.318C174.538 319.11 175.462 319.506 176.606 319.506C177.486 319.506 178.219 319.301 178.806 318.891C179.393 318.48 179.796 317.893 180.016 317.131L182.172 317.131C181.849 318.363 181.204 319.353 180.236 320.101C179.268 320.834 178.058 321.201 176.606 321.2C175.462 321.2 174.443 320.944 173.548 320.43C172.668 319.917 171.979 319.191 171.48 318.252C170.981 317.314 170.732 316.214 170.732 314.952ZM184.095 314.931C184.095 313.699 184.344 312.621 184.843 311.697C185.342 310.758 186.024 310.032 186.889 309.519C187.769 309.006 188.744 308.749 189.815 308.749C190.871 308.749 191.788 308.976 192.565 309.431C193.342 309.886 193.922 310.458 194.303 311.147L194.303 308.947L196.327 308.947L196.327 321.003L194.303 321.003L194.303 318.759C193.907 319.463 193.313 320.05 192.521 320.519C191.744 320.974 190.835 321.201 189.793 321.201C188.723 321.201 187.755 320.937 186.889 320.409C186.024 319.881 185.342 319.14 184.843 318.187C184.345 317.233 184.095 316.148 184.095 314.931ZM194.303 314.953C194.303 314.044 194.12 313.252 193.753 312.577C193.386 311.902 192.888 311.389 192.257 311.037C191.641 310.67 190.959 310.487 190.211 310.487C189.463 310.487 188.781 310.663 188.165 311.015C187.549 311.367 187.058 311.88 186.691 312.555C186.324 313.23 186.141 314.022 186.141 314.931C186.141 315.855 186.325 316.662 186.691 317.351C187.058 318.026 187.549 318.546 188.165 318.913C188.781 319.265 189.463 319.441 190.211 319.441C190.959 319.441 191.641 319.265 192.257 318.913C192.888 318.546 193.387 318.026 193.753 317.351C194.12 316.662 194.303 315.862 194.303 314.953ZM202.152 310.597L202.152 317.703C202.152 318.29 202.277 318.708 202.526 318.957C202.776 319.192 203.209 319.31 203.825 319.31L205.299 319.31L205.299 321.004L203.495 321.004C202.38 321.003 201.544 320.747 200.987 320.233C200.429 319.72 200.15 318.877 200.15 317.703L200.15 310.597L198.588 310.597L198.588 308.947L200.15 308.947L200.15 305.911L202.152 305.911L202.152 308.947L205.298 308.948L205.298 310.598L202.152 310.597ZM208.758 306.99C208.376 306.99 208.054 306.858 207.79 306.594C207.526 306.33 207.394 306.007 207.394 305.626C207.394 305.244 207.526 304.922 207.79 304.658C208.054 304.394 208.376 304.262 208.758 304.262C209.124 304.262 209.432 304.394 209.682 304.658C209.946 304.922 210.078 305.244 210.078 305.626C210.078 306.007 209.946 306.33 209.682 306.594C209.432 306.858 209.124 306.99 208.758 306.99ZM209.726 308.948L209.726 321.004L207.724 321.004L207.724 308.948L209.726 308.948ZM218.396 321.202C217.267 321.202 216.24 320.945 215.316 320.432C214.407 319.919 213.688 319.193 213.16 318.254C212.647 317.301 212.39 316.201 212.39 314.954C212.39 313.722 212.654 312.637 213.182 311.698C213.725 310.745 214.458 310.019 215.382 309.52C216.306 309.007 217.34 308.75 218.484 308.75C219.628 308.75 220.662 309.007 221.586 309.52C222.51 310.019 223.236 310.738 223.764 311.676C224.307 312.615 224.578 313.708 224.578 314.954C224.578 316.201 224.3 317.301 223.742 318.254C223.2 319.193 222.459 319.919 221.52 320.432C220.582 320.946 219.54 321.202 218.396 321.202ZM218.396 319.442C219.115 319.442 219.79 319.274 220.42 318.936C221.051 318.599 221.557 318.093 221.938 317.418C222.334 316.744 222.532 315.922 222.532 314.954C222.532 313.986 222.341 313.165 221.96 312.49C221.579 311.816 221.08 311.317 220.464 310.994C219.848 310.657 219.181 310.488 218.462 310.488C217.729 310.488 217.054 310.657 216.438 310.994C215.837 311.317 215.353 311.815 214.986 312.49C214.619 313.165 214.436 313.986 214.436 314.954C214.436 315.937 214.612 316.765 214.964 317.44C215.331 318.115 215.815 318.621 216.416 318.958C217.018 319.281 217.678 319.442 218.396 319.442ZM233.084 308.729C234.551 308.729 235.739 309.176 236.648 310.071C237.558 310.951 238.012 312.227 238.012 313.899L238.013 321.005L236.033 321.005L236.032 314.185C236.032 312.982 235.732 312.065 235.13 311.435C234.529 310.789 233.707 310.467 232.666 310.467C231.61 310.467 230.767 310.797 230.136 311.457C229.52 312.117 229.212 313.077 229.212 314.339L229.213 321.005L227.211 321.004L227.21 308.948L229.212 308.949L229.212 310.665C229.608 310.049 230.143 309.572 230.818 309.235C231.507 308.897 232.263 308.729 233.084 308.729ZM249.642 312.095L249.643 313.789L240.865 313.789L240.864 312.095L249.642 312.095ZM252.652 313.327C252.652 311.831 252.989 310.489 253.664 309.302C254.338 308.099 255.255 307.16 256.413 306.486C257.587 305.811 258.885 305.474 260.307 305.474C261.979 305.474 263.439 305.877 264.685 306.684C265.932 307.491 266.842 308.635 267.414 310.116L265.016 310.116C264.59 309.192 263.974 308.481 263.168 307.982C262.375 307.483 261.422 307.234 260.307 307.234C259.237 307.234 258.276 307.483 257.426 307.982C256.575 308.48 255.908 309.192 255.424 310.116C254.94 311.025 254.698 312.096 254.698 313.328C254.698 314.545 254.94 315.616 255.424 316.54C255.908 317.449 256.575 318.153 257.426 318.652C258.277 319.15 259.237 319.4 260.308 319.4C261.423 319.4 262.376 319.158 263.168 318.674C263.975 318.175 264.591 317.464 265.016 316.54L267.414 316.54C266.842 318.007 265.933 319.143 264.686 319.95C263.439 320.742 261.98 321.138 260.308 321.138C258.885 321.138 257.587 320.808 256.414 320.148C255.255 319.473 254.339 318.542 253.664 317.354C252.989 316.165 252.652 314.823 252.652 313.327ZM275.652 321.204C274.523 321.204 273.496 320.948 272.572 320.434C271.663 319.921 270.944 319.195 270.416 318.256C269.903 317.303 269.646 316.203 269.646 314.956C269.646 313.724 269.91 312.639 270.438 311.7C270.98 310.747 271.714 310.021 272.638 309.522C273.562 309.009 274.596 308.752 275.74 308.752C276.884 308.752 277.918 309.009 278.842 309.523C279.766 310.021 280.492 310.74 281.02 311.679C281.563 312.617 281.834 313.71 281.834 314.957C281.834 316.203 281.555 317.303 280.998 318.257C280.455 319.195 279.715 319.921 278.776 320.435C277.838 320.948 276.796 321.204 275.652 321.204ZM275.652 319.444C276.371 319.444 277.045 319.276 277.676 318.938C278.307 318.601 278.813 318.095 279.194 317.421C279.59 316.746 279.788 315.925 279.788 314.957C279.788 313.989 279.597 313.167 279.216 312.493C278.834 311.818 278.336 311.319 277.72 310.996C277.104 310.659 276.436 310.49 275.718 310.49C274.984 310.49 274.31 310.659 273.694 310.996C273.092 311.319 272.608 311.818 272.242 312.492C271.875 313.167 271.692 313.988 271.692 314.956C271.692 315.939 271.868 316.768 272.22 317.442C272.587 318.117 273.071 318.623 273.672 318.96C274.273 319.283 274.933 319.444 275.652 319.444ZM283.718 314.935C283.718 313.703 283.967 312.625 284.466 311.701C284.965 310.762 285.647 310.036 286.512 309.523C287.392 309.01 288.375 308.753 289.46 308.753C290.399 308.753 291.271 308.973 292.078 309.413C292.885 309.838 293.501 310.403 293.926 311.107L293.926 304.727L295.95 304.727L295.95 321.007L293.926 321.007L293.926 318.741C293.53 319.46 292.944 320.054 292.166 320.523C291.389 320.978 290.48 321.205 289.438 321.205C288.368 321.205 287.392 320.941 286.512 320.413C285.647 319.885 284.965 319.144 284.466 318.191C283.968 317.237 283.718 316.152 283.718 314.935ZM293.926 314.957C293.926 314.048 293.743 313.256 293.376 312.581C293.009 311.906 292.511 311.393 291.88 311.041C291.264 310.674 290.582 310.491 289.834 310.491C289.086 310.491 288.404 310.667 287.788 311.019C287.172 311.371 286.681 311.884 286.314 312.559C285.947 313.233 285.764 314.025 285.764 314.935C285.764 315.859 285.948 316.665 286.314 317.355C286.681 318.029 287.172 318.55 287.788 318.917C288.404 319.269 289.086 319.445 289.834 319.445C290.582 319.445 291.264 319.269 291.88 318.917C292.511 318.55 293.01 318.03 293.376 317.355C293.743 316.666 293.926 315.866 293.926 314.957ZM310.333 314.518C310.333 314.899 310.311 315.302 310.267 315.728L300.631 315.727C300.705 316.915 301.108 317.847 301.842 318.521C302.59 319.181 303.492 319.511 304.548 319.512C305.413 319.512 306.132 319.314 306.704 318.918C307.29 318.507 307.701 317.964 307.935 317.29L310.091 317.29C309.769 318.448 309.124 319.394 308.156 320.128C307.188 320.846 305.985 321.206 304.548 321.206C303.404 321.205 302.377 320.949 301.468 320.435C300.573 319.922 299.869 319.196 299.356 318.257C298.842 317.304 298.585 316.204 298.585 314.957C298.585 313.711 298.835 312.618 299.333 311.679C299.832 310.741 300.529 310.022 301.423 309.523C302.332 309.01 303.374 308.753 304.547 308.754C305.691 308.754 306.703 309.003 307.583 309.502C308.463 310 309.138 310.69 309.607 311.57C310.091 312.435 310.333 313.418 310.333 314.518ZM308.265 314.1C308.265 313.337 308.097 312.684 307.759 312.142C307.422 311.584 306.96 311.166 306.373 310.888C305.801 310.594 305.163 310.448 304.459 310.448C303.447 310.447 302.582 310.77 301.863 311.415C301.159 312.061 300.756 312.955 300.653 314.099L308.265 314.1Z" fill="#626262"/>
<path d="M76.7084 308.438H79.8751V309.812H76.7084V308.438ZM99.6668 299.5H74.3334C72.5759 299.5 71.1826 300.724 71.1826 302.25L71.1667 318.75C71.1667 320.276 72.5759 321.5 74.3334 321.5H99.6668C101.424 321.5 102.833 320.276 102.833 318.75V302.25C102.833 300.724 101.424 299.5 99.6668 299.5ZM82.2501 309.812C82.2501 310.981 81.2209 311.875 79.8751 311.875H76.7084V314.625H74.3334V306.375H79.8751C81.2209 306.375 82.2501 307.269 82.2501 308.438V309.812ZM87.7917 314.625H85.4167V306.375H87.7917V314.625ZM99.6668 314.625H97.7668L93.7292 309.812V314.625H91.7501V306.375H93.7292L97.6876 311.188V306.375H99.6668V314.625Z" fill="black"/>
<path d="M78.69 369.878L72.788 381.162V388H70.422V381.162L64.494 369.878H67.12L71.592 379.056L76.064 369.878H78.69ZM87.3996 388.234C86.0649 388.234 84.8516 387.931 83.7596 387.324C82.6849 386.717 81.8356 385.859 81.2116 384.75C80.6049 383.623 80.3016 382.323 80.3016 380.85C80.3016 379.394 80.6136 378.111 81.2376 377.002C81.8789 375.875 82.7456 375.017 83.8376 374.428C84.9296 373.821 86.1516 373.518 87.5036 373.518C88.8556 373.518 90.0776 373.821 91.1696 374.428C92.2616 375.017 93.1196 375.867 93.7436 376.976C94.3849 378.085 94.7056 379.377 94.7056 380.85C94.7056 382.323 94.3763 383.623 93.7176 384.75C93.0763 385.859 92.2009 386.717 91.0916 387.324C89.9823 387.931 88.7516 388.234 87.3996 388.234ZM87.3996 386.154C88.2489 386.154 89.0463 385.955 89.7916 385.556C90.5369 385.157 91.1349 384.559 91.5856 383.762C92.0536 382.965 92.2876 381.994 92.2876 380.85C92.2876 379.706 92.0623 378.735 91.6116 377.938C91.1609 377.141 90.5716 376.551 89.8436 376.17C89.1156 375.771 88.3269 375.572 87.4776 375.572C86.6109 375.572 85.8136 375.771 85.0856 376.17C84.3749 376.551 83.8029 377.141 83.3696 377.938C82.9363 378.735 82.7196 379.706 82.7196 380.85C82.7196 382.011 82.9276 382.991 83.3436 383.788C83.7769 384.585 84.3489 385.183 85.0596 385.582C85.7703 385.963 86.5503 386.154 87.3996 386.154ZM110.452 373.752V388H108.086V385.894C107.636 386.622 107.003 387.194 106.188 387.61C105.391 388.009 104.507 388.208 103.536 388.208C102.427 388.208 101.43 387.983 100.546 387.532C99.6625 387.064 98.9605 386.371 98.4405 385.452C97.9378 384.533 97.6865 383.415 97.6865 382.098V373.752H100.026V381.786C100.026 383.19 100.382 384.273 101.092 385.036C101.803 385.781 102.774 386.154 104.004 386.154C105.27 386.154 106.266 385.764 106.994 384.984C107.722 384.204 108.086 383.069 108.086 381.578V373.752H110.452ZM140.359 373.752L135.913 388H133.469L130.037 376.69L126.605 388H124.161L119.689 373.752H122.107L125.383 385.712L128.919 373.752H131.337L134.795 385.738L138.019 373.752H140.359ZM143.929 371.438C143.478 371.438 143.097 371.282 142.785 370.97C142.473 370.658 142.317 370.277 142.317 369.826C142.317 369.375 142.473 368.994 142.785 368.682C143.097 368.37 143.478 368.214 143.929 368.214C144.362 368.214 144.726 368.37 145.021 368.682C145.333 368.994 145.489 369.375 145.489 369.826C145.489 370.277 145.333 370.658 145.021 370.97C144.726 371.282 144.362 371.438 143.929 371.438ZM145.073 373.752V388H142.707V373.752H145.073ZM151.472 368.76V388H149.106V368.76H151.472ZM157.87 368.76V388H155.504V368.76H157.87ZM171.2 376.066C171.616 375.251 172.205 374.619 172.968 374.168C173.748 373.717 174.693 373.492 175.802 373.492V375.936H175.178C172.526 375.936 171.2 377.375 171.2 380.252V388H168.834V373.752H171.2V376.066ZM191.533 380.33C191.533 380.781 191.507 381.257 191.455 381.76H180.067C180.154 383.164 180.631 384.265 181.497 385.062C182.381 385.842 183.447 386.232 184.695 386.232C185.718 386.232 186.567 385.998 187.243 385.53C187.937 385.045 188.422 384.403 188.699 383.606H191.247C190.866 384.975 190.103 386.093 188.959 386.96C187.815 387.809 186.394 388.234 184.695 388.234C183.343 388.234 182.13 387.931 181.055 387.324C179.998 386.717 179.166 385.859 178.559 384.75C177.953 383.623 177.649 382.323 177.649 380.85C177.649 379.377 177.944 378.085 178.533 376.976C179.123 375.867 179.946 375.017 181.003 374.428C182.078 373.821 183.309 373.518 184.695 373.518C186.047 373.518 187.243 373.813 188.283 374.402C189.323 374.991 190.121 375.806 190.675 376.846C191.247 377.869 191.533 379.03 191.533 380.33ZM189.089 379.836C189.089 378.935 188.89 378.163 188.491 377.522C188.093 376.863 187.547 376.369 186.853 376.04C186.177 375.693 185.423 375.52 184.591 375.52C183.395 375.52 182.373 375.901 181.523 376.664C180.691 377.427 180.215 378.484 180.093 379.836H189.089ZM193.772 380.85C193.772 379.377 194.067 378.094 194.656 377.002C195.246 375.893 196.06 375.035 197.1 374.428C198.158 373.821 199.362 373.518 200.714 373.518C202.465 373.518 203.904 373.943 205.03 374.792C206.174 375.641 206.928 376.82 207.292 378.328H204.744C204.502 377.461 204.025 376.777 203.314 376.274C202.621 375.771 201.754 375.52 200.714 375.52C199.362 375.52 198.27 375.988 197.438 376.924C196.606 377.843 196.19 379.151 196.19 380.85C196.19 382.566 196.606 383.892 197.438 384.828C198.27 385.764 199.362 386.232 200.714 386.232C201.754 386.232 202.621 385.989 203.314 385.504C204.008 385.019 204.484 384.325 204.744 383.424H207.292C206.911 384.88 206.148 386.05 205.004 386.934C203.86 387.801 202.43 388.234 200.714 388.234C199.362 388.234 198.158 387.931 197.1 387.324C196.06 386.717 195.246 385.859 194.656 384.75C194.067 383.641 193.772 382.341 193.772 380.85ZM211.671 371.438C211.221 371.438 210.839 371.282 210.527 370.97C210.215 370.658 210.059 370.277 210.059 369.826C210.059 369.375 210.215 368.994 210.527 368.682C210.839 368.37 211.221 368.214 211.671 368.214C212.105 368.214 212.469 368.37 212.763 368.682C213.075 368.994 213.231 369.375 213.231 369.826C213.231 370.277 213.075 370.658 212.763 370.97C212.469 371.282 212.105 371.438 211.671 371.438ZM212.815 373.752V388H210.449V373.752H212.815ZM229.848 380.33C229.848 380.781 229.822 381.257 229.77 381.76H218.382C218.468 383.164 218.945 384.265 219.812 385.062C220.696 385.842 221.762 386.232 223.01 386.232C224.032 386.232 224.882 385.998 225.558 385.53C226.251 385.045 226.736 384.403 227.014 383.606H229.562C229.18 384.975 228.418 386.093 227.274 386.96C226.13 387.809 224.708 388.234 223.01 388.234C221.658 388.234 220.444 387.931 219.37 387.324C218.312 386.717 217.48 385.859 216.874 384.75C216.267 383.623 215.964 382.323 215.964 380.85C215.964 379.377 216.258 378.085 216.848 376.976C217.437 375.867 218.26 375.017 219.318 374.428C220.392 373.821 221.623 373.518 223.01 373.518C224.362 373.518 225.558 373.813 226.598 374.402C227.638 374.991 228.435 375.806 228.99 376.846C229.562 377.869 229.848 379.03 229.848 380.33ZM227.404 379.836C227.404 378.935 227.204 378.163 226.806 377.522C226.407 376.863 225.861 376.369 225.168 376.04C224.492 375.693 223.738 375.52 222.906 375.52C221.71 375.52 220.687 375.901 219.838 376.664C219.006 377.427 218.529 378.484 218.408 379.836H227.404ZM238.275 385.816L242.695 373.752H245.217L239.627 388H236.871L231.281 373.752H233.829L238.275 385.816ZM260.545 380.33C260.545 380.781 260.519 381.257 260.467 381.76H249.079C249.166 383.164 249.642 384.265 250.509 385.062C251.393 385.842 252.459 386.232 253.707 386.232C254.73 386.232 255.579 385.998 256.255 385.53C256.948 385.045 257.434 384.403 257.711 383.606H260.259C259.878 384.975 259.115 386.093 257.971 386.96C256.827 387.809 255.406 388.234 253.707 388.234C252.355 388.234 251.142 387.931 250.067 387.324C249.01 386.717 248.178 385.859 247.571 384.75C246.964 383.623 246.661 382.323 246.661 380.85C246.661 379.377 246.956 378.085 247.545 376.976C248.134 375.867 248.958 375.017 250.015 374.428C251.09 373.821 252.32 373.518 253.707 373.518C255.059 373.518 256.255 373.813 257.295 374.402C258.335 374.991 259.132 375.806 259.687 376.846C260.259 377.869 260.545 379.03 260.545 380.33ZM258.101 379.836C258.101 378.935 257.902 378.163 257.503 377.522C257.104 376.863 256.558 376.369 255.865 376.04C255.189 375.693 254.435 375.52 253.603 375.52C252.407 375.52 251.384 375.901 250.535 376.664C249.703 377.427 249.226 378.484 249.105 379.836H258.101ZM269.716 380.824C269.716 379.368 270.01 378.094 270.6 377.002C271.189 375.893 271.995 375.035 273.018 374.428C274.058 373.821 275.21 373.518 276.476 373.518C277.724 373.518 278.807 373.787 279.726 374.324C280.644 374.861 281.329 375.537 281.78 376.352V373.752H284.172V388H281.78V385.348C281.312 386.18 280.61 386.873 279.674 387.428C278.755 387.965 277.68 388.234 276.45 388.234C275.184 388.234 274.04 387.922 273.018 387.298C271.995 386.674 271.189 385.799 270.6 384.672C270.01 383.545 269.716 382.263 269.716 380.824ZM281.78 380.85C281.78 379.775 281.563 378.839 281.13 378.042C280.696 377.245 280.107 376.638 279.362 376.222C278.634 375.789 277.828 375.572 276.944 375.572C276.06 375.572 275.254 375.78 274.526 376.196C273.798 376.612 273.217 377.219 272.784 378.016C272.35 378.813 272.134 379.749 272.134 380.824C272.134 381.916 272.35 382.869 272.784 383.684C273.217 384.481 273.798 385.097 274.526 385.53C275.254 385.946 276.06 386.154 276.944 386.154C277.828 386.154 278.634 385.946 279.362 385.53C280.107 385.097 280.696 384.481 281.13 383.684C281.563 382.869 281.78 381.925 281.78 380.85ZM71.306 424.816L75.726 412.752H78.248L72.658 427H69.902L64.312 412.752H66.86L71.306 424.816ZM93.5762 419.33C93.5762 419.781 93.5502 420.257 93.4982 420.76H82.1102C82.1969 422.164 82.6736 423.265 83.5402 424.062C84.4242 424.842 85.4902 425.232 86.7382 425.232C87.7609 425.232 88.6102 424.998 89.2862 424.53C89.9796 424.045 90.4649 423.403 90.7422 422.606H93.2902C92.9089 423.975 92.1462 425.093 91.0022 425.96C89.8582 426.809 88.4369 427.234 86.7382 427.234C85.3862 427.234 84.1729 426.931 83.0982 426.324C82.0409 425.717 81.2089 424.859 80.6022 423.75C79.9956 422.623 79.6922 421.323 79.6922 419.85C79.6922 418.377 79.9869 417.085 80.5762 415.976C81.1656 414.867 81.9889 414.017 83.0462 413.428C84.1209 412.821 85.3516 412.518 86.7382 412.518C88.0902 412.518 89.2862 412.813 90.3262 413.402C91.3662 413.991 92.1636 414.806 92.7182 415.846C93.2902 416.869 93.5762 418.03 93.5762 419.33ZM91.1322 418.836C91.1322 417.935 90.9329 417.163 90.5342 416.522C90.1356 415.863 89.5896 415.369 88.8962 415.04C88.2202 414.693 87.4662 414.52 86.6342 414.52C85.4382 414.52 84.4156 414.901 83.5662 415.664C82.7342 416.427 82.2576 417.484 82.1362 418.836H91.1322ZM99.0653 415.066C99.4813 414.251 100.071 413.619 100.833 413.168C101.613 412.717 102.558 412.492 103.667 412.492V414.936H103.043C100.391 414.936 99.0653 416.375 99.0653 419.252V427H96.6993V412.752H99.0653V415.066ZM107.62 410.438C107.17 410.438 106.788 410.282 106.476 409.97C106.164 409.658 106.008 409.277 106.008 408.826C106.008 408.375 106.164 407.994 106.476 407.682C106.788 407.37 107.17 407.214 107.62 407.214C108.054 407.214 108.418 407.37 108.712 407.682C109.024 407.994 109.18 408.375 109.18 408.826C109.18 409.277 109.024 409.658 108.712 409.97C108.418 410.282 108.054 410.438 107.62 410.438ZM108.764 412.752V427H106.398V412.752H108.764ZM118.595 414.702H115.605V427H113.239V414.702H111.393V412.752H113.239V411.738C113.239 410.143 113.646 408.982 114.461 408.254C115.293 407.509 116.619 407.136 118.439 407.136V409.112C117.399 409.112 116.662 409.32 116.229 409.736C115.813 410.135 115.605 410.802 115.605 411.738V412.752H118.595V414.702ZM122.576 410.438C122.125 410.438 121.744 410.282 121.432 409.97C121.12 409.658 120.964 409.277 120.964 408.826C120.964 408.375 121.12 407.994 121.432 407.682C121.744 407.37 122.125 407.214 122.576 407.214C123.009 407.214 123.373 407.37 123.668 407.682C123.98 407.994 124.136 408.375 124.136 408.826C124.136 409.277 123.98 409.658 123.668 409.97C123.373 410.282 123.009 410.438 122.576 410.438ZM123.72 412.752V427H121.354V412.752H123.72ZM126.868 419.85C126.868 418.377 127.163 417.094 127.752 416.002C128.341 414.893 129.156 414.035 130.196 413.428C131.253 412.821 132.458 412.518 133.81 412.518C135.561 412.518 136.999 412.943 138.126 413.792C139.27 414.641 140.024 415.82 140.388 417.328H137.84C137.597 416.461 137.121 415.777 136.41 415.274C135.717 414.771 134.85 414.52 133.81 414.52C132.458 414.52 131.366 414.988 130.534 415.924C129.702 416.843 129.286 418.151 129.286 419.85C129.286 421.566 129.702 422.892 130.534 423.828C131.366 424.764 132.458 425.232 133.81 425.232C134.85 425.232 135.717 424.989 136.41 424.504C137.103 424.019 137.58 423.325 137.84 422.424H140.388C140.007 423.88 139.244 425.05 138.1 425.934C136.956 426.801 135.526 427.234 133.81 427.234C132.458 427.234 131.253 426.931 130.196 426.324C129.156 425.717 128.341 424.859 127.752 423.75C127.163 422.641 126.868 421.341 126.868 419.85ZM142.661 419.824C142.661 418.368 142.956 417.094 143.545 416.002C144.134 414.893 144.94 414.035 145.963 413.428C147.003 412.821 148.156 412.518 149.421 412.518C150.669 412.518 151.752 412.787 152.671 413.324C153.59 413.861 154.274 414.537 154.725 415.352V412.752H157.117V427H154.725V424.348C154.257 425.18 153.555 425.873 152.619 426.428C151.7 426.965 150.626 427.234 149.395 427.234C148.13 427.234 146.986 426.922 145.963 426.298C144.94 425.674 144.134 424.799 143.545 423.672C142.956 422.545 142.661 421.263 142.661 419.824ZM154.725 419.85C154.725 418.775 154.508 417.839 154.075 417.042C153.642 416.245 153.052 415.638 152.307 415.222C151.579 414.789 150.773 414.572 149.889 414.572C149.005 414.572 148.199 414.78 147.471 415.196C146.743 415.612 146.162 416.219 145.729 417.016C145.296 417.813 145.079 418.749 145.079 419.824C145.079 420.916 145.296 421.869 145.729 422.684C146.162 423.481 146.743 424.097 147.471 424.53C148.199 424.946 149.005 425.154 149.889 425.154C150.773 425.154 151.579 424.946 152.307 424.53C153.052 424.097 153.642 423.481 154.075 422.684C154.508 421.869 154.725 420.925 154.725 419.85ZM164.001 414.702V423.1C164.001 423.793 164.149 424.287 164.443 424.582C164.738 424.859 165.249 424.998 165.977 424.998H167.719V427H165.587C164.27 427 163.282 426.697 162.623 426.09C161.965 425.483 161.635 424.487 161.635 423.1V414.702H159.789V412.752H161.635V409.164H164.001V412.752H167.719V414.702H164.001ZM171.808 410.438C171.357 410.438 170.976 410.282 170.664 409.97C170.352 409.658 170.196 409.277 170.196 408.826C170.196 408.375 170.352 407.994 170.664 407.682C170.976 407.37 171.357 407.214 171.808 407.214C172.241 407.214 172.605 407.37 172.9 407.682C173.212 407.994 173.368 408.375 173.368 408.826C173.368 409.277 173.212 409.658 172.9 409.97C172.605 410.282 172.241 410.438 171.808 410.438ZM172.952 412.752V427H170.586V412.752H172.952ZM183.198 427.234C181.864 427.234 180.65 426.931 179.558 426.324C178.484 425.717 177.634 424.859 177.01 423.75C176.404 422.623 176.1 421.323 176.1 419.85C176.1 418.394 176.412 417.111 177.036 416.002C177.678 414.875 178.544 414.017 179.636 413.428C180.728 412.821 181.95 412.518 183.302 412.518C184.654 412.518 185.876 412.821 186.968 413.428C188.06 414.017 188.918 414.867 189.542 415.976C190.184 417.085 190.504 418.377 190.504 419.85C190.504 421.323 190.175 422.623 189.516 423.75C188.875 424.859 188 425.717 186.89 426.324C185.781 426.931 184.55 427.234 183.198 427.234ZM183.198 425.154C184.048 425.154 184.845 424.955 185.59 424.556C186.336 424.157 186.934 423.559 187.384 422.762C187.852 421.965 188.086 420.994 188.086 419.85C188.086 418.706 187.861 417.735 187.41 416.938C186.96 416.141 186.37 415.551 185.642 415.17C184.914 414.771 184.126 414.572 183.276 414.572C182.41 414.572 181.612 414.771 180.884 415.17C180.174 415.551 179.602 416.141 179.168 416.938C178.735 417.735 178.518 418.706 178.518 419.85C178.518 421.011 178.726 421.991 179.142 422.788C179.576 423.585 180.148 424.183 180.858 424.582C181.569 424.963 182.349 425.154 183.198 425.154ZM200.557 412.492C202.291 412.492 203.695 413.021 204.769 414.078C205.844 415.118 206.381 416.626 206.381 418.602V427H204.041V418.94C204.041 417.519 203.686 416.435 202.975 415.69C202.265 414.927 201.294 414.546 200.063 414.546C198.815 414.546 197.819 414.936 197.073 415.716C196.345 416.496 195.981 417.631 195.981 419.122V427H193.615V412.752H195.981V414.78C196.449 414.052 197.082 413.489 197.879 413.09C198.694 412.691 199.587 412.492 200.557 412.492ZM216.294 419.85C216.294 418.377 216.588 417.094 217.178 416.002C217.767 414.893 218.582 414.035 219.622 413.428C220.679 412.821 221.884 412.518 223.236 412.518C224.986 412.518 226.425 412.943 227.552 413.792C228.696 414.641 229.45 415.82 229.814 417.328H227.266C227.023 416.461 226.546 415.777 225.836 415.274C225.142 414.771 224.276 414.52 223.236 414.52C221.884 414.52 220.792 414.988 219.96 415.924C219.128 416.843 218.712 418.151 218.712 419.85C218.712 421.566 219.128 422.892 219.96 423.828C220.792 424.764 221.884 425.232 223.236 425.232C224.276 425.232 225.142 424.989 225.836 424.504C226.529 424.019 227.006 423.325 227.266 422.424H229.814C229.432 423.88 228.67 425.05 227.526 425.934C226.382 426.801 224.952 427.234 223.236 427.234C221.884 427.234 220.679 426.931 219.622 426.324C218.582 425.717 217.767 424.859 217.178 423.75C216.588 422.641 216.294 421.341 216.294 419.85ZM239.185 427.234C237.85 427.234 236.637 426.931 235.545 426.324C234.47 425.717 233.621 424.859 232.997 423.75C232.39 422.623 232.087 421.323 232.087 419.85C232.087 418.394 232.399 417.111 233.023 416.002C233.664 414.875 234.531 414.017 235.623 413.428C236.715 412.821 237.937 412.518 239.289 412.518C240.641 412.518 241.863 412.821 242.955 413.428C244.047 414.017 244.905 414.867 245.529 415.976C246.17 417.085 246.491 418.377 246.491 419.85C246.491 421.323 246.161 422.623 245.503 423.75C244.861 424.859 243.986 425.717 242.877 426.324C241.767 426.931 240.537 427.234 239.185 427.234ZM239.185 425.154C240.034 425.154 240.831 424.955 241.577 424.556C242.322 424.157 242.92 423.559 243.371 422.762C243.839 421.965 244.073 420.994 244.073 419.85C244.073 418.706 243.847 417.735 243.397 416.938C242.946 416.141 242.357 415.551 241.629 415.17C240.901 414.771 240.112 414.572 239.263 414.572C238.396 414.572 237.599 414.771 236.871 415.17C236.16 415.551 235.588 416.141 235.155 416.938C234.721 417.735 234.505 418.706 234.505 419.85C234.505 421.011 234.713 421.991 235.129 422.788C235.562 423.585 236.134 424.183 236.845 424.582C237.555 424.963 238.335 425.154 239.185 425.154ZM248.718 419.824C248.718 418.368 249.012 417.094 249.602 416.002C250.191 414.893 250.997 414.035 252.02 413.428C253.06 412.821 254.221 412.518 255.504 412.518C256.613 412.518 257.644 412.778 258.598 413.298C259.551 413.801 260.279 414.468 260.782 415.3V407.76H263.174V427H260.782V424.322C260.314 425.171 259.62 425.873 258.702 426.428C257.783 426.965 256.708 427.234 255.478 427.234C254.212 427.234 253.06 426.922 252.02 426.298C250.997 425.674 250.191 424.799 249.602 423.672C249.012 422.545 248.718 421.263 248.718 419.824ZM260.782 419.85C260.782 418.775 260.565 417.839 260.132 417.042C259.698 416.245 259.109 415.638 258.364 415.222C257.636 414.789 256.83 414.572 255.946 414.572C255.062 414.572 254.256 414.78 253.528 415.196C252.8 415.612 252.219 416.219 251.786 417.016C251.352 417.813 251.136 418.749 251.136 419.824C251.136 420.916 251.352 421.869 251.786 422.684C252.219 423.481 252.8 424.097 253.528 424.53C254.256 424.946 255.062 425.154 255.946 425.154C256.83 425.154 257.636 424.946 258.364 424.53C259.109 424.097 259.698 423.481 260.132 422.684C260.565 421.869 260.782 420.925 260.782 419.85ZM280.172 419.33C280.172 419.781 280.146 420.257 280.094 420.76H268.706C268.793 422.164 269.269 423.265 270.136 424.062C271.02 424.842 272.086 425.232 273.334 425.232C274.357 425.232 275.206 424.998 275.882 424.53C276.575 424.045 277.061 423.403 277.338 422.606H279.886C279.505 423.975 278.742 425.093 277.598 425.96C276.454 426.809 275.033 427.234 273.334 427.234C271.982 427.234 270.769 426.931 269.694 426.324C268.637 425.717 267.805 424.859 267.198 423.75C266.591 422.623 266.288 421.323 266.288 419.85C266.288 418.377 266.583 417.085 267.172 415.976C267.761 414.867 268.585 414.017 269.642 413.428C270.717 412.821 271.947 412.518 273.334 412.518C274.686 412.518 275.882 412.813 276.922 413.402C277.962 413.991 278.759 414.806 279.314 415.846C279.886 416.869 280.172 418.03 280.172 419.33ZM277.728 418.836C277.728 417.935 277.529 417.163 277.13 416.522C276.731 415.863 276.185 415.369 275.492 415.04C274.816 414.693 274.062 414.52 273.23 414.52C272.034 414.52 271.011 414.901 270.162 415.664C269.33 416.427 268.853 417.484 268.732 418.836H277.728ZM291.449 410.438C290.998 410.438 290.617 410.282 290.305 409.97C289.993 409.658 289.837 409.277 289.837 408.826C289.837 408.375 289.993 407.994 290.305 407.682C290.617 407.37 290.998 407.214 291.449 407.214C291.882 407.214 292.246 407.37 292.541 407.682C292.853 407.994 293.009 408.375 293.009 408.826C293.009 409.277 292.853 409.658 292.541 409.97C292.246 410.282 291.882 410.438 291.449 410.438ZM292.593 412.752V427H290.227V412.752H292.593ZM303.567 412.492C305.3 412.492 306.704 413.021 307.779 414.078C308.854 415.118 309.391 416.626 309.391 418.602V427H307.051V418.94C307.051 417.519 306.696 416.435 305.985 415.69C305.274 414.927 304.304 414.546 303.073 414.546C301.825 414.546 300.828 414.936 300.083 415.716C299.355 416.496 298.991 417.631 298.991 419.122V427H296.625V412.752H298.991V414.78C299.459 414.052 300.092 413.489 300.889 413.09C301.704 412.691 302.596 412.492 303.567 412.492ZM65.326 464.102C67.5273 462.334 69.252 460.887 70.5 459.76C71.748 458.616 72.7967 457.429 73.646 456.198C74.5127 454.95 74.946 453.728 74.946 452.532C74.946 451.405 74.6687 450.521 74.114 449.88C73.5767 449.221 72.7013 448.892 71.488 448.892C70.3093 448.892 69.3907 449.265 68.732 450.01C68.0907 450.738 67.744 451.717 67.692 452.948H65.404C65.4733 451.007 66.0627 449.507 67.172 448.45C68.2813 447.393 69.7113 446.864 71.462 446.864C73.2473 446.864 74.66 447.358 75.7 448.346C76.7573 449.334 77.286 450.695 77.286 452.428C77.286 453.867 76.8527 455.271 75.986 456.64C75.1367 457.992 74.166 459.188 73.074 460.228C71.982 461.251 70.5867 462.447 68.888 463.816H77.832V465.792H65.326V464.102ZM81.7111 466.156C81.2604 466.156 80.8791 466 80.5671 465.688C80.2551 465.376 80.0991 464.995 80.0991 464.544C80.0991 464.093 80.2551 463.712 80.5671 463.4C80.8791 463.088 81.2604 462.932 81.7111 462.932C82.1444 462.932 82.5084 463.088 82.8031 463.4C83.1151 463.712 83.2711 464.093 83.2711 464.544C83.2711 464.995 83.1151 465.376 82.8031 465.688C82.5084 466 82.1444 466.156 81.7111 466.156ZM81.7111 455.028C81.2604 455.028 80.8791 454.872 80.5671 454.56C80.2551 454.248 80.0991 453.867 80.0991 453.416C80.0991 452.965 80.2551 452.584 80.5671 452.272C80.8791 451.96 81.2604 451.804 81.7111 451.804C82.1444 451.804 82.5084 451.96 82.8031 452.272C83.1151 452.584 83.2711 452.965 83.2711 453.416C83.2711 453.867 83.1151 454.248 82.8031 454.56C82.5084 454.872 82.1444 455.028 81.7111 455.028ZM98.0882 449.256H88.9622V455.184C89.3609 454.629 89.9502 454.179 90.7302 453.832C91.5102 453.468 92.3509 453.286 93.2522 453.286C94.6909 453.286 95.8609 453.589 96.7622 454.196C97.6636 454.785 98.3049 455.557 98.6862 456.51C99.0849 457.446 99.2842 458.443 99.2842 459.5C99.2842 460.748 99.0502 461.866 98.5822 462.854C98.1142 463.842 97.3949 464.622 96.4242 465.194C95.4709 465.766 94.2836 466.052 92.8622 466.052C91.0422 466.052 89.5689 465.584 88.4422 464.648C87.3156 463.712 86.6309 462.464 86.3882 460.904H88.7022C88.9276 461.892 89.4042 462.663 90.1322 463.218C90.8602 463.773 91.7789 464.05 92.8882 464.05C94.2576 464.05 95.2889 463.643 95.9822 462.828C96.6756 461.996 97.0222 460.904 97.0222 459.552C97.0222 458.2 96.6756 457.16 95.9822 456.432C95.2889 455.687 94.2662 455.314 92.9142 455.314C91.9956 455.314 91.1896 455.539 90.4962 455.99C89.8202 456.423 89.3262 457.021 89.0142 457.784H86.7782V447.176H98.0882V449.256ZM105.47 460.956C105.644 461.944 106.042 462.707 106.666 463.244C107.308 463.781 108.166 464.05 109.24 464.05C110.679 464.05 111.736 463.487 112.412 462.36C113.106 461.233 113.435 459.335 113.4 456.666C113.036 457.446 112.43 458.061 111.58 458.512C110.731 458.945 109.786 459.162 108.746 459.162C107.585 459.162 106.545 458.928 105.626 458.46C104.725 457.975 104.014 457.273 103.494 456.354C102.974 455.435 102.714 454.326 102.714 453.026C102.714 451.171 103.252 449.681 104.326 448.554C105.401 447.41 106.926 446.838 108.902 446.838C111.329 446.838 113.028 447.627 113.998 449.204C114.986 450.781 115.48 453.13 115.48 456.25C115.48 458.434 115.281 460.237 114.882 461.658C114.501 463.079 113.842 464.163 112.906 464.908C111.988 465.653 110.722 466.026 109.11 466.026C107.342 466.026 105.964 465.549 104.976 464.596C103.988 463.643 103.425 462.429 103.286 460.956H105.47ZM109.136 457.16C110.298 457.16 111.251 456.805 111.996 456.094C112.742 455.366 113.114 454.387 113.114 453.156C113.114 451.856 112.75 450.807 112.022 450.01C111.294 449.213 110.272 448.814 108.954 448.814C107.741 448.814 106.77 449.195 106.042 449.958C105.332 450.721 104.976 451.726 104.976 452.974C104.976 454.239 105.332 455.253 106.042 456.016C106.753 456.779 107.784 457.16 109.136 457.16ZM131.171 466.234C130.079 466.234 129.1 466.052 128.233 465.688C127.366 465.307 126.682 464.787 126.179 464.128C125.676 463.452 125.399 462.681 125.347 461.814H127.791C127.86 462.525 128.19 463.105 128.779 463.556C129.386 464.007 130.174 464.232 131.145 464.232C132.046 464.232 132.757 464.033 133.277 463.634C133.797 463.235 134.057 462.733 134.057 462.126C134.057 461.502 133.78 461.043 133.225 460.748C132.67 460.436 131.812 460.133 130.651 459.838C129.594 459.561 128.727 459.283 128.051 459.006C127.392 458.711 126.82 458.287 126.335 457.732C125.867 457.16 125.633 456.415 125.633 455.496C125.633 454.768 125.85 454.101 126.283 453.494C126.716 452.887 127.332 452.411 128.129 452.064C128.926 451.7 129.836 451.518 130.859 451.518C132.436 451.518 133.71 451.917 134.681 452.714C135.652 453.511 136.172 454.603 136.241 455.99H133.875C133.823 455.245 133.52 454.647 132.965 454.196C132.428 453.745 131.7 453.52 130.781 453.52C129.932 453.52 129.256 453.702 128.753 454.066C128.25 454.43 127.999 454.907 127.999 455.496C127.999 455.964 128.146 456.354 128.441 456.666C128.753 456.961 129.134 457.203 129.585 457.394C130.053 457.567 130.694 457.767 131.509 457.992C132.532 458.269 133.364 458.547 134.005 458.824C134.646 459.084 135.192 459.483 135.643 460.02C136.111 460.557 136.354 461.259 136.371 462.126C136.371 462.906 136.154 463.608 135.721 464.232C135.288 464.856 134.672 465.35 133.875 465.714C133.095 466.061 132.194 466.234 131.171 466.234ZM152.711 458.33C152.711 458.781 152.685 459.257 152.633 459.76H141.245C141.332 461.164 141.808 462.265 142.675 463.062C143.559 463.842 144.625 464.232 145.873 464.232C146.896 464.232 147.745 463.998 148.421 463.53C149.114 463.045 149.6 462.403 149.877 461.606H152.425C152.044 462.975 151.281 464.093 150.137 464.96C148.993 465.809 147.572 466.234 145.873 466.234C144.521 466.234 143.308 465.931 142.233 465.324C141.176 464.717 140.344 463.859 139.737 462.75C139.13 461.623 138.827 460.323 138.827 458.85C138.827 457.377 139.122 456.085 139.711 454.976C140.3 453.867 141.124 453.017 142.181 452.428C143.256 451.821 144.486 451.518 145.873 451.518C147.225 451.518 148.421 451.813 149.461 452.402C150.501 452.991 151.298 453.806 151.853 454.846C152.425 455.869 152.711 457.03 152.711 458.33ZM150.267 457.836C150.267 456.935 150.068 456.163 149.669 455.522C149.27 454.863 148.724 454.369 148.031 454.04C147.355 453.693 146.601 453.52 145.769 453.52C144.573 453.52 143.55 453.901 142.701 454.664C141.869 455.427 141.392 456.484 141.271 457.836H150.267ZM154.95 458.85C154.95 457.377 155.245 456.094 155.834 455.002C156.423 453.893 157.238 453.035 158.278 452.428C159.335 451.821 160.54 451.518 161.892 451.518C163.643 451.518 165.081 451.943 166.208 452.792C167.352 453.641 168.106 454.82 168.47 456.328H165.922C165.679 455.461 165.203 454.777 164.492 454.274C163.799 453.771 162.932 453.52 161.892 453.52C160.54 453.52 159.448 453.988 158.616 454.924C157.784 455.843 157.368 457.151 157.368 458.85C157.368 460.566 157.784 461.892 158.616 462.828C159.448 463.764 160.54 464.232 161.892 464.232C162.932 464.232 163.799 463.989 164.492 463.504C165.185 463.019 165.662 462.325 165.922 461.424H168.47C168.089 462.88 167.326 464.05 166.182 464.934C165.038 465.801 163.608 466.234 161.892 466.234C160.54 466.234 159.335 465.931 158.278 465.324C157.238 464.717 156.423 463.859 155.834 462.75C155.245 461.641 154.95 460.341 154.95 458.85ZM172.381 466.156C171.93 466.156 171.549 466 171.237 465.688C170.925 465.376 170.769 464.995 170.769 464.544C170.769 464.093 170.925 463.712 171.237 463.4C171.549 463.088 171.93 462.932 172.381 462.932C172.814 462.932 173.178 463.088 173.473 463.4C173.785 463.712 173.941 464.093 173.941 464.544C173.941 464.995 173.785 465.376 173.473 465.688C173.178 466 172.814 466.156 172.381 466.156Z" fill="#626262"/>
<rect x="79" y="565" width="252" height="67" rx="12" fill="url(#paint0_linear)"/>
<path d="M164.034 606.189C162.774 606.189 161.64 605.973 160.632 605.541C159.624 605.091 158.832 604.461 158.256 603.651C157.68 602.841 157.392 601.896 157.392 600.816H160.686C160.758 601.626 161.073 602.292 161.631 602.814C162.207 603.336 163.008 603.597 164.034 603.597C165.096 603.597 165.924 603.345 166.518 602.841C167.112 602.319 167.409 601.653 167.409 600.843C167.409 600.213 167.22 599.7 166.842 599.304C166.482 598.908 166.023 598.602 165.465 598.386C164.925 598.17 164.169 597.936 163.197 597.684C161.973 597.36 160.974 597.036 160.2 596.712C159.444 596.37 158.796 595.848 158.256 595.146C157.716 594.444 157.446 593.508 157.446 592.338C157.446 591.258 157.716 590.313 158.256 589.503C158.796 588.693 159.552 588.072 160.524 587.64C161.496 587.208 162.621 586.992 163.899 586.992C165.717 586.992 167.202 587.451 168.354 588.369C169.524 589.269 170.172 590.511 170.298 592.095H166.896C166.842 591.411 166.518 590.826 165.924 590.34C165.33 589.854 164.547 589.611 163.575 589.611C162.693 589.611 161.973 589.836 161.415 590.286C160.857 590.736 160.578 591.384 160.578 592.23C160.578 592.806 160.749 593.283 161.091 593.661C161.451 594.021 161.901 594.309 162.441 594.525C162.981 594.741 163.719 594.975 164.655 595.227C165.897 595.569 166.905 595.911 167.679 596.253C168.471 596.595 169.137 597.126 169.677 597.846C170.235 598.548 170.514 599.493 170.514 600.681C170.514 601.635 170.253 602.535 169.731 603.381C169.227 604.227 168.48 604.911 167.49 605.433C166.518 605.937 165.366 606.189 164.034 606.189ZM187.619 591.123V606H184.541V604.245C184.055 604.857 183.416 605.343 182.624 605.703C181.85 606.045 181.022 606.216 180.14 606.216C178.97 606.216 177.917 605.973 176.981 605.487C176.063 605.001 175.334 604.281 174.794 603.327C174.272 602.373 174.011 601.221 174.011 599.871V591.123H177.062V599.412C177.062 600.744 177.395 601.77 178.061 602.49C178.727 603.192 179.636 603.543 180.788 603.543C181.94 603.543 182.849 603.192 183.515 602.49C184.199 601.77 184.541 600.744 184.541 599.412V591.123H187.619ZM194.758 593.337C195.28 592.617 195.991 592.032 196.891 591.582C197.809 591.114 198.826 590.88 199.942 590.88C201.256 590.88 202.444 591.195 203.506 591.825C204.568 592.455 205.405 593.355 206.017 594.525C206.629 595.677 206.935 597 206.935 598.494C206.935 599.988 206.629 601.329 206.017 602.517C205.405 603.687 204.559 604.605 203.479 605.271C202.417 605.919 201.238 606.243 199.942 606.243C198.79 606.243 197.764 606.018 196.864 605.568C195.982 605.118 195.28 604.542 194.758 603.84V606H191.68V586.02H194.758V593.337ZM203.803 598.494C203.803 597.468 203.587 596.586 203.155 595.848C202.741 595.092 202.183 594.525 201.481 594.147C200.797 593.751 200.059 593.553 199.267 593.553C198.493 593.553 197.755 593.751 197.053 594.147C196.369 594.543 195.811 595.119 195.379 595.875C194.965 596.631 194.758 597.522 194.758 598.548C194.758 599.574 194.965 600.474 195.379 601.248C195.811 602.004 196.369 602.58 197.053 602.976C197.755 603.372 198.493 603.57 199.267 603.57C200.059 603.57 200.797 603.372 201.481 602.976C202.183 602.562 202.741 601.968 203.155 601.194C203.587 600.42 203.803 599.52 203.803 598.494ZM227.988 590.88C229.158 590.88 230.202 591.123 231.12 591.609C232.056 592.095 232.785 592.815 233.307 593.769C233.847 594.723 234.117 595.875 234.117 597.225V606H231.066V597.684C231.066 596.352 230.733 595.335 230.067 594.633C229.401 593.913 228.492 593.553 227.34 593.553C226.188 593.553 225.27 593.913 224.586 594.633C223.92 595.335 223.587 596.352 223.587 597.684V606H220.536V597.684C220.536 596.352 220.203 595.335 219.537 594.633C218.871 593.913 217.962 593.553 216.81 593.553C215.658 593.553 214.74 593.913 214.056 594.633C213.39 595.335 213.057 596.352 213.057 597.684V606H209.979V591.123H213.057V592.824C213.561 592.212 214.2 591.735 214.974 591.393C215.748 591.051 216.576 590.88 217.458 590.88C218.646 590.88 219.708 591.132 220.644 591.636C221.58 592.14 222.3 592.869 222.804 593.823C223.254 592.923 223.956 592.212 224.91 591.69C225.864 591.15 226.89 590.88 227.988 590.88ZM239.6 589.152C239.042 589.152 238.574 588.963 238.196 588.585C237.818 588.207 237.629 587.739 237.629 587.181C237.629 586.623 237.818 586.155 238.196 585.777C238.574 585.399 239.042 585.21 239.6 585.21C240.14 585.21 240.599 585.399 240.977 585.777C241.355 586.155 241.544 586.623 241.544 587.181C241.544 587.739 241.355 588.207 240.977 588.585C240.599 588.963 240.14 589.152 239.6 589.152ZM241.112 591.123V606H238.034V591.123H241.112ZM248.744 593.634V601.869C248.744 602.427 248.87 602.832 249.122 603.084C249.392 603.318 249.842 603.435 250.472 603.435H252.362V606H249.932C248.546 606 247.484 605.676 246.746 605.028C246.008 604.38 245.639 603.327 245.639 601.869V593.634H243.884V591.123H245.639V587.424H248.744V591.123H252.362V593.634H248.744Z" fill="white"/>
<path d="M102.35 659.575V677H100.075V669.1H91.2V677H88.925V659.575H91.2V667.225H100.075V659.575H102.35ZM105.385 670.1C105.385 668.7 105.668 667.475 106.235 666.425C106.801 665.358 107.576 664.533 108.56 663.95C109.56 663.367 110.668 663.075 111.885 663.075C113.085 663.075 114.126 663.333 115.01 663.85C115.893 664.367 116.551 665.017 116.985 665.8V663.3H119.285V677H116.985V674.45C116.535 675.25 115.86 675.917 114.96 676.45C114.076 676.967 113.043 677.225 111.86 677.225C110.643 677.225 109.543 676.925 108.56 676.325C107.576 675.725 106.801 674.883 106.235 673.8C105.668 672.717 105.385 671.483 105.385 670.1ZM116.985 670.125C116.985 669.092 116.776 668.192 116.36 667.425C115.943 666.658 115.376 666.075 114.66 665.675C113.96 665.258 113.185 665.05 112.335 665.05C111.485 665.05 110.71 665.25 110.01 665.65C109.31 666.05 108.751 666.633 108.335 667.4C107.918 668.167 107.71 669.067 107.71 670.1C107.71 671.15 107.918 672.067 108.335 672.85C108.751 673.617 109.31 674.208 110.01 674.625C110.71 675.025 111.485 675.225 112.335 675.225C113.185 675.225 113.96 675.025 114.66 674.625C115.376 674.208 115.943 673.617 116.36 672.85C116.776 672.067 116.985 671.158 116.985 670.125ZM128.229 674.9L132.479 663.3H134.904L129.529 677H126.879L121.504 663.3H123.954L128.229 674.9ZM149.643 669.625C149.643 670.058 149.618 670.517 149.568 671H138.618C138.701 672.35 139.159 673.408 139.993 674.175C140.843 674.925 141.868 675.3 143.068 675.3C144.051 675.3 144.868 675.075 145.518 674.625C146.184 674.158 146.651 673.542 146.918 672.775H149.368C149.001 674.092 148.268 675.167 147.168 676C146.068 676.817 144.701 677.225 143.068 677.225C141.768 677.225 140.601 676.933 139.568 676.35C138.551 675.767 137.751 674.942 137.168 673.875C136.584 672.792 136.293 671.542 136.293 670.125C136.293 668.708 136.576 667.467 137.143 666.4C137.709 665.333 138.501 664.517 139.518 663.95C140.551 663.367 141.734 663.075 143.068 663.075C144.368 663.075 145.518 663.358 146.518 663.925C147.518 664.492 148.284 665.275 148.818 666.275C149.368 667.258 149.643 668.375 149.643 669.625ZM147.293 669.15C147.293 668.283 147.101 667.542 146.718 666.925C146.334 666.292 145.809 665.817 145.143 665.5C144.493 665.167 143.768 665 142.968 665C141.818 665 140.834 665.367 140.018 666.1C139.218 666.833 138.759 667.85 138.643 669.15H147.293ZM158.461 670.1C158.461 668.7 158.744 667.475 159.311 666.425C159.877 665.358 160.652 664.533 161.636 663.95C162.636 663.367 163.744 663.075 164.961 663.075C166.161 663.075 167.202 663.333 168.086 663.85C168.969 664.367 169.627 665.017 170.061 665.8V663.3H172.361V677H170.061V674.45C169.611 675.25 168.936 675.917 168.036 676.45C167.152 676.967 166.119 677.225 164.936 677.225C163.719 677.225 162.619 676.925 161.636 676.325C160.652 675.725 159.877 674.883 159.311 673.8C158.744 672.717 158.461 671.483 158.461 670.1ZM170.061 670.125C170.061 669.092 169.852 668.192 169.436 667.425C169.019 666.658 168.452 666.075 167.736 665.675C167.036 665.258 166.261 665.05 165.411 665.05C164.561 665.05 163.786 665.25 163.086 665.65C162.386 666.05 161.827 666.633 161.411 667.4C160.994 668.167 160.786 669.067 160.786 670.1C160.786 671.15 160.994 672.067 161.411 672.85C161.827 673.617 162.386 674.208 163.086 674.625C163.786 675.025 164.561 675.225 165.411 675.225C166.261 675.225 167.036 675.025 167.736 674.625C168.452 674.208 169.019 673.617 169.436 672.85C169.852 672.067 170.061 671.158 170.061 670.125ZM182.88 663.05C184.547 663.05 185.897 663.558 186.93 664.575C187.964 665.575 188.48 667.025 188.48 668.925V677H186.23V669.25C186.23 667.883 185.889 666.842 185.205 666.125C184.522 665.392 183.589 665.025 182.405 665.025C181.205 665.025 180.247 665.4 179.53 666.15C178.83 666.9 178.48 667.992 178.48 669.425V677H176.205V663.3H178.48V665.25C178.93 664.55 179.539 664.008 180.305 663.625C181.089 663.242 181.947 663.05 182.88 663.05ZM203.996 663.3L195.746 683.45H193.396L196.096 676.85L190.571 663.3H193.096L197.396 674.4L201.646 663.3H203.996ZM215.223 665.825C215.673 665.042 216.34 664.392 217.223 663.875C218.123 663.342 219.165 663.075 220.348 663.075C221.565 663.075 222.665 663.367 223.648 663.95C224.648 664.533 225.432 665.358 225.998 666.425C226.565 667.475 226.848 668.7 226.848 670.1C226.848 671.483 226.565 672.717 225.998 673.8C225.432 674.883 224.648 675.725 223.648 676.325C222.665 676.925 221.565 677.225 220.348 677.225C219.182 677.225 218.148 676.967 217.248 676.45C216.365 675.917 215.69 675.258 215.223 674.475V683.5H212.948V663.3H215.223V665.825ZM224.523 670.1C224.523 669.067 224.315 668.167 223.898 667.4C223.482 666.633 222.915 666.05 222.198 665.65C221.498 665.25 220.723 665.05 219.873 665.05C219.04 665.05 218.265 665.258 217.548 665.675C216.848 666.075 216.282 666.667 215.848 667.45C215.432 668.217 215.223 669.108 215.223 670.125C215.223 671.158 215.432 672.067 215.848 672.85C216.282 673.617 216.848 674.208 217.548 674.625C218.265 675.025 219.04 675.225 219.873 675.225C220.723 675.225 221.498 675.025 222.198 674.625C222.915 674.208 223.482 673.617 223.898 672.85C224.315 672.067 224.523 671.15 224.523 670.1ZM232.118 665.525C232.518 664.742 233.085 664.133 233.818 663.7C234.568 663.267 235.476 663.05 236.543 663.05V665.4H235.943C233.393 665.4 232.118 666.783 232.118 669.55V677H229.843V663.3H232.118V665.525ZM245.144 677.225C243.861 677.225 242.694 676.933 241.644 676.35C240.611 675.767 239.794 674.942 239.194 673.875C238.611 672.792 238.319 671.542 238.319 670.125C238.319 668.725 238.619 667.492 239.219 666.425C239.836 665.342 240.669 664.517 241.719 663.95C242.769 663.367 243.944 663.075 245.244 663.075C246.544 663.075 247.719 663.367 248.769 663.95C249.819 664.517 250.644 665.333 251.244 666.4C251.861 667.467 252.169 668.708 252.169 670.125C252.169 671.542 251.852 672.792 251.219 673.875C250.602 674.942 249.761 675.767 248.694 676.35C247.627 676.933 246.444 677.225 245.144 677.225ZM245.144 675.225C245.961 675.225 246.727 675.033 247.444 674.65C248.161 674.267 248.736 673.692 249.169 672.925C249.619 672.158 249.844 671.225 249.844 670.125C249.844 669.025 249.627 668.092 249.194 667.325C248.761 666.558 248.194 665.992 247.494 665.625C246.794 665.242 246.036 665.05 245.219 665.05C244.386 665.05 243.619 665.242 242.919 665.625C242.236 665.992 241.686 666.558 241.269 667.325C240.852 668.092 240.644 669.025 240.644 670.125C240.644 671.242 240.844 672.183 241.244 672.95C241.661 673.717 242.211 674.292 242.894 674.675C243.577 675.042 244.327 675.225 245.144 675.225ZM257.435 665.85C257.902 665.033 258.585 664.367 259.485 663.85C260.385 663.333 261.41 663.075 262.56 663.075C263.794 663.075 264.902 663.367 265.885 663.95C266.869 664.533 267.644 665.358 268.21 666.425C268.777 667.475 269.06 668.7 269.06 670.1C269.06 671.483 268.777 672.717 268.21 673.8C267.644 674.883 266.86 675.725 265.86 676.325C264.877 676.925 263.777 677.225 262.56 677.225C261.377 677.225 260.335 676.967 259.435 676.45C258.552 675.933 257.885 675.275 257.435 674.475V677H255.16V658.5H257.435V665.85ZM266.735 670.1C266.735 669.067 266.527 668.167 266.11 667.4C265.694 666.633 265.127 666.05 264.41 665.65C263.71 665.25 262.935 665.05 262.085 665.05C261.252 665.05 260.477 665.258 259.76 665.675C259.06 666.075 258.494 666.667 258.06 667.45C257.644 668.217 257.435 669.108 257.435 670.125C257.435 671.158 257.644 672.067 258.06 672.85C258.494 673.617 259.06 674.208 259.76 674.625C260.477 675.025 261.252 675.225 262.085 675.225C262.935 675.225 263.71 675.025 264.41 674.625C265.127 674.208 265.694 673.617 266.11 672.85C266.527 672.067 266.735 671.15 266.735 670.1ZM274.33 658.5V677H272.055V658.5H274.33ZM290.707 669.625C290.707 670.058 290.682 670.517 290.632 671H279.682C279.766 672.35 280.224 673.408 281.057 674.175C281.907 674.925 282.932 675.3 284.132 675.3C285.116 675.3 285.932 675.075 286.582 674.625C287.249 674.158 287.716 673.542 287.982 672.775H290.432C290.066 674.092 289.332 675.167 288.232 676C287.132 676.817 285.766 677.225 284.132 677.225C282.832 677.225 281.666 676.933 280.632 676.35C279.616 675.767 278.816 674.942 278.232 673.875C277.649 672.792 277.357 671.542 277.357 670.125C277.357 668.708 277.641 667.467 278.207 666.4C278.774 665.333 279.566 664.517 280.582 663.95C281.616 663.367 282.799 663.075 284.132 663.075C285.432 663.075 286.582 663.358 287.582 663.925C288.582 664.492 289.349 665.275 289.882 666.275C290.432 667.258 290.707 668.375 290.707 669.625ZM288.357 669.15C288.357 668.283 288.166 667.542 287.782 666.925C287.399 666.292 286.874 665.817 286.207 665.5C285.557 665.167 284.832 665 284.032 665C282.882 665 281.899 665.367 281.082 666.1C280.282 666.833 279.824 667.85 279.707 669.15H288.357ZM310.185 663.05C311.252 663.05 312.202 663.275 313.035 663.725C313.868 664.158 314.527 664.817 315.01 665.7C315.493 666.583 315.735 667.658 315.735 668.925V677H313.485V669.25C313.485 667.883 313.143 666.842 312.46 666.125C311.793 665.392 310.885 665.025 309.735 665.025C308.552 665.025 307.61 665.408 306.91 666.175C306.21 666.925 305.86 668.017 305.86 669.45V677H303.61V669.25C303.61 667.883 303.268 666.842 302.585 666.125C301.918 665.392 301.01 665.025 299.86 665.025C298.677 665.025 297.735 665.408 297.035 666.175C296.335 666.925 295.985 668.017 295.985 669.45V677H293.71V663.3H295.985V665.275C296.435 664.558 297.035 664.008 297.785 663.625C298.552 663.242 299.393 663.05 300.31 663.05C301.46 663.05 302.477 663.308 303.36 663.825C304.243 664.342 304.902 665.1 305.335 666.1C305.718 665.133 306.352 664.383 307.235 663.85C308.118 663.317 309.102 663.05 310.185 663.05ZM323.917 659.35C325.567 659.35 326.9 659.817 327.917 660.75C328.934 661.683 329.442 662.933 329.442 664.5C329.442 666.25 328.9 667.55 327.817 668.4C326.734 669.233 325.267 669.65 323.417 669.65L323.342 672.025H321.367L321.267 668.075H321.992C323.642 668.075 324.934 667.825 325.867 667.325C326.8 666.825 327.267 665.883 327.267 664.5C327.267 663.5 326.967 662.708 326.367 662.125C325.767 661.542 324.959 661.25 323.942 661.25C322.909 661.25 322.092 661.533 321.492 662.1C320.909 662.65 320.617 663.408 320.617 664.375H318.467C318.467 663.375 318.692 662.5 319.142 661.75C319.592 660.983 320.225 660.392 321.042 659.975C321.875 659.558 322.834 659.35 323.917 659.35ZM322.342 677.15C321.909 677.15 321.542 677 321.242 676.7C320.942 676.4 320.792 676.033 320.792 675.6C320.792 675.167 320.942 674.8 321.242 674.5C321.542 674.2 321.909 674.05 322.342 674.05C322.759 674.05 323.109 674.2 323.392 674.5C323.692 674.8 323.842 675.167 323.842 675.6C323.842 676.033 323.692 676.4 323.392 676.7C323.109 677 322.759 677.15 322.342 677.15Z" fill="black"/>
<path d="M137.118 702.926C137.118 701.158 137.517 699.572 138.314 698.168C139.111 696.747 140.195 695.637 141.564 694.84C142.951 694.043 144.485 693.644 146.166 693.644C148.142 693.644 149.867 694.121 151.34 695.074C152.813 696.027 153.888 697.379 154.564 699.13H151.73C151.227 698.038 150.499 697.197 149.546 696.608C148.61 696.019 147.483 695.724 146.166 695.724C144.901 695.724 143.765 696.019 142.76 696.608C141.755 697.197 140.966 698.038 140.394 699.13C139.822 700.205 139.536 701.47 139.536 702.926C139.536 704.365 139.822 705.63 140.394 706.722C140.966 707.797 141.755 708.629 142.76 709.218C143.765 709.807 144.901 710.102 146.166 710.102C147.483 710.102 148.61 709.816 149.546 709.244C150.499 708.655 151.227 707.814 151.73 706.722H154.564C153.888 708.455 152.813 709.799 151.34 710.752C149.867 711.688 148.142 712.156 146.166 712.156C144.485 712.156 142.951 711.766 141.564 710.986C140.195 710.189 139.111 709.088 138.314 707.684C137.517 706.28 137.118 704.694 137.118 702.926ZM164.3 712.234C162.965 712.234 161.752 711.931 160.66 711.324C159.585 710.717 158.736 709.859 158.112 708.75C157.505 707.623 157.202 706.323 157.202 704.85C157.202 703.394 157.514 702.111 158.138 701.002C158.779 699.875 159.646 699.017 160.738 698.428C161.83 697.821 163.052 697.518 164.404 697.518C165.756 697.518 166.978 697.821 168.07 698.428C169.162 699.017 170.02 699.867 170.644 700.976C171.285 702.085 171.606 703.377 171.606 704.85C171.606 706.323 171.277 707.623 170.618 708.75C169.977 709.859 169.101 710.717 167.992 711.324C166.883 711.931 165.652 712.234 164.3 712.234ZM164.3 710.154C165.149 710.154 165.947 709.955 166.692 709.556C167.437 709.157 168.035 708.559 168.486 707.762C168.954 706.965 169.188 705.994 169.188 704.85C169.188 703.706 168.963 702.735 168.512 701.938C168.061 701.141 167.472 700.551 166.744 700.17C166.016 699.771 165.227 699.572 164.378 699.572C163.511 699.572 162.714 699.771 161.986 700.17C161.275 700.551 160.703 701.141 160.27 701.938C159.837 702.735 159.62 703.706 159.62 704.85C159.62 706.011 159.828 706.991 160.244 707.788C160.677 708.585 161.249 709.183 161.96 709.582C162.671 709.963 163.451 710.154 164.3 710.154ZM181.659 697.492C183.392 697.492 184.796 698.021 185.871 699.078C186.946 700.118 187.483 701.626 187.483 703.602V712H185.143V703.94C185.143 702.519 184.788 701.435 184.077 700.69C183.366 699.927 182.396 699.546 181.165 699.546C179.917 699.546 178.92 699.936 178.175 700.716C177.447 701.496 177.083 702.631 177.083 704.122V712H174.717V697.752H177.083V699.78C177.551 699.052 178.184 698.489 178.981 698.09C179.796 697.691 180.688 697.492 181.659 697.492ZM194.234 699.702V708.1C194.234 708.793 194.381 709.287 194.676 709.582C194.97 709.859 195.482 709.998 196.21 709.998H197.952V712H195.82C194.502 712 193.514 711.697 192.856 711.09C192.197 710.483 191.868 709.487 191.868 708.1V699.702H190.022V697.752H191.868V694.164H194.234V697.752H197.952V699.702H194.234ZM199.934 704.824C199.934 703.368 200.229 702.094 200.818 701.002C201.408 699.893 202.214 699.035 203.236 698.428C204.276 697.821 205.429 697.518 206.694 697.518C207.942 697.518 209.026 697.787 209.944 698.324C210.863 698.861 211.548 699.537 211.998 700.352V697.752H214.39V712H211.998V709.348C211.53 710.18 210.828 710.873 209.892 711.428C208.974 711.965 207.899 712.234 206.668 712.234C205.403 712.234 204.259 711.922 203.236 711.298C202.214 710.674 201.408 709.799 200.818 708.672C200.229 707.545 199.934 706.263 199.934 704.824ZM211.998 704.85C211.998 703.775 211.782 702.839 211.348 702.042C210.915 701.245 210.326 700.638 209.58 700.222C208.852 699.789 208.046 699.572 207.162 699.572C206.278 699.572 205.472 699.78 204.744 700.196C204.016 700.612 203.436 701.219 203.002 702.016C202.569 702.813 202.352 703.749 202.352 704.824C202.352 705.916 202.569 706.869 203.002 707.684C203.436 708.481 204.016 709.097 204.744 709.53C205.472 709.946 206.278 710.154 207.162 710.154C208.046 710.154 208.852 709.946 209.58 709.53C210.326 709.097 210.915 708.481 211.348 707.684C211.782 706.869 211.998 705.925 211.998 704.85ZM217.505 704.85C217.505 703.377 217.799 702.094 218.389 701.002C218.978 699.893 219.793 699.035 220.833 698.428C221.89 697.821 223.095 697.518 224.447 697.518C226.197 697.518 227.636 697.943 228.763 698.792C229.907 699.641 230.661 700.82 231.025 702.328H228.477C228.234 701.461 227.757 700.777 227.047 700.274C226.353 699.771 225.487 699.52 224.447 699.52C223.095 699.52 222.003 699.988 221.171 700.924C220.339 701.843 219.923 703.151 219.923 704.85C219.923 706.566 220.339 707.892 221.171 708.828C222.003 709.764 223.095 710.232 224.447 710.232C225.487 710.232 226.353 709.989 227.047 709.504C227.74 709.019 228.217 708.325 228.477 707.424H231.025C230.643 708.88 229.881 710.05 228.737 710.934C227.593 711.801 226.163 712.234 224.447 712.234C223.095 712.234 221.89 711.931 220.833 711.324C219.793 710.717 218.978 709.859 218.389 708.75C217.799 707.641 217.505 706.341 217.505 704.85ZM237.068 699.702V708.1C237.068 708.793 237.215 709.287 237.51 709.582C237.804 709.859 238.316 709.998 239.044 709.998H240.786V712H238.654C237.336 712 236.348 711.697 235.69 711.09C235.031 710.483 234.702 709.487 234.702 708.1V699.702H232.856V697.752H234.702V694.164H237.068V697.752H240.786V699.702H237.068ZM252.898 693.878V705.344C252.898 706.956 253.288 708.152 254.068 708.932C254.865 709.712 255.966 710.102 257.37 710.102C258.757 710.102 259.84 709.712 260.62 708.932C261.417 708.152 261.816 706.956 261.816 705.344V693.878H264.182V705.318C264.182 706.826 263.879 708.1 263.272 709.14C262.665 710.163 261.842 710.925 260.802 711.428C259.779 711.931 258.627 712.182 257.344 712.182C256.061 712.182 254.9 711.931 253.86 711.428C252.837 710.925 252.023 710.163 251.416 709.14C250.827 708.1 250.532 706.826 250.532 705.318V693.878H252.898ZM273.173 712.234C272.081 712.234 271.102 712.052 270.235 711.688C269.368 711.307 268.684 710.787 268.181 710.128C267.678 709.452 267.401 708.681 267.349 707.814H269.793C269.862 708.525 270.192 709.105 270.781 709.556C271.388 710.007 272.176 710.232 273.147 710.232C274.048 710.232 274.759 710.033 275.279 709.634C275.799 709.235 276.059 708.733 276.059 708.126C276.059 707.502 275.782 707.043 275.227 706.748C274.672 706.436 273.814 706.133 272.653 705.838C271.596 705.561 270.729 705.283 270.053 705.006C269.394 704.711 268.822 704.287 268.337 703.732C267.869 703.16 267.635 702.415 267.635 701.496C267.635 700.768 267.852 700.101 268.285 699.494C268.718 698.887 269.334 698.411 270.131 698.064C270.928 697.7 271.838 697.518 272.861 697.518C274.438 697.518 275.712 697.917 276.683 698.714C277.654 699.511 278.174 700.603 278.243 701.99H275.877C275.825 701.245 275.522 700.647 274.967 700.196C274.43 699.745 273.702 699.52 272.783 699.52C271.934 699.52 271.258 699.702 270.755 700.066C270.252 700.43 270.001 700.907 270.001 701.496C270.001 701.964 270.148 702.354 270.443 702.666C270.755 702.961 271.136 703.203 271.587 703.394C272.055 703.567 272.696 703.767 273.511 703.992C274.534 704.269 275.366 704.547 276.007 704.824C276.648 705.084 277.194 705.483 277.645 706.02C278.113 706.557 278.356 707.259 278.373 708.126C278.373 708.906 278.156 709.608 277.723 710.232C277.29 710.856 276.674 711.35 275.877 711.714C275.097 712.061 274.196 712.234 273.173 712.234Z" fill="#2196F3"/>
<path d="M59.279 33.218V38.835H47.553V44.903H56.327V50.356H47.553V62H40.542V33.218H59.279ZM76.5759 62.287C73.8699 62.287 71.3825 61.6583 69.1139 60.401C66.8725 59.1437 65.0822 57.3943 63.7429 55.153C62.4309 52.8843 61.7749 50.3423 61.7749 47.527C61.7749 44.7117 62.4309 42.1833 63.7429 39.942C65.0822 37.7007 66.8725 35.9513 69.1139 34.694C71.3825 33.4367 73.8699 32.808 76.5759 32.808C79.2819 32.808 81.7555 33.4367 83.9969 34.694C86.2655 35.9513 88.0422 37.7007 89.3269 39.942C90.6389 42.1833 91.2949 44.7117 91.2949 47.527C91.2949 50.3423 90.6389 52.8843 89.3269 55.153C88.0149 57.3943 86.2382 59.1437 83.9969 60.401C81.7555 61.6583 79.2819 62.287 76.5759 62.287ZM76.5759 55.891C78.8719 55.891 80.7032 55.1257 82.0699 53.595C83.4639 52.0643 84.1609 50.0417 84.1609 47.527C84.1609 44.985 83.4639 42.9623 82.0699 41.459C80.7032 39.9283 78.8719 39.163 76.5759 39.163C74.2525 39.163 72.3939 39.9147 70.9999 41.418C69.6332 42.9213 68.9499 44.9577 68.9499 47.527C68.9499 50.069 69.6332 52.1053 70.9999 53.636C72.3939 55.1393 74.2525 55.891 76.5759 55.891ZM109.873 62L103.887 51.135H102.206V62H95.1953V33.218H106.962C109.231 33.218 111.158 33.6143 112.743 34.407C114.356 35.1997 115.559 36.293 116.351 37.687C117.144 39.0537 117.54 40.5843 117.54 42.279C117.54 44.1923 116.994 45.9007 115.9 47.404C114.834 48.9073 113.249 49.9733 111.144 50.602L117.786 62H109.873ZM102.206 46.174H106.552C107.837 46.174 108.794 45.8597 109.422 45.231C110.078 44.6023 110.406 43.714 110.406 42.566C110.406 41.4727 110.078 40.6117 109.422 39.983C108.794 39.3543 107.837 39.04 106.552 39.04H102.206V46.174ZM141.047 42.32C140.528 41.3633 139.776 40.639 138.792 40.147C137.836 39.6277 136.701 39.368 135.389 39.368C133.121 39.368 131.303 40.1197 129.936 41.623C128.57 43.099 127.886 45.0807 127.886 47.568C127.886 50.2193 128.597 52.2967 130.018 53.8C131.467 55.276 133.449 56.014 135.963 56.014C137.685 56.014 139.134 55.5767 140.309 54.702C141.512 53.8273 142.387 52.57 142.933 50.93H134.036V45.764H149.288V52.283C148.769 54.0323 147.881 55.6587 146.623 57.162C145.393 58.6653 143.822 59.8817 141.908 60.811C139.995 61.7403 137.836 62.205 135.43 62.205C132.588 62.205 130.046 61.59 127.804 60.36C125.59 59.1027 123.855 57.367 122.597 55.153C121.367 52.939 120.752 50.4107 120.752 47.568C120.752 44.7253 121.367 42.197 122.597 39.983C123.855 37.7417 125.59 36.006 127.804 34.776C130.018 33.5187 132.547 32.89 135.389 32.89C138.833 32.89 141.731 33.7237 144.081 35.391C146.459 37.0583 148.031 39.368 148.796 42.32H141.047ZM166.784 62.287C164.078 62.287 161.591 61.6583 159.322 60.401C157.081 59.1437 155.29 57.3943 153.951 55.153C152.639 52.8843 151.983 50.3423 151.983 47.527C151.983 44.7117 152.639 42.1833 153.951 39.942C155.29 37.7007 157.081 35.9513 159.322 34.694C161.591 33.4367 164.078 32.808 166.784 32.808C169.49 32.808 171.964 33.4367 174.205 34.694C176.474 35.9513 178.25 37.7007 179.535 39.942C180.847 42.1833 181.503 44.7117 181.503 47.527C181.503 50.3423 180.847 52.8843 179.535 55.153C178.223 57.3943 176.446 59.1437 174.205 60.401C171.964 61.6583 169.49 62.287 166.784 62.287ZM166.784 55.891C169.08 55.891 170.911 55.1257 172.278 53.595C173.672 52.0643 174.369 50.0417 174.369 47.527C174.369 44.985 173.672 42.9623 172.278 41.459C170.911 39.9283 169.08 39.163 166.784 39.163C164.461 39.163 162.602 39.9147 161.208 41.418C159.841 42.9213 159.158 44.9577 159.158 47.527C159.158 50.069 159.841 52.1053 161.208 53.636C162.602 55.1393 164.461 55.891 166.784 55.891ZM206.108 33.218V38.835H198.482V62H191.471V38.835H183.845V33.218H206.108ZM62.477 104.484C62.477 106.151 62.0943 107.682 61.329 109.076C60.5637 110.443 59.3883 111.55 57.803 112.397C56.2177 113.244 54.2497 113.668 51.899 113.668H47.553V124H40.542V95.218H51.899C54.195 95.218 56.1357 95.6143 57.721 96.407C59.3063 97.1997 60.4953 98.293 61.288 99.687C62.0807 101.081 62.477 102.68 62.477 104.484ZM51.366 108.092C52.7053 108.092 53.703 107.778 54.359 107.149C55.015 106.52 55.343 105.632 55.343 104.484C55.343 103.336 55.015 102.448 54.359 101.819C53.703 101.19 52.7053 100.876 51.366 100.876H47.553V108.092H51.366ZM84.044 118.916H73.302L71.58 124H64.241L74.655 95.218H82.773L93.187 124H85.766L84.044 118.916ZM82.24 113.504L78.673 102.967L75.147 113.504H82.24ZM106.77 124.287C104.666 124.287 102.78 123.945 101.112 123.262C99.4451 122.579 98.1058 121.567 97.0944 120.228C96.1104 118.889 95.5911 117.276 95.5364 115.39H102.998C103.108 116.456 103.477 117.276 104.105 117.85C104.734 118.397 105.554 118.67 106.565 118.67C107.604 118.67 108.424 118.438 109.025 117.973C109.627 117.481 109.927 116.811 109.927 115.964C109.927 115.253 109.681 114.666 109.189 114.201C108.725 113.736 108.137 113.354 107.426 113.053C106.743 112.752 105.759 112.411 104.474 112.028C102.616 111.454 101.099 110.88 99.9234 110.306C98.7481 109.732 97.7368 108.885 96.8894 107.764C96.0421 106.643 95.6184 105.181 95.6184 103.377C95.6184 100.698 96.5888 98.6073 98.5294 97.104C100.47 95.5733 102.998 94.808 106.114 94.808C109.285 94.808 111.841 95.5733 113.781 97.104C115.722 98.6073 116.761 100.712 116.897 103.418H109.312C109.258 102.489 108.916 101.764 108.287 101.245C107.659 100.698 106.852 100.425 105.868 100.425C105.021 100.425 104.338 100.657 103.818 101.122C103.299 101.559 103.039 102.202 103.039 103.049C103.039 103.978 103.477 104.703 104.351 105.222C105.226 105.741 106.593 106.302 108.451 106.903C110.31 107.532 111.813 108.133 112.961 108.707C114.137 109.281 115.148 110.115 115.995 111.208C116.843 112.301 117.266 113.709 117.266 115.431C117.266 117.071 116.843 118.561 115.995 119.9C115.175 121.239 113.973 122.305 112.387 123.098C110.802 123.891 108.93 124.287 106.77 124.287ZM131.995 124.287C129.89 124.287 128.004 123.945 126.337 123.262C124.67 122.579 123.33 121.567 122.319 120.228C121.335 118.889 120.816 117.276 120.761 115.39H128.223C128.332 116.456 128.701 117.276 129.33 117.85C129.959 118.397 130.779 118.67 131.79 118.67C132.829 118.67 133.649 118.438 134.25 117.973C134.851 117.481 135.152 116.811 135.152 115.964C135.152 115.253 134.906 114.666 134.414 114.201C133.949 113.736 133.362 113.354 132.651 113.053C131.968 112.752 130.984 112.411 129.699 112.028C127.84 111.454 126.323 110.88 125.148 110.306C123.973 109.732 122.961 108.885 122.114 107.764C121.267 106.643 120.843 105.181 120.843 103.377C120.843 100.698 121.813 98.6073 123.754 97.104C125.695 95.5733 128.223 94.808 131.339 94.808C134.51 94.808 137.065 95.5733 139.006 97.104C140.947 98.6073 141.985 100.712 142.122 103.418H134.537C134.482 102.489 134.141 101.764 133.512 101.245C132.883 100.698 132.077 100.425 131.093 100.425C130.246 100.425 129.562 100.657 129.043 101.122C128.524 101.559 128.264 102.202 128.264 103.049C128.264 103.978 128.701 104.703 129.576 105.222C130.451 105.741 131.817 106.302 133.676 106.903C135.535 107.532 137.038 108.133 138.186 108.707C139.361 109.281 140.373 110.115 141.22 111.208C142.067 112.301 142.491 113.709 142.491 115.431C142.491 117.071 142.067 118.561 141.22 119.9C140.4 121.239 139.197 122.305 137.612 123.098C136.027 123.891 134.154 124.287 131.995 124.287ZM186.412 95.218L178.909 124H170.422L165.83 105.058L161.074 124H152.587L145.289 95.218H152.792L156.933 116.169L162.058 95.218H169.766L174.686 116.169L178.868 95.218H186.412ZM203.54 124.287C200.834 124.287 198.346 123.658 196.078 122.401C193.836 121.144 192.046 119.394 190.707 117.153C189.395 114.884 188.739 112.342 188.739 109.527C188.739 106.712 189.395 104.183 190.707 101.942C192.046 99.7007 193.836 97.9513 196.078 96.694C198.346 95.4367 200.834 94.808 203.54 94.808C206.246 94.808 208.719 95.4367 210.961 96.694C213.229 97.9513 215.006 99.7007 216.291 101.942C217.603 104.183 218.259 106.712 218.259 109.527C218.259 112.342 217.603 114.884 216.291 117.153C214.979 119.394 213.202 121.144 210.961 122.401C208.719 123.658 206.246 124.287 203.54 124.287ZM203.54 117.891C205.836 117.891 207.667 117.126 209.034 115.595C210.428 114.064 211.125 112.042 211.125 109.527C211.125 106.985 210.428 104.962 209.034 103.459C207.667 101.928 205.836 101.163 203.54 101.163C201.216 101.163 199.358 101.915 197.964 103.418C196.597 104.921 195.914 106.958 195.914 109.527C195.914 112.069 196.597 114.105 197.964 115.636C199.358 117.139 201.216 117.891 203.54 117.891ZM236.837 124L230.851 113.135H229.17V124H222.159V95.218H233.926C236.195 95.218 238.122 95.6143 239.707 96.407C241.32 97.1997 242.523 98.293 243.315 99.687C244.108 101.054 244.504 102.584 244.504 104.279C244.504 106.192 243.958 107.901 242.864 109.404C241.798 110.907 240.213 111.973 238.108 112.602L244.75 124H236.837ZM229.17 108.174H233.516C234.801 108.174 235.758 107.86 236.386 107.231C237.042 106.602 237.37 105.714 237.37 104.566C237.37 103.473 237.042 102.612 236.386 101.983C235.758 101.354 234.801 101.04 233.516 101.04H229.17V108.174ZM259.688 95.218C262.722 95.218 265.374 95.8193 267.642 97.022C269.911 98.2247 271.66 99.9193 272.89 102.106C274.148 104.265 274.776 106.766 274.776 109.609C274.776 112.424 274.148 114.925 272.89 117.112C271.66 119.299 269.897 120.993 267.601 122.196C265.333 123.399 262.695 124 259.688 124H248.905V95.218H259.688ZM259.237 117.932C261.889 117.932 263.952 117.208 265.428 115.759C266.904 114.31 267.642 112.26 267.642 109.609C267.642 106.958 266.904 104.894 265.428 103.418C263.952 101.942 261.889 101.204 259.237 101.204H255.916V117.932H259.237Z" fill="white"/>
</g>
<defs>
<linearGradient id="paint0_linear" x1="205" y1="565" x2="205" y2="755.421" gradientUnits="userSpaceOnUse">
<stop stop-color="#41FF98"/>
<stop offset="0.296296" stop-color="#39C87A"/>
<stop offset="1" stop-color="#254433"/>
</linearGradient>
<clipPath id="clip0">
<rect width="414" height="896" fill="white"/>
</clipPath>
</defs>
</svg>
