<svg width="30" height="34" viewBox="0 0 53 48" fill="none" xmlns="http://www.w3.org/2000/svg">
<path d="M15.4583 36C13.0291 36 11.0637 37.8 11.0637 40C11.0637 42.2 13.0291 44 15.4583 44C17.8875 44 19.875 42.2 19.875 40C19.875 37.8 17.8875 36 15.4583 36ZM2.20831 4V8H6.62498L14.575 23.18L11.5937 28.08C11.2404 28.64 11.0416 29.3 11.0416 30C11.0416 32.2 13.0291 34 15.4583 34H41.9583V30H16.3858C16.0766 30 15.8337 29.78 15.8337 29.5L15.9 29.26L17.8875 26H34.3396C35.9958 26 37.4533 25.18 38.2041 23.94L46.11 10.96C46.2866 10.68 46.375 10.34 46.375 10C46.375 8.9 45.3812 8 44.1666 8H11.5054L9.42956 4H2.20831ZM37.5416 36C35.1125 36 33.1471 37.8 33.1471 40C33.1471 42.2 35.1125 44 37.5416 44C39.9708 44 41.9583 42.2 41.9583 40C41.9583 37.8 39.9708 36 37.5416 36Z" fill="black"/>
</svg>
