<svg width="32" height="32" viewBox="0 0 32 32" fill="none" xmlns="http://www.w3.org/2000/svg">
<g clip-path="url(#clip0)">
<path d="M18.9317 15.9737L31.3919 28.4343C32.2028 29.2448 32.2028 30.5553 31.3919 31.3658C30.5814 32.1763 29.2709 32.1763 28.4604 31.3658L15.9998 18.9052L3.53966 31.3658C2.72877 32.1763 1.41867 32.1763 0.608165 31.3658C-0.202722 30.5553 -0.202722 29.2448 0.608165 28.4343L13.0683 15.9737L0.608165 3.5132C-0.202722 2.70269 -0.202722 1.39222 0.608165 0.581711C1.01209 0.177406 1.54319 -0.0256958 2.07391 -0.0256958C2.60463 -0.0256958 3.13535 0.177406 3.53966 0.581711L15.9998 13.0423L28.4604 0.581711C28.8647 0.177406 29.3954 -0.0256958 29.9261 -0.0256958C30.4568 -0.0256958 30.9876 0.177406 31.3919 0.581711C32.2028 1.39222 32.2028 2.70269 31.3919 3.5132L18.9317 15.9737Z" fill="black"/>
</g>
<defs>
<clipPath id="clip0">
<rect width="32" height="32" fill="white" transform="matrix(1 0 0 -1 0 32)"/>
</clipPath>
</defs>
</svg>
