<svg width="22" height="24" viewBox="0 0 22 24" fill="none" xmlns="http://www.w3.org/2000/svg">
<path d="M12.8333 6.375V0H1.375C0.613021 0 0 0.501562 0 1.125V22.875C0 23.4984 0.613021 24 1.375 24H20.625C21.387 24 22 23.4984 22 22.875V7.5H14.2083C13.4521 7.5 12.8333 6.99375 12.8333 6.375ZM16.5676 16.5005H12.8333V20.2505C12.8333 20.6648 12.4231 21.0005 11.9167 21.0005H10.0833C9.57687 21.0005 9.16667 20.6648 9.16667 20.2505V16.5005H5.4324C4.61427 16.5005 4.20578 15.69 4.78672 15.218L10.3108 10.732C10.6918 10.4222 11.3071 10.4222 11.6881 10.732L17.2121 15.218C17.7936 15.69 17.3857 16.5005 16.5676 16.5005ZM21.599 4.92188L15.9901 0.328125C15.7323 0.117188 15.3828 0 15.0161 0H14.6667V6H22V5.71406C22 5.41875 21.8568 5.13281 21.599 4.92188Z" fill="black"/>
</svg>
