
		<svg  viewBox="0 0 500 378" fill="none" xmlns="http://www.w3.org/2000/svg">
<g clip-path="url(#clip0)">
<path d="M290.478 369.357H174.679L178.605 319.728H286.553L290.478 369.357Z" fill="#E6E6E6"/>
<path d="M298.329 363.63H168.792V375.083H298.329V363.63Z" fill="#E6E6E6"/>
<path d="M454.363 0H11.7761C8.65292 0 5.65761 1.20665 3.44916 3.35449C1.2407 5.50233 0 8.41542 0 11.4529V273.916H466.139V11.4529C466.139 8.41542 464.898 5.50233 462.69 3.35449C460.482 1.20665 457.486 0 454.363 0Z" fill="#3F3D56"/>
<path d="M0 273.916V316.864C0 318.368 0.304595 319.858 0.896402 321.247C1.48821 322.637 2.35564 323.899 3.44916 324.963C4.54267 326.026 5.84087 326.87 7.26962 327.445C8.69836 328.021 10.2297 328.317 11.7761 328.317H454.363C455.909 328.317 457.441 328.021 458.869 327.445C460.298 326.87 461.596 326.026 462.69 324.963C463.783 323.899 464.651 322.637 465.243 321.247C465.835 319.858 466.139 318.368 466.139 316.864V273.916H0Z" fill="#E6E6E6"/>
<path d="M443.568 23.8603H23.5522V252.919H443.568V23.8603Z" fill="#E6E6E6"/>
<path d="M233.56 312.092C240.064 312.092 245.336 306.964 245.336 300.639C245.336 294.314 240.064 289.186 233.56 289.186C227.057 289.186 221.784 294.314 221.784 300.639C221.784 306.964 227.057 312.092 233.56 312.092Z" fill="#3F3D56"/>
<path d="M36.6484 33.5352C37.8826 33.5352 38.8832 32.5621 38.8832 31.3617C38.8832 30.1613 37.8826 29.1882 36.6484 29.1882C35.4141 29.1882 34.4136 30.1613 34.4136 31.3617C34.4136 32.5621 35.4141 33.5352 36.6484 33.5352Z" fill="white"/>
<path d="M45.1313 33.5352C46.3655 33.5352 47.3661 32.5621 47.3661 31.3617C47.3661 30.1613 46.3655 29.1882 45.1313 29.1882C43.897 29.1882 42.8965 30.1613 42.8965 31.3617C42.8965 32.5621 43.897 33.5352 45.1313 33.5352Z" fill="white"/>
<path d="M53.6142 33.5352C54.8485 33.5352 55.849 32.5621 55.849 31.3617C55.849 30.1613 54.8485 29.1882 53.6142 29.1882C52.38 29.1882 51.3794 30.1613 51.3794 31.3617C51.3794 32.5621 52.38 33.5352 53.6142 33.5352Z" fill="white"/>
<path d="M482.185 154.909C482.185 154.909 485.784 200.419 480.745 201.819C475.705 203.22 457.708 213.722 428.911 210.921C428.911 210.921 400.835 225.624 405.154 211.621C409.474 197.618 428.911 201.119 428.911 201.119C428.911 201.119 463.467 194.118 464.907 189.217C466.347 184.316 460.587 164.011 462.747 163.311C464.907 162.611 482.185 154.909 482.185 154.909Z" fill="#FFB8B8"/>
<path opacity="0.2" d="M479.763 155.498C479.763 155.498 483.362 201.008 478.323 202.408C473.284 203.808 455.286 214.311 426.49 211.51C426.49 211.51 398.413 226.213 402.733 212.21C407.052 198.207 426.49 201.708 426.49 201.708C426.49 201.708 461.045 194.706 462.485 189.805C463.925 184.904 458.165 164.6 460.325 163.9C462.485 163.2 479.763 155.498 479.763 155.498Z" fill="#231F20"/>
<path d="M439.34 228.708C439.34 228.708 441.87 305.303 446.189 315.106C449.787 323.27 451.887 349.895 452.488 358.562C452.608 360.3 452.669 361.315 452.669 361.315C452.669 361.315 464.187 361.315 464.907 358.515C465.627 355.714 467.787 324.908 464.907 315.106C462.027 305.303 469.01 232.831 469.01 232.831L439.34 228.708Z" fill="#2F2E41"/>
<path d="M455.548 357.815C455.548 357.815 448.349 359.915 446.909 362.716C445.469 365.516 421.712 370.417 428.911 373.918C436.111 377.419 457.708 371.117 457.708 371.117C457.708 371.117 469.226 370.417 468.506 366.216C467.787 362.016 465.165 356.839 465.165 356.839L455.548 357.815Z" fill="#2F2E41"/>
<path d="M475.705 360.053C475.705 360.053 468.506 362.153 467.067 364.954C465.627 367.754 441.87 372.655 449.069 376.156C456.268 379.657 477.865 373.356 477.865 373.356C477.865 373.356 489.384 372.655 488.664 368.455C487.944 364.254 485.322 359.077 485.322 359.077L475.705 360.053Z" fill="#2F2E41"/>
<path d="M445.469 232.626L455.548 249.429L472.369 307.852C472.369 307.852 470.666 361.453 472.826 361.453C474.986 361.453 486.504 364.954 487.224 361.453C487.832 358.496 495.895 330.169 491.876 311.314C489.262 299.398 487.58 287.306 486.846 275.142L485.064 242.428C485.064 242.428 492.263 229.825 484.345 227.725C476.426 225.624 445.469 232.626 445.469 232.626Z" fill="#2F2E41"/>
<path d="M454.828 124.803C464.371 124.803 472.106 117.28 472.106 107.999C472.106 98.7189 464.371 91.1957 454.828 91.1957C445.286 91.1957 437.551 98.7189 437.551 107.999C437.551 117.28 445.286 124.803 454.828 124.803Z" fill="#FFB8B8"/>
<path d="M452.668 119.202C452.668 119.202 455.548 141.606 454.828 143.007C454.108 144.407 472.106 127.603 472.106 127.603C472.106 127.603 465.627 117.801 467.067 112.9L452.668 119.202Z" fill="#FFB8B8"/>
<path d="M492.984 141.606C492.984 141.606 472.826 127.603 472.106 124.803L456.988 137.406L454.419 134.432C454.419 134.432 442.59 145.807 442.59 150.708C442.59 155.609 441.87 170.313 444.03 174.513C446.189 178.714 437.551 231.926 437.551 231.926C437.551 231.926 444.75 238.227 445.47 238.927C446.189 239.627 474.986 234.726 474.986 234.726C474.986 234.726 489.384 233.326 489.384 231.225C489.384 229.125 485.065 197.618 486.504 189.217C487.944 180.815 492.984 141.606 492.984 141.606Z" fill="#575A89"/>
<path d="M447.448 99.6051C449.81 98.7876 452.415 98.3678 454.823 99.0455C458.232 100.005 460.592 102.91 463.138 105.313C465.684 107.717 469.254 109.846 472.606 108.716C472.404 107.303 472.785 105.87 473.667 104.729C474.104 104.304 474.428 103.78 474.608 103.205C474.752 102.305 473.973 101.529 473.74 100.647C473.331 99.1011 474.452 96.9852 473.074 96.119C472.71 95.8903 472.249 95.8382 471.894 95.5969C470.501 94.6497 472.048 92.294 471.127 90.9045C470.851 90.5457 470.493 90.2548 470.08 90.0552C463.4 86.2643 455.23 86.2539 447.497 86.3494C446.42 86.3627 444.921 86.8827 445.225 87.8873C443.763 86.867 441.85 88.2997 440.671 89.6222L438.26 92.3289C437.127 93.506 436.138 94.8069 435.313 96.2056C434.577 97.5755 434.414 99.6817 435.88 100.279C434.79 99.8349 433.468 106.113 438.492 105.08C441.412 104.48 444.273 100.704 447.448 99.6051Z" fill="#2F2E41"/>
<path d="M431.463 38.7471H34.4136V231.119H431.463V38.7471Z" fill="white"/>
<path d="M145.165 67.0176H58.3848V140.731H145.165V67.0176Z" fill="#E6E6E6"/>
<path d="M276.463 67.2393H189.944V140.731H276.463V67.2393Z" fill="#E6E6E6"/>
<path d="M407.492 66.5184H320.124V140.731H407.492V66.5184Z" fill="#E6E6E6"/>
<path d="M143.261 172.907H58.3848V180.532H143.261V172.907Z" fill="#E6E6E6"/>
<path d="M100.91 186.332H58.3848V193.957H100.91V186.332Z" fill="#41FF98"/>
<path d="M276.234 172.907H191.358V180.532H276.234V172.907Z" fill="#E6E6E6"/>
<path d="M233.883 186.332H191.358V193.957H233.883V186.332Z" fill="#41FF98"/>
<path d="M405.883 172.907H321.007V180.532H405.883V172.907Z" fill="#E6E6E6"/>
<path d="M363.532 186.332H321.007V193.957H363.532V186.332Z" fill="#41FF98"/>
<path d="M217.729 160.691C219.942 160.691 221.736 158.946 221.736 156.794C221.736 154.642 219.942 152.897 217.729 152.897C215.516 152.897 213.722 154.642 213.722 156.794C213.722 158.946 215.516 160.691 217.729 160.691Z" fill="#41FF98"/>
<path d="M232.938 160.691C235.151 160.691 236.945 158.946 236.945 156.794C236.945 154.642 235.151 152.897 232.938 152.897C230.725 152.897 228.931 154.642 228.931 156.794C228.931 158.946 230.725 160.691 232.938 160.691Z" fill="#E6E6E6"/>
<path d="M248.147 160.691C250.36 160.691 252.154 158.946 252.154 156.794C252.154 154.642 250.36 152.897 248.147 152.897C245.935 152.897 244.141 154.642 244.141 156.794C244.141 158.946 245.935 160.691 248.147 160.691Z" fill="#E6E6E6"/>
<path d="M86.5659 160.691C88.7789 160.691 90.5728 158.946 90.5728 156.794C90.5728 154.642 88.7789 152.897 86.5659 152.897C84.353 152.897 82.5591 154.642 82.5591 156.794C82.5591 158.946 84.353 160.691 86.5659 160.691Z" fill="#41FF98"/>
<path d="M101.775 160.691C103.988 160.691 105.782 158.946 105.782 156.794C105.782 154.642 103.988 152.897 101.775 152.897C99.562 152.897 97.7681 154.642 97.7681 156.794C97.7681 158.946 99.562 160.691 101.775 160.691Z" fill="#41FF98"/>
<path d="M116.984 160.691C119.197 160.691 120.991 158.946 120.991 156.794C120.991 154.642 119.197 152.897 116.984 152.897C114.771 152.897 112.977 154.642 112.977 156.794C112.977 158.946 114.771 160.691 116.984 160.691Z" fill="#E6E6E6"/>
<path d="M352.127 160.691C354.34 160.691 356.134 158.946 356.134 156.794C356.134 154.642 354.34 152.897 352.127 152.897C349.914 152.897 348.12 154.642 348.12 156.794C348.12 158.946 349.914 160.691 352.127 160.691Z" fill="#41FF98"/>
<path d="M367.336 160.691C369.549 160.691 371.343 158.946 371.343 156.794C371.343 154.642 369.549 152.897 367.336 152.897C365.123 152.897 363.329 154.642 363.329 156.794C363.329 158.946 365.123 160.691 367.336 160.691Z" fill="#41FF98"/>
<path d="M382.545 160.691C384.758 160.691 386.552 158.946 386.552 156.794C386.552 154.642 384.758 152.897 382.545 152.897C380.332 152.897 378.538 154.642 378.538 156.794C378.538 158.946 380.332 160.691 382.545 160.691Z" fill="#41FF98"/>
<path d="M363.808 82.0212C359.415 82.0212 355.12 83.2883 351.467 85.6621C347.814 88.036 344.967 91.41 343.285 95.3576C341.604 99.3051 341.164 103.649 342.021 107.84C342.878 112.03 344.994 115.88 348.101 118.901C351.207 121.922 355.165 123.98 359.474 124.814C363.783 125.647 368.25 125.219 372.309 123.584C376.368 121.949 379.837 119.18 382.278 115.627C384.718 112.075 386.021 107.898 386.021 103.625C386.004 97.9004 383.658 92.4152 379.496 88.3673C375.334 84.3195 369.694 82.038 363.808 82.0212ZM363.808 88.5023C365.126 88.5023 366.414 88.8824 367.51 89.5946C368.606 90.3068 369.46 91.319 369.965 92.5032C370.469 93.6875 370.601 94.9906 370.344 96.2478C370.087 97.5051 369.452 98.6599 368.52 99.5663C367.588 100.473 366.401 101.09 365.108 101.34C363.815 101.59 362.475 101.462 361.258 100.971C360.04 100.481 358.999 99.65 358.267 98.5842C357.535 97.5184 357.144 96.2653 357.144 94.9834C357.15 93.2663 357.854 91.6212 359.102 90.4069C360.351 89.1927 362.042 88.5081 363.808 88.5023ZM363.808 119.703C361.175 119.691 358.585 119.055 356.263 117.85C353.94 116.644 351.955 114.906 350.48 112.786C350.587 108.465 359.365 106.086 363.808 106.086C368.251 106.086 377.029 108.465 377.136 112.786C375.659 114.904 373.673 116.642 371.351 117.847C369.029 119.052 366.44 119.689 363.808 119.703Z" fill="#41FF98"/>
<path d="M233.203 82.3817C228.81 82.3817 224.515 83.6487 220.862 86.0226C217.209 88.3964 214.362 91.7704 212.681 95.718C211 99.6656 210.56 104.009 211.417 108.2C212.274 112.391 214.39 116.24 217.496 119.261C220.603 122.283 224.561 124.34 228.87 125.174C233.179 126.008 237.645 125.58 241.704 123.945C245.763 122.309 249.232 119.54 251.673 115.988C254.114 112.435 255.417 108.258 255.417 103.985C255.4 98.2609 253.054 92.7757 248.892 88.7278C244.729 84.68 239.089 82.3985 233.203 82.3817ZM233.203 88.8628C234.521 88.8628 235.81 89.2429 236.906 89.9551C238.002 90.6672 238.856 91.6794 239.36 92.8637C239.865 94.048 239.997 95.3511 239.739 96.6083C239.482 97.8655 238.848 99.0204 237.916 99.9268C236.984 100.833 235.796 101.45 234.503 101.701C233.211 101.951 231.871 101.822 230.653 101.332C229.436 100.841 228.395 100.01 227.662 98.9446C226.93 97.8788 226.539 96.6258 226.539 95.3439C226.545 93.6268 227.249 91.9816 228.498 90.7674C229.746 89.5532 231.438 88.8685 233.203 88.8628ZM233.203 120.063C230.571 120.052 227.981 119.416 225.658 118.21C223.336 117.005 221.351 115.267 219.875 113.146C219.982 108.825 228.761 106.447 233.203 106.447C237.646 106.447 246.425 108.825 246.531 113.146C245.054 115.265 243.069 117.002 240.747 118.207C238.425 119.412 235.835 120.05 233.203 120.063Z" fill="#41FF98"/>
<path d="M101.775 82.2708C97.3815 82.2708 93.0868 83.5379 89.4338 85.9117C85.7808 88.2856 82.9337 91.6596 81.2524 95.6072C79.5711 99.5547 79.1313 103.898 79.9884 108.089C80.8455 112.28 82.9611 116.129 86.0677 119.151C89.1743 122.172 93.1323 124.23 97.4413 125.063C101.75 125.897 106.217 125.469 110.276 123.834C114.335 122.199 117.804 119.43 120.245 115.877C122.685 112.324 123.988 108.147 123.988 103.875C123.971 98.15 121.625 92.6648 117.463 88.6169C113.301 84.5691 107.661 82.2876 101.775 82.2708ZM101.775 88.7519C103.093 88.7519 104.381 89.1321 105.477 89.8442C106.573 90.5564 107.427 91.5686 107.932 92.7528C108.436 93.9371 108.568 95.2402 108.311 96.4975C108.054 97.7547 107.419 98.9095 106.487 99.8159C105.555 100.722 104.368 101.34 103.075 101.59C101.782 101.84 100.442 101.711 99.2247 101.221C98.007 100.73 96.9662 99.8996 96.234 98.8338C95.5017 97.768 95.1109 96.5149 95.1109 95.2331C95.1168 93.5159 95.8208 91.8708 97.0693 90.6566C98.3177 89.4424 100.009 88.7577 101.775 88.752V88.7519ZM101.775 119.953C99.1424 119.941 96.5525 119.305 94.23 118.099C91.9074 116.894 89.9223 115.156 88.4469 113.035C88.5537 108.715 97.3322 106.336 101.775 106.336C106.218 106.336 114.996 108.715 115.103 113.035C113.626 115.154 111.64 116.891 109.318 118.096C106.996 119.302 104.407 119.939 101.775 119.953Z" fill="#41FF98"/>
<path d="M497.303 161.211C497.303 161.211 500.902 206.72 495.863 208.121C490.824 209.521 472.826 220.023 444.03 217.223C444.03 217.223 415.953 231.926 420.273 217.923C424.592 203.92 444.03 207.42 444.03 207.42C444.03 207.42 478.585 200.419 480.025 195.518C481.465 190.617 475.705 170.313 477.865 169.612C480.025 168.912 497.303 161.211 497.303 161.211Z" fill="#FFB8B8"/>
<path d="M481.465 143.007L492.983 141.606C492.983 141.606 504.502 163.311 498.023 166.812C491.544 170.313 474.986 173.113 474.986 171.713C474.986 170.313 481.465 143.007 481.465 143.007Z" fill="#575A89"/>
</g>
<defs>
<clipPath id="clip0">
<rect width="500" height="377.215" fill="white"/>
</clipPath>
</defs>
</svg>

