
		<svg  viewBox="0 0 324 202" fill="none" xmlns="http://www.w3.org/2000/svg">
<path opacity="0.1" d="M317.732 49.956C314.42 44.2851 310.078 39.13 304.878 34.6949L126.575 33.3857L273.379 18.021C263.773 15.1879 253.722 13.7022 243.594 13.6181C229.461 5.11312 211.297 0 191.484 0C173.707 0 157.269 4.11729 143.868 11.1033C132.467 6.72314 119.49 4.24872 105.701 4.24872C66.0846 4.24872 33.0738 24.6962 25.6677 51.8137L317.732 49.956Z" fill="#41FF98"/>
<path opacity="0.1" d="M324 72.6908C323.988 65.2604 322.089 57.9267 318.443 51.2273L9.42181 75.4078C6.28571 79.6231 3.84787 84.2113 2.18198 89.0336L97.8767 99.6642L0 107.416C2.94467 138.112 38.2578 162.354 81.3957 162.354C103.109 162.354 122.839 156.209 137.459 146.193C152.125 156.399 172.035 162.67 193.993 162.67C226.556 162.67 254.664 148.852 267.753 128.872C294.011 122.662 314.409 107.065 321.391 87.5575L200.372 73.5754H324C324 73.2848 324 72.9916 324 72.6908Z" fill="#41FF98"/>
<path d="M81.2638 139.788C81.2638 139.788 68.0113 122.932 70.2621 107.024C71.2531 100.357 69.7641 93.5869 66.0186 87.7294C64.2162 84.9603 62.1296 82.3426 59.7852 79.9093" stroke="#535461" stroke-width="2" stroke-miterlimit="10"/>
<path d="M61.1357 69.8777C61.9958 72.1651 59.7852 80.1747 59.7852 80.1747C59.7852 80.1747 52.5912 74.9099 51.7311 72.62C51.3185 71.5207 51.4183 70.3219 52.0084 69.2874C52.5986 68.2529 53.6308 67.4674 54.8779 67.1037C56.125 66.7401 57.4849 66.828 58.6585 67.3483C59.8321 67.8685 60.7231 68.7783 61.1357 69.8777Z" fill="#41FF98"/>
<path d="M73.6655 80.2884C72.9773 82.6213 66.1848 88.2854 66.1848 88.2854C66.1848 88.2854 63.3921 80.4199 64.0831 78.087C64.2394 77.5251 64.5208 76.9962 64.9111 76.531C65.3013 76.0658 65.7926 75.6737 66.3563 75.3774C66.92 75.0811 67.5449 74.8865 68.1947 74.805C68.8444 74.7235 69.5061 74.7566 70.1412 74.9025C70.7763 75.0485 71.3722 75.3042 71.8941 75.6549C72.4161 76.0056 72.8538 76.4443 73.1817 76.9455C73.5097 77.4466 73.7213 78.0002 73.8043 78.5741C73.8874 79.148 73.8402 79.7308 73.6655 80.2884Z" fill="#41FF98"/>
<path d="M81.4618 102.053C79.5293 103.761 70.4229 105.627 70.4229 105.627C70.4229 105.627 72.5188 97.5942 74.437 95.8881C75.3644 95.0683 76.6232 94.6068 77.9366 94.6052C79.2499 94.6035 80.5103 95.0618 81.4403 95.8793C82.3703 96.6968 82.8938 97.8064 82.8957 98.9642C82.8976 100.122 82.3777 101.233 81.4503 102.053H81.4618Z" fill="#41FF98"/>
<path d="M83.1505 119.702C81.5736 121.671 72.9546 124.868 72.9546 124.868C72.9546 124.868 73.4793 116.639 75.0563 114.67C75.8133 113.724 76.9657 113.081 78.26 112.884C79.5543 112.687 80.8844 112.951 81.9578 113.619C83.0311 114.286 83.7598 115.302 83.9835 116.443C84.2072 117.583 83.9076 118.756 83.1505 119.702Z" fill="#41FF98"/>
<path d="M56.4849 91.6091C58.945 92.6605 68.2407 91.781 68.2407 91.781C68.2407 91.781 63.2631 84.8051 60.7858 83.7511C59.6111 83.2949 58.2813 83.2586 57.0768 83.65C55.8724 84.0414 54.8874 84.8297 54.3296 85.8489C53.7718 86.868 53.6848 88.0383 54.0868 89.1129C54.4889 90.1875 55.3487 91.0825 56.4849 91.6091Z" fill="#41FF98"/>
<path d="M58.7529 112.216C61.4596 112.57 70.0327 109.279 70.0327 109.279C70.0327 109.279 62.9133 103.933 60.2123 103.579C59.569 103.495 58.9132 103.523 58.2823 103.662C57.6513 103.801 57.0576 104.049 56.5351 104.39C55.4799 105.08 54.7785 106.11 54.5854 107.256C54.3922 108.401 54.7231 109.567 55.5052 110.497C56.2873 111.427 57.4566 112.045 58.7558 112.216H58.7529Z" fill="#41FF98"/>
<path d="M64.0804 131.976C66.681 132.734 75.7616 130.763 75.7616 130.763C75.7616 130.763 69.769 124.444 67.1598 123.686C66.5419 123.507 65.8901 123.437 65.2416 123.48C64.593 123.523 63.9605 123.678 63.3801 123.937C62.7997 124.196 62.2827 124.553 61.8588 124.987C61.4348 125.422 61.1121 125.926 60.9092 126.471C60.7062 127.015 60.627 127.59 60.6759 128.162C60.7249 128.733 60.9011 129.291 61.1945 129.803C61.4879 130.314 61.8928 130.77 62.3859 131.144C62.8791 131.517 63.451 131.802 64.0689 131.981L64.0804 131.976Z" fill="#41FF98"/>
<path opacity="0.25" d="M61.1357 69.8777C61.9958 72.1651 59.7852 80.1747 59.7852 80.1747C59.7852 80.1747 52.5912 74.9099 51.7311 72.62C51.3185 71.5207 51.4183 70.3219 52.0084 69.2874C52.5986 68.2529 53.6308 67.4674 54.8779 67.1037C56.125 66.7401 57.4849 66.828 58.6585 67.3483C59.8321 67.8685 60.7231 68.7783 61.1357 69.8777Z" fill="black"/>
<path opacity="0.25" d="M73.6655 80.2884C72.9773 82.6213 66.1848 88.2854 66.1848 88.2854C66.1848 88.2854 63.3921 80.4199 64.0831 78.087C64.2394 77.5251 64.5208 76.9962 64.9111 76.531C65.3013 76.0658 65.7926 75.6737 66.3563 75.3774C66.92 75.0811 67.5449 74.8865 68.1947 74.805C68.8444 74.7235 69.5061 74.7566 70.1412 74.9025C70.7763 75.0485 71.3722 75.3042 71.8941 75.6549C72.4161 76.0056 72.8538 76.4443 73.1817 76.9455C73.5097 77.4466 73.7213 78.0002 73.8043 78.5741C73.8874 79.148 73.8402 79.7308 73.6655 80.2884Z" fill="black"/>
<path opacity="0.25" d="M81.4618 102.053C79.5293 103.761 70.4229 105.627 70.4229 105.627C70.4229 105.627 72.5188 97.5942 74.437 95.8881C75.3644 95.0683 76.6232 94.6068 77.9366 94.6052C79.2499 94.6035 80.5103 95.0618 81.4403 95.8793C82.3703 96.6968 82.8938 97.8064 82.8957 98.9642C82.8976 100.122 82.3777 101.233 81.4503 102.053H81.4618Z" fill="black"/>
<path opacity="0.25" d="M83.1505 119.702C81.5736 121.671 72.9546 124.868 72.9546 124.868C72.9546 124.868 73.4793 116.639 75.0563 114.67C75.8133 113.724 76.9657 113.081 78.26 112.884C79.5543 112.687 80.8844 112.951 81.9578 113.619C83.0311 114.286 83.7598 115.302 83.9835 116.443C84.2072 117.583 83.9076 118.756 83.1505 119.702Z" fill="black"/>
<path opacity="0.25" d="M56.4849 91.6091C58.945 92.6605 68.2407 91.781 68.2407 91.781C68.2407 91.781 63.2631 84.8051 60.7858 83.7511C59.6111 83.2949 58.2813 83.2586 57.0768 83.65C55.8724 84.0414 54.8874 84.8297 54.3296 85.8489C53.7718 86.868 53.6848 88.0383 54.0868 89.1129C54.4889 90.1875 55.3487 91.0825 56.4849 91.6091Z" fill="black"/>
<path opacity="0.25" d="M58.7529 112.216C61.4596 112.57 70.0327 109.279 70.0327 109.279C70.0327 109.279 62.9133 103.933 60.2123 103.579C59.569 103.495 58.9132 103.523 58.2823 103.662C57.6513 103.801 57.0576 104.049 56.5351 104.39C55.4799 105.08 54.7785 106.11 54.5854 107.256C54.3922 108.401 54.7231 109.567 55.5052 110.497C56.2873 111.427 57.4566 112.045 58.7558 112.216H58.7529Z" fill="black"/>
<path opacity="0.25" d="M64.0804 131.976C66.681 132.734 75.7616 130.763 75.7616 130.763C75.7616 130.763 69.769 124.444 67.1598 123.686C66.5419 123.507 65.8901 123.437 65.2416 123.48C64.593 123.523 63.9605 123.678 63.3801 123.937C62.7997 124.196 62.2827 124.553 61.8588 124.987C61.4348 125.422 61.1121 125.926 60.9092 126.471C60.7062 127.015 60.627 127.59 60.6759 128.162C60.7249 128.733 60.9011 129.291 61.1945 129.803C61.4879 130.314 61.8928 130.77 62.3859 131.144C62.8791 131.517 63.451 131.802 64.0689 131.981L64.0804 131.976Z" fill="black"/>
<path d="M81.1891 139.111C81.1891 139.111 61.3248 128.435 56.0662 113.078C53.9065 106.63 49.4336 100.973 43.3184 96.9547C40.3979 95.0676 37.2873 93.4203 34.0256 92.0337" stroke="#535461" stroke-width="2" stroke-miterlimit="10"/>
<path d="M30.6481 82.3888C32.486 84.1732 34.1461 92.2839 34.1461 92.2839C34.1461 92.2839 25.1516 90.0395 23.3136 88.2551C22.4312 87.3977 21.9712 86.2665 22.0349 85.1102C22.0986 83.9539 22.6808 82.8672 23.6534 82.0893C24.626 81.3114 25.9094 80.9059 27.2211 80.9621C28.5329 81.0182 29.7656 81.5314 30.6481 82.3888Z" fill="#41FF98"/>
<path d="M46.891 87.4286C47.3326 89.8095 43.7371 97.4148 43.7371 97.4148C43.7371 97.4148 37.561 91.2199 37.1166 88.839C36.9044 87.6964 37.2158 86.5263 37.9824 85.5861C38.7489 84.646 39.9077 84.0127 41.2038 83.8257C42.5 83.6387 43.8274 83.9132 44.8939 84.5889C45.9605 85.2645 46.6789 86.286 46.891 87.4286Z" fill="#41FF98"/>
<path d="M64.0229 104.537C63.0395 106.789 55.5731 111.748 55.5731 111.748C55.5731 111.748 53.7954 103.66 54.776 101.406C55.2471 100.325 56.186 99.4531 57.3862 98.9824C58.5864 98.5117 59.9495 98.4806 61.1757 98.8958C62.402 99.3111 63.3908 100.139 63.9248 101.197C64.4587 102.255 64.494 103.456 64.0229 104.537Z" fill="#41FF98"/>
<path d="M73.6884 120.064C73.1522 122.429 66.741 128.43 66.741 128.43C66.741 128.43 63.438 120.718 63.9741 118.355C64.1014 117.793 64.3531 117.258 64.7147 116.782C65.0764 116.305 65.541 115.896 66.082 115.578C66.6231 115.259 67.2299 115.038 67.8679 114.927C68.5059 114.815 69.1626 114.816 69.8004 114.928C70.4383 115.04 71.0448 115.262 71.5854 115.581C72.126 115.899 72.59 116.309 72.9511 116.786C73.3121 117.263 73.563 117.798 73.6895 118.36C73.8161 118.923 73.8157 119.501 73.6884 120.064Z" fill="#41FF98"/>
<path d="M36.3798 103.918C39.1151 104.001 47.2094 99.874 47.2094 99.874C47.2094 99.874 39.4535 95.274 36.7181 95.1855C36.0682 95.1659 35.4203 95.2594 34.8114 95.4605C34.2024 95.6616 33.6444 95.9665 33.1692 96.3578C32.6939 96.749 32.3107 97.219 32.0415 97.7407C31.7723 98.2625 31.6223 98.826 31.6001 99.3988C31.5778 99.9717 31.6838 100.543 31.912 101.08C32.1402 101.616 32.4861 102.108 32.9299 102.527C33.3738 102.946 33.9069 103.284 34.4988 103.521C35.0907 103.759 35.7299 103.891 36.3798 103.91V103.918Z" fill="#41FF98"/>
<path d="M47.9319 121.944C50.5697 121.302 56.8949 115.231 56.8949 115.231C56.8949 115.231 47.929 112.878 45.3026 113.53C44.6694 113.678 44.0758 113.934 43.556 114.286C43.0362 114.637 42.6007 115.075 42.2745 115.576C41.9483 116.077 41.7381 116.629 41.6559 117.202C41.5737 117.775 41.6212 118.356 41.7956 118.913C41.9701 119.469 42.268 119.99 42.6722 120.444C43.0763 120.898 43.5787 121.277 44.1502 121.559C44.7217 121.841 45.351 122.02 46.0016 122.086C46.6522 122.152 47.3112 122.104 47.9405 121.944H47.9319Z" fill="#41FF98"/>
<path d="M61.8868 138.107C64.6107 137.855 72.0082 132.825 72.0082 132.825C72.0082 132.825 63.6215 129.18 60.9005 129.42C60.2534 129.478 59.6254 129.646 59.0524 129.917C58.4794 130.188 57.9725 130.556 57.5608 131C56.7292 131.896 56.3355 133.047 56.4663 134.199C56.531 134.769 56.7226 135.323 57.0301 135.828C57.3375 136.333 57.7549 136.78 58.2582 137.143C59.2748 137.876 60.58 138.223 61.8868 138.107Z" fill="#41FF98"/>
<path opacity="0.1" d="M162.204 188.223C190.549 188.223 213.527 187.021 213.527 185.538C213.527 184.056 190.549 182.854 162.204 182.854C133.858 182.854 110.88 184.056 110.88 185.538C110.88 187.021 133.858 188.223 162.204 188.223Z" fill="#41FF98"/>
<path opacity="0.1" d="M214.147 199.617C221.567 199.617 227.583 198.651 227.583 197.461C227.583 196.27 221.567 195.305 214.147 195.305C206.726 195.305 200.711 196.27 200.711 197.461C200.711 198.651 206.726 199.617 214.147 199.617Z" fill="#41FF98"/>
<path d="M185.798 180.82V182.44H131.429V181.12C134.745 180.037 137.623 178.111 139.696 175.586C141.77 173.061 142.947 170.05 143.079 166.935C143.211 163.819 142.291 160.74 140.436 158.085C138.581 155.431 135.875 153.322 132.659 152.024H185.44C182.299 153.294 179.642 155.34 177.793 157.914C175.943 160.487 174.978 163.478 175.016 166.524C175.054 169.571 176.093 172.542 178.006 175.079C179.92 177.616 182.626 179.61 185.798 180.82Z" fill="#C8CAD7"/>
<path opacity="0.1" d="M185.44 152.026C183.013 153.008 180.867 154.455 179.157 156.263C177.448 158.07 176.218 160.192 175.559 162.472H142.54C141.881 160.192 140.652 158.07 138.942 156.263C137.232 154.455 135.086 153.008 132.659 152.026H185.44Z" fill="black"/>
<path d="M69.1611 143.769V152.868C69.1611 157.893 73.333 161.967 78.4797 161.967H238.473C243.619 161.967 247.791 157.893 247.791 152.868V143.769H69.1611Z" fill="#C8CAD7"/>
<path opacity="0.1" d="M185.798 180.82V182.44H131.429V181.12C132.92 180.633 134.329 179.971 135.621 179.154H182.472C183.51 179.812 184.625 180.371 185.798 180.82Z" fill="black"/>
<path d="M201.055 179.659H116.184C114.68 179.659 113.46 180.735 113.46 182.061C113.46 183.387 114.68 184.462 116.184 184.462H201.055C202.559 184.462 203.779 183.387 203.779 182.061C203.779 180.735 202.559 179.659 201.055 179.659Z" fill="#C8CAD7"/>
<path d="M247.791 44.0593C247.791 41.8807 246.809 39.7914 245.062 38.2509C243.314 36.7104 240.944 35.845 238.473 35.845H78.4797C76.0083 35.845 73.6381 36.7104 71.8905 38.2509C70.1429 39.7914 69.1611 41.8807 69.1611 44.0593V145.538H247.791V44.0593Z" fill="#474157"/>
<path d="M238.329 43.6802H78.623C76.0893 43.6802 74.0354 45.4907 74.0354 47.7242V134.923C74.0354 137.156 76.0893 138.967 78.623 138.967H238.329C240.863 138.967 242.917 137.156 242.917 134.923V47.7242C242.917 45.4907 240.863 43.6802 238.329 43.6802Z" fill="#EDEDF4"/>
<path d="M158.476 41.6582C159.664 41.6582 160.627 40.8095 160.627 39.7626C160.627 38.7156 159.664 37.8669 158.476 37.8669C157.288 37.8669 156.326 38.7156 156.326 39.7626C156.326 40.8095 157.288 41.6582 158.476 41.6582Z" fill="white"/>
<path d="M158.476 157.923C161.406 157.923 163.781 155.83 163.781 153.247C163.781 150.665 161.406 148.571 158.476 148.571C155.547 148.571 153.172 150.665 153.172 153.247C153.172 155.83 155.547 157.923 158.476 157.923Z" fill="white"/>
<path d="M242.917 47.7242H74.0354C74.0354 46.6516 74.5187 45.623 75.3791 44.8646C76.2394 44.1063 77.4063 43.6802 78.623 43.6802H238.329C239.546 43.6802 240.713 44.1063 241.573 44.8646C242.433 45.623 242.917 46.6516 242.917 47.7242Z" fill="#C8CAD7"/>
<path d="M78.623 46.7132C79.2564 46.7132 79.7699 46.2605 79.7699 45.7022C79.7699 45.1438 79.2564 44.6912 78.623 44.6912C77.9896 44.6912 77.4761 45.1438 77.4761 45.7022C77.4761 46.2605 77.9896 46.7132 78.623 46.7132Z" fill="#EDEDF4"/>
<path d="M82.0639 46.7132C82.6973 46.7132 83.2108 46.2605 83.2108 45.7022C83.2108 45.1438 82.6973 44.6912 82.0639 44.6912C81.4305 44.6912 80.917 45.1438 80.917 45.7022C80.917 46.2605 81.4305 46.7132 82.0639 46.7132Z" fill="#EDEDF4"/>
<path d="M85.5043 46.7132C86.1377 46.7132 86.6512 46.2605 86.6512 45.7022C86.6512 45.1438 86.1377 44.6912 85.5043 44.6912C84.8709 44.6912 84.3574 45.1438 84.3574 45.7022C84.3574 46.2605 84.8709 46.7132 85.5043 46.7132Z" fill="#EDEDF4"/>
<path d="M123.639 51.1363H80.3435V53.411H123.639V51.1363Z" fill="#41FF98"/>
<path d="M123.639 117.609H80.3435V119.884H123.639V117.609Z" fill="#41FF98"/>
<path opacity="0.2" d="M160.627 122.664H80.3435V124.939H160.627V122.664Z" fill="#41FF98"/>
<path opacity="0.2" d="M160.627 125.953H80.3435V128.227H160.627V125.953Z" fill="#41FF98"/>
<path opacity="0.2" d="M160.627 129.238H80.3435V131.513H160.627V129.238Z" fill="#41FF98"/>
<path opacity="0.2" d="M160.053 57.2023H80.3435V95.3675H160.053V57.2023Z" fill="#41FF98"/>
<path opacity="0.2" d="M99.8408 98.906H81.2036V114.071H99.8408V98.906Z" fill="#41FF98"/>
<path opacity="0.2" d="M160.053 98.906H141.416V114.071H160.053V98.906Z" fill="#41FF98"/>
<path opacity="0.2" d="M129.517 98.906H110.88V114.071H129.517V98.906Z" fill="#41FF98"/>
<path opacity="0.2" d="M231.927 68.303H177.067V103.898H231.927V68.303Z" fill="#41FF98"/>
<path d="M226.143 75.5266H182.848V77.8014H226.143V75.5266Z" fill="#EDEDF4"/>
<path d="M226.143 80.2455H182.848V82.5202H226.143V80.2455Z" fill="#EDEDF4"/>
<path d="M226.143 84.9643H182.848V87.239H226.143V84.9643Z" fill="#EDEDF4"/>
<path d="M226.143 89.6806H182.848V91.9554H226.143V89.6806Z" fill="#EDEDF4"/>
<path d="M226.143 94.3994H182.848V96.6742H226.143V94.3994Z" fill="#EDEDF4"/>
<path d="M225.237 107.942H183.757V114.344H225.237V107.942Z" fill="#41FF98"/>
<path d="M209.356 129.274H181.54V133.568H209.356V129.274Z" fill="#41FF98"/>
<path opacity="0.1" d="M74.0985 196.707C78.6275 196.707 82.2989 196.379 82.2989 195.974C82.2989 195.57 78.6275 195.241 74.0985 195.241C69.5696 195.241 65.8982 195.57 65.8982 195.974C65.8982 196.379 69.5696 196.707 74.0985 196.707Z" fill="#41FF98"/>
<path opacity="0.1" d="M241.959 185.933C244.673 185.933 246.874 185.736 246.874 185.493C246.874 185.25 244.673 185.053 241.959 185.053C239.245 185.053 237.045 185.25 237.045 185.493C237.045 185.736 239.245 185.933 241.959 185.933Z" fill="#41FF98"/>
<path d="M76.9629 183.901C76.9629 183.901 66.2681 188.771 71.8019 194.516C71.8019 194.516 72.3208 195.78 73.8261 195.674C73.8261 195.674 73.5251 195.191 74.6863 194.807C75.0911 194.666 75.476 194.485 75.8332 194.266C76.3191 193.97 76.6825 193.542 76.8683 193.048C76.8683 193.048 79.056 190.467 77.3615 185.693C77.3615 185.693 77.5794 184.343 77.3873 184.126L76.0741 185.67C76.0741 185.67 77.4188 186.463 77.5708 187.631C77.5708 187.631 76.1716 185.672 75.8676 185.895C75.8074 185.94 75.2225 186.754 75.2225 186.754C75.2225 186.754 77.5507 188.147 77.7256 189.954C77.7256 189.954 76.4124 187.426 74.996 187.06L74.196 188.336C74.196 188.336 76.7421 189.701 77.0289 191.754C77.0289 191.754 75.5522 189.15 74.0441 188.624L73.4477 189.972C73.4477 189.972 75.8992 191.347 76.1257 193.055C76.1257 193.055 74.0756 190.199 73.3358 190.275C73.3358 190.275 72.8742 191.539 72.9344 191.93C72.9344 191.93 74.6691 192.941 74.7007 193.952C74.7007 193.952 73.1007 192.171 72.8541 192.289C72.8541 192.289 72.7509 194.079 73.2441 195.011C73.2441 195.011 72.4011 193.682 72.5359 192.289C72.0376 192.679 71.6806 193.19 71.5094 193.758C71.5094 193.758 71.0478 192.772 72.5674 191.867C72.5674 191.867 72.7108 190.475 72.8857 190.303C72.8857 190.303 71.2427 191.008 70.546 191.877C70.546 191.877 70.8012 190.583 73.0291 189.941L73.6025 188.576C73.6025 188.576 71.3775 189.408 70.6922 190.141C70.6922 190.141 71.1854 188.857 73.7774 188.243L74.5458 186.979C74.5458 186.979 72.5674 187.565 71.604 188.243C71.604 188.243 72.3524 187.141 74.7838 186.633L75.4089 185.847C75.4089 185.847 73.9752 186.299 73.5738 186.461C73.1724 186.623 73.0921 186.542 73.0921 186.542C73.8273 185.994 74.7208 185.638 75.6727 185.513C75.6727 185.513 77.0633 183.974 76.9629 183.901Z" fill="#41FF98"/>
<path opacity="0.1" d="M48.5428 185.369C52.014 185.369 54.8279 185.118 54.8279 184.808C54.8279 184.498 52.014 184.247 48.5428 184.247C45.0717 184.247 42.2578 184.498 42.2578 184.808C42.2578 185.118 45.0717 185.369 48.5428 185.369Z" fill="#41FF98"/>
<path d="M50.7505 175.56C50.7505 175.56 42.5558 179.29 46.7879 183.688C46.9072 183.961 47.1215 184.194 47.4002 184.354C47.6788 184.513 48.0074 184.591 48.3391 184.575C48.3391 184.575 48.1097 184.206 48.99 183.911C49.3011 183.802 49.5973 183.663 49.8731 183.496C50.2456 183.268 50.5243 182.94 50.6673 182.561C50.6673 182.561 52.3418 180.584 51.0429 176.927C51.0429 176.927 51.2121 175.891 51.063 175.724L50.0681 176.93C50.0681 176.93 51.0974 177.539 51.215 178.431C51.215 178.431 50.1426 176.932 49.9104 177.102C49.8645 177.137 49.4172 177.761 49.4172 177.761C49.4172 177.761 51.2006 178.828 51.3354 180.213C51.3354 180.213 50.329 178.272 49.2423 177.996L48.6316 178.972C48.6316 178.972 50.5784 180.018 50.7992 181.59C50.7992 181.59 49.6666 179.596 48.5054 179.194L48.0495 180.226C48.0495 180.226 49.9304 181.28 50.1025 182.589C50.1025 182.589 48.5312 180.4 47.9635 180.468C47.9635 180.468 47.6108 181.439 47.6567 181.732C47.6567 181.732 48.9871 182.516 49.01 183.284C49.01 183.284 47.7828 181.919 47.5936 182.02C47.5936 182.02 47.5162 183.39 47.8947 184.105C47.5103 183.464 47.3225 182.745 47.3499 182.02C46.971 182.317 46.6981 182.704 46.5643 183.135C46.5643 183.135 46.2116 182.376 47.3757 181.686C47.3757 181.686 47.4847 180.62 47.6194 180.488C47.6194 180.488 46.3607 181.029 45.8274 181.694C45.8274 181.694 46.0224 180.703 47.7284 180.21L48.1613 179.164C48.1613 179.164 46.4553 179.801 45.9277 180.365C45.9277 180.365 46.3062 179.379 48.2932 178.909L48.8839 177.946C48.8839 177.946 47.3671 178.396 46.6273 178.909C46.6273 178.909 47.2008 178.062 49.0645 177.675L49.5433 177.071C49.5433 177.071 48.4452 177.418 48.1384 177.544C47.8316 177.67 47.7685 177.605 47.7685 177.605C48.3307 177.186 49.0136 176.913 49.7412 176.816C49.7412 176.816 50.8135 175.61 50.7505 175.56Z" fill="#41FF98"/>
<path d="M244.216 178.191C244.216 178.191 237.807 181.12 241.116 184.548C241.21 184.761 241.377 184.943 241.595 185.067C241.813 185.192 242.07 185.252 242.329 185.24C242.329 185.24 242.148 184.952 242.839 184.719C243.083 184.636 243.315 184.527 243.53 184.396C243.821 184.218 244.038 183.962 244.15 183.666C244.15 183.666 245.46 182.119 244.437 179.26C244.437 179.26 244.566 178.451 244.451 178.32L243.674 179.26C243.674 179.26 244.48 179.738 244.571 180.438C244.571 180.438 243.731 179.263 243.551 179.397C243.513 179.424 243.163 179.902 243.163 179.902C243.163 179.902 244.56 180.736 244.663 181.818C244.663 181.818 243.877 180.301 243.029 180.087L242.57 180.868C242.57 180.868 244.092 181.684 244.264 182.915C244.264 182.915 243.381 181.355 242.475 181.039L242.12 181.848C242.12 181.848 243.588 182.67 243.725 183.696C243.725 183.696 242.495 181.982 242.054 182.038C241.928 182.358 241.847 182.691 241.813 183.029C241.813 183.029 242.851 183.64 242.871 184.242C242.871 184.242 241.91 183.175 241.764 183.246C241.764 183.246 241.701 184.318 241.996 184.876C241.698 184.374 241.552 183.813 241.572 183.246C241.276 183.478 241.063 183.781 240.959 184.118C240.959 184.118 240.672 183.527 241.592 182.986C241.592 182.986 241.678 182.152 241.781 182.048C241.781 182.048 240.798 182.47 240.382 182.991C240.382 182.991 240.534 182.215 241.867 181.831L242.206 181.014C242.206 181.014 240.873 181.52 240.46 181.949C240.46 181.949 240.746 181.191 242.312 180.812L242.771 180.054C242.148 180.239 241.556 180.494 241.007 180.812C241.007 180.812 241.457 180.152 242.914 179.849L243.287 179.376C243.287 179.376 242.427 179.649 242.189 179.745C241.951 179.841 241.902 179.793 241.902 179.793C242.341 179.466 242.875 179.252 243.444 179.177C243.444 179.177 244.273 178.242 244.216 178.191Z" fill="#41FF98"/>
<path opacity="0.1" d="M268.387 201.997C274.998 201.997 280.357 201.603 280.357 201.115C280.357 200.628 274.998 200.233 268.387 200.233C261.775 200.233 256.416 200.628 256.416 201.115C256.416 201.603 261.775 201.997 268.387 201.997Z" fill="#41FF98"/>
<path d="M277.972 173.285C277.698 173.619 277.478 173.984 277.318 174.372C277.278 174.465 277.241 174.574 277.201 174.678C277.127 174.648 277.05 174.624 276.971 174.607C276.638 174.533 276.293 174.507 275.951 174.531C275.951 174.412 275.965 174.291 275.971 174.16C276.011 172.828 275.833 170.97 274.391 171.758C273.009 172.517 273.995 173.78 274.887 174.589C274.964 174.66 275.042 174.726 275.116 174.789C274.305 175.294 274.147 176.49 274.012 177.731C273.878 178.972 272.682 180.329 271.891 181.1L271.664 181.315C271.345 181.09 270.976 180.928 270.58 180.838C270.185 180.747 269.773 180.732 269.37 180.792C269.336 180.683 269.301 180.569 269.261 180.451C268.622 178.406 267.289 174.865 265.585 174.089C265.66 174.01 265.735 173.927 265.812 173.836C266.535 173.002 267.346 171.766 266.145 171.45C264.943 171.134 264.837 172.522 264.903 173.563C264.903 173.695 264.915 173.818 264.937 173.935C264.697 173.944 264.461 173.997 264.245 174.09C264.028 174.183 263.836 174.314 263.679 174.476L263.495 174.281C262.52 173.27 260.731 171.66 260.192 172.876C259.688 174.008 261.259 175.479 262.366 176.331L262.437 176.384C261.692 179.04 264.935 181.206 266.681 182.154L266.907 182.275C264.499 184.778 263.014 189.469 263.014 189.469L269.757 190.53C269.757 190.53 274.227 187.128 273.657 183.933H273.703C278.17 183.145 279.188 178.944 278.491 176.45L278.568 176.422C279.383 176.128 280.096 175.653 280.639 175.042C281.877 173.505 279.271 171.769 277.972 173.285Z" fill="#41FF98"/>
<path opacity="0.1" d="M277.972 173.285C277.698 173.619 277.478 173.984 277.318 174.372C277.278 174.465 277.241 174.574 277.201 174.678C277.127 174.648 277.05 174.624 276.971 174.607C276.638 174.533 276.293 174.507 275.951 174.531C275.951 174.412 275.965 174.291 275.971 174.16C276.011 172.828 275.833 170.97 274.391 171.758C273.009 172.517 273.995 173.78 274.887 174.589C274.964 174.66 275.042 174.726 275.116 174.789C274.305 175.294 274.147 176.49 274.012 177.731C273.878 178.972 272.682 180.329 271.891 181.1L271.664 181.315C271.345 181.09 270.976 180.928 270.58 180.838C270.185 180.747 269.773 180.732 269.37 180.792C269.336 180.683 269.301 180.569 269.261 180.451C268.622 178.406 267.289 174.865 265.585 174.089C265.66 174.01 265.735 173.927 265.812 173.836C266.535 173.002 267.346 171.766 266.145 171.45C264.943 171.134 264.837 172.522 264.903 173.563C264.903 173.695 264.915 173.818 264.937 173.935C264.697 173.944 264.461 173.997 264.245 174.09C264.028 174.183 263.836 174.314 263.679 174.476L263.495 174.281C262.52 173.27 260.731 171.66 260.192 172.876C259.688 174.008 261.259 175.479 262.366 176.331L262.437 176.384C261.692 179.04 264.935 181.206 266.681 182.154L266.907 182.275C264.499 184.778 263.014 189.469 263.014 189.469L269.757 190.53C269.757 190.53 274.227 187.128 273.657 183.933H273.703C278.17 183.145 279.188 178.944 278.491 176.45L278.568 176.422C279.383 176.128 280.096 175.653 280.639 175.042C281.877 173.505 279.271 171.769 277.972 173.285Z" fill="black"/>
<path d="M264.548 174.994L263.759 177.016C263.759 177.016 263.32 176.743 262.767 176.313C261.663 175.461 260.089 173.99 260.594 172.858C261.133 171.642 262.922 173.247 263.897 174.263C264.287 174.68 264.548 174.994 264.548 174.994Z" fill="#41FF98"/>
<path d="M266.213 173.831C265.973 174.109 265.716 174.375 265.445 174.63C265.376 174.275 265.329 173.917 265.304 173.558C265.238 172.517 265.362 171.134 266.546 171.445C267.73 171.756 266.941 172.997 266.213 173.831Z" fill="#41FF98"/>
<path d="M276.383 174.152C276.358 174.822 276.283 175.358 276.283 175.358C275.936 175.118 275.608 174.859 275.3 174.582C274.408 173.765 273.422 172.507 274.804 171.751C276.246 170.962 276.424 172.82 276.383 174.152Z" fill="#41FF98"/>
<path d="M281.04 175.029C280.498 175.639 279.786 176.115 278.973 176.409C278.746 176.495 278.515 176.569 278.279 176.632L277.35 175.481C277.447 175.102 277.574 174.728 277.731 174.364C277.89 173.977 278.11 173.611 278.385 173.278C279.669 171.769 282.29 173.505 281.04 175.029Z" fill="#41FF98"/>
<path opacity="0.1" d="M263.897 174.276C264.286 174.68 264.547 174.994 264.547 174.994L263.759 177.016C263.759 177.016 263.32 176.743 262.767 176.313C262.891 175.662 263.196 175.048 263.656 174.526C263.731 174.439 263.812 174.356 263.897 174.276Z" fill="black"/>
<path opacity="0.1" d="M266.213 173.831C265.973 174.109 265.716 174.375 265.445 174.63C265.376 174.275 265.329 173.917 265.304 173.558C265.632 173.564 265.95 173.66 266.213 173.831Z" fill="black"/>
<path d="M270.096 181.909L268.134 182.667C268.134 182.667 267.704 182.485 267.088 182.147C265.029 181.029 260.883 178.216 263.647 174.9C266.411 171.584 268.742 177.531 269.668 180.44C269.941 181.312 270.096 181.909 270.096 181.909Z" fill="#41FF98"/>
<path opacity="0.1" d="M275.3 174.582C275.585 174.322 275.973 174.168 276.384 174.152C276.358 174.822 276.283 175.358 276.283 175.358C275.936 175.118 275.608 174.859 275.3 174.582Z" fill="black"/>
<path opacity="0.1" d="M278.984 176.409C278.758 176.495 278.526 176.569 278.29 176.632L277.361 175.482C277.458 175.102 277.585 174.728 277.742 174.364C278.33 174.673 278.772 175.441 278.984 176.409Z" fill="black"/>
<path d="M274.11 183.921C274.001 183.941 273.889 183.959 273.777 183.971C267.205 184.853 271.61 181.727 271.61 181.727C271.61 181.727 271.896 181.487 272.309 181.093C273.101 180.334 274.293 178.972 274.431 177.723C274.637 175.845 274.875 174.084 277.39 174.599C279.905 175.115 280.326 182.821 274.11 183.921Z" fill="#41FF98"/>
<path d="M273.981 198.35H261.419V201.262H273.981V198.35Z" fill="#D4DFEC"/>
<path d="M275.833 188.887H259.421V199.048H275.833V188.887Z" fill="#D4DFEC"/>
<path opacity="0.1" d="M273.981 198.35H261.419V201.262H273.981V198.35Z" fill="black"/>
<path opacity="0.1" d="M275.833 188.887H259.421V199.048H275.833V188.887Z" fill="black"/>
<path d="M274.807 198.35H262.245V201.262H274.807V198.35Z" fill="#D4DFEC"/>
<path opacity="0.1" d="M269.663 180.443C269.949 181.312 270.09 181.909 270.09 181.909L268.129 182.667C268.129 182.667 267.698 182.485 267.082 182.147C267.85 181.29 268.719 180.643 269.663 180.443Z" fill="black"/>
<path opacity="0.1" d="M274.11 183.921C274.001 183.941 273.889 183.959 273.777 183.971C267.205 184.853 271.61 181.727 271.61 181.727C271.61 181.727 271.896 181.487 272.309 181.093C273.536 181.959 274.038 182.935 274.11 183.921Z" fill="black"/>
<path d="M263.415 189.461C263.415 189.461 267.096 177.835 272.257 181.421C277.418 185.008 270.159 190.52 270.159 190.52L263.415 189.461Z" fill="#41FF98"/>
<path opacity="0.1" d="M265.273 177.089C265.501 177.089 265.686 176.926 265.686 176.725C265.686 176.524 265.501 176.361 265.273 176.361C265.045 176.361 264.86 176.524 264.86 176.725C264.86 176.926 265.045 177.089 265.273 177.089Z" fill="black"/>
<path opacity="0.1" d="M265.239 178.787C265.467 178.787 265.651 178.625 265.651 178.424C265.651 178.222 265.467 178.06 265.239 178.06C265.011 178.06 264.826 178.222 264.826 178.424C264.826 178.625 265.011 178.787 265.239 178.787Z" fill="black"/>
<path opacity="0.1" d="M277.212 177.423C277.44 177.423 277.625 177.26 277.625 177.059C277.625 176.858 277.44 176.695 277.212 176.695C276.984 176.695 276.799 176.858 276.799 177.059C276.799 177.26 276.984 177.423 277.212 177.423Z" fill="black"/>
<path opacity="0.1" d="M267.578 186.127C267.806 186.127 267.991 185.964 267.991 185.763C267.991 185.562 267.806 185.399 267.578 185.399C267.35 185.399 267.165 185.562 267.165 185.763C267.165 185.964 267.35 186.127 267.578 186.127Z" fill="black"/>
<path opacity="0.1" d="M276.352 180.243C276.58 180.243 276.765 180.08 276.765 179.879C276.765 179.678 276.58 179.515 276.352 179.515C276.124 179.515 275.939 179.678 275.939 179.879C275.939 180.08 276.124 180.243 276.352 180.243Z" fill="black"/>
<path opacity="0.1" d="M272.086 184.004C272.314 184.004 272.498 183.841 272.498 183.64C272.498 183.439 272.314 183.276 272.086 183.276C271.857 183.276 271.673 183.439 271.673 183.64C271.673 183.841 271.857 184.004 272.086 184.004Z" fill="black"/>
<path opacity="0.1" d="M266.683 177.817C266.911 177.817 267.096 177.654 267.096 177.453C267.096 177.252 266.911 177.089 266.683 177.089C266.455 177.089 266.271 177.252 266.271 177.453C266.271 177.654 266.455 177.817 266.683 177.817Z" fill="black"/>
<path opacity="0.1" d="M276.077 178.514C276.305 178.514 276.49 178.352 276.49 178.151C276.49 177.95 276.305 177.787 276.077 177.787C275.849 177.787 275.664 177.95 275.664 178.151C275.664 178.352 275.849 178.514 276.077 178.514Z" fill="black"/>
<path opacity="0.1" d="M274.666 181.335C274.894 181.335 275.079 181.172 275.079 180.971C275.079 180.77 274.894 180.607 274.666 180.607C274.438 180.607 274.253 180.77 274.253 180.971C274.253 181.172 274.438 181.335 274.666 181.335Z" fill="black"/>
<path opacity="0.1" d="M270.331 185.854C270.559 185.854 270.743 185.691 270.743 185.49C270.743 185.289 270.559 185.126 270.331 185.126C270.103 185.126 269.918 185.289 269.918 185.49C269.918 185.691 270.103 185.854 270.331 185.854Z" fill="black"/>
<path opacity="0.1" d="M269.436 184.065C269.664 184.065 269.849 183.902 269.849 183.701C269.849 183.5 269.664 183.337 269.436 183.337C269.208 183.337 269.023 183.5 269.023 183.701C269.023 183.902 269.208 184.065 269.436 184.065Z" fill="black"/>
<path opacity="0.1" d="M267.303 180.031C267.531 180.031 267.716 179.868 267.716 179.667C267.716 179.466 267.531 179.303 267.303 179.303C267.075 179.303 266.89 179.466 266.89 179.667C266.89 179.868 267.075 180.031 267.303 180.031Z" fill="black"/>
<path opacity="0.1" d="M274.807 198.35H262.245V199.414H274.807V198.35Z" fill="black"/>
<path d="M276.661 188.887H260.249V199.048H276.661V188.887Z" fill="#D4DFEC"/>
<path opacity="0.1" d="M270.881 187.492C271.109 187.492 271.294 187.329 271.294 187.128C271.294 186.927 271.109 186.764 270.881 186.764C270.653 186.764 270.468 186.927 270.468 187.128C270.468 187.329 270.653 187.492 270.881 187.492Z" fill="black"/>
<path opacity="0.1" d="M268.404 187.947C268.632 187.947 268.817 187.784 268.817 187.583C268.817 187.382 268.632 187.219 268.404 187.219C268.176 187.219 267.991 187.382 267.991 187.583C267.991 187.784 268.176 187.947 268.404 187.947Z" fill="black"/>
<path d="M240.07 145.01C239.726 144.793 239.582 144.269 239.531 143.746C239.531 143.627 239.511 143.511 239.505 143.4C239.659 143.317 239.795 143.209 239.903 143.082C240.583 142.232 238.96 139.151 238.96 139.151C238.96 139.151 239.588 137.544 238.96 136.159C238.332 134.774 238.045 134.506 238.045 134.506C238.045 134.506 235.924 130.664 236.239 130.209C236.555 129.754 235.714 126.165 235.092 125.445C234.832 125.133 234.553 124.834 234.255 124.55C234.255 124.55 234.361 122.988 233.469 121.77C232.578 120.551 231.586 117.17 231.586 117.17C231.586 117.17 230.487 113.998 229.702 112.873C229.381 112.477 228.995 112.127 228.555 111.834C228.678 111.329 228.962 110.659 228.148 106.696C227.815 105.068 228.334 104.097 228.761 102.487C229.189 100.877 229.097 99.0147 227.786 97.7989C226.476 96.5832 224.443 96.3557 222.818 95.5242C221.384 94.7937 220.108 93.5578 218.433 93.5805C217.203 93.5982 217.206 93.7676 216.074 94.1745C214.115 94.8771 211.913 94.6648 209.923 95.2462C208.134 95.7694 205.861 97.4881 206.402 99.3104C206.488 99.7231 206.719 100.102 207.062 100.392C207.449 100.703 207.922 100.706 208.453 100.612C208.453 100.642 208.453 100.67 208.432 100.701C208.386 100.951 208.363 101.205 208.364 101.459C208.364 104.161 210.918 106.355 214.078 106.372C214.095 106.43 214.11 106.491 214.127 106.552C214.17 106.713 214.21 106.875 214.25 107.042C214.101 107.216 213.946 107.391 213.8 107.565C213.437 107.973 213.147 108.427 212.94 108.912C211.283 109.211 208.504 109.693 208.065 110.325C207.492 111.174 205.135 115.38 205.396 117.294C205.41 117.4 205.422 117.546 205.433 117.698C205.433 117.698 203.982 119.973 203.773 120.688C203.564 121.403 203.094 124.082 202.202 124.707C201.31 125.331 199.481 127.343 199.742 127.74C200.003 128.136 197.282 128.632 197.282 128.632C197.282 128.632 195.452 129.256 195.561 129.749C195.593 129.898 195.464 130.04 195.275 130.176C193.193 129.572 190.541 129.165 188.485 130.085C185.618 131.367 190.647 132.249 193.646 132.635C194.139 132.701 194.575 132.752 194.913 132.787C194.936 132.873 195.031 132.949 195.272 133.022C195.461 133.08 195.742 133.171 196.069 133.275L196.189 132.946C197.184 133.257 199.9 134.225 199.9 134.225C199.9 134.225 202.256 134.564 202.936 133.358C203.223 132.87 204.005 132.095 204.857 131.336L204.762 131.607L202.778 137.377C202.778 137.377 199.639 141.674 199.796 142.601C199.954 143.529 198.801 145.907 198.54 146.14C198.28 146.372 195.673 153.151 194.3 153.598C192.926 154.046 191.106 155.608 191.719 156.101C192.333 156.594 194.873 158.199 196.02 157.663C197.167 157.127 199.174 158.11 199.174 158.11C199.174 158.11 201.37 157.792 203.16 158.55C203.18 158.724 203.203 158.914 203.226 159.113C203.412 160.63 203.716 162.725 204.04 163.334C204.565 164.318 205.035 166.059 204.613 166.729C204.192 167.399 204.98 180.173 205.76 182.361C206.374 184.075 207.214 186.833 207.071 188.632C206.985 189.726 206.933 190.821 206.924 191.918C206.924 191.978 206.924 192.039 206.924 192.1C206.924 192.16 206.876 192.196 206.853 192.246V192.345C206.671 192.724 206.519 193.113 206.397 193.51C206.397 193.51 205.046 196.503 205.502 197.284C205.556 197.369 205.629 197.444 205.717 197.504C206.368 197.964 208.011 198.062 208.584 198.082L208.559 198.841H209.33C209.33 198.841 209.35 198.082 209.402 197.137C209.627 196.605 209.739 196.042 209.734 195.474C209.723 194.483 209.958 193.503 210.422 192.6C210.422 192.6 210.44 192.522 210.457 192.396C210.496 192.135 210.512 191.872 210.505 191.609C210.537 191.15 210.439 190.69 210.219 190.272C210.196 189.999 210.215 189.725 210.276 189.456C210.485 188.786 209.961 184.098 209.961 184.098L210.85 175.476C210.85 175.476 211.374 168.822 211.165 167.08C211.11 166.614 211.123 166.143 211.202 165.68C211.531 163.787 211.722 161.877 211.776 159.963C211.776 159.783 211.776 159.606 211.776 159.427C213.68 160.003 216.908 159.531 216.908 159.531C216.908 159.531 217.659 159.515 218.657 159.531C218.683 159.712 218.712 159.892 218.74 160.066C218.892 161.004 219.073 161.836 219.259 162.192C219.781 163.175 220.254 164.917 219.833 165.586C219.411 166.256 220.197 179.03 220.98 181.219C221.596 182.933 222.436 185.688 222.293 187.49C222.207 188.582 222.155 189.676 222.147 190.775V190.978C222.121 191.026 222.095 191.074 222.072 191.124C222.049 191.175 222.072 191.192 222.072 191.223C221.898 191.604 221.754 191.995 221.639 192.393C221.639 192.393 220.286 195.388 220.744 196.169C220.797 196.255 220.871 196.329 220.96 196.386C221.61 196.849 223.253 196.945 223.827 196.965L223.801 197.723H224.572C224.572 197.723 224.592 196.965 224.644 196.02C224.869 195.488 224.982 194.924 224.977 194.357C224.963 193.367 225.194 192.386 225.653 191.483C225.716 191.158 225.744 190.828 225.736 190.497C225.766 190.034 225.662 189.572 225.435 189.153C225.414 188.88 225.433 188.607 225.493 188.339C225.702 187.669 225.18 182.978 225.18 182.978L226.069 174.359C226.069 174.359 226.594 167.704 226.381 165.963C226.329 165.497 226.342 165.026 226.422 164.563C226.737 162.764 226.929 160.95 226.995 159.131C226.995 158.949 226.995 158.77 226.995 158.588C227.184 158.383 227.569 158.221 228.629 157.908C230.462 157.372 234.126 154.69 235.591 154.513C237.056 154.336 238.364 153.485 237.945 152.815C237.527 152.145 235.224 151.698 235.433 150.672C235.643 149.645 234.02 149.019 233.289 147.323C232.558 145.627 229.361 144.29 229.309 143.026C229.257 141.762 226.293 137.9 226.293 137.9C226.293 137.9 223.314 133.533 222.654 130.864C222.654 130.803 222.628 130.747 222.617 130.692H222.654C222.603 130.492 222.567 130.289 222.545 130.085C222.545 130.027 222.559 129.966 222.571 129.913H222.531V129.817C222.531 129.817 222.531 129.817 222.531 129.8C222.551 129.786 222.572 129.774 222.594 129.764L222.766 129.676L222.709 129.696C223.052 129.499 223.37 129.27 223.658 129.014C224.132 128.643 224.505 128.184 224.75 127.669C224.981 127.098 225.125 126.503 225.177 125.9L225.55 125.394C225.911 126.726 226.439 128.637 226.605 129.064C227.397 130.868 228.027 132.724 228.492 134.614C228.957 136.448 229.73 138.209 230.786 139.841C230.786 139.841 233.455 142.922 235.497 143.056C237.538 143.19 236.388 143.681 236.701 143.772L236.79 143.789L236.821 144.151L236.91 145.2C236.91 145.2 239.003 152.704 241.36 151.632C243.717 150.56 240.85 145.5 240.07 145.01Z" fill="url(#paint0_linear)"/>
<path d="M240.345 151.665C238.08 152.732 236.067 145.28 236.067 145.28L235.981 144.237L235.818 142.263L238.585 142.573C238.543 143 238.543 143.429 238.585 143.855C238.633 144.36 238.774 144.889 239.104 145.101C239.84 145.591 242.607 150.601 240.345 151.665Z" fill="#A1616A"/>
<path d="M206.216 195.173L206.408 195.044C206.35 195.094 206.286 195.137 206.216 195.173Z" fill="#A1616A"/>
<path d="M211.919 154.238V159.328C211.919 159.549 211.919 159.769 211.919 159.988C211.86 161.89 211.668 163.786 211.345 165.667C211.269 166.127 211.256 166.593 211.308 167.055C211.509 168.786 211.021 175.396 211.021 175.396L210.161 183.956C210.161 183.956 210.663 188.612 210.448 189.264C210.391 189.531 210.373 189.804 210.393 190.075C210.422 190.833 210.571 191.807 210.62 192.097V192.186L210.588 192.206L206.382 195.034C207.053 194.496 207.225 193.242 207.222 192.08C207.222 191.953 207.222 191.827 207.222 191.7C207.222 190.614 207.27 189.527 207.366 188.44C207.503 186.653 206.695 183.916 206.104 182.212C205.35 180.041 204.593 167.356 204.997 166.691C205.402 166.026 204.946 164.295 204.444 163.319C204.149 162.725 203.862 160.648 203.69 159.131C203.581 158.211 203.515 157.514 203.515 157.514L211.919 154.238Z" fill="#A1616A"/>
<path d="M220.853 194.036L221.06 193.899C220.997 193.951 220.927 193.997 220.853 194.036Z" fill="#A1616A"/>
<path d="M226.556 153.101V158.191C226.556 158.504 226.556 158.82 226.556 159.134C226.491 160.94 226.306 162.742 226.003 164.53C225.926 164.989 225.914 165.455 225.966 165.917C226.166 167.649 225.679 174.258 225.679 174.258L224.819 182.819C224.819 182.819 225.323 187.474 225.123 188.127C225.064 188.393 225.046 188.665 225.068 188.935C225.097 189.694 225.249 190.682 225.295 190.957C225.295 191.013 225.309 191.041 225.309 191.041L225.278 191.061L221.066 193.889C221.716 193.338 221.886 192.1 221.883 190.952C221.883 190.826 221.883 190.7 221.883 190.571C221.883 189.484 221.94 188.397 222.023 187.31C222.158 185.523 221.352 182.788 220.762 181.085C220.005 178.914 219.251 166.228 219.655 165.564C220.059 164.899 219.603 163.168 219.101 162.192C218.921 161.848 218.749 161.012 218.6 160.081C218.333 158.393 218.144 156.384 218.144 156.384L226.556 153.101Z" fill="#A1616A"/>
<path opacity="0.1" d="M218.7 104.833L218.657 104.891C218.214 105.444 217.644 105.91 216.985 106.258C216.326 106.606 215.592 106.829 214.829 106.913C214.606 106.941 214.381 106.954 214.156 106.954C214.138 106.893 214.124 106.832 214.107 106.774C213.777 105.51 213.427 104.499 213.427 104.499C213.427 104.499 213.803 104.022 214.351 103.412C215.839 101.754 218.58 99.1335 218.365 102.637C218.319 103.346 218.416 104.057 218.651 104.737C218.671 104.755 218.683 104.79 218.7 104.833Z" fill="black"/>
<path d="M219.684 101.883C219.684 103.073 219.191 104.222 218.296 105.114C217.402 106.005 216.169 106.578 214.829 106.724C214.603 106.749 214.375 106.762 214.147 106.761H214.107C213.014 106.754 211.948 106.462 211.044 105.921C210.14 105.38 209.437 104.616 209.025 103.724C208.613 102.832 208.509 101.852 208.728 100.909C208.946 99.9649 209.476 99.0993 210.252 98.4209C211.028 97.7425 212.014 97.2816 213.086 97.0965C214.158 96.9113 215.269 97.0101 216.277 97.3804C217.286 97.7507 218.148 98.3759 218.754 99.1773C219.36 99.9786 219.684 100.92 219.684 101.883Z" fill="#A1616A"/>
<path d="M225.051 116.098L219.683 120.142C219.683 120.142 213.831 112.782 214.522 111.273C214.743 110.8 214.717 109.961 214.577 109.026C214.499 108.521 214.388 107.962 214.261 107.436C214.224 107.272 214.184 107.11 214.144 106.951C214.127 106.89 214.112 106.83 214.095 106.772C213.765 105.508 213.416 104.497 213.416 104.497C213.416 104.497 213.791 104.019 214.339 103.41C215.827 101.752 218.568 99.1309 218.353 102.634C218.307 103.344 218.404 104.055 218.64 104.734C218.64 104.775 218.665 104.815 218.683 104.853C219.445 106.921 221.303 108.571 222.731 109.595C223.316 110.019 223.934 110.405 224.581 110.752L225.051 116.098Z" fill="#A1616A"/>
<path opacity="0.1" d="M203.515 157.521L211.919 154.235V159.326C211.919 159.547 211.919 159.766 211.919 159.985C211.729 159.927 211.546 159.852 211.374 159.76C209.714 158.856 207.647 159.558 207.5 159.558C207.354 159.558 205.688 160.18 203.928 159.247C203.85 159.207 203.773 159.169 203.698 159.136C203.575 158.219 203.515 157.521 203.515 157.521Z" fill="black"/>
<path opacity="0.1" d="M226.556 153.101V158.191C226.556 158.504 226.556 158.82 226.556 159.134C226.437 159.31 226.341 159.497 226.27 159.692C225.966 160.314 223.904 160.536 222.092 160.274C220.941 160.141 219.781 160.077 218.62 160.081C218.353 158.393 218.164 156.384 218.164 156.384L226.556 153.101Z" fill="black"/>
<path d="M234.811 154.549C233.4 154.726 229.879 157.387 228.119 157.921C226.358 158.454 226.559 158.54 226.258 159.162C225.957 159.783 223.893 160.003 222.08 159.74C220.268 159.477 216.848 159.561 216.848 159.561C216.848 159.561 213.037 160.142 211.366 159.23C209.694 158.317 207.638 159.028 207.492 159.028C207.346 159.028 205.68 159.649 203.919 158.717C202.159 157.784 199.793 158.14 199.793 158.14C199.793 158.14 197.881 157.165 196.774 157.698C195.667 158.231 193.253 156.634 192.648 156.146C192.043 155.658 193.795 154.107 195.114 153.662C196.433 153.217 198.939 146.476 199.188 146.256C199.438 146.036 200.547 143.683 200.395 142.753C200.243 141.823 203.263 137.562 203.263 137.562L205.172 131.834L205.746 130.065L205.769 129.011C205.769 128.536 205.794 127.927 205.809 127.242C205.86 124.411 205.915 120.213 205.809 118.315C205.792 118.021 205.774 117.784 205.751 117.612C205.499 115.706 207.758 111.546 208.318 110.694C208.73 110.065 211.403 109.587 212.994 109.291C213.374 109.231 213.749 109.152 214.118 109.054C214.262 109.022 214.412 109.012 214.56 109.024C216.062 109.077 220.492 109.896 220.492 109.896C220.091 120.584 220.896 118.722 220.896 118.722C222.204 117.834 221.398 109.984 221.398 109.984C222.052 110.249 222.72 109.582 222.72 109.582L225.272 110.515C226.049 110.926 226.8 111.374 227.523 111.857C228.128 112.233 228.66 112.694 229.097 113.222C229.851 114.331 230.909 117.481 230.909 117.481L230.003 118.744C229.211 119.864 227.996 121.585 226.748 123.329L224.535 126.435C223.546 127.821 222.74 128.945 222.404 129.403C222.329 129.513 222.275 129.633 222.247 129.759C222.228 129.843 222.215 129.927 222.209 130.012C222.195 130.365 222.235 130.719 222.327 131.063C222.961 133.712 225.825 138.052 225.825 138.052C225.825 138.052 228.692 141.909 228.744 143.15C228.796 144.391 231.864 145.723 232.569 147.409C233.274 149.094 234.831 149.714 234.63 150.735C234.43 151.756 236.637 152.198 237.045 152.863C237.452 153.528 236.219 154.372 234.811 154.549Z" fill="#FA595F"/>
<path opacity="0.1" d="M238.579 143.855C237.802 144.317 236.434 144.3 235.981 144.237L235.818 142.263L238.585 142.573C238.541 143 238.539 143.428 238.579 143.855Z" fill="black"/>
<path d="M228.873 116.186L230.938 117.473C230.938 117.473 231.892 120.842 232.747 122.04C233.601 123.238 233.501 124.79 233.501 124.79C233.789 125.071 234.058 125.368 234.307 125.677C234.912 126.387 235.714 129.949 235.413 130.409C235.112 130.869 237.151 134.68 237.151 134.68C237.151 134.68 237.438 134.933 238.031 136.32C238.625 137.708 238.031 139.293 238.031 139.293C238.031 139.293 239.591 142.354 238.937 143.195C238.283 144.037 236.167 143.954 235.866 143.86C235.565 143.766 236.672 143.284 234.719 143.15C232.767 143.016 230.189 139.958 230.189 139.958C229.169 138.332 228.423 136.584 227.976 134.769C227.53 132.898 226.925 131.06 226.166 129.269C225.914 128.604 224.807 124.302 224.807 124.302L228.873 116.186Z" fill="#FA595F"/>
<path opacity="0.1" d="M213.427 116.186C213.427 116.186 213.275 126.476 211.867 128.516L213.427 116.186Z" fill="black"/>
<path opacity="0.1" d="M221.579 119.824C221.579 119.824 220.271 130.113 219.239 130.644C218.207 131.174 221.579 119.824 221.579 119.824Z" fill="black"/>
<path opacity="0.1" d="M219.684 118.36C219.684 118.36 219.365 128.063 217.705 129.021C216.045 129.979 219.684 118.36 219.684 118.36Z" fill="black"/>
<path opacity="0.1" d="M205.227 136.72C205.227 136.72 203.145 142.086 203.38 144.302C203.615 146.519 205.227 136.72 205.227 136.72Z" fill="black"/>
<path opacity="0.1" d="M222.356 131.417C219.632 131.956 212.263 132.921 205.783 129.367C205.783 128.892 205.809 128.283 205.823 127.598C208.283 128.791 215.193 131.895 218.711 131.025C220.466 130.583 221.579 130.303 222.275 130.121C222.206 130.553 222.233 130.994 222.356 131.417Z" fill="black"/>
<path opacity="0.1" d="M222.356 130.886C219.632 131.422 212.263 132.388 205.783 128.837C205.783 128.361 205.809 127.75 205.823 127.067C208.283 128.26 215.193 131.364 218.711 130.495C220.466 130.055 221.579 129.772 222.275 129.592C222.206 130.024 222.233 130.464 222.356 130.886Z" fill="black"/>
<path d="M222.356 131.076C219.632 131.612 212.263 132.577 205.783 129.026C205.783 128.551 205.809 127.942 205.823 127.257C208.283 128.45 215.193 131.554 218.711 130.684C220.466 130.244 221.579 129.961 222.275 129.782C222.206 130.214 222.233 130.653 222.356 131.076Z" fill="#605D82"/>
<path opacity="0.1" d="M222.356 131.076C219.632 131.612 212.263 132.577 205.783 129.026C205.783 128.551 205.809 127.942 205.823 127.257C208.283 128.45 215.193 131.554 218.711 130.684C220.466 130.244 221.579 129.961 222.275 129.782C222.206 130.214 222.233 130.653 222.356 131.076Z" fill="black"/>
<path opacity="0.1" d="M210.632 192.107C210.632 192.165 210.617 192.203 210.614 192.216L206.408 195.044C207.079 194.506 207.251 193.252 207.248 192.09C207.248 191.963 207.248 191.837 207.248 191.711C207.619 190.907 208.144 190.166 208.802 189.522C209.519 189.357 209.969 189.522 210.236 189.807C210.236 189.835 210.236 189.863 210.236 189.888C210.293 189.949 210.343 190.015 210.385 190.085C210.807 190.725 210.686 191.769 210.632 192.107Z" fill="black"/>
<path opacity="0.1" d="M210.305 190.672L207.131 192.593C207.131 192.593 207.151 192.368 207.179 192.037C207.557 191.177 208.108 190.385 208.805 189.699C209.522 189.537 209.972 189.699 210.239 189.984C210.265 190.399 210.305 190.672 210.305 190.672Z" fill="black"/>
<path d="M210.611 192.398C210.166 193.298 209.941 194.272 209.952 195.254C209.971 196.062 209.738 196.858 209.278 197.557C209.214 197.656 209.14 197.749 209.057 197.837C209.057 197.837 206.852 197.822 206.081 197.258C205.994 197.201 205.921 197.128 205.869 197.044C205.427 196.268 206.729 193.295 206.729 193.295C207.412 191.003 208.799 189.78 208.799 189.78C211.274 189.208 210.611 192.398 210.611 192.398Z" fill="#5A5773"/>
<path opacity="0.1" d="M209.278 197.549C209.214 197.648 209.14 197.742 209.057 197.83C209.057 197.83 206.853 197.814 206.081 197.251C206.46 196.144 207.673 192.795 208.237 193.364C208.802 193.932 209.144 196.48 209.278 197.549Z" fill="black"/>
<path d="M208.974 193.578L208.822 198.598H209.562C209.562 198.598 209.68 194.195 210.012 193.578C210.345 192.962 208.974 193.578 208.974 193.578Z" fill="#5A5773"/>
<path opacity="0.1" d="M225.269 190.978L225.252 191.081L221.065 193.889C221.716 193.338 221.885 192.1 221.883 190.952C221.883 190.826 221.883 190.7 221.883 190.571C222.252 189.768 222.777 189.028 223.434 188.384C224.151 188.22 224.604 188.384 224.882 188.667C224.882 188.698 224.882 188.723 224.882 188.751C224.94 188.811 224.99 188.876 225.031 188.945C225.447 189.595 225.323 190.641 225.269 190.978Z" fill="black"/>
<path opacity="0.1" d="M224.942 189.532L221.768 191.455C221.768 191.455 221.788 191.23 221.82 190.899C222.195 190.04 222.745 189.247 223.443 188.561C224.159 188.4 224.609 188.549 224.89 188.847C224.902 189.261 224.942 189.532 224.942 189.532Z" fill="black"/>
<path d="M225.252 191.261C224.804 192.161 224.578 193.134 224.589 194.117C224.608 194.924 224.375 195.721 223.916 196.419C223.85 196.518 223.777 196.612 223.695 196.7C223.695 196.7 221.49 196.685 220.719 196.121C220.634 196.062 220.563 195.988 220.512 195.904C220.073 195.128 221.372 192.155 221.372 192.155C222.055 189.863 223.442 188.64 223.442 188.64C225.911 188.076 225.252 191.261 225.252 191.261Z" fill="#5A5773"/>
<path opacity="0.1" d="M223.915 196.419C223.85 196.518 223.776 196.612 223.695 196.7C223.695 196.7 221.49 196.685 220.719 196.121C221.097 195.014 222.31 191.663 222.875 192.231C223.44 192.8 223.781 195.343 223.915 196.419Z" fill="black"/>
<path d="M223.615 192.441L223.46 197.458H224.199C224.199 197.458 224.317 193.058 224.65 192.441C224.982 191.824 223.615 192.441 223.615 192.441Z" fill="#5A5773"/>
<path opacity="0.1" d="M230.206 120.134C230.172 121.398 229.389 122.745 228.016 123.122C227.614 123.231 227.187 123.256 226.777 123.329C226.58 123.361 226.388 123.413 226.204 123.483C225.323 123.84 224.885 124.724 224.707 125.563C224.644 125.852 224.604 126.142 224.564 126.435C224.516 126.994 224.384 127.544 224.171 128.071C223.778 128.883 223.101 129.563 222.238 130.012C221.237 130.537 220.157 130.935 219.03 131.195C219.599 130.422 219.971 129.549 220.119 128.637C220.268 127.725 220.19 126.795 219.89 125.912C219.706 125.394 219.317 124.815 218.694 124.83C218.21 124.843 217.863 125.222 217.502 125.51C215.724 126.921 212.943 126.291 210.692 125.581C214.706 121.985 215.821 116.143 213.401 111.581C213.182 111.225 213.016 110.846 212.908 110.452C212.837 110.059 212.879 109.658 213.032 109.284C213.227 108.805 213.501 108.355 213.846 107.947C213.986 107.772 214.133 107.601 214.282 107.426C214.474 107.196 214.666 106.964 214.838 106.724C215.093 106.387 215.286 106.018 215.411 105.629C215.667 104.77 215.308 103.683 214.365 103.39L214.313 103.372C213.27 103.084 212.946 102.998 212.234 102.26C211.758 101.77 211.489 100.996 210.675 100.852C210.05 100.738 209.35 100.984 208.693 101.133C208.821 100.404 209.134 99.7113 209.609 99.105C210.084 98.4987 210.709 97.9951 211.436 97.6319C212.164 97.2688 212.975 97.0555 213.809 97.0082C214.643 96.9608 215.479 97.0806 216.253 97.3584C217.027 97.6363 217.72 98.0651 218.279 98.6127C218.839 99.1602 219.25 99.8123 219.483 100.52C219.715 101.228 219.763 101.973 219.623 102.699C219.482 103.426 219.157 104.114 218.671 104.714C219.405 106.837 221.306 108.531 222.763 109.575L225.315 110.507C226.092 110.919 226.843 111.367 227.566 111.849C227.96 113.427 228.502 114.974 229.188 116.472C229.538 117.211 229.826 117.971 230.049 118.747C230.167 119.202 230.22 119.668 230.206 120.134Z" fill="black"/>
<path d="M214.5 103.195C215.48 103.466 215.859 104.578 215.598 105.452C215.337 106.327 214.634 107.034 214.041 107.77C213.447 108.505 212.92 109.385 213.1 110.275C213.208 110.669 213.374 111.049 213.593 111.404C216.013 115.967 214.884 121.805 210.884 125.404C213.135 126.114 215.919 126.744 217.694 125.333C218.055 125.045 218.402 124.666 218.886 124.654C219.503 124.636 219.901 125.217 220.082 125.735C220.382 126.618 220.46 127.547 220.311 128.459C220.163 129.37 219.791 130.243 219.222 131.015C221.295 130.485 223.572 129.663 224.366 127.894C224.721 127.103 224.721 126.223 224.899 125.384C225.077 124.545 225.516 123.663 226.396 123.306C226.969 123.079 227.614 123.107 228.208 122.945C229.581 122.568 230.364 121.224 230.398 119.957C230.433 118.691 229.882 117.475 229.366 116.295C226.499 109.724 229.194 114.988 227.623 107.08C227.302 105.465 227.804 104.499 228.214 102.902C228.624 101.305 228.535 99.4544 227.276 98.2463C226.017 97.0382 224.062 96.8132 222.499 95.9943C221.114 95.2664 219.896 94.0406 218.284 94.0633C217.103 94.0785 217.106 94.2478 216.016 94.6522C214.133 95.3498 212.019 95.14 210.104 95.7163C208.384 96.2369 206.199 97.9405 206.721 99.7603C207.423 102.209 209.35 100.407 210.852 100.683C211.667 100.834 211.936 101.598 212.412 102.091C213.135 102.819 213.456 102.907 214.5 103.195Z" fill="#4A4347"/>
<path d="M196.407 133.07C196.407 133.07 195.593 132.994 194.497 132.845C191.63 132.461 186.782 131.581 189.54 130.318C192.072 129.15 195.561 130.141 197.603 130.934C198.183 131.16 198.75 131.413 199.3 131.693L196.407 133.07Z" fill="#A1616A"/>
<path opacity="0.1" d="M211.667 117.65C211.667 117.65 210.359 123.463 209.705 124.745C209.052 126.026 207.985 129.403 207.985 129.403C207.985 129.403 206.44 130.636 205.164 131.834L205.737 130.065L205.76 129.011C205.76 128.536 205.786 127.927 205.8 127.242C205.852 124.411 205.906 120.213 205.8 118.315C205.912 118.13 205.984 118.016 205.984 118.016L207.001 116.593C207.001 116.593 208.662 112.691 209.616 111.581C210.571 110.472 211.667 117.65 211.667 117.65Z" fill="black"/>
<path opacity="0.1" d="M197.207 132.299C197.207 132.299 197.061 132.805 196.814 133.487C196.502 133.376 196.241 133.287 196.049 133.234C195.189 132.982 196.201 132.658 195.948 131.993C195.733 131.422 195.335 131.602 194.876 131.442C195.176 131.082 195.501 130.739 195.848 130.414L197.207 132.299Z" fill="black"/>
<path d="M206.835 116.586L205.818 118.009C205.818 118.009 204.435 120.266 204.22 120.966C204.005 121.666 203.575 124.345 202.715 124.967C201.855 125.589 200.097 127.583 200.35 127.982C200.602 128.382 197.984 128.869 197.984 128.869C197.984 128.869 196.224 129.491 196.324 129.979C196.424 130.467 194.865 130.866 195.418 131.22C195.971 131.574 196.476 131.22 196.728 131.885C196.981 132.549 195.971 132.863 196.829 133.128C197.686 133.394 200.502 134.432 200.502 134.432C200.502 134.432 202.764 134.769 203.418 133.571C204.071 132.373 207.796 129.403 207.796 129.403C207.796 129.403 208.851 126.031 209.516 124.745C210.181 123.458 211.48 117.65 211.48 117.65C211.48 117.65 210.422 110.464 209.473 111.584C208.524 112.704 206.835 116.586 206.835 116.586Z" fill="#FA595F"/>
<path opacity="0.1" d="M203.968 128.028C203.968 128.028 198.988 128.604 201.654 129.58C204.321 130.555 205.227 129.58 205.227 129.58L203.968 128.028Z" fill="black"/>
<path opacity="0.1" d="M197.781 130.644C197.781 130.644 200.699 130.113 201.453 130.644C202.208 131.174 197.781 130.644 197.781 130.644Z" fill="black"/>
<path opacity="0.1" d="M197.479 131.976C197.479 131.976 197.68 131.531 198.687 131.976C199.693 132.421 197.479 131.976 197.479 131.976Z" fill="black"/>
<path opacity="0.1" d="M230.407 136.212C230.407 136.212 230.711 140.256 231.947 140.387C233.182 140.519 230.407 136.212 230.407 136.212Z" fill="black"/>
<path opacity="0.1" d="M233.051 127.057C233.051 127.057 233.26 128.293 231.947 128.516C230.634 128.738 233.051 127.057 233.051 127.057Z" fill="black"/>
<path opacity="0.1" d="M218.155 139.086C218.155 139.086 218.089 151.564 220.974 153.101L218.155 139.086Z" fill="black"/>
<path opacity="0.1" d="M221.977 139.619C221.977 139.619 221.926 152.095 224.793 153.634L221.977 139.619Z" fill="black"/>
<path opacity="0.1" d="M206.649 166.635C207.302 166.582 207.96 166.582 208.613 166.635C209.705 166.714 206.649 166.635 206.649 166.635Z" fill="black"/>
<path opacity="0.1" d="M206.649 167.507C207.302 167.454 207.96 167.454 208.613 167.507C209.705 167.596 206.649 167.507 206.649 167.507Z" fill="black"/>
<path opacity="0.1" d="M221.573 165.612C222.226 165.558 222.884 165.558 223.537 165.612C224.629 165.703 221.573 165.612 221.573 165.612Z" fill="black"/>
<path opacity="0.1" d="M221.908 166.309C222.562 166.256 223.219 166.256 223.873 166.309C224.962 166.398 221.908 166.309 221.908 166.309Z" fill="black"/>
<g opacity="0.1">
<path opacity="0.1" d="M211.942 124.967C215.956 121.37 217.071 115.532 214.651 110.967C214.432 110.611 214.266 110.231 214.158 109.837C213.978 108.948 214.502 108.068 215.099 107.333C215.695 106.597 216.398 105.889 216.656 105.015C216.914 104.14 216.538 103.028 215.558 102.76C214.514 102.472 214.19 102.384 213.479 101.646C213.003 101.155 212.733 100.382 211.919 100.24C210.417 99.965 208.478 101.757 207.787 99.3154C207.392 97.9455 208.547 96.6363 209.88 95.8553C208.215 96.4644 206.288 98.082 206.781 99.7931C207.483 102.242 209.41 100.443 210.913 100.718C211.727 100.867 211.996 101.633 212.472 102.123C213.186 102.862 213.507 102.95 214.551 103.238C215.532 103.506 215.91 104.618 215.649 105.493C215.388 106.367 214.686 107.075 214.092 107.81C213.499 108.546 212.971 109.425 213.152 110.318C213.26 110.711 213.426 111.09 213.645 111.445C216.065 116.01 214.935 121.848 210.936 125.445C213.103 126.13 215.761 126.736 217.53 125.523C215.853 126.044 213.731 125.531 211.942 124.967Z" fill="black"/>
<path opacity="0.1" d="M227.462 122.872C227.249 122.957 227.055 123.075 226.889 123.22C227.342 123.122 227.821 123.109 228.265 122.985C228.61 122.891 228.928 122.735 229.2 122.525C228.629 122.667 228.004 122.652 227.462 122.872Z" fill="black"/>
<path opacity="0.1" d="M222.468 129.885C221.762 130.164 221.033 130.396 220.289 130.581C220.858 129.808 221.229 128.936 221.378 128.024C221.526 127.112 221.448 126.183 221.149 125.301C220.968 124.795 220.575 124.201 219.953 124.216C219.579 124.267 219.24 124.438 219.001 124.697C219.575 124.714 219.967 125.275 220.148 125.778C220.448 126.661 220.526 127.59 220.377 128.502C220.229 129.413 219.857 130.286 219.288 131.058C220.404 130.798 221.474 130.403 222.468 129.885Z" fill="black"/>
</g>
<defs>
<linearGradient id="paint0_linear" x1="214.961" y1="198.881" x2="214.961" y2="93.6083" gradientUnits="userSpaceOnUse">
<stop stop-color="#808080" stop-opacity="0.25"/>
<stop offset="0.54" stop-color="#808080" stop-opacity="0.12"/>
<stop offset="1" stop-color="#808080" stop-opacity="0.1"/>
</linearGradient>
</defs>
</svg>

