
		<svg  viewBox="0 0 540 410" fill="none" xmlns="http://www.w3.org/2000/svg">
<g clip-path="url(#clip0)">
<g opacity="0.1">
<path opacity="0.1" d="M432.384 290.476C432.384 290.476 393.834 285.34 422.584 349.359C422.584 349.359 448.784 337.839 449.828 311.855C450.04 306.798 448.437 301.837 445.323 297.912C442.208 293.986 437.799 291.37 432.93 290.557L432.384 290.476Z" fill="black"/>
<path opacity="0.1" d="M432.95 290.38C432.95 290.38 441.677 326.077 422.614 349.364" stroke="#535461" stroke-miterlimit="10"/>
<path opacity="0.1" d="M422.092 352.662C422.092 352.662 435.972 317.562 461.892 304.542C472.806 299.152 481.72 290.273 487.295 279.239C489.9 273.984 492.03 268.494 493.659 262.84" stroke="#535461" stroke-width="2" stroke-miterlimit="10"/>
<path opacity="0.1" d="M509.946 254.542C507.244 258.027 493.26 263.128 493.26 263.128C493.26 263.128 494.943 247.977 497.646 244.517C498.262 243.614 499.052 242.85 499.967 242.272C500.882 241.694 501.903 241.314 502.966 241.156C504.029 240.997 505.113 241.064 506.15 241.352C507.188 241.639 508.157 242.142 508.998 242.828C509.839 243.514 510.534 244.37 511.041 245.342C511.548 246.314 511.855 247.383 511.944 248.481C512.034 249.58 511.903 250.686 511.56 251.731C511.217 252.776 510.669 253.738 509.951 254.557L509.946 254.542Z" fill="black"/>
<path opacity="0.1" d="M505.147 282.143C501.032 283.562 486.601 280.032 486.601 280.032C486.601 280.032 496.026 268.274 500.141 266.855C501.138 266.436 502.208 266.231 503.285 266.253C504.362 266.275 505.423 266.524 506.402 266.983C507.382 267.443 508.259 268.104 508.98 268.925C509.701 269.747 510.25 270.711 510.593 271.759C510.936 272.807 511.066 273.915 510.975 275.017C510.883 276.118 510.573 277.188 510.063 278.162C509.552 279.135 508.852 279.99 508.007 280.675C507.161 281.36 506.188 281.86 505.147 282.143Z" fill="black"/>
<path opacity="0.1" d="M479.129 314.774C474.881 313.87 464.156 303.345 464.156 303.345C464.156 303.345 478.076 298.077 482.328 298.981C484.253 299.531 485.901 300.812 486.94 302.562C487.979 304.313 488.331 306.403 487.924 308.41C487.518 310.417 486.383 312.19 484.75 313.371C483.117 314.552 481.108 315.051 479.129 314.769V314.774Z" fill="black"/>
<path opacity="0.1" d="M454.026 334.915C449.69 334.759 437.385 326.249 437.385 326.249C437.385 326.249 450.241 318.632 454.578 318.794C456.566 319.002 458.402 319.977 459.716 321.522C461.029 323.068 461.721 325.068 461.651 327.117C461.581 329.166 460.754 331.111 459.338 332.558C457.923 334.005 456.024 334.846 454.026 334.91V334.915Z" fill="black"/>
<path opacity="0.1" d="M473.163 270.148C473.719 274.567 483.116 286.345 483.116 286.345C483.116 286.345 489.303 272.507 488.752 268.088C488.684 266.984 488.396 265.907 487.907 264.922C487.417 263.937 486.735 263.066 485.904 262.362C485.073 261.658 484.11 261.137 483.075 260.831C482.04 260.524 480.954 260.439 479.885 260.58C478.817 260.721 477.788 261.086 476.862 261.652C475.936 262.218 475.133 262.972 474.503 263.869C473.873 264.766 473.429 265.786 473.199 266.866C472.968 267.946 472.956 269.063 473.163 270.148Z" fill="black"/>
<path opacity="0.1" d="M444.094 294.108C445.91 298.148 458.313 306.506 458.313 306.506C458.313 306.506 460.184 291.4 458.368 287.36C457.981 286.329 457.392 285.39 456.637 284.602C455.882 283.813 454.978 283.192 453.98 282.777C452.983 282.361 451.912 282.16 450.836 282.185C449.759 282.211 448.699 282.463 447.721 282.926C446.743 283.388 445.868 284.052 445.15 284.875C444.432 285.699 443.886 286.664 443.546 287.713C443.206 288.761 443.079 289.87 443.173 290.971C443.267 292.072 443.581 293.141 444.094 294.113V294.108Z" fill="black"/>
<path opacity="0.1" d="M418.951 321.35C420.074 325.653 430.927 336.036 430.927 336.036C430.927 336.036 435.258 321.476 434.131 317.173C433.922 316.088 433.497 315.058 432.884 314.148C432.271 313.238 431.482 312.467 430.566 311.883C429.651 311.298 428.628 310.913 427.562 310.751C426.495 310.588 425.408 310.652 424.366 310.939C423.325 311.225 422.352 311.728 421.508 312.416C420.663 313.104 419.966 313.963 419.458 314.939C418.951 315.915 418.644 316.988 418.557 318.09C418.469 319.193 418.604 320.302 418.951 321.35Z" fill="black"/>
<path opacity="0.25" d="M509.946 254.542C507.244 258.027 493.26 263.128 493.26 263.128C493.26 263.128 494.943 247.977 497.646 244.517C498.262 243.614 499.052 242.85 499.967 242.272C500.882 241.694 501.903 241.314 502.966 241.156C504.029 240.997 505.113 241.064 506.15 241.352C507.188 241.639 508.157 242.142 508.998 242.828C509.839 243.514 510.534 244.37 511.041 245.342C511.548 246.314 511.855 247.383 511.944 248.481C512.034 249.58 511.903 250.686 511.56 251.731C511.217 252.776 510.669 253.738 509.951 254.557L509.946 254.542Z" fill="black"/>
<path opacity="0.25" d="M505.147 282.143C501.032 283.562 486.601 280.032 486.601 280.032C486.601 280.032 496.026 268.274 500.141 266.855C501.138 266.436 502.208 266.231 503.285 266.253C504.362 266.275 505.423 266.524 506.402 266.983C507.382 267.443 508.259 268.104 508.98 268.925C509.701 269.747 510.25 270.711 510.593 271.759C510.936 272.807 511.066 273.915 510.975 275.017C510.883 276.118 510.573 277.188 510.063 278.162C509.552 279.135 508.852 279.99 508.007 280.675C507.161 281.36 506.188 281.86 505.147 282.143Z" fill="black"/>
<path opacity="0.25" d="M479.129 314.774C474.881 313.87 464.156 303.345 464.156 303.345C464.156 303.345 478.076 298.077 482.328 298.981C484.253 299.531 485.901 300.812 486.94 302.562C487.979 304.313 488.331 306.403 487.924 308.41C487.518 310.417 486.383 312.19 484.75 313.371C483.117 314.552 481.108 315.051 479.129 314.769V314.774Z" fill="black"/>
<path opacity="0.25" d="M454.026 334.915C449.69 334.759 437.385 326.249 437.385 326.249C437.385 326.249 450.241 318.632 454.578 318.794C456.566 319.002 458.402 319.977 459.716 321.522C461.029 323.068 461.721 325.068 461.651 327.117C461.581 329.166 460.754 331.111 459.338 332.558C457.923 334.005 456.024 334.846 454.026 334.91V334.915Z" fill="black"/>
<path opacity="0.25" d="M473.163 270.148C473.719 274.567 483.116 286.345 483.116 286.345C483.116 286.345 489.303 272.507 488.752 268.088C488.684 266.984 488.396 265.907 487.907 264.922C487.417 263.937 486.735 263.066 485.904 262.362C485.073 261.658 484.11 261.137 483.075 260.831C482.04 260.524 480.954 260.439 479.885 260.58C478.817 260.721 477.788 261.086 476.862 261.652C475.936 262.218 475.133 262.972 474.503 263.869C473.873 264.766 473.429 265.786 473.199 266.866C472.968 267.946 472.956 269.063 473.163 270.148Z" fill="black"/>
<path opacity="0.25" d="M444.094 294.108C445.91 298.148 458.313 306.506 458.313 306.506C458.313 306.506 460.184 291.4 458.368 287.36C457.981 286.329 457.392 285.39 456.637 284.602C455.882 283.813 454.978 283.192 453.98 282.777C452.983 282.361 451.912 282.16 450.836 282.185C449.759 282.211 448.699 282.463 447.721 282.926C446.743 283.388 445.868 284.052 445.15 284.875C444.432 285.699 443.886 286.664 443.546 287.713C443.206 288.761 443.079 289.87 443.173 290.971C443.267 292.072 443.581 293.141 444.094 294.113V294.108Z" fill="black"/>
<path opacity="0.25" d="M418.951 321.35C420.074 325.653 430.927 336.036 430.927 336.036C430.927 336.036 435.258 321.476 434.131 317.173C433.922 316.088 433.497 315.058 432.884 314.148C432.271 313.238 431.482 312.467 430.566 311.883C429.651 311.298 428.628 310.913 427.562 310.751C426.495 310.588 425.408 310.652 424.366 310.939C423.325 311.225 422.352 311.728 421.508 312.416C420.663 313.104 419.966 313.963 419.458 314.939C418.951 315.915 418.644 316.988 418.557 318.09C418.469 319.193 418.604 320.302 418.951 321.35Z" fill="black"/>
<path opacity="0.1" d="M440.579 368.632C440.579 368.632 454.459 333.531 480.379 320.511C491.288 315.117 500.197 306.237 505.767 295.203C508.372 289.948 510.502 284.459 512.131 278.805" stroke="#535461" stroke-width="2" stroke-miterlimit="10"/>
<path opacity="0.1" d="M528.409 270.502C525.706 273.987 511.723 279.087 511.723 279.087C511.723 279.087 513.406 263.936 516.108 260.477C517.45 258.947 519.31 257.999 521.309 257.829C523.308 257.658 525.295 258.276 526.865 259.557C528.434 260.837 529.469 262.685 529.757 264.722C530.045 266.758 529.564 268.831 528.414 270.517L528.409 270.502Z" fill="black"/>
<path opacity="0.1" d="M523.619 298.102C519.505 299.522 505.073 295.991 505.073 295.991C505.073 295.991 514.499 284.234 518.614 282.815C520.547 282.288 522.603 282.537 524.365 283.51C526.126 284.482 527.461 286.106 528.098 288.052C528.735 289.997 528.627 292.119 527.795 293.985C526.963 295.852 525.47 297.324 523.619 298.102Z" fill="black"/>
<path opacity="0.1" d="M497.601 330.753C493.354 329.849 482.628 319.324 482.628 319.324C482.628 319.324 496.548 314.057 500.801 314.961C502.725 315.511 504.374 316.791 505.413 318.542C506.452 320.293 506.803 322.383 506.397 324.39C505.99 326.397 504.855 328.17 503.222 329.351C501.589 330.531 499.58 331.031 497.601 330.748V330.753Z" fill="black"/>
<path opacity="0.1" d="M472.494 350.869C468.157 350.713 455.852 342.203 455.852 342.203C455.852 342.203 468.709 334.597 473.045 334.753C475.033 334.961 476.87 335.936 478.183 337.482C479.497 339.027 480.188 341.027 480.118 343.076C480.048 345.125 479.221 347.071 477.806 348.518C476.39 349.965 474.491 350.805 472.494 350.869Z" fill="black"/>
<path opacity="0.1" d="M491.631 286.128C492.187 290.547 501.583 302.325 501.583 302.325C501.583 302.325 507.77 288.486 507.219 284.067C507.151 282.964 506.864 281.886 506.374 280.902C505.884 279.917 505.203 279.045 504.372 278.342C503.541 277.638 502.578 277.117 501.542 276.81C500.507 276.504 499.422 276.419 498.353 276.56C497.284 276.701 496.255 277.066 495.329 277.632C494.404 278.197 493.601 278.952 492.971 279.849C492.341 280.746 491.897 281.766 491.666 282.846C491.436 283.926 491.424 285.043 491.631 286.128Z" fill="black"/>
<path opacity="0.1" d="M462.566 310.047C464.382 314.087 476.786 322.446 476.786 322.446C476.786 322.446 478.656 307.34 476.84 303.299C475.887 301.494 474.3 300.129 472.402 299.48C470.503 298.832 468.435 298.95 466.618 299.81C464.801 300.669 463.371 302.206 462.618 304.109C461.866 306.011 461.847 308.136 462.566 310.052V310.047Z" fill="black"/>
<path opacity="0.1" d="M437.424 337.319C438.546 341.622 449.4 352.006 449.4 352.006C449.4 352.006 453.731 337.445 452.604 333.142C451.959 331.201 450.62 329.585 448.857 328.619C447.094 327.654 445.04 327.412 443.109 327.943C441.179 328.474 439.518 329.738 438.463 331.479C437.407 333.22 437.036 335.308 437.424 337.319Z" fill="black"/>
</g>
<path opacity="0.1" d="M5.83276 217.154C14.3775 254.628 32.4661 287.022 61.0534 302.724C120.463 335.354 254.446 318.526 354.443 299.188C404.968 289.453 450.83 262.555 484.647 222.826L5.83276 217.154Z" fill="black"/>
<path opacity="0.1" d="M530.205 40.7619H475.339C474.081 40.7619 472.875 40.2493 471.985 39.3367C471.096 38.4241 470.596 37.1864 470.596 35.8958C470.596 34.6053 471.096 33.3675 471.985 32.455C472.875 31.5424 474.081 31.0297 475.339 31.0297H484.824C483.566 31.0297 482.36 30.517 481.47 29.6045C480.581 28.6919 480.081 27.4542 480.081 26.1636C480.081 24.8731 480.581 23.6353 481.47 22.7228C482.36 21.8102 483.566 21.2975 484.824 21.2975H478.051C476.793 21.2975 475.587 20.7848 474.698 19.8723C473.808 18.9597 473.309 17.722 473.309 16.4314C473.309 15.1409 473.808 13.9031 474.698 12.9906C475.587 12.078 476.793 11.5653 478.051 11.5653H506.688C500.333 8.53505 492.906 6.37851 484.351 5.24721C406.268 -5.04559 378.389 1.76241 368.555 8.78252C356.422 17.4188 342.886 23.7722 328.42 26.8328C280.238 37.0196 190.14 49.2921 108.478 22.8935C67.8901 9.76231 37.7228 31.9439 19.644 68.9939H539.729C539.05 58.2264 537.017 48.2871 533.286 39.5801C532.431 40.3408 531.337 40.7603 530.205 40.7619Z" fill="black"/>
<path opacity="0.1" d="M1.17631 138.938C-0.930086 160.733 -0.213435 182.719 3.30756 204.321L485.021 222.396C498.43 206.569 509.689 188.951 518.491 170.023L1.17631 138.938ZM191.7 185.579H182.215C183.473 185.579 184.679 186.091 185.568 187.004C186.458 187.916 186.957 189.154 186.957 190.445C186.957 191.735 186.458 192.973 185.568 193.885C184.679 194.798 183.473 195.311 182.215 195.311H127.349C126.091 195.311 124.885 194.798 123.995 193.885C123.106 192.973 122.606 191.735 122.606 190.445C122.606 189.154 123.106 187.916 123.995 187.004C124.885 186.091 126.091 185.579 127.349 185.579H136.833C135.576 185.579 134.369 185.066 133.48 184.153C132.591 183.241 132.091 182.003 132.091 180.712C132.091 179.422 132.591 178.184 133.48 177.272C134.369 176.359 135.576 175.846 136.833 175.846H130.061C128.803 175.846 127.597 175.334 126.707 174.421C125.818 173.509 125.318 172.271 125.318 170.98C125.318 169.69 125.818 168.452 126.707 167.539C127.597 166.627 128.803 166.114 130.061 166.114H184.927C186.185 166.114 187.391 166.627 188.28 167.539C189.17 168.452 189.669 169.69 189.669 170.98C189.669 172.271 189.17 173.509 188.28 174.421C187.391 175.334 186.185 175.846 184.927 175.846H191.7C192.957 175.846 194.164 176.359 195.053 177.272C195.942 178.184 196.442 179.422 196.442 180.712C196.442 182.003 195.942 183.241 195.053 184.153C194.164 185.066 192.957 185.579 191.7 185.579Z" fill="black"/>
<path opacity="0.1" d="M539.754 69.3325L13.8359 82.4636C7.44216 99.3371 3.22395 118.413 1.25513 138.185H530.54C533.996 126.57 536.551 114.693 538.184 102.665C539.759 91.0443 540.389 79.802 539.754 69.3325ZM108.025 112.347H98.5398C99.7975 112.347 101.004 112.86 101.893 113.772C102.783 114.685 103.282 115.923 103.282 117.213C103.282 118.504 102.783 119.741 101.893 120.654C101.004 121.567 99.7975 122.079 98.5398 122.079H43.6735C42.4157 122.079 41.2095 121.567 40.3201 120.654C39.4307 119.741 38.9311 118.504 38.9311 117.213C38.9311 115.923 39.4307 114.685 40.3201 113.772C41.2095 112.86 42.4157 112.347 43.6735 112.347H53.1583C51.9006 112.347 50.6943 111.834 49.8049 110.922C48.9156 110.009 48.4159 108.772 48.4159 107.481C48.4159 106.19 48.9156 104.953 49.8049 104.04C50.6943 103.128 51.9006 102.615 53.1583 102.615H46.3856C45.1278 102.615 43.9215 102.102 43.0322 101.19C42.1428 100.277 41.6431 99.0394 41.6431 97.7488C41.6431 96.4582 42.1428 95.2205 43.0322 94.3079C43.9215 93.3954 45.1278 92.8827 46.3856 92.8827H101.252C102.51 92.8827 103.716 93.3954 104.605 94.3079C105.495 95.2205 105.994 96.4582 105.994 97.7488C105.994 99.0394 105.495 100.277 104.605 101.19C103.716 102.102 102.51 102.615 101.252 102.615H108.025C109.282 102.615 110.489 103.128 111.378 104.04C112.267 104.953 112.767 106.19 112.767 107.481C112.767 108.772 112.267 110.009 111.378 110.922C110.489 111.834 109.282 112.347 108.025 112.347Z" fill="black"/>
<path d="M462.025 409.742C462.025 409.742 440.092 286.31 398.269 266.28C362.83 249.295 324.507 237.846 313.61 234.74C311.982 232.05 310.101 229.531 307.993 227.219C293.099 211.265 284.151 211.563 282.704 211.76C282.017 208.596 281.524 205.391 281.227 202.164C281.183 201.659 281.139 201.189 281.099 200.689L281.227 200.624C281.139 199.669 281.06 198.684 280.991 197.669C287.071 194.34 292.669 190.156 297.623 185.24C297.687 185.457 297.741 185.674 297.81 185.897C308.543 176.587 319.055 167.025 329.345 157.21C332.299 154.377 335.4 151.301 336.404 147.306C336.725 145.931 336.85 144.516 336.773 143.104C336.906 140.074 336.207 136.978 336.089 133.907C336.089 133.402 336.143 132.933 336.207 132.453C336.896 127.428 340.302 123.302 343.098 119.084C350.082 108.427 353.728 95.8354 353.547 82.9939C353.624 76.8408 352.794 70.7112 351.086 64.8123C348.906 57.3276 344.368 49.464 336.812 47.8277C333.888 47.1964 330.852 47.5903 327.869 47.3934C315.519 46.5853 306.276 36.2824 296.427 28.732C284.406 19.5614 270.191 13.9001 255.288 12.3483C250.637 11.8433 245.833 11.8079 241.408 13.3231C231.47 16.717 225.436 27.1966 215.862 31.5047C208.784 34.7067 200.604 34.1865 193.221 36.5905C182.23 40.1763 172.902 51.7418 172.656 63.6255C172.656 64.0649 172.656 64.5043 172.656 64.9437C172.656 65.0194 172.656 65.0952 172.656 65.1659C172.533 71.1709 174.625 77.2869 174.793 83.4333C174.793 83.9889 174.801 84.5461 174.817 85.105C174.763 91.7413 173.99 98.3978 171.633 104.635C170.363 107.994 168.729 111.882 168.994 115.241C168.847 117.297 169.235 119.226 170.628 120.797L173.006 118.645C172.208 123.073 171.808 127.566 171.81 132.069C171.81 154.766 181.87 175.089 197.739 188.765C197.831 190.277 197.92 191.897 198.005 193.624C198.379 201.109 198.674 210.497 198.591 220.73L175.378 242.623L115.703 270.401C115.703 270.401 61.1272 282.229 72.8811 360.9L78.4923 409.748H128.318L128.205 410.005H202.159L202.203 409.748H378.158L378.123 410.005H385.014V409.748L462.025 409.742ZM283.142 213.013C284.65 216.214 285.838 219.565 286.686 223.012C284.944 219.695 283.657 216.146 282.861 212.467L282.935 212.603L283.142 213.013ZM198.571 223.113C198.571 224.076 198.555 225.048 198.522 226.028L198.404 226.199C198.396 225.16 198.452 224.121 198.571 223.088V223.113Z" fill="url(#paint0_linear)"/>
<path d="M302.609 235.502L292.764 331.966L240.098 349.137C240.098 349.137 171.682 336.006 189.401 298.128C202.006 271.184 201.657 223.033 200.407 197.477C199.915 187.104 199.245 180.452 199.245 180.452C199.245 180.452 288.827 100.15 281.444 172.372C280.016 186.356 279.933 197.29 280.725 205.836C284.047 241.411 302.609 235.502 302.609 235.502Z" fill="#FDC2CC"/>
<path opacity="0.03" d="M302.609 235.502L292.764 331.966L240.098 349.137C240.098 349.137 171.682 336.006 189.401 298.128C202.006 271.184 201.657 223.033 200.407 197.477C199.915 187.104 199.245 180.452 199.245 180.452C199.245 180.452 288.827 100.15 281.444 172.372C280.016 186.356 279.933 197.29 280.725 205.836C284.047 241.411 302.609 235.502 302.609 235.502Z" fill="black"/>
<path opacity="0.1" d="M281.444 170.856C280.016 184.841 279.933 195.775 280.725 204.321C268.079 211.405 253.639 214.398 239.304 212.906C224.969 211.414 211.41 205.508 200.407 195.962C199.915 185.589 199.245 178.937 199.245 178.937C199.245 178.937 288.827 98.6352 281.444 170.856Z" fill="black"/>
<path d="M246.497 210.255C285.914 210.255 317.867 177.468 317.867 137.024C317.867 96.579 285.914 63.7921 246.497 63.7921C207.081 63.7921 175.127 96.579 175.127 137.024C175.127 177.468 207.081 210.255 246.497 210.255Z" fill="#FDC2CC"/>
<path opacity="0.03" d="M246.497 210.255C285.914 210.255 317.867 177.468 317.867 137.024C317.867 96.579 285.914 63.7921 246.497 63.7921C207.081 63.7921 175.127 96.579 175.127 137.024C175.127 177.468 207.081 210.255 246.497 210.255Z" fill="black"/>
<path opacity="0.1" d="M128.86 332.976C128.86 332.976 151.993 381.46 153.224 409.995L128.86 332.976Z" fill="black"/>
<path opacity="0.1" d="M380.87 360.758L374.225 410H380.87V360.758Z" fill="black"/>
<path opacity="0.1" d="M134.028 409.995L170.697 324.39C170.697 324.39 181.034 304.188 183.495 283.986C185.956 263.785 199.245 231.967 199.245 231.967C199.245 231.967 232.223 189.038 247.481 195.099C262.74 201.159 234.192 223.886 234.192 223.886C234.192 223.886 276.029 240.553 247.481 290.047C218.934 339.541 218.441 330.451 218.441 330.451L204.413 409.995H134.028Z" fill="black"/>
<path d="M133.043 409.995L169.713 324.39C169.713 324.39 180.049 304.188 182.51 283.986C184.075 271.143 190.016 253.603 194.136 242.527C196.825 235.286 200.782 228.611 205.811 222.831C216.473 210.588 235.836 190.846 246.497 195.089C261.756 201.149 233.208 223.876 233.208 223.876C233.208 223.876 275.045 240.543 246.497 290.037C217.949 339.531 217.457 330.44 217.457 330.44L203.429 409.985L133.043 409.995Z" fill="#FDC2CC"/>
<path opacity="0.15" d="M268.4 97.3776C269.216 97.3776 269.877 96.6992 269.877 95.8625C269.877 95.0257 269.216 94.3473 268.4 94.3473C267.585 94.3473 266.924 95.0257 266.924 95.8625C266.924 96.6992 267.585 97.3776 268.4 97.3776Z" fill="white"/>
<path opacity="0.15" d="M261.509 100.408C262.325 100.408 262.986 99.7295 262.986 98.8927C262.986 98.0559 262.325 97.3776 261.509 97.3776C260.694 97.3776 260.033 98.0559 260.033 98.8927C260.033 99.7295 260.694 100.408 261.509 100.408Z" fill="white"/>
<path opacity="0.1" d="M195.795 44.7368C202.917 42.3732 210.822 42.8833 217.654 39.7419C226.892 35.4895 232.715 25.1967 242.303 21.8634C246.576 20.3785 251.212 20.4341 255.696 20.9088C270.116 22.4486 283.847 28.0157 295.398 37.0046C304.902 44.4237 313.821 54.5397 325.737 55.3327C328.617 55.5246 331.545 55.1357 334.366 55.7569C341.67 57.3629 346.046 65.0851 348.148 72.4234C350.579 81.1201 351.149 90.2535 349.819 99.1974C348.488 108.141 345.289 116.684 340.44 124.241C337.742 128.382 334.454 132.438 333.79 137.372C333.14 142.21 335.148 147.225 333.977 151.963C332.993 155.887 330.039 158.907 327.165 161.69C317.239 171.323 307.094 180.708 296.732 189.846C291.347 172.291 299.247 153.387 298.016 135.029C297.524 127.877 295.063 120.069 288.915 116.696C283.162 113.544 275.808 115.18 269.985 112.15C263.488 108.792 260.82 100.837 255.908 95.3322C247.541 85.9384 233.016 84.7262 221.316 88.9686C209.616 93.211 200.052 101.938 190.799 110.448L173.98 125.928C170.697 122.13 173.188 116.302 174.965 111.554C177.613 104.438 178.194 96.7665 178.016 89.211C177.874 83.1505 175.836 77.1657 175.954 71.2668C176.19 59.6306 185.188 48.257 195.795 44.7368Z" fill="black"/>
<path d="M195.795 43.2217C202.917 40.8581 210.822 41.3682 217.654 38.2268C226.892 33.9743 232.715 23.6815 242.303 20.3482C246.576 18.8634 251.212 18.919 255.696 19.3937C270.116 20.9335 283.847 26.5006 295.398 35.4895C304.902 42.9086 313.821 53.0246 325.737 53.8175C328.617 54.0094 331.545 53.6206 334.366 54.2418C341.67 55.8478 346.046 63.5699 348.148 70.9082C350.579 79.605 351.149 88.7383 349.819 97.6823C348.488 106.626 345.289 115.169 340.44 122.726C337.742 126.867 334.454 130.923 333.79 135.857C333.14 140.695 335.148 145.71 333.977 150.448C332.993 154.372 330.039 157.392 327.165 160.175C317.239 169.808 307.094 179.193 296.732 188.331C291.347 170.776 299.247 151.872 298.016 133.514C297.524 126.362 295.063 118.554 288.915 115.18C283.162 112.029 275.808 113.665 269.985 110.635C263.488 107.276 260.82 99.322 255.908 93.817C247.541 84.4232 233.016 83.2111 221.316 87.4535C209.616 91.6958 200.052 100.423 190.799 108.933L173.98 124.413C170.697 120.615 173.188 114.786 174.965 110.039C177.613 102.923 178.194 95.2514 178.016 87.6959C177.874 81.6354 175.836 75.6506 175.954 69.7517C176.19 58.1154 185.188 46.7418 195.795 43.2217Z" fill="black"/>
</g>
<defs>
<linearGradient id="paint0_linear" x1="266.619" y1="409.995" x2="266.619" y2="12.01" gradientUnits="userSpaceOnUse">
<stop stop-color="#808080" stop-opacity="0.25"/>
<stop offset="0.54" stop-color="#808080" stop-opacity="0.12"/>
<stop offset="1" stop-color="#808080" stop-opacity="0.1"/>
</linearGradient>
<clipPath id="clip0">
<rect width="540" height="410" fill="white"/>
</clipPath>
</defs>
</svg>

