

		<svg  viewBox="0 0 594 464" fill="none" xmlns="http://www.w3.org/2000/svg">
<g clip-path="url(#clip0)">
<path opacity="0.1" d="M335.984 63.1716C297.909 63.2292 261.261 51.0167 226.207 37.4498C191.153 23.8829 156.368 8.6908 119.002 2.25315C94.9701 -1.88492 67.643 -1.50454 48.8578 13.5205C30.7755 27.9749 25.5393 51.8985 23.0129 74.0009C21.113 90.6281 20.2369 108.079 27.3526 123.289C32.2934 133.847 40.7488 142.55 46.7083 152.613C67.5106 187.619 55.0007 232.337 34.7842 268.156C25.305 284.962 14.201 301.07 7.03427 318.839C-0.132419 336.607 -3.07142 356.756 4.23789 374.293C11.481 391.676 27.8416 404.292 45.3993 412.908C81.0544 430.44 122.567 434.198 162.965 435.644C252.388 438.854 341.984 432.307 431.341 425.76C464.409 423.339 497.624 420.901 530.009 413.888C547.99 409.997 566.505 404.222 579.254 391.566C595.436 375.498 598.747 349.263 586.971 330.406C567.223 298.777 515.151 292.811 500.991 258.589C493.182 239.749 499.916 218.142 509.833 199.982C531.104 161.016 567.717 126.113 568.333 82.5306C568.756 52.6016 549.716 23.4046 521.279 10.3967C491.471 -3.22777 450.829 0.276333 429.945 25.6696C408.471 51.8293 369.602 63.1312 335.984 63.1716Z" fill="black"/>
<path d="M505.555 371.942C505.555 371.942 499.295 367.268 493.091 370.594C493.091 370.594 495.001 374.755 502.855 374.363L505.555 371.942Z" fill="black"/>
<path d="M506.349 372.19C506.349 372.19 508.254 380.397 503.477 385.982C503.477 385.982 500.604 382.599 503.477 374.311L506.349 372.19Z" fill="black"/>
<path d="M514.132 364.312C514.132 364.312 513.669 357.332 499.738 359.649C499.738 359.649 499.672 364.15 504.562 366.283C509.451 368.415 511.693 366.617 514.132 364.312Z" fill="black"/>
<path d="M515.009 364.266C515.009 364.266 520.897 366.404 515.645 381.187C515.645 381.187 511.759 380.207 511.061 374.323C510.363 368.438 512.431 366.409 515.009 364.266Z" fill="black"/>
<path d="M522.873 354.364C522.873 354.364 523.673 342.878 509.436 344.054C509.436 344.054 508.417 354.427 520.362 357.125L522.873 354.364Z" fill="black"/>
<path d="M532.281 341.397C532.281 341.397 530.33 328.377 516.099 332.256C516.099 332.256 516.048 343.512 529.958 344.497L532.281 341.397Z" fill="black"/>
<path d="M539.157 327.991C539.157 327.991 535.887 315.312 521.788 319.104C521.788 319.104 525.145 330.51 538.22 330.331L539.157 327.991Z" fill="black"/>
<path d="M545.687 314.897C545.687 314.897 542.493 301.739 528.878 305.676C528.878 305.676 533.422 318.176 544.786 317.121L545.687 314.897Z" fill="black"/>
<path d="M549.894 302.46C549.894 302.46 547.439 286.368 534.746 289.93C534.746 289.93 538.434 304.569 548.962 304.805L549.894 302.46Z" fill="black"/>
<path d="M553.842 287.435C553.842 287.435 550.893 271.217 538.052 275.908C538.052 275.908 543.084 291.238 552.93 289.653L553.842 287.435Z" fill="black"/>
<path d="M556.267 273.453C556.267 273.453 551.586 257.229 541.658 257.667C541.658 257.667 546.441 274.801 555.436 276.686L556.267 273.453Z" fill="black"/>
<path d="M557.835 259.805C557.835 259.805 552.742 240.279 544.663 241.783C544.663 241.783 548.188 256.71 557.55 262.848L557.835 259.805Z" fill="black"/>
<path d="M558.722 243.524C558.722 243.524 553.944 227.254 545.988 226.603C545.988 226.603 549.237 242.613 558.564 247.754L558.722 243.524Z" fill="black"/>
<path d="M559.684 228.332C559.684 228.332 553.73 212.044 548.479 211.676C548.479 211.676 551.066 227.715 559.175 231.006L559.684 228.332Z" fill="black"/>
<path d="M560.341 214.2C560.341 214.2 556.679 196.512 551.417 195.043C551.417 195.043 552.136 209.514 559.812 215.526L560.341 214.2Z" fill="black"/>
<path d="M562.328 195.688C562.328 195.688 558.477 181.585 554.214 179.436C554.214 179.436 555.054 196.063 561.345 199.135L562.328 195.688Z" fill="black"/>
<path d="M563.973 183.585L564.747 158.722C564.747 158.722 556.776 177.464 563.398 187.948L563.973 183.585Z" fill="black"/>
<path d="M570.126 158.855C570.126 158.855 575.867 140.7 577.257 139.686C577.257 139.686 566.001 151.466 567.101 166.618L570.126 158.855Z" fill="black"/>
<path d="M523.26 354.278C523.26 354.278 533.356 352.785 533.055 368.928C533.055 368.928 523.932 370.611 520.953 357.257L523.26 354.278Z" fill="black"/>
<path d="M532.76 340.959C532.76 340.959 544.424 340.918 543.456 357.442C543.456 357.442 533.661 359.424 530.432 344.082L532.76 340.959Z" fill="black"/>
<path d="M539.269 329.057C539.269 329.057 549.859 323.438 556.633 337.944C556.633 337.944 546.854 342.624 538.332 331.403L539.269 329.057Z" fill="black"/>
<path d="M545.922 315.018C545.922 315.018 556.766 309.041 563.133 323.208C563.133 323.208 551.835 327.611 545.025 317.26L545.922 315.018Z" fill="black"/>
<path d="M549.757 302.811C549.757 302.811 560.194 291.532 568.522 302.938C568.522 302.938 557.861 312.223 549.278 305.324L549.757 302.811Z" fill="black"/>
<path d="M553.251 287.048C553.251 287.048 563.749 275.522 572.011 287.579C572.011 287.579 560.229 297.048 552.874 289.469L553.251 287.048Z" fill="black"/>
<path d="M555.212 272.992C555.212 272.992 563.301 258.583 572.826 261.799C572.826 261.799 564.432 277.055 555.304 276.375L555.212 272.992Z" fill="black"/>
<path d="M557.596 259.713C557.596 259.713 565.746 241.57 573.458 244.728C573.458 244.728 567.579 258.676 557.387 262.773L557.596 259.713Z" fill="black"/>
<path d="M558.161 242.579C558.161 242.579 566.54 228.297 574.39 230.043C574.39 230.043 567.539 244.527 557.346 246.711L558.161 242.579Z" fill="black"/>
<path d="M558.813 228.015C558.813 228.015 565.308 211.987 570.585 211.877C570.585 211.877 567.467 227.79 559.252 230.735L558.813 228.015Z" fill="black"/>
<path d="M560.087 213.854C560.087 213.854 567.304 197.625 572.729 197.59C572.729 197.59 569.036 211.468 560.326 215.278L560.087 213.854Z" fill="black"/>
<path d="M561.172 196.702C561.172 196.702 566.571 183.274 571.043 181.752C571.043 181.752 568.344 198.12 561.768 200.264L561.172 196.702Z" fill="black"/>
<path d="M564.615 183.095L576.682 162.295C576.682 162.295 573.59 182.813 562.853 187.078L564.615 183.095Z" fill="black"/>
<path d="M572.897 160.532C572.897 160.532 586.92 149.581 587.429 147.812C587.429 147.812 580.298 163.148 567.055 165.857L572.897 160.532Z" fill="black"/>
<path d="M573.738 155.604C573.738 155.604 589.839 138.089 593.949 138.107C593.949 138.107 580.67 138.793 573.351 154.67L573.738 155.604Z" fill="black"/>
<path d="M561.33 199.302L561.915 199.388C564.941 172.594 569.352 156.74 574.334 154.797L574.14 154.163C568.858 156.238 564.416 171.851 561.33 199.302Z" fill="#444053"/>
<path d="M556.878 263.378L557.764 263.459C557.953 260.958 558.095 258.399 558.192 255.846C559.038 233.669 560.347 213.301 562.068 198.034L561.559 197.313C559.832 212.615 558.151 233.594 557.306 255.805C557.209 258.341 557.066 260.889 556.878 263.378Z" fill="#444053"/>
<path d="M489.031 384.725C489.184 384.65 504.786 376.766 520.978 357.966C530.465 346.955 538.348 334.311 544.332 320.505C551.82 303.255 556.384 282.057 557.912 261.465L556.99 261.955C553.552 308.177 534.955 339.76 520.168 356.963C504.134 375.596 488.705 383.4 488.552 383.475L489.031 384.725Z" fill="#444053"/>
<path d="M529.429 49.1209H39.9949C38.8386 49.1209 37.7296 49.6406 36.9119 50.5658C36.0942 51.491 35.6348 52.7459 35.6348 54.0543V68.428H533.789V54.0543C533.789 52.7459 533.329 51.491 532.512 50.5658C531.694 49.6406 530.585 49.1209 529.429 49.1209Z" fill="#3F3D56"/>
<path d="M35.6348 68.428V391.889C35.6348 394.527 36.5611 397.058 38.2098 398.923C39.8585 400.789 42.0947 401.837 44.4264 401.837H524.997C527.329 401.837 529.565 400.789 531.214 398.923C532.862 397.058 533.789 394.527 533.789 391.889V68.428H35.6348Z" fill="white"/>
<path opacity="0.8" d="M43.5248 60.9357C44.65 60.9357 45.5622 59.9036 45.5622 58.6304C45.5622 57.3572 44.65 56.325 43.5248 56.325C42.3996 56.325 41.4874 57.3572 41.4874 58.6304C41.4874 59.9036 42.3996 60.9357 43.5248 60.9357Z" fill="#FA5959"/>
<path opacity="0.8" d="M49.1278 60.9357C50.253 60.9357 51.1652 59.9036 51.1652 58.6304C51.1652 57.3572 50.253 56.325 49.1278 56.325C48.0025 56.325 47.0903 57.3572 47.0903 58.6304C47.0903 59.9036 48.0025 60.9357 49.1278 60.9357Z" fill="#FED253"/>
<path opacity="0.8" d="M54.7307 60.9357C55.8559 60.9357 56.7681 59.9036 56.7681 58.6304C56.7681 57.3572 55.8559 56.325 54.7307 56.325C53.6054 56.325 52.6932 57.3572 52.6932 58.6304C52.6932 59.9036 53.6054 60.9357 54.7307 60.9357Z" fill="#8CCF4D"/>
<path opacity="0.05" d="M482.297 122.361H81.9407V321.554H482.297V122.361Z" fill="black"/>
<path d="M479.241 123.871H84.9968V318.672H479.241V123.871Z" fill="#41FF98"/>
<path d="M192.472 174.006C184.715 174.006 177.132 176.609 170.682 181.485C164.232 186.362 159.205 193.293 156.236 201.402C153.268 209.51 152.491 218.433 154.005 227.042C155.518 235.65 159.253 243.558 164.738 249.764C170.224 255.97 177.212 260.197 184.82 261.909C192.428 263.621 200.314 262.743 207.481 259.384C214.647 256.025 220.773 250.337 225.083 243.039C229.392 235.741 231.692 227.161 231.692 218.384C231.692 212.556 230.678 206.786 228.707 201.402C226.736 196.017 223.847 191.125 220.205 187.004C216.563 182.884 212.239 179.615 207.481 177.385C202.722 175.154 197.622 174.006 192.472 174.006ZM199.506 219.45V240.463H185.641V219.45C183.723 217.807 182.308 215.523 181.599 212.922C180.889 210.32 180.919 207.532 181.685 204.951C182.451 202.37 183.914 200.126 185.868 198.536C187.822 196.947 190.167 196.092 192.574 196.092C194.98 196.092 197.326 196.947 199.279 198.536C201.233 200.126 202.696 202.37 203.462 204.951C204.228 207.532 204.258 210.32 203.549 212.922C202.839 215.523 201.425 217.807 199.506 219.45Z" fill="black"/>
<path opacity="0.05" d="M192.472 174.006C184.715 174.006 177.132 176.609 170.682 181.485C164.232 186.362 159.205 193.293 156.236 201.402C153.268 209.51 152.491 218.433 154.005 227.042C155.518 235.65 159.253 243.558 164.738 249.764C170.224 255.97 177.212 260.197 184.82 261.909C192.428 263.621 200.314 262.743 207.481 259.384C214.647 256.025 220.773 250.337 225.083 243.039C229.392 235.741 231.692 227.161 231.692 218.384C231.692 212.556 230.678 206.786 228.707 201.402C226.736 196.017 223.847 191.125 220.205 187.004C216.563 182.884 212.239 179.615 207.481 177.385C202.722 175.154 197.622 174.006 192.472 174.006ZM199.506 219.45V240.463H185.641V219.45C183.723 217.807 182.308 215.523 181.599 212.922C180.889 210.32 180.919 207.532 181.685 204.951C182.451 202.37 183.914 200.126 185.868 198.536C187.822 196.947 190.167 196.092 192.574 196.092C194.98 196.092 197.326 196.947 199.279 198.536C201.233 200.126 202.696 202.37 203.462 204.951C204.228 207.532 204.258 210.32 203.549 212.922C202.839 215.523 201.425 217.807 199.506 219.45Z" fill="black"/>
<path d="M192.472 161.327C182.498 161.327 172.749 164.673 164.456 170.943C156.164 177.212 149.7 186.124 145.884 196.549C142.067 206.975 141.068 218.447 143.014 229.515C144.96 240.583 149.763 250.75 156.815 258.729C163.867 266.709 172.852 272.143 182.634 274.345C192.416 276.546 202.555 275.416 211.769 271.098C220.983 266.779 228.859 259.466 234.4 250.083C239.941 240.7 242.898 229.669 242.898 218.384C242.898 203.252 237.586 188.739 228.129 178.039C218.672 167.338 205.846 161.327 192.472 161.327ZM201.513 219.756V246.769H183.685V219.756C181.218 217.643 179.399 214.706 178.485 211.36C177.572 208.014 177.611 204.428 178.596 201.109C179.581 197.789 181.462 194.903 183.975 192.859C186.488 190.814 189.504 189.715 192.599 189.715C195.694 189.715 198.711 190.814 201.223 192.859C203.736 194.903 205.617 197.789 206.602 201.109C207.587 204.428 207.626 208.014 206.713 211.36C205.8 214.706 203.981 217.643 201.513 219.756Z" fill="black"/>
<path d="M426.777 210.898H263.782V230.493H426.777V210.898Z" fill="white"/>
<path d="M426.777 246.63H391.631V266.226H426.777V246.63Z" fill="black"/>
<path d="M279.827 220.401H276.878L279.501 217.439C279.548 217.384 279.574 217.311 279.574 217.234C279.574 217.158 279.548 217.085 279.501 217.03C279.477 217.003 279.449 216.981 279.418 216.967C279.387 216.952 279.354 216.945 279.32 216.945C279.286 216.945 279.253 216.952 279.222 216.967C279.191 216.981 279.163 217.003 279.139 217.03L276.516 219.998V216.655C276.516 216.579 276.489 216.505 276.441 216.451C276.394 216.397 276.329 216.367 276.261 216.367C276.194 216.368 276.13 216.399 276.083 216.453C276.035 216.507 276.008 216.579 276.007 216.655V219.998L273.389 217.012C273.365 216.985 273.337 216.964 273.306 216.949C273.275 216.935 273.241 216.927 273.208 216.927C273.174 216.927 273.141 216.935 273.11 216.949C273.079 216.964 273.051 216.985 273.027 217.012C272.98 217.067 272.954 217.141 272.954 217.217C272.954 217.293 272.98 217.367 273.027 217.422L275.65 220.384H272.696C272.629 220.385 272.565 220.416 272.517 220.47C272.47 220.524 272.442 220.596 272.441 220.672C272.441 220.749 272.468 220.822 272.516 220.876C272.564 220.93 272.628 220.96 272.696 220.96H275.65L273.027 223.928C272.98 223.983 272.954 224.057 272.954 224.133C272.954 224.209 272.98 224.283 273.027 224.338C273.076 224.39 273.141 224.418 273.208 224.418C273.275 224.418 273.34 224.39 273.389 224.338L276.007 221.37V224.707C276.007 224.783 276.034 224.856 276.081 224.91C276.129 224.964 276.194 224.995 276.261 224.995C276.329 224.995 276.394 224.964 276.441 224.91C276.489 224.856 276.516 224.783 276.516 224.707V221.37L279.139 224.338C279.188 224.39 279.253 224.418 279.32 224.418C279.387 224.418 279.452 224.39 279.501 224.338C279.548 224.283 279.574 224.209 279.574 224.133C279.574 224.057 279.548 223.983 279.501 223.928L276.878 220.96H279.827C279.894 220.96 279.959 220.93 280.007 220.876C280.055 220.822 280.082 220.749 280.082 220.672C280.078 220.599 280.049 220.53 280.002 220.48C279.954 220.429 279.892 220.401 279.827 220.401Z" fill="black"/>
<path d="M290.523 220.401H287.574L290.197 217.439C290.244 217.384 290.271 217.311 290.271 217.234C290.271 217.158 290.244 217.085 290.197 217.03C290.174 217.003 290.146 216.981 290.115 216.967C290.084 216.952 290.05 216.945 290.017 216.945C289.983 216.945 289.95 216.952 289.919 216.967C289.888 216.981 289.859 217.003 289.836 217.03L287.213 219.998V216.655C287.213 216.579 287.186 216.505 287.138 216.451C287.09 216.397 287.025 216.367 286.958 216.367C286.891 216.368 286.827 216.399 286.779 216.453C286.732 216.507 286.705 216.579 286.703 216.655V219.998L284.085 217.012C284.061 216.985 284.033 216.964 284.002 216.949C283.971 216.935 283.938 216.927 283.904 216.927C283.871 216.927 283.837 216.935 283.806 216.949C283.775 216.964 283.747 216.985 283.723 217.012C283.676 217.067 283.65 217.141 283.65 217.217C283.65 217.293 283.676 217.367 283.723 217.422L286.347 220.384H283.392C283.325 220.385 283.261 220.416 283.214 220.47C283.166 220.524 283.139 220.596 283.138 220.672C283.138 220.749 283.165 220.822 283.212 220.876C283.26 220.93 283.325 220.96 283.392 220.96H286.347L283.723 223.928C283.676 223.983 283.65 224.057 283.65 224.133C283.65 224.209 283.676 224.283 283.723 224.338C283.772 224.39 283.837 224.418 283.904 224.418C283.971 224.418 284.036 224.39 284.085 224.338L286.703 221.37V224.707C286.703 224.783 286.73 224.856 286.778 224.91C286.826 224.964 286.89 224.995 286.958 224.995C287.025 224.995 287.09 224.964 287.138 224.91C287.186 224.856 287.213 224.783 287.213 224.707V221.37L289.836 224.338C289.885 224.39 289.949 224.418 290.017 224.418C290.084 224.418 290.148 224.39 290.197 224.338C290.244 224.283 290.271 224.209 290.271 224.133C290.271 224.057 290.244 223.983 290.197 223.928L287.574 220.96H290.523C290.591 220.96 290.656 220.93 290.703 220.876C290.751 220.822 290.778 220.749 290.778 220.672C290.774 220.599 290.746 220.53 290.698 220.48C290.651 220.429 290.588 220.401 290.523 220.401Z" fill="black"/>
<path d="M301.22 220.401H298.271L300.894 217.439C300.941 217.384 300.967 217.311 300.967 217.234C300.967 217.158 300.941 217.085 300.894 217.03C300.87 217.003 300.842 216.981 300.811 216.967C300.78 216.952 300.747 216.945 300.713 216.945C300.68 216.945 300.646 216.952 300.615 216.967C300.584 216.981 300.556 217.003 300.532 217.03L297.909 219.998V216.655C297.909 216.579 297.882 216.505 297.835 216.451C297.787 216.397 297.722 216.367 297.655 216.367C297.587 216.368 297.523 216.399 297.476 216.453C297.428 216.507 297.401 216.579 297.4 216.655V219.998L294.782 217.012C294.758 216.985 294.73 216.964 294.699 216.949C294.668 216.935 294.635 216.927 294.601 216.927C294.567 216.927 294.534 216.935 294.503 216.949C294.472 216.964 294.444 216.985 294.42 217.012C294.373 217.067 294.347 217.141 294.347 217.217C294.347 217.293 294.373 217.367 294.42 217.422L297.043 220.384H294.089C294.022 220.385 293.958 220.416 293.91 220.47C293.863 220.524 293.836 220.596 293.834 220.672C293.834 220.749 293.861 220.822 293.909 220.876C293.957 220.93 294.021 220.96 294.089 220.96H297.043L294.42 223.928C294.373 223.983 294.347 224.057 294.347 224.133C294.347 224.209 294.373 224.283 294.42 224.338C294.469 224.39 294.534 224.418 294.601 224.418C294.668 224.418 294.733 224.39 294.782 224.338L297.4 221.37V224.707C297.4 224.783 297.427 224.856 297.474 224.91C297.522 224.964 297.587 224.995 297.655 224.995C297.722 224.995 297.787 224.964 297.835 224.91C297.882 224.856 297.909 224.783 297.909 224.707V221.37L300.532 224.338C300.581 224.39 300.646 224.418 300.713 224.418C300.78 224.418 300.845 224.39 300.894 224.338C300.941 224.283 300.967 224.209 300.967 224.133C300.967 224.057 300.941 223.983 300.894 223.928L298.271 220.96H301.22C301.288 220.96 301.352 220.93 301.4 220.876C301.448 220.822 301.475 220.749 301.475 220.672C301.471 220.599 301.442 220.53 301.395 220.48C301.348 220.429 301.285 220.401 301.22 220.401Z" fill="black"/>
<path d="M311.917 220.401H308.967L311.591 217.439C311.638 217.384 311.664 217.311 311.664 217.234C311.664 217.158 311.638 217.085 311.591 217.03C311.567 217.003 311.539 216.981 311.508 216.967C311.477 216.952 311.443 216.945 311.41 216.945C311.376 216.945 311.343 216.952 311.312 216.967C311.281 216.981 311.253 217.003 311.229 217.03L308.606 219.998V216.655C308.606 216.579 308.579 216.505 308.531 216.451C308.483 216.397 308.419 216.367 308.351 216.367C308.284 216.368 308.22 216.399 308.172 216.453C308.125 216.507 308.098 216.579 308.096 216.655V219.998L305.478 217.012C305.455 216.985 305.426 216.964 305.395 216.949C305.364 216.935 305.331 216.927 305.297 216.927C305.264 216.927 305.231 216.935 305.2 216.949C305.168 216.964 305.14 216.985 305.117 217.012C305.07 217.067 305.043 217.141 305.043 217.217C305.043 217.293 305.07 217.367 305.117 217.422L307.74 220.384H304.786C304.718 220.385 304.654 220.416 304.607 220.47C304.559 220.524 304.532 220.596 304.531 220.672C304.531 220.749 304.558 220.822 304.605 220.876C304.653 220.93 304.718 220.96 304.786 220.96H307.74L305.117 223.928C305.07 223.983 305.043 224.057 305.043 224.133C305.043 224.209 305.07 224.283 305.117 224.338C305.166 224.39 305.23 224.418 305.297 224.418C305.365 224.418 305.429 224.39 305.478 224.338L308.096 221.37V224.707C308.096 224.783 308.123 224.856 308.171 224.91C308.219 224.964 308.284 224.995 308.351 224.995C308.419 224.995 308.483 224.964 308.531 224.91C308.579 224.856 308.606 224.783 308.606 224.707V221.37L311.229 224.338C311.278 224.39 311.343 224.418 311.41 224.418C311.477 224.418 311.542 224.39 311.591 224.338C311.638 224.283 311.664 224.209 311.664 224.133C311.664 224.057 311.638 223.983 311.591 223.928L308.967 220.96H311.917C311.984 220.96 312.049 220.93 312.097 220.876C312.144 220.822 312.171 220.749 312.171 220.672C312.167 220.599 312.139 220.53 312.092 220.48C312.044 220.429 311.982 220.401 311.917 220.401Z" fill="black"/>
<path d="M322.613 220.401H319.664L322.287 217.439C322.334 217.384 322.36 217.311 322.36 217.234C322.36 217.158 322.334 217.085 322.287 217.03C322.264 217.003 322.235 216.981 322.204 216.967C322.173 216.952 322.14 216.945 322.106 216.945C322.073 216.945 322.039 216.952 322.008 216.967C321.977 216.981 321.949 217.003 321.926 217.03L319.302 219.998V216.655C319.302 216.579 319.275 216.505 319.228 216.451C319.18 216.397 319.115 216.367 319.048 216.367C318.981 216.368 318.916 216.399 318.869 216.453C318.821 216.507 318.794 216.579 318.793 216.655V219.998L316.175 217.012C316.151 216.985 316.123 216.964 316.092 216.949C316.061 216.935 316.028 216.927 315.994 216.927C315.96 216.927 315.927 216.935 315.896 216.949C315.865 216.964 315.837 216.985 315.813 217.012C315.766 217.067 315.74 217.141 315.74 217.217C315.74 217.293 315.766 217.367 315.813 217.422L318.436 220.384H315.482C315.415 220.385 315.351 220.416 315.303 220.47C315.256 220.524 315.229 220.596 315.227 220.672C315.227 220.749 315.254 220.822 315.302 220.876C315.35 220.93 315.415 220.96 315.482 220.96H318.436L315.813 223.928C315.766 223.983 315.74 224.057 315.74 224.133C315.74 224.209 315.766 224.283 315.813 224.338C315.862 224.39 315.927 224.418 315.994 224.418C316.061 224.418 316.126 224.39 316.175 224.338L318.793 221.37V224.707C318.793 224.783 318.82 224.856 318.868 224.91C318.915 224.964 318.98 224.995 319.048 224.995C319.115 224.995 319.18 224.964 319.228 224.91C319.275 224.856 319.302 224.783 319.302 224.707V221.37L321.926 224.338C321.975 224.39 322.039 224.418 322.106 224.418C322.173 224.418 322.238 224.39 322.287 224.338C322.334 224.283 322.36 224.209 322.36 224.133C322.36 224.057 322.334 223.983 322.287 223.928L319.664 220.96H322.613C322.681 220.96 322.745 220.93 322.793 220.876C322.841 220.822 322.868 220.749 322.868 220.672C322.864 220.599 322.835 220.53 322.788 220.48C322.741 220.429 322.678 220.401 322.613 220.401Z" fill="black"/>
<path d="M333.31 220.401H330.36L332.984 217.439C333.031 217.384 333.057 217.311 333.057 217.234C333.057 217.158 333.031 217.085 332.984 217.03C332.96 217.003 332.932 216.981 332.901 216.967C332.87 216.952 332.836 216.945 332.803 216.945C332.769 216.945 332.736 216.952 332.705 216.967C332.674 216.981 332.646 217.003 332.622 217.03L329.999 219.998V216.655C329.999 216.579 329.972 216.505 329.924 216.451C329.876 216.397 329.812 216.367 329.744 216.367C329.677 216.368 329.613 216.399 329.566 216.453C329.518 216.507 329.491 216.579 329.489 216.655V219.998L326.871 217.012C326.848 216.985 326.82 216.964 326.788 216.949C326.757 216.935 326.724 216.927 326.691 216.927C326.657 216.927 326.624 216.935 326.593 216.949C326.562 216.964 326.533 216.985 326.51 217.012C326.463 217.067 326.436 217.141 326.436 217.217C326.436 217.293 326.463 217.367 326.51 217.422L329.133 220.384H326.179C326.111 220.385 326.047 220.416 326 220.47C325.952 220.524 325.925 220.596 325.924 220.672C325.924 220.749 325.951 220.822 325.999 220.876C326.046 220.93 326.111 220.96 326.179 220.96H329.133L326.51 223.928C326.463 223.983 326.436 224.057 326.436 224.133C326.436 224.209 326.463 224.283 326.51 224.338C326.559 224.39 326.623 224.418 326.691 224.418C326.758 224.418 326.822 224.39 326.871 224.338L329.489 221.37V224.707C329.489 224.783 329.516 224.856 329.564 224.91C329.612 224.964 329.677 224.995 329.744 224.995C329.812 224.995 329.876 224.964 329.924 224.91C329.972 224.856 329.999 224.783 329.999 224.707V221.37L332.622 224.338C332.671 224.39 332.736 224.418 332.803 224.418C332.87 224.418 332.935 224.39 332.984 224.338C333.031 224.283 333.057 224.209 333.057 224.133C333.057 224.057 333.031 223.983 332.984 223.928L330.36 220.96H333.31C333.377 220.96 333.442 220.93 333.49 220.876C333.538 220.822 333.564 220.749 333.564 220.672C333.56 220.599 333.532 220.53 333.485 220.48C333.437 220.429 333.375 220.401 333.31 220.401Z" fill="black"/>
<path d="M344.006 220.401H341.057L343.68 217.439C343.727 217.384 343.754 217.311 343.754 217.234C343.754 217.158 343.727 217.085 343.68 217.03C343.657 217.003 343.628 216.981 343.597 216.967C343.566 216.952 343.533 216.945 343.499 216.945C343.466 216.945 343.433 216.952 343.402 216.967C343.371 216.981 343.342 217.003 343.319 217.03L340.695 219.998V216.655C340.695 216.579 340.669 216.505 340.621 216.451C340.573 216.397 340.508 216.367 340.441 216.367C340.374 216.368 340.31 216.399 340.262 216.453C340.215 216.507 340.187 216.579 340.186 216.655V219.998L337.568 217.012C337.544 216.985 337.516 216.964 337.485 216.949C337.454 216.935 337.421 216.927 337.387 216.927C337.354 216.927 337.32 216.935 337.289 216.949C337.258 216.964 337.23 216.985 337.206 217.012C337.159 217.067 337.133 217.141 337.133 217.217C337.133 217.293 337.159 217.367 337.206 217.422L339.83 220.384H336.875C336.808 220.385 336.744 220.416 336.697 220.47C336.649 220.524 336.622 220.596 336.621 220.672C336.621 220.749 336.647 220.822 336.695 220.876C336.743 220.93 336.808 220.96 336.875 220.96H339.83L337.206 223.928C337.159 223.983 337.133 224.057 337.133 224.133C337.133 224.209 337.159 224.283 337.206 224.338C337.255 224.39 337.32 224.418 337.387 224.418C337.454 224.418 337.519 224.39 337.568 224.338L340.186 221.37V224.707C340.186 224.783 340.213 224.856 340.261 224.91C340.308 224.964 340.373 224.995 340.441 224.995C340.508 224.995 340.573 224.964 340.621 224.91C340.669 224.856 340.695 224.783 340.695 224.707V221.37L343.319 224.338C343.368 224.39 343.432 224.418 343.499 224.418C343.567 224.418 343.631 224.39 343.68 224.338C343.727 224.283 343.754 224.209 343.754 224.133C343.754 224.057 343.727 223.983 343.68 223.928L341.057 220.96H344.006C344.074 220.96 344.139 220.93 344.186 220.876C344.234 220.822 344.261 220.749 344.261 220.672C344.257 220.599 344.229 220.53 344.181 220.48C344.134 220.429 344.071 220.401 344.006 220.401Z" fill="black"/>
<path d="M354.703 220.401H351.754L354.377 217.439C354.424 217.384 354.45 217.311 354.45 217.234C354.45 217.158 354.424 217.085 354.377 217.03C354.353 217.003 354.325 216.981 354.294 216.967C354.263 216.952 354.23 216.945 354.196 216.945C354.162 216.945 354.129 216.952 354.098 216.967C354.067 216.981 354.039 217.003 354.015 217.03L351.392 219.998V216.655C351.392 216.579 351.365 216.505 351.317 216.451C351.27 216.397 351.205 216.367 351.137 216.367C351.07 216.368 351.006 216.399 350.959 216.453C350.911 216.507 350.884 216.579 350.883 216.655V219.998L348.265 217.012C348.241 216.985 348.213 216.964 348.182 216.949C348.151 216.935 348.117 216.927 348.084 216.927C348.05 216.927 348.017 216.935 347.986 216.949C347.955 216.964 347.927 216.985 347.903 217.012C347.856 217.067 347.83 217.141 347.83 217.217C347.83 217.293 347.856 217.367 347.903 217.422L350.526 220.384H347.572C347.505 220.385 347.441 220.416 347.393 220.47C347.346 220.524 347.318 220.596 347.317 220.672C347.317 220.749 347.344 220.822 347.392 220.876C347.439 220.93 347.504 220.96 347.572 220.96H350.526L347.903 223.928C347.856 223.983 347.83 224.057 347.83 224.133C347.83 224.209 347.856 224.283 347.903 224.338C347.952 224.39 348.017 224.418 348.084 224.418C348.151 224.418 348.215 224.39 348.265 224.338L350.883 221.37V224.707C350.883 224.783 350.909 224.856 350.957 224.91C351.005 224.964 351.07 224.995 351.137 224.995C351.205 224.995 351.27 224.964 351.317 224.91C351.365 224.856 351.392 224.783 351.392 224.707V221.37L354.015 224.338C354.064 224.39 354.129 224.418 354.196 224.418C354.263 224.418 354.328 224.39 354.377 224.338C354.424 224.283 354.45 224.209 354.45 224.133C354.45 224.057 354.424 223.983 354.377 223.928L351.754 220.96H354.703C354.77 220.96 354.835 220.93 354.883 220.876C354.931 220.822 354.958 220.749 354.958 220.672C354.954 220.599 354.925 220.53 354.878 220.48C354.83 220.429 354.768 220.401 354.703 220.401Z" fill="black"/>
<path d="M365.399 220.401H362.45L365.073 217.439C365.12 217.384 365.147 217.311 365.147 217.234C365.147 217.158 365.12 217.085 365.073 217.03C365.05 217.003 365.022 216.981 364.991 216.967C364.959 216.952 364.926 216.945 364.893 216.945C364.859 216.945 364.826 216.952 364.795 216.967C364.764 216.981 364.735 217.003 364.712 217.03L362.089 219.998V216.655C362.089 216.579 362.062 216.505 362.014 216.451C361.966 216.397 361.901 216.367 361.834 216.367C361.767 216.368 361.703 216.399 361.655 216.453C361.608 216.507 361.581 216.579 361.579 216.655V219.998L358.961 217.012C358.937 216.985 358.909 216.964 358.878 216.949C358.847 216.935 358.814 216.927 358.78 216.927C358.747 216.927 358.713 216.935 358.682 216.949C358.651 216.964 358.623 216.985 358.599 217.012C358.552 217.067 358.526 217.141 358.526 217.217C358.526 217.293 358.552 217.367 358.599 217.422L361.223 220.384H358.268C358.201 220.385 358.137 220.416 358.09 220.47C358.042 220.524 358.015 220.596 358.014 220.672C358.014 220.749 358.04 220.822 358.088 220.876C358.136 220.93 358.201 220.96 358.268 220.96H361.223L358.599 223.928C358.552 223.983 358.526 224.057 358.526 224.133C358.526 224.209 358.552 224.283 358.599 224.338C358.648 224.39 358.713 224.418 358.78 224.418C358.847 224.418 358.912 224.39 358.961 224.338L361.579 221.37V224.707C361.579 224.783 361.606 224.856 361.654 224.91C361.702 224.964 361.766 224.995 361.834 224.995C361.901 224.995 361.966 224.964 362.014 224.91C362.062 224.856 362.089 224.783 362.089 224.707V221.37L364.712 224.338C364.761 224.39 364.825 224.418 364.893 224.418C364.96 224.418 365.024 224.39 365.073 224.338C365.12 224.283 365.147 224.209 365.147 224.133C365.147 224.057 365.12 223.983 365.073 223.928L362.45 220.96H365.399C365.467 220.96 365.532 220.93 365.579 220.876C365.627 220.822 365.654 220.749 365.654 220.672C365.65 220.599 365.622 220.53 365.574 220.48C365.527 220.429 365.464 220.401 365.399 220.401Z" fill="black"/>
<path d="M376.096 220.401H373.147L375.77 217.439C375.817 217.384 375.843 217.311 375.843 217.234C375.843 217.158 375.817 217.085 375.77 217.03C375.746 217.003 375.718 216.981 375.687 216.967C375.656 216.952 375.623 216.945 375.589 216.945C375.556 216.945 375.522 216.952 375.491 216.967C375.46 216.981 375.432 217.003 375.408 217.03L372.785 219.998V216.655C372.785 216.579 372.758 216.505 372.71 216.451C372.663 216.397 372.598 216.367 372.53 216.367C372.463 216.368 372.399 216.399 372.352 216.453C372.304 216.507 372.277 216.579 372.276 216.655V219.998L369.658 217.012C369.634 216.985 369.606 216.964 369.575 216.949C369.544 216.935 369.51 216.927 369.477 216.927C369.443 216.927 369.41 216.935 369.379 216.949C369.348 216.964 369.32 216.985 369.296 217.012C369.249 217.067 369.223 217.141 369.223 217.217C369.223 217.293 369.249 217.367 369.296 217.422L371.919 220.384H368.965C368.898 220.385 368.834 220.416 368.786 220.47C368.739 220.524 368.712 220.596 368.71 220.672C368.71 220.749 368.737 220.822 368.785 220.876C368.833 220.93 368.897 220.96 368.965 220.96H371.919L369.296 223.928C369.249 223.983 369.223 224.057 369.223 224.133C369.223 224.209 369.249 224.283 369.296 224.338C369.345 224.39 369.41 224.418 369.477 224.418C369.544 224.418 369.609 224.39 369.658 224.338L372.276 221.37V224.707C372.276 224.783 372.303 224.856 372.35 224.91C372.398 224.964 372.463 224.995 372.53 224.995C372.598 224.995 372.663 224.964 372.71 224.91C372.758 224.856 372.785 224.783 372.785 224.707V221.37L375.408 224.338C375.457 224.39 375.522 224.418 375.589 224.418C375.656 224.418 375.721 224.39 375.77 224.338C375.817 224.283 375.843 224.209 375.843 224.133C375.843 224.057 375.817 223.983 375.77 223.928L373.147 220.96H376.096C376.164 220.96 376.228 220.93 376.276 220.876C376.324 220.822 376.351 220.749 376.351 220.672C376.347 220.599 376.318 220.53 376.271 220.48C376.223 220.429 376.161 220.401 376.096 220.401Z" fill="black"/>
<path d="M386.792 220.401H383.843L386.466 217.439C386.513 217.384 386.54 217.311 386.54 217.234C386.54 217.158 386.513 217.085 386.466 217.03C386.443 217.003 386.415 216.981 386.384 216.967C386.352 216.952 386.319 216.945 386.286 216.945C386.252 216.945 386.219 216.952 386.188 216.967C386.157 216.981 386.128 217.003 386.105 217.03L383.482 219.998V216.655C383.482 216.579 383.455 216.505 383.407 216.451C383.359 216.397 383.294 216.367 383.227 216.367C383.16 216.368 383.096 216.399 383.048 216.453C383.001 216.507 382.974 216.579 382.972 216.655V219.998L380.354 217.012C380.33 216.985 380.302 216.964 380.271 216.949C380.24 216.935 380.207 216.927 380.173 216.927C380.14 216.927 380.106 216.935 380.075 216.949C380.044 216.964 380.016 216.985 379.992 217.012C379.945 217.067 379.919 217.141 379.919 217.217C379.919 217.293 379.945 217.367 379.992 217.422L382.616 220.384H379.661C379.594 220.385 379.53 220.416 379.483 220.47C379.435 220.524 379.408 220.596 379.407 220.672C379.407 220.749 379.434 220.822 379.481 220.876C379.529 220.93 379.594 220.96 379.661 220.96H382.616L379.992 223.928C379.945 223.983 379.919 224.057 379.919 224.133C379.919 224.209 379.945 224.283 379.992 224.338C380.042 224.39 380.106 224.418 380.173 224.418C380.24 224.418 380.305 224.39 380.354 224.338L382.972 221.37V224.707C382.972 224.783 382.999 224.856 383.047 224.91C383.095 224.964 383.159 224.995 383.227 224.995C383.294 224.995 383.359 224.964 383.407 224.91C383.455 224.856 383.482 224.783 383.482 224.707V221.37L386.105 224.338C386.154 224.39 386.218 224.418 386.286 224.418C386.353 224.418 386.417 224.39 386.466 224.338C386.513 224.283 386.54 224.209 386.54 224.133C386.54 224.057 386.513 223.983 386.466 223.928L383.843 220.96H386.792C386.86 220.96 386.925 220.93 386.972 220.876C387.02 220.822 387.047 220.749 387.047 220.672C387.043 220.599 387.015 220.53 386.967 220.48C386.92 220.429 386.857 220.401 386.792 220.401Z" fill="black"/>
<path d="M468.794 290.512C468.78 289.816 468.703 289.122 468.565 288.443C468.107 286.495 467.073 284.138 465.371 283.55C463.615 282.942 461.918 282.13 460.308 281.129C460.003 274.951 461.256 268.629 459.891 262.641C459.381 260.451 458.541 258.353 458.317 256.111C458.037 253.321 458.709 250.348 457.726 247.777C456.952 245.748 455.25 244.319 453.422 243.57C451.593 242.821 449.622 242.619 447.681 242.417C445.236 242.192 437.321 241.132 434.56 243.604C434.37 243.772 434.199 243.965 434.051 244.181C433.99 244.276 433.935 244.376 433.888 244.48L433.862 244.527C433.807 244.647 433.761 244.772 433.725 244.901C433.686 245.043 433.657 245.187 433.638 245.333C433.638 245.38 433.638 245.426 433.638 245.472C433.638 245.518 433.638 245.673 433.638 245.777V245.933C433.638 246.037 433.638 246.14 433.638 246.25C433.638 246.359 433.638 246.33 433.638 246.371C433.674 246.89 433.74 247.408 433.74 247.921C433.746 248.177 433.725 248.432 433.679 248.682C433.509 249.362 433.222 249.996 432.834 250.549L432.742 250.699C432.686 250.791 432.63 250.878 432.579 250.97C432.528 251.062 432.487 251.131 432.446 251.212C432.406 251.293 432.365 251.345 432.329 251.42C432.28 251.514 432.236 251.613 432.197 251.713C432.197 251.771 432.141 251.823 432.12 251.881C432.057 252.036 432.006 252.198 431.968 252.365C431.848 252.865 431.838 253.391 431.937 253.898C432.074 254.544 432.311 255.159 432.635 255.713C432.762 255.949 432.9 256.18 433.042 256.411L433.399 256.958C433.332 257.493 433.297 258.032 433.292 258.572C433.292 260.377 433.655 262.158 434.352 263.781C435.049 265.404 436.062 266.827 437.316 267.943C437.518 270.377 437.496 272.828 437.25 275.257C437.204 275.764 437.148 276.277 437.087 276.784C437.026 277.291 436.98 277.625 436.919 278.046C436.173 278.167 435.414 278.102 434.693 277.856C434.36 277.688 434.02 277.54 433.674 277.412C432.192 276.991 430.679 278.663 429.212 278.156C429.212 278.236 429.171 278.311 429.146 278.386C428.84 278.171 428.488 278.053 428.127 278.046C427.256 278 426.548 277.285 425.916 276.611L423.976 274.542C423.849 274.415 423.736 274.272 423.64 274.116C423.535 273.891 423.457 273.653 423.405 273.407C423.079 272.214 422.29 271.263 421.526 270.358C421.381 270.151 421.189 269.994 420.971 269.903C420.886 269.888 420.8 269.888 420.716 269.903C420.664 269.822 420.608 269.745 420.548 269.672C420.416 269.501 420.275 269.339 420.125 269.188C419.198 268.22 419.106 267.39 418.302 266.306C417.6 265.273 416.963 264.185 416.397 263.05C416.33 262.445 416.239 261.822 416.127 261.194C415.87 259.756 415.496 258.348 415.011 256.987L413.992 254.434L413.875 254.566C413.137 253.321 412.347 252.641 411.639 252.803C410.452 253.079 409.867 255.684 410.055 259.091L410.462 262.549C410.462 262.635 410.498 262.721 410.519 262.808C410.445 263.218 410.408 263.635 410.406 264.053C410.406 264.537 410.804 264.894 411.013 265.326C411.347 265.912 411.524 266.595 411.522 267.292C411.496 267.54 411.43 267.776 411.42 268.018C411.448 268.559 411.614 269.08 411.899 269.516L414.446 274.358L414.955 275.372L414.986 275.418C415.146 275.772 415.381 276.077 415.668 276.306C415.768 277.518 416.052 278.701 416.509 279.804C416.595 280.023 416.692 280.23 416.794 280.438C417.479 281.711 418.285 282.896 419.198 283.971L420.41 285.51C421.607 287.02 422.804 288.535 424.103 289.93C424.568 290.49 425.13 290.935 425.753 291.238C426.059 291.377 426.391 291.421 426.717 291.367C427.042 291.314 427.35 291.164 427.608 290.933C427.608 291.648 427.608 292.362 427.608 293.077C427.797 293.09 427.979 293.16 428.136 293.28C428.294 293.399 428.42 293.564 428.502 293.758C428.584 293.951 428.619 294.165 428.603 294.379C428.587 294.593 428.521 294.798 428.412 294.973C427.343 298.079 426.263 301.215 424.643 303.998C425.786 304.764 426.846 305.679 427.801 306.724C428.421 307.501 428.972 308.345 429.446 309.243C429.492 309.67 429.528 310.09 429.548 310.511C429.925 317.381 427.577 324.199 425.473 330.746C424.867 332.602 424.205 334.544 424.256 336.475C423.857 336.753 423.475 337.063 423.115 337.403C423.533 338.636 423.37 339.737 423.324 341.057C423.309 341.848 423.165 342.629 422.901 343.362C422.68 343.87 422.435 344.364 422.168 344.843C420.848 347.477 420.558 350.606 420.293 353.615C420.135 355.43 420.757 357.649 420.028 359.274C418.77 362.064 417.655 365.038 417.481 368.138C417.475 368.836 417.397 369.531 417.247 370.208C417.089 370.784 416.809 371.274 416.666 371.839C416.52 372.595 416.485 373.374 416.565 374.144C416.662 376.906 416.299 379.665 415.495 382.276C414.858 384.333 414.155 386.535 414.655 388.65C413.426 390.111 412.667 391.997 412.5 394.004C412.487 394.518 412.432 395.029 412.337 395.532C412.181 396.045 411.976 396.538 411.726 397.001C410.7 399.114 410.22 401.511 410.34 403.917C408.812 406.263 408.048 409.156 407.595 412.032C407.141 414.908 406.943 417.836 406.362 420.677C405.588 424.435 404.187 428.233 403.912 432.083C402.262 433.276 401.549 435.587 401.233 437.771C400.917 439.955 400.866 442.249 400.056 444.266C399.639 445.315 399.038 446.255 398.64 447.327C398.362 448.18 398.157 449.062 398.029 449.96C397.785 451.367 397.571 452.934 397.871 454.283C397.439 454.801 396.935 455.235 396.379 455.568C396.46 455.211 396.526 454.854 396.582 454.49C395.268 455.839 392.884 455.367 391.835 456.986C391.52 457.508 391.397 458.148 391.492 458.771C391.587 459.394 391.893 459.951 392.345 460.323C392.673 460.549 393.028 460.722 393.399 460.836C395.946 461.758 398.564 462.686 401.182 462.196C401.492 462.158 401.791 462.05 402.063 461.879C402.404 461.595 402.684 461.229 402.883 460.807C403.275 460.104 403.668 459.401 404.055 458.698C404.993 459.015 405.947 459.267 406.912 459.453C407.009 460.375 407.08 461.297 407.116 462.219C407.625 462.334 408.308 462.369 408.547 461.833C408.62 461.63 408.65 461.411 408.634 461.193C408.634 460.784 408.685 460.242 408.715 459.689H408.817C410.371 459.76 411.918 459.406 413.325 458.657C412.78 453.551 414.578 448.56 416.137 443.73C417.782 438.647 419.193 433.472 420.614 428.296C421.633 424.654 422.758 421.127 423.757 417.478C425.013 412.868 426.275 408.257 427.541 403.646C428.091 401.618 428.647 399.612 429.278 397.595C430.608 393.513 432.186 389.54 434 385.705C434.509 384.616 435.019 383.538 435.436 382.408C435.946 381.031 436.307 379.59 436.715 378.167C437.603 375.246 438.672 372.399 439.914 369.648C439.949 369.574 439.975 369.504 440.01 369.435C440.423 371.343 440.836 373.279 441.111 375.199C441.483 377.552 441.512 379.958 441.197 382.322C440.953 383.93 440.489 385.521 440.545 387.152C440.622 389.405 441.686 391.451 442.211 393.624C442.549 395.25 442.74 396.911 442.781 398.58C442.924 401.174 444.167 404.084 443.291 406.488C440.566 414.101 441.885 422.7 440.331 430.694C439.532 434.797 437.082 438.653 437.275 442.849C437.411 445.826 437.642 448.796 437.968 451.759C438.046 452.693 438.262 453.607 438.605 454.462C438.808 454.911 439.041 455.343 439.302 455.753C439.078 455.851 438.89 456.11 438.727 456.657C438.309 458.098 438.727 459.885 439.858 460.692C440.318 460.971 440.815 461.165 441.33 461.268C442.022 461.491 442.739 461.603 443.459 461.602C443.683 461.589 443.906 461.558 444.126 461.51C444.913 461.885 445.718 462.212 446.535 462.49C446.535 462.726 446.576 462.963 446.602 463.199C446.603 463.322 446.627 463.444 446.673 463.556C446.718 463.669 446.784 463.769 446.866 463.85C446.994 463.917 447.134 463.945 447.274 463.931H450.04C450.04 463.671 450.04 463.406 450.04 463.147C450.356 463.184 450.676 463.146 450.979 463.035C451.281 462.924 451.56 462.742 451.797 462.501C452.042 462.149 452.216 461.74 452.306 461.303C453.06 458.41 453.809 455.514 454.553 452.617C455.444 449.415 455.815 446.056 455.648 442.704C454.665 432.083 456.824 421.426 456.121 410.776C455.698 404.374 455.989 397.938 456.987 391.618C457.217 390.189 457.497 388.737 457.599 387.313C457.823 384.627 457.548 381.913 457.716 379.244C457.772 378.311 457.884 377.383 457.986 376.455C458.684 370.696 459.049 364.891 459.081 359.079C459.065 357.152 458.96 355.229 458.765 353.315C459.296 353.162 459.778 352.843 460.156 352.393C460.609 351.725 460.492 350.785 460.487 349.932C460.487 347.892 461.246 345.967 461.857 344.042C462.641 341.387 463.284 338.681 463.782 335.939C464.308 333.729 464.596 331.455 464.638 329.167C464.638 328.936 464.628 328.706 464.607 328.475C464.799 328.325 464.959 328.128 465.076 327.899C465.209 327.561 465.292 327.201 465.32 326.833C465.504 325.363 465.692 323.888 465.876 322.412C466.012 321.356 466.146 320.301 466.278 319.248L467.898 306.459C468.035 305.347 468.178 304.24 468.316 303.134L468.738 299.826C468.784 299.434 468.835 299.042 468.871 298.673C470.114 296.322 468.927 293.186 468.794 290.512ZM455.281 338.394C454.68 336.78 454.12 335.126 454.262 333.386H454.206C454.34 332.85 454.317 332.28 454.14 331.76C453.982 331.34 453.707 330.982 453.539 330.562C453.358 330.048 453.265 329.501 453.264 328.948C453.137 325.443 453.382 321.933 453.992 318.493C454.059 318.09 454.13 317.681 454.196 317.277C454.41 317.137 454.605 316.965 454.777 316.764C455.045 316.419 455.266 316.03 455.434 315.611C456.009 314.303 456.534 312.972 457.018 311.618C457.176 311.179 457.405 310.672 457.797 310.563C457.716 313.934 458.021 317.375 456.809 320.418C456.579 320.909 456.407 321.432 456.3 321.974C456.188 322.833 456.503 323.703 456.391 324.556C456.335 325 456.167 325.409 456.101 325.847C456.051 326.062 456.052 326.288 456.104 326.503C456.155 326.718 456.256 326.913 456.397 327.069C456.464 327.123 456.538 327.165 456.616 327.196C456.585 327.426 456.56 327.663 456.539 327.887C456.498 328.36 456.478 328.804 456.453 329.08C456.335 330.49 456.289 331.906 456.315 333.322C456.315 334.849 456.366 336.377 456.346 337.933C456.364 338.38 456.298 338.826 456.152 339.241C456.051 339.455 455.92 339.65 455.765 339.817C455.617 339.299 455.454 338.843 455.281 338.394Z" fill="url(#paint0_linear)"/>
<path d="M415.073 271.522C416.628 271.161 417.156 266.832 416.255 261.853C415.353 256.873 413.362 253.128 411.807 253.488C410.253 253.849 409.724 258.178 410.626 263.158C411.528 268.137 413.519 271.882 415.073 271.522Z" fill="#FBBEBE"/>
<path d="M438.808 456.767C438.391 458.196 438.808 459.983 439.939 460.761C440.397 461.037 440.89 461.232 441.401 461.337C442.092 461.558 442.807 461.669 443.525 461.666C444.406 461.62 445.252 461.228 446.133 461.089C446.235 461.061 446.342 461.077 446.433 461.136C446.477 461.189 446.51 461.253 446.53 461.323C446.549 461.393 446.555 461.467 446.545 461.539C446.555 462.106 446.592 462.671 446.657 463.233C446.658 463.357 446.682 463.479 446.728 463.591C446.774 463.704 446.84 463.804 446.922 463.885C447.05 463.952 447.19 463.98 447.33 463.965H450.091C450.153 461.221 449.888 458.48 449.301 455.816C449.263 455.612 449.194 455.417 449.097 455.24C448.863 454.949 448.555 454.748 448.216 454.663C447.541 454.346 446.812 454.202 446.082 454.243C445.191 454.375 444.447 455.026 443.688 455.568C442.929 456.11 441.895 456.588 440.973 456.312C440.051 456.035 439.282 455.165 438.808 456.767Z" fill="#3F3D56"/>
<path d="M398.273 454.237C397.497 455.177 396.545 455.91 395.487 456.381L395.019 456.634C394.954 456.662 394.899 456.713 394.861 456.779C394.852 456.823 394.852 456.87 394.861 456.915C394.869 456.96 394.887 457.002 394.912 457.038C395.302 457.72 395.878 458.24 396.553 458.518C397.228 458.795 397.964 458.816 398.65 458.577C398.954 458.491 399.235 458.325 399.47 458.093C399.859 457.571 400.081 456.918 400.102 456.237C400.256 455.534 400.23 454.796 400.026 454.11C399.318 452.306 399.058 453.125 398.273 454.237Z" fill="#FBBEBE"/>
<path d="M408.858 461.337C408.874 461.555 408.844 461.774 408.771 461.977C408.532 462.507 407.865 462.478 407.345 462.363C407.266 460.408 407.057 458.462 406.719 456.542C405.73 456.49 405.017 457.551 404.488 458.502L403.123 460.951C402.925 461.373 402.647 461.739 402.308 462.023C402.035 462.192 401.735 462.3 401.426 462.34C398.818 462.83 396.185 461.902 393.669 460.98C393.298 460.867 392.943 460.697 392.614 460.473C392.165 460.1 391.862 459.544 391.767 458.923C391.672 458.302 391.793 457.664 392.105 457.142C393.159 455.528 395.528 455.989 396.842 454.652C396.705 455.593 396.48 456.514 396.17 457.401C397.927 457.101 399.109 455.28 400.525 454.064C400.881 453.723 401.309 453.492 401.768 453.395C402.111 453.363 402.457 453.404 402.786 453.516C404.419 453.982 405.947 454.832 407.269 456.012C407.804 456.49 408.639 457.165 408.873 457.902C409.123 458.784 408.858 460.398 408.858 461.337Z" fill="#3F3D56"/>
<path d="M443.897 271.182C449.709 271.182 454.42 265.851 454.42 259.275C454.42 252.699 449.709 247.368 443.897 247.368C438.085 247.368 433.373 252.699 433.373 259.275C433.373 265.851 438.085 271.182 443.897 271.182Z" fill="#FBBEBE"/>
<path d="M464.628 329.576C464.585 331.852 464.3 334.115 463.777 336.313C463.279 339.044 462.636 341.739 461.852 344.382C461.246 346.301 460.487 348.226 460.492 350.261C460.492 351.108 460.614 352.047 460.155 352.716C459.747 353.185 459.233 353.518 458.668 353.678C458.386 353.763 458.126 353.921 457.909 354.14C457.691 354.36 457.522 354.634 457.415 354.94C456.937 354.132 456.579 353.24 456.356 352.301C455.442 349.135 454.593 345.952 453.809 342.751C453.737 342.567 453.706 342.366 453.718 342.165C453.731 341.964 453.786 341.769 453.88 341.598C454.009 341.471 454.16 341.375 454.323 341.316C454.845 341.075 455.324 340.727 455.734 340.29C455.927 340.097 456.086 339.864 456.203 339.604C456.351 339.191 456.419 338.747 456.401 338.302C456.401 336.774 456.401 335.253 456.366 333.726C456.344 332.316 456.392 330.905 456.508 329.501C456.508 329.224 456.554 328.781 456.595 328.308C456.671 327.403 456.824 326.354 457.257 326.003C457.904 325.513 459.84 326.17 460.573 326.285C461.836 326.481 463.12 326.712 464.353 326.983C464.532 327.832 464.624 328.702 464.628 329.576Z" fill="#3F3D56"/>
<path d="M422.137 272.606C421.729 273.528 420.751 273.971 419.998 274.554L417.415 276.559C417.243 276.735 417.04 276.87 416.821 276.955C416.601 277.04 416.368 277.074 416.137 277.055C415.927 276.967 415.734 276.833 415.57 276.659C415.407 276.486 415.276 276.278 415.184 276.046C415.186 276.031 415.186 276.015 415.184 276L414.649 274.986L412.103 270.156C411.819 269.724 411.655 269.207 411.629 268.669C411.629 268.421 411.705 268.191 411.726 267.943C411.733 267.247 411.555 266.564 411.216 265.983C411.013 265.551 410.605 265.194 410.615 264.71C410.596 264.074 410.693 263.44 410.9 262.848C411.168 262.301 411.551 261.838 412.016 261.5C412.255 261.304 412.5 261.119 412.755 260.923C412.89 260.819 413.04 260.741 413.198 260.693C413.62 260.595 414.038 260.992 414.466 261.01C416.305 262.404 417.013 265.044 418.459 266.946C419.274 268.029 419.356 268.859 420.278 269.828C420.426 269.977 420.568 270.139 420.706 270.306C420.888 270.531 421.042 270.783 421.164 271.055C421.332 271.551 422.346 272.133 422.137 272.606Z" fill="#3F3D56"/>
<path d="M440.199 271.188C440.958 273.003 441.549 274.997 441.33 276.991C441.285 277.532 441.133 278.054 440.886 278.519C440.153 279.792 438.615 280.023 437.275 280.098C436.993 280.071 436.709 280.108 436.439 280.207C436.17 280.306 435.921 280.465 435.706 280.674C435.527 280.969 435.44 281.322 435.457 281.678C435.475 282.035 435.596 282.375 435.803 282.645C436.234 283.165 436.768 283.56 437.362 283.798C439.481 284.853 441.768 285.723 444.07 285.481C445.14 285.366 446.179 285.014 447.243 284.835C448.404 284.693 449.57 284.62 450.738 284.616C452.123 284.559 453.503 284.403 454.884 284.247L458.541 283.838C458.741 283.842 458.935 283.762 459.086 283.614C459.356 283.256 459.01 282.732 458.673 282.461C456.733 280.836 454.262 279.718 453.157 277.274C452.648 276.121 452.49 274.75 452.113 273.505C451.736 272.26 451.135 271.136 450.901 269.868C450.776 268.756 450.719 267.635 450.732 266.514C450.745 265.383 450.382 264.289 449.714 263.448C448.985 262.681 447.931 262.485 446.943 262.439C444.508 262.318 441.915 262.975 440.189 264.917C439.725 265.442 439.328 266.07 438.849 266.543C438.37 267.015 437.718 267.153 438.034 267.776C438.35 268.398 438.971 268.784 439.307 269.332C439.648 269.923 439.946 270.543 440.199 271.188Z" fill="#FBBEBE"/>
<path d="M460.945 287.953C460.303 292.391 459.258 296.742 457.828 300.938C457.109 302.833 456.496 304.777 455.994 306.759C455.602 308.546 455.678 310.459 455.317 312.251C454.868 314.482 454.42 316.718 454.059 318.966C453.452 322.398 453.209 325.9 453.335 329.397C453.336 329.948 453.43 330.494 453.61 331.005C453.778 331.42 454.048 331.778 454.206 332.204C454.324 332.579 454.373 332.977 454.348 333.374C454.324 333.77 454.227 334.157 454.064 334.509C453.802 335.169 453.448 335.777 453.014 336.308C448.267 337.91 443.189 337.385 438.243 337.725C433.684 338.037 429.074 339.097 424.582 338.215C424.072 335.91 424.923 333.495 425.652 331.247C427.765 324.718 430.103 317.917 429.726 311.076C429.687 310.278 429.607 309.483 429.487 308.696C428.748 303.849 429.553 298.829 430.842 294.132C431.642 291.204 431.606 288.086 431.423 285.037C431.332 284.047 431.32 283.05 431.387 282.057C431.461 281.044 431.793 280.077 432.345 279.274C432.345 279.233 432.39 279.193 432.416 279.153C432.441 279.112 432.64 279.118 432.798 279.153C432.838 279.172 432.881 279.182 432.925 279.182C432.969 279.182 433.012 279.172 433.052 279.153L433.109 279.112C433.13 279.095 433.156 279.086 433.182 279.086C433.209 279.086 433.235 279.095 433.256 279.112C433.373 279.193 433.44 279.47 433.694 279.522C434.071 279.586 434.45 279.626 434.83 279.643C435.288 279.658 435.742 279.731 436.185 279.862H436.246C436.909 279.988 437.588 279.923 438.223 279.671C438.644 279.552 439.052 279.374 439.435 279.141C439.547 279.003 440.25 278.876 440.392 278.778C440.856 278.461 440.754 276.974 440.851 276.363C440.904 275.75 441.033 275.149 441.233 274.577C441.465 274.154 441.785 273.802 442.165 273.552C442.545 273.302 442.974 273.161 443.413 273.142C444.29 273.118 445.167 273.207 446.026 273.407C447.926 273.712 449.872 273.66 451.736 274.156C452.673 274.404 453.697 274.778 454.558 274.294C454.792 274.358 454.828 274.588 454.828 274.871C454.806 275.139 454.758 275.404 454.685 275.66C454.359 277.251 455.464 278.715 456.483 279.867C456.913 280.411 457.421 280.868 457.986 281.222C458.495 281.487 459.004 281.596 459.514 281.884C459.926 282.134 460.277 282.496 460.532 282.939C460.826 283.447 461.024 284.018 461.113 284.616C461.222 285.731 461.166 286.859 460.945 287.953Z" fill="#3F3D56"/>
<path opacity="0.1" d="M460.945 287.953C460.303 292.391 459.258 296.742 457.828 300.938C457.109 302.833 456.496 304.777 455.994 306.759C455.602 308.546 455.678 310.459 455.317 312.252C454.868 314.482 454.42 316.718 454.059 318.966C453.952 319.035 453.84 319.098 453.727 319.156C453.094 319.498 452.422 319.743 451.731 319.882C450.489 320.052 449.232 320.006 448.002 319.744L440.734 318.643C437.83 318.199 434.739 317.663 432.584 315.439C431.387 314.217 430.603 312.603 429.742 311.047C429.702 310.249 429.622 309.454 429.502 308.667C428.764 303.82 429.569 298.8 430.857 294.103C431.657 291.175 431.621 288.057 431.438 285.008C431.347 284.018 431.335 283.021 431.402 282.029C431.476 281.015 431.809 280.048 432.36 279.245C432.509 279.196 432.66 279.157 432.813 279.13C432.916 279.106 433.019 279.091 433.124 279.084H433.272C433.443 279.084 433.614 279.107 433.781 279.153C434.128 279.278 434.468 279.426 434.8 279.596H434.861C435.298 279.759 435.756 279.833 436.216 279.815C436.888 279.815 437.581 279.694 438.253 279.643C439.084 279.496 439.934 279.668 440.667 280.132C441.141 280.563 441.59 281.027 442.012 281.521C442.522 281.974 443.095 282.327 443.708 282.565C448.093 284.458 452.957 284.342 457.268 282.242C457.682 281.975 458.151 281.84 458.628 281.85C458.979 281.928 459.312 282.089 459.605 282.323C459.911 282.524 460.212 282.72 460.522 282.899C460.816 283.407 461.014 283.978 461.103 284.576C461.22 285.704 461.166 286.846 460.945 287.953Z" fill="black"/>
<path d="M465.382 284.138C463.353 283.437 461.405 282.47 459.575 281.256C459.281 281.024 458.948 280.863 458.597 280.784C458.119 280.777 457.649 280.912 457.232 281.176C452.923 283.276 448.061 283.392 443.678 281.498C443.066 281.258 442.493 280.906 441.982 280.455C441.558 279.962 441.109 279.498 440.637 279.066C438.961 277.839 436.644 279.279 434.769 278.49C434.437 278.322 434.097 278.174 433.75 278.046C432.268 277.625 430.76 279.297 429.304 278.79C428.762 280.456 428.361 282.178 428.107 283.93C427.9 285.943 427.789 287.967 427.776 289.993C427.776 291.21 427.725 292.426 427.776 293.642C427.955 293.675 428.127 293.75 428.279 293.862C428.432 293.974 428.562 294.121 428.662 294.293C428.729 294.494 428.756 294.709 428.742 294.923C428.728 295.137 428.673 295.345 428.58 295.532C427.516 298.627 426.436 301.756 424.821 304.529C425.959 305.296 427.015 306.209 427.969 307.249C429.752 309.381 430.628 312.372 432.553 314.344C434.723 316.562 437.815 317.104 440.703 317.542L447.972 318.643C449.203 318.904 450.461 318.952 451.705 318.787C452.395 318.645 453.065 318.399 453.697 318.055C454.11 317.86 454.486 317.578 454.807 317.225C455.076 316.88 455.297 316.492 455.464 316.073C456.04 314.77 456.565 313.439 457.049 312.09C457.217 311.612 457.471 311.053 457.93 311.012C460.629 308.257 463.176 305.433 465.876 302.679C466.961 301.661 467.934 300.5 468.774 299.221C470.114 296.979 468.896 293.803 468.774 291.094C468.759 290.401 468.682 289.712 468.545 289.037C468.107 287.071 467.078 284.72 465.382 284.138Z" fill="black"/>
<path opacity="0.1" d="M422.137 272.606C421.73 273.528 420.752 273.971 419.998 274.554L417.415 276.559C417.243 276.735 417.041 276.87 416.821 276.955C416.601 277.04 416.368 277.074 416.137 277.055C415.927 276.967 415.734 276.833 415.571 276.659C415.407 276.486 415.276 276.278 415.184 276.046C415.184 275.914 415.184 275.77 415.184 275.631C415.165 275.165 415.22 274.698 415.347 274.254C415.6 273.602 415.992 273.032 416.488 272.594C417.447 271.567 418.588 270.781 419.835 270.289C420.029 270.203 420.24 270.179 420.446 270.22C420.525 270.243 420.601 270.28 420.67 270.329C420.852 270.554 421.007 270.806 421.129 271.078C421.332 271.551 422.346 272.133 422.137 272.606Z" fill="black"/>
<path d="M428.219 278.68C427.353 278.634 426.645 277.925 426.013 277.251L424.083 275.222C423.953 275.098 423.84 274.955 423.746 274.796C423.642 274.571 423.563 274.333 423.512 274.087C423.103 272.923 422.461 271.881 421.638 271.044C421.494 270.837 421.302 270.681 421.083 270.594C420.875 270.551 420.662 270.575 420.466 270.663C419.219 271.155 418.078 271.94 417.12 272.969C416.624 273.407 416.232 273.977 415.979 274.628C415.851 275.073 415.795 275.539 415.816 276.006C415.828 277.529 416.13 279.031 416.702 280.409C416.789 280.622 416.885 280.836 416.987 281.043C417.667 282.314 418.47 283.495 419.381 284.564L420.594 286.098C421.785 287.608 422.977 289.118 424.271 290.506C424.735 291.066 425.297 291.51 425.921 291.809C426.235 291.954 426.578 291.998 426.912 291.937C427.246 291.876 427.559 291.712 427.816 291.463C428.06 291.144 428.244 290.771 428.356 290.368C429.141 288.063 429.884 285.665 429.93 283.181C429.941 282.186 429.904 281.192 429.818 280.202C429.742 279.153 429.085 278.743 428.219 278.68Z" fill="black"/>
<path d="M459.086 359.367C459.056 365.164 458.692 370.953 457.996 376.697C457.894 377.625 457.782 378.553 457.726 379.481C457.558 382.172 457.833 384.875 457.609 387.549C457.492 388.996 457.227 390.431 457.003 391.843C456.007 398.145 455.716 404.564 456.137 410.949C456.84 421.57 454.685 432.198 455.663 442.791C455.782 444.851 455.681 446.919 455.362 448.952C455.18 450.213 454.916 451.458 454.573 452.675C453.829 455.561 453.082 458.442 452.332 461.32C452.244 461.758 452.069 462.167 451.822 462.519C451.563 462.773 451.258 462.962 450.928 463.072C450.599 463.182 450.253 463.212 449.912 463.159C446.973 463.055 444.208 461.62 441.538 460.219C441.232 460.082 440.947 459.887 440.698 459.643C440.143 458.992 440.189 457.966 439.944 457.107C439.7 456.248 439.037 455.441 438.661 454.56C438.351 453.726 438.163 452.84 438.105 451.937C437.766 448.986 437.535 446.024 437.413 443.05C437.219 438.866 439.664 435.016 440.469 430.947C441.997 422.948 440.703 414.372 443.418 406.782C444.274 404.384 443.031 401.479 442.909 398.897C442.865 397.232 442.674 395.575 442.338 393.952C441.829 391.785 440.754 389.745 440.678 387.498C440.622 385.872 441.085 384.287 441.325 382.685C441.642 380.327 441.613 377.926 441.238 375.579C440.968 373.642 440.555 371.706 440.143 369.816L440.051 370.029C438.81 372.773 437.743 375.614 436.857 378.53C436.45 379.942 436.093 381.383 435.584 382.754C435.166 383.907 434.652 384.962 434.148 386.045C432.339 389.866 430.765 393.823 429.436 397.889C428.804 399.883 428.249 401.923 427.699 403.923L423.925 417.755C422.906 421.392 421.791 424.907 420.792 428.538C419.381 433.725 417.97 438.866 416.33 443.938C414.802 448.75 412.984 453.735 413.529 458.819C412.124 459.566 410.582 459.919 409.031 459.85C406.406 459.588 403.83 458.88 401.391 457.753C400.418 457.343 399.409 456.882 398.752 455.977C397.621 454.416 397.902 452.128 398.243 450.139C398.371 449.243 398.576 448.363 398.854 447.511C399.241 446.451 399.873 445.511 400.27 444.462C401.07 442.451 401.121 440.174 401.437 437.99C401.752 435.806 402.455 433.5 404.106 432.313C404.386 428.475 405.781 424.688 406.551 420.936C407.131 418.095 407.325 415.173 407.783 412.291C408.242 409.41 408.98 406.528 410.518 404.194C410.397 401.787 410.877 399.39 411.904 397.278C412.152 396.814 412.355 396.321 412.51 395.808C412.605 395.308 412.66 394.798 412.673 394.287C412.841 392.284 413.598 390.403 414.823 388.944C414.313 386.841 415.021 384.645 415.658 382.604C416.46 380.001 416.823 377.25 416.728 374.495C416.649 373.726 416.681 372.947 416.824 372.19C416.967 371.614 417.247 371.124 417.41 370.571C417.555 369.893 417.632 369.199 417.639 368.502C417.838 365.384 418.953 362.444 420.186 359.661C420.92 358.035 420.298 355.828 420.451 354.018C420.716 351.01 421.006 347.898 422.325 345.275C422.57 344.78 422.835 344.307 423.054 343.794C423.319 343.062 423.463 342.28 423.477 341.489C423.522 340.169 423.685 339.074 423.268 337.846C425.993 335.282 429.711 334.561 433.256 334.388C436.801 334.216 440.387 334.579 443.856 333.726C444.875 333.466 445.893 333.109 446.968 332.936C449.408 332.533 451.884 333.161 454.293 333.783C454.125 335.512 454.685 337.172 455.312 338.78C457.758 345.293 459.04 352.29 459.086 359.367Z" fill="#33313F"/>
<path opacity="0.1" d="M447.09 360.687L441.238 375.579C440.968 373.642 440.555 371.706 440.143 369.816L440.051 370.029V369.718L443.24 361.782L447.09 360.687Z" fill="black"/>
<path opacity="0.1" d="M464.628 329.576C464.29 329.862 463.887 330.032 463.466 330.066C462.821 330.092 462.177 329.992 461.561 329.772L456.977 328.475C456.833 328.435 456.693 328.379 456.559 328.308C456.636 327.403 456.789 326.354 457.222 326.003C457.868 325.513 459.804 326.17 460.538 326.285C461.801 326.481 463.084 326.712 464.317 326.983C464.508 327.831 464.612 328.701 464.628 329.576Z" fill="black"/>
<path d="M468.504 295.284C468.601 295.763 468.738 296.235 468.82 296.719C468.957 297.907 468.921 299.112 468.713 300.287L468.295 303.583L467.877 306.897L466.263 319.652L465.866 322.81L465.305 327.219C465.279 327.586 465.196 327.945 465.061 328.279C464.894 328.593 464.661 328.854 464.383 329.04C464.104 329.226 463.789 329.331 463.466 329.346C462.821 329.369 462.177 329.269 461.561 329.052L456.977 327.749C456.776 327.709 456.585 327.62 456.417 327.49C456.277 327.335 456.176 327.141 456.124 326.927C456.072 326.713 456.071 326.488 456.121 326.274C456.188 325.836 456.356 325.426 456.412 324.988C456.524 324.135 456.208 323.259 456.32 322.412C456.43 321.873 456.601 321.352 456.829 320.862C458.358 317.041 457.471 312.58 457.991 308.43C458.458 305.165 459.678 302.096 461.526 299.532C462.666 297.914 463.976 296.458 465.427 295.198C465.998 294.696 466.905 293.665 467.623 293.469C468.545 293.25 468.351 294.558 468.504 295.284Z" fill="black"/>
<path d="M433.811 245.639C433.475 246.849 434 248.181 433.76 249.414C433.501 250.774 432.37 251.719 432.049 253.085C431.54 255.166 433.098 257.062 434.239 258.791C438.467 265.211 437.912 274.098 436.465 281.931C435.301 288.215 433.692 294.382 431.652 300.373C431.015 302.235 430.312 304.125 429.059 305.52C431.402 304.759 433.893 303.993 436.241 304.73C439.216 305.664 441.783 308.932 444.798 308.188C446.612 307.733 447.885 305.912 449.515 304.903C452.571 303.042 456.254 304.212 459.661 304.811C460.396 305.007 461.164 304.963 461.877 304.684C462.422 304.353 462.885 303.871 463.222 303.284C464.743 301.076 465.653 298.41 465.84 295.619C465.921 294.229 465.739 292.835 465.308 291.531C464.877 290.226 464.206 289.04 463.339 288.051C462.616 287.279 461.75 286.657 461.195 285.746C460.655 284.682 460.365 283.48 460.354 282.253C459.952 275.914 461.317 269.441 459.911 263.309C459.402 261.125 458.571 259.033 458.347 256.797C458.067 254.013 458.734 251.033 457.756 248.486C456.987 246.463 455.291 245.028 453.462 244.29C451.634 243.553 449.678 243.345 447.737 243.138C444.946 242.872 434.978 241.518 433.811 245.639Z" fill="#33313F"/>
<g opacity="0.1">
<path opacity="0.1" d="M436.465 281.931C435.307 288.189 433.706 294.331 431.677 300.298C432.029 299.509 432.324 298.679 432.604 297.855C434.646 291.864 436.256 285.697 437.418 279.412C438.869 271.574 439.425 262.698 435.197 256.272C434.178 254.739 432.869 253.079 432.915 251.281C432.538 251.825 432.246 252.437 432.049 253.091C431.54 255.171 433.098 257.068 434.239 258.797C438.467 265.211 437.912 274.098 436.465 281.931Z" fill="black"/>
<path opacity="0.1" d="M433.822 248.832C434.23 248.257 434.535 247.597 434.718 246.89C434.797 246.033 434.776 245.169 434.657 244.319C434.265 244.653 433.97 245.113 433.811 245.639C433.511 246.659 433.857 247.766 433.822 248.832Z" fill="black"/>
<path opacity="0.1" d="M464.179 300.748C463.842 301.333 463.38 301.813 462.835 302.143C462.123 302.427 461.353 302.471 460.619 302.269C457.211 301.693 453.488 300.506 450.473 302.367C448.838 303.37 447.569 305.191 445.751 305.652C442.74 306.413 440.173 303.145 437.199 302.194C435.09 301.532 432.869 302.079 430.745 302.771C430.323 303.789 429.753 304.72 429.059 305.526C431.402 304.765 433.893 303.998 436.241 304.736C439.216 305.67 441.783 308.938 444.798 308.194C446.612 307.739 447.885 305.918 449.515 304.909C452.571 303.047 456.254 304.217 459.661 304.817C460.396 305.013 461.164 304.969 461.877 304.69C462.422 304.358 462.885 303.877 463.222 303.29C464.145 301.912 464.858 300.369 465.331 298.725C464.99 299.43 464.605 300.106 464.179 300.748Z" fill="black"/>
</g>
</g>
<defs>
<linearGradient id="paint0_linear" x1="391.494" y1="352.958" x2="469.426" y2="352.958" gradientUnits="userSpaceOnUse">
<stop stop-color="#808080" stop-opacity="0.25"/>
<stop offset="0.54" stop-color="#808080" stop-opacity="0.12"/>
<stop offset="1" stop-color="#808080" stop-opacity="0.1"/>
</linearGradient>
<clipPath id="clip0">
<rect width="594" height="464" fill="white"/>
</clipPath>
</defs>
</svg>
