
<svg  viewBox="0 0 547 372" fill="none" xmlns="http://www.w3.org/2000/svg">
<path d="M399.91 372C384.786 369.564 370.244 367.492 356.285 365.784L361.661 354.723C359.795 354.083 351.709 360.482 351.709 360.482L358.551 328.488C349.222 329.767 344.868 362.402 344.868 362.402L334.295 351.524L339.5 363.84C296.784 359.222 259.924 357.781 228.939 358.111L233.54 348.644C231.674 348.004 223.589 354.403 223.589 354.403L230.43 322.409C221.101 323.688 216.748 356.323 216.748 356.323L206.175 345.445L211.687 358.489C190.463 359.124 169.284 360.878 148.235 363.747C152.826 349.032 168.858 334.886 168.858 334.886C156.531 338.832 150.117 345.261 146.798 351.219C146.126 320.989 150.647 290.873 160.151 262.259C160.151 262.259 135.273 319.849 139.005 358.242L139.478 365.062C117.835 368.536 106.974 372 106.974 372H399.91Z" fill="#3F3D56"/>
<path d="M456.925 292.741C455.449 292.741 454.006 292.29 452.779 291.446C451.552 290.603 450.595 289.403 450.03 288C449.465 286.597 449.317 285.053 449.605 283.564C449.893 282.074 450.604 280.706 451.648 279.632C452.692 278.558 454.022 277.827 455.469 277.531C456.917 277.234 458.418 277.387 459.781 277.968C461.145 278.549 462.311 279.533 463.131 280.796C463.951 282.059 464.389 283.543 464.389 285.062C464.386 287.098 463.599 289.049 462.2 290.489C460.801 291.928 458.904 292.738 456.925 292.741ZM456.925 278.663C455.695 278.663 454.493 279.038 453.47 279.741C452.447 280.445 451.65 281.444 451.179 282.613C450.709 283.782 450.585 285.069 450.825 286.31C451.065 287.552 451.658 288.692 452.527 289.587C453.397 290.481 454.505 291.091 455.712 291.338C456.918 291.585 458.169 291.458 459.305 290.974C460.442 290.489 461.413 289.669 462.097 288.617C462.78 287.565 463.145 286.327 463.145 285.062C463.143 283.365 462.487 281.739 461.321 280.539C460.155 279.34 458.574 278.665 456.925 278.663Z" fill="#3F3D56"/>
<path d="M516.525 370.993H504.247V358.36H516.525V370.993ZM505.191 370.021H515.58V359.332H505.191V370.021Z" fill="#3F3D56"/>
<path d="M100.844 371.684L92.4699 362.446L101.448 353.83L109.823 363.067L100.844 371.684ZM93.8047 362.494L100.891 370.31L108.488 363.02L101.402 355.203L93.8047 362.494Z" fill="#3F3D56"/>
<path d="M547 370.279H13.479V371.559H547V370.279Z" fill="#3F3D56"/>
<path d="M344.231 85.5916V127.62C344.23 128.008 344.079 128.38 343.812 128.655C343.545 128.929 343.184 129.084 342.806 129.085H341.793V348.023C341.792 354.082 339.453 359.892 335.289 364.176C331.125 368.46 325.478 370.867 319.589 370.867H186.624C183.708 370.867 180.822 370.276 178.128 369.127C175.435 367.979 172.988 366.296 170.926 364.175C168.865 362.054 167.23 359.536 166.115 356.764C165 353.993 164.426 351.023 164.427 348.023V136.764H163.693C163.426 136.764 163.171 136.656 162.982 136.463C162.793 136.27 162.686 136.007 162.685 135.733V111.814C162.685 111.678 162.711 111.543 162.762 111.418C162.812 111.292 162.887 111.177 162.98 111.081C163.074 110.985 163.185 110.909 163.307 110.856C163.429 110.804 163.56 110.778 163.693 110.778H164.427V101.768H163.686C163.407 101.767 163.139 101.652 162.942 101.448C162.745 101.244 162.635 100.968 162.635 100.68V77.0875C162.636 76.8009 162.747 76.5263 162.944 76.3236C163.141 76.121 163.408 76.0068 163.686 76.0061H164.427V63.7074H163.674C163.551 63.7076 163.43 63.6828 163.317 63.6347C163.203 63.5865 163.101 63.5158 163.014 63.4266C162.927 63.3375 162.859 63.2316 162.812 63.1151C162.765 62.9985 162.741 62.8737 162.741 62.7476V49.873C162.74 49.6176 162.838 49.3725 163.013 49.1914C163.188 49.0102 163.426 48.9079 163.674 48.9067H164.427V22.8377C164.427 16.7808 166.765 10.9721 170.928 6.68925C175.091 2.40641 180.737 0.000235866 186.624 1.5259e-05H319.589C325.477 -1.2123e-05 331.123 2.40587 335.287 6.68858C339.451 10.9713 341.791 16.7801 341.793 22.8377V84.1263H342.806C343.184 84.1273 343.545 84.282 343.812 84.5566C344.079 84.8312 344.23 85.2033 344.231 85.5916Z" fill="#3F3D56"/>
<path d="M259.513 11.7143H237.906C237.033 11.7143 236.326 12.4425 236.326 13.3409V15.2622C236.326 16.1605 237.033 16.8887 237.906 16.8887H259.513C260.386 16.8887 261.093 16.1605 261.093 15.2622V13.3409C261.093 12.4425 260.386 11.7143 259.513 11.7143Z" fill="#E6E8EC"/>
<path d="M267.691 17.2365C269.267 17.2365 270.544 15.9225 270.544 14.3015C270.544 12.6806 269.267 11.3666 267.691 11.3666C266.116 11.3666 264.838 12.6806 264.838 14.3015C264.838 15.9225 266.116 17.2365 267.691 17.2365Z" fill="#E6E8EC"/>
<path d="M331.16 27.3556V349.917C331.162 352.015 330.721 354.087 329.866 355.991C329.011 357.895 327.763 359.585 326.21 360.943C323.661 363.178 320.422 364.405 317.073 364.404H189.793C187.528 364.408 185.296 363.848 183.287 362.773C182.815 362.524 182.358 362.246 181.919 361.941C180.006 360.613 178.439 358.822 177.356 356.726C176.272 354.63 175.706 352.292 175.706 349.917V27.3556C175.705 25.4523 176.07 23.5675 176.778 21.8091C177.486 20.0506 178.523 18.4528 179.831 17.107C181.139 15.7611 182.692 14.6935 184.402 13.9652C186.111 13.2368 187.943 12.862 189.793 12.8621H208.843V15.3769C208.843 18.5419 210.065 21.5774 212.24 23.8154C214.415 26.0534 217.366 27.3108 220.442 27.3108H285.174C288.25 27.3108 291.2 26.0535 293.376 23.8154C295.551 21.5774 296.773 18.5419 296.773 15.3769V12.8621H317.073C318.923 12.8615 320.756 13.2359 322.465 13.9641C324.174 14.6922 325.728 15.7598 327.036 17.1058C328.344 18.4517 329.382 20.0497 330.089 21.8084C330.797 23.5672 331.161 25.4521 331.16 27.3556Z" fill="#41FF98"/>
<path opacity="0.3" d="M331.16 303.743V349.917C331.162 352.015 330.721 354.087 329.866 355.991C329.011 357.895 327.763 359.585 326.21 360.943C323.661 363.178 320.422 364.405 317.073 364.404H189.793C187.528 364.408 185.296 363.848 183.287 362.773C182.815 362.524 182.358 362.246 181.919 361.941C180.006 360.613 178.439 358.822 177.356 356.726C176.272 354.63 175.706 352.292 175.706 349.917V303.762C197.048 284.024 224.731 273.102 253.429 273.099C282.127 273.095 309.813 284.01 331.16 303.743Z" fill="white"/>
<path opacity="0.3" d="M323.591 362.76C321.581 363.846 319.344 364.411 317.073 364.405H189.793C187.528 364.408 185.296 363.848 183.287 362.773C189.049 348.515 198.787 336.332 211.271 327.761C223.755 319.191 238.427 314.616 253.435 314.615C268.443 314.613 283.116 319.185 295.602 327.754C308.087 336.322 317.827 348.503 323.591 362.76Z" fill="white"/>
<path opacity="0.3" d="M295.89 363.534C294.674 364.191 293.32 364.533 291.946 364.529H214.925C213.555 364.531 212.204 364.192 210.988 363.542C214.475 354.914 220.368 347.542 227.922 342.355C235.477 337.169 244.355 334.401 253.437 334.4C262.519 334.399 271.397 337.166 278.953 342.351C286.508 347.536 292.402 354.907 295.89 363.534Z" fill="white"/>
<path d="M285.812 137.736C273.044 137.736 259.032 135.235 248.093 126.794C232.864 115.043 214.1 115.67 201.041 118.266C192.367 120.005 183.948 122.89 175.993 126.85L175.418 125.715C183.47 121.704 191.992 118.78 200.773 117.016C214.088 114.364 233.236 113.731 248.84 125.771C278.071 148.327 330.413 128.068 330.938 127.862L331.383 129.056C321.568 132.656 311.416 135.199 301.091 136.644C296.027 137.354 290.923 137.719 285.812 137.736Z" fill="white"/>
<path opacity="0.3" d="M175.699 126.283C175.699 126.283 218.613 115.589 248.467 130.231C278.32 144.873 331.185 130.122 331.185 130.122" fill="white"/>
<path opacity="0.3" d="M216.213 142.895C211.029 142.871 205.859 142.34 200.773 141.308C191.992 139.544 183.47 136.62 175.418 132.609L175.993 131.474C183.948 135.434 192.367 138.319 201.041 140.058C214.099 142.654 232.863 143.281 248.093 131.53C263.683 119.5 285.52 119.534 301.091 121.68C311.416 123.125 321.568 125.668 331.383 129.268L330.938 130.462C330.412 130.255 278.072 109.997 248.84 132.553C238.608 140.449 226.85 142.895 216.213 142.895Z" fill="white"/>
<path opacity="0.3" d="M216.425 137.742C194.884 137.742 175.755 129.791 175.469 129.669L175.942 128.486C176.368 128.666 218.911 146.338 248.15 128.527C277.894 110.406 330.81 126.581 331.341 126.747L330.98 127.972C330.455 127.808 278.057 111.794 248.784 129.628C238.794 135.714 227.301 137.742 216.425 137.742Z" fill="white"/>
<path opacity="0.3" d="M175.706 128.093C175.706 128.093 218.613 142.736 248.467 128.093C278.32 113.451 331.16 126.71 331.16 126.71" fill="white"/>
<path d="M342.237 167.267V185.922C342.237 185.922 343.687 206.815 351.665 217.261C351.665 217.261 364.72 236.289 366.533 232.185L364.3 218.673L356.742 211.292L352.753 188.16L351.665 167.267H342.237Z" fill="#FFB8B8"/>
<path d="M422.377 335.904V349.708L411.499 353.813V337.769L422.377 335.904Z" fill="#FFB8B8"/>
<path d="M400.257 334.412L407.51 351.201L397.356 355.678L395.18 339.262L400.257 334.412Z" fill="#FFB8B8"/>
<path d="M418.389 205.695C418.389 205.695 432.894 340.381 427.454 340.754C422.015 341.128 411.499 348.216 411.499 343.366C411.499 338.516 403.158 275.463 403.158 275.463L395.18 243.005V287.775L403.521 338.516C403.521 338.516 395.543 349.336 389.741 342.993L377.412 293.372C377.412 293.372 361.093 218.007 361.819 212.038C361.819 212.038 399.169 179.206 418.389 205.695Z" fill="#2F2E41"/>
<path d="M415.488 350.455C415.488 350.455 418.389 344.112 424.916 348.216L430.355 354.932C430.355 354.932 444.379 366.881 434.428 369.44C424.171 372.079 418.026 369.272 418.026 369.272C418.026 369.272 416.213 368.153 414.762 368.153C413.312 368.153 410.048 365.541 410.048 364.795C410.048 364.049 411.136 350.828 411.136 350.828C411.547 350.622 412.008 350.547 412.461 350.614C412.913 350.68 413.336 350.885 413.675 351.201C414.762 352.32 415.488 350.455 415.488 350.455Z" fill="#2F2E41"/>
<path d="M394.093 348.216C394.093 348.216 400.983 342.62 404.246 348.962C404.246 348.962 406.301 349.709 406.543 348.962C406.785 348.216 408.598 347.843 408.598 351.947C408.598 356.051 410.567 366.287 408.754 366.66C406.941 367.033 405.128 368.153 405.49 369.645C405.853 371.137 403.521 371.348 395.181 370.975C386.84 370.602 386.477 367.244 386.477 367.244C386.477 367.244 386.477 362.394 388.653 359.782C390.829 357.17 394.093 348.216 394.093 348.216Z" fill="#2F2E41"/>
<path d="M380.675 103.842C380.675 103.842 378.862 117.646 390.466 122.496C402.07 127.346 364.72 143.389 361.093 134.062C357.467 124.735 361.819 121.75 361.819 121.75C361.819 121.75 365.445 118.019 362.181 107.946L380.675 103.842Z" fill="#FFB8B8"/>
<path d="M369.071 113.542C377.883 113.542 385.027 106.192 385.027 97.1259C385.027 88.0596 377.883 80.7099 369.071 80.7099C360.259 80.7099 353.116 88.0596 353.116 97.1259C353.116 106.192 360.259 113.542 369.071 113.542Z" fill="#FFB8B8"/>
<path d="M387.565 126.973C387.565 126.973 376.686 132.943 366.17 128.466C355.654 123.988 356.017 143.389 356.017 143.389L361.456 157.94L399.169 154.209L396.631 131.823L387.565 126.973Z" fill="#F2F2F2"/>
<path d="M382.16 114.207C384.092 114.629 385.907 115.492 387.47 116.733C389.033 117.974 390.305 119.561 391.192 121.377L408.598 126.973L412.949 133.316L407.872 179.206C407.872 179.206 417.301 188.533 417.301 193.756C417.301 198.98 428.905 216.888 423.103 214.65C417.301 212.411 406.785 204.576 406.785 204.576C406.785 204.576 380.313 205.695 371.972 213.157C363.632 220.619 360.368 218.381 360.368 218.381C360.368 218.381 351.665 179.579 351.302 173.61C350.94 167.64 340.786 131.823 340.786 131.823L358.918 121.377L363.536 115.986L376.324 137.047L387.928 122.496C387.928 122.496 382.195 117.857 382.16 114.207Z" fill="#3F3D56"/>
<path d="M418.389 162.044L420.564 173.983C420.564 173.983 430.355 211.292 428.905 223.977C428.905 223.977 429.993 252.332 423.828 248.974C417.663 245.616 420.927 225.096 420.927 225.096L412.224 188.16L407.51 166.521L418.389 162.044Z" fill="#FFB8B8"/>
<path d="M409.323 131.077L412.949 133.316C412.949 133.316 426.729 162.79 423.465 165.028C420.202 167.267 406.059 172.117 406.059 172.117L409.323 131.077Z" fill="#3F3D56"/>
<path d="M349.489 131.824L340.967 131.637L338.973 135.181L341.511 171.371L354.566 174.356L349.489 131.824Z" fill="#3F3D56"/>
<path d="M382.064 83.2422L384.94 82.1662C384.94 82.1662 378.927 75.9795 370.56 76.5175L372.914 74.0965C372.914 74.0965 367.162 71.9446 361.933 77.5934C359.184 80.5628 356.004 84.0532 354.021 87.9851H350.941L352.227 90.6302L347.728 93.2753L352.345 92.8002C351.908 95.0837 352.059 97.4454 352.782 99.6506L353.828 102.609C353.828 102.609 358.011 94.0017 358.011 92.9258V95.6157C358.011 95.6157 360.887 93.1948 360.887 91.5809L362.456 93.4638L363.24 90.5049L372.914 93.4638L371.345 91.0429L377.358 91.8498L375.005 88.8909C375.005 88.8909 381.803 92.3878 382.064 95.3467C382.326 98.3056 384.12 102.163 384.12 102.163L386.296 99.551C386.296 99.551 389.646 87.277 382.064 83.2422Z" fill="#2F2E41"/>
<path d="M382.488 100.67C383.189 100.67 383.758 99.1669 383.758 97.3124C383.758 95.458 383.189 93.9546 382.488 93.9546C381.787 93.9546 381.219 95.458 381.219 97.3124C381.219 99.1669 381.787 100.67 382.488 100.67Z" fill="#FFB8B8"/>
<path d="M25.894 350.03C33.6238 364.779 50.0292 371.11 50.0292 371.11C50.0292 371.11 53.9021 353.529 46.1723 338.78C38.4425 324.031 22.0372 317.7 22.0372 317.7C22.0372 317.7 18.1643 335.281 25.894 350.03Z" fill="#3F3D56"/>
<path d="M31.207 345.178C45.1624 353.816 50.5371 370.974 50.5371 370.974C50.5371 370.974 33.2856 374.127 19.3301 365.488C5.37468 356.85 0 339.692 0 339.692C0 339.692 17.2516 336.539 31.207 345.178Z" fill="#41FF98"/>
<path opacity="0.3" d="M175.706 126.283C175.706 126.283 218.613 103.246 248.467 126.283C278.32 149.319 331.16 128.459 331.16 128.459" fill="white"/>
<path d="M253.598 360.69C257.376 360.69 260.439 357.538 260.439 353.651C260.439 349.764 257.376 346.612 253.598 346.612C249.819 346.612 246.756 349.764 246.756 353.651C246.756 357.538 249.819 360.69 253.598 360.69Z" fill="white"/>
</svg>






