
	<svg  viewBox="0 0 524 377" fill="none" xmlns="http://www.w3.org/2000/svg">
<path d="M104.404 377C162.064 377 208.807 373.329 208.807 368.8C208.807 364.272 162.064 360.601 104.404 360.601C46.7431 360.601 0 364.272 0 368.8C0 373.329 46.7431 377 104.404 377Z" fill="#E6E6E6"/>
<path d="M79.8041 83.6497C97.9735 75.6582 120.604 80.7215 142.705 84.2356C142.91 79.98 145.403 74.8007 142.792 71.8318C139.619 68.2247 139.911 64.4348 141.82 60.623C146.702 50.8757 139.708 40.504 132.646 31.8801C131.054 29.9407 129.043 28.4168 126.774 27.4324C124.506 26.4479 122.045 26.0306 119.592 26.2143L106.51 27.1805C103.327 27.4156 100.289 28.6505 97.8027 30.7198C95.3166 32.7892 93.5009 35.5943 92.5987 38.7599C89.475 43.1529 87.8031 47.5339 88.8557 51.892C84.177 55.1984 83.3909 59.1895 85.4934 63.6888C87.2761 66.5217 87.2572 69.2793 85.4123 71.9606C82.9893 75.379 81.1336 79.1907 79.9211 83.2393L79.8041 83.6497Z" fill="#2F2E41"/>
<path d="M511.583 325.91H141.269C137.976 325.91 134.818 324.558 132.489 322.15C130.161 319.742 128.852 316.476 128.852 313.07C263.091 296.938 394.807 296.938 524 313.07C524 316.476 522.692 319.742 520.363 322.15C518.035 324.558 514.876 325.91 511.583 325.91Z" fill="#2F2E41"/>
<path d="M524 313.826L128.852 313.07L174.649 233.387L174.868 233.009V57.395C174.868 55.2634 175.273 53.1527 176.062 51.1833C176.851 49.214 178.007 47.4246 179.465 45.9173C180.922 44.4101 182.653 43.2145 184.557 42.3988C186.462 41.5832 188.503 41.1635 190.564 41.1637H460.097C462.158 41.1635 464.2 41.5832 466.104 42.3988C468.008 43.2145 469.739 44.4101 471.196 45.9173C472.654 47.4246 473.81 49.214 474.599 51.1833C475.388 53.1527 475.794 55.2634 475.793 57.395V234.217L524 313.826Z" fill="#3F3D56"/>
<path d="M190.206 52.4931C188.851 52.4947 187.551 53.0522 186.593 54.0434C185.634 55.0346 185.095 56.3784 185.093 57.7802V217.903C185.095 219.305 185.634 220.649 186.593 221.64C187.551 222.631 188.851 223.188 190.206 223.19H462.646C464.002 223.188 465.301 222.631 466.26 221.64C467.218 220.649 467.757 219.305 467.759 217.903V57.7802C467.758 56.3785 467.218 55.0346 466.26 54.0435C465.301 53.0523 464.002 52.4947 462.646 52.4931H190.206Z" fill="white"/>
<path d="M191.348 244.338C190.929 244.339 190.519 244.464 190.166 244.697C189.814 244.931 189.533 245.264 189.357 245.657L175.246 277.38C175.092 277.725 175.025 278.105 175.05 278.484C175.076 278.863 175.193 279.229 175.391 279.549C175.59 279.869 175.862 280.132 176.185 280.315C176.507 280.497 176.869 280.593 177.236 280.593H473.988C474.362 280.593 474.729 280.494 475.055 280.306C475.381 280.118 475.656 279.847 475.852 279.518C476.048 279.189 476.16 278.814 476.177 278.429C476.194 278.043 476.115 277.659 475.948 277.313L460.609 245.591C460.428 245.214 460.149 244.897 459.802 244.675C459.456 244.454 459.057 244.337 458.65 244.338H191.348Z" fill="#2F2E41"/>
<path d="M325.331 49.8496C327.146 49.8496 328.617 48.3279 328.617 46.4507C328.617 44.5736 327.146 43.0519 325.331 43.0519C323.515 43.0519 322.044 44.5736 322.044 46.4507C322.044 48.3279 323.515 49.8496 325.331 49.8496Z" fill="white"/>
<path d="M296.162 286.635C295.681 286.636 295.213 286.8 294.83 287.103C294.448 287.406 294.173 287.831 294.047 288.312L290.507 301.907C290.42 302.243 290.408 302.595 290.473 302.936C290.539 303.277 290.679 303.598 290.883 303.874C291.088 304.151 291.351 304.374 291.653 304.528C291.954 304.682 292.286 304.762 292.623 304.762H359.939C360.289 304.762 360.633 304.676 360.943 304.51C361.254 304.345 361.521 304.105 361.724 303.81C361.927 303.516 362.058 303.176 362.108 302.818C362.157 302.461 362.124 302.096 362.009 301.755L357.458 288.16C357.309 287.715 357.03 287.329 356.659 287.055C356.287 286.782 355.843 286.635 355.388 286.635H296.162Z" fill="#2F2E41"/>
<path d="M475.793 230.365V233.386H174.649L174.875 233.009V230.365H475.793Z" fill="#2F2E41"/>
<path d="M467.394 105.742C495.631 105.742 518.522 82.0705 518.522 52.8708C518.522 23.671 495.631 0 467.394 0C439.157 0 416.266 23.671 416.266 52.8708C416.266 82.0705 439.157 105.742 467.394 105.742Z" fill="black"/>
<path d="M488.575 75.9073H446.212C445.438 75.9065 444.695 75.588 444.147 75.0216C443.599 74.4552 443.291 73.6872 443.291 72.8861V46.4507C443.291 45.6497 443.599 44.8818 444.147 44.3154C444.695 43.749 445.438 43.4304 446.212 43.4296H488.575C489.35 43.4304 490.093 43.749 490.64 44.3154C491.188 44.8818 491.496 45.6497 491.497 46.4507V72.8861C491.496 73.6871 491.188 74.4551 490.641 75.0216C490.093 75.588 489.35 75.9065 488.575 75.9073ZM446.212 46.4508V72.8861H488.578L488.575 46.4507L446.212 46.4508Z" fill="white"/>
<path d="M480.541 46.4508H454.247V34.366C454.247 25.613 459.776 19.2601 467.394 19.2601C475.012 19.2601 480.541 25.613 480.541 34.366L480.541 46.4508ZM457.168 43.4296H477.619V34.366C477.619 27.2508 473.415 22.2813 467.394 22.2813C461.373 22.2813 457.168 27.2508 457.168 34.366L457.168 43.4296Z" fill="white"/>
<path d="M467.394 61.9343C469.007 61.9343 470.315 60.5817 470.315 58.9131C470.315 57.2446 469.007 55.8919 467.394 55.8919C465.78 55.8919 464.472 57.2446 464.472 58.9131C464.472 60.5817 465.78 61.9343 467.394 61.9343Z" fill="white"/>
<path d="M431.702 168.878H221.15C220.117 168.877 219.126 168.452 218.395 167.696C217.664 166.94 217.253 165.915 217.251 164.846V110.837C217.253 109.768 217.664 108.743 218.395 107.987C219.126 107.232 220.117 106.806 221.15 106.805H431.702C432.736 106.806 433.727 107.232 434.458 107.987C435.189 108.743 435.6 109.768 435.601 110.837V164.846C435.6 165.915 435.189 166.94 434.458 167.696C433.727 168.452 432.736 168.877 431.702 168.878ZM221.15 108.418C220.53 108.419 219.936 108.674 219.497 109.127C219.058 109.581 218.812 110.196 218.811 110.837V164.846C218.812 165.487 219.058 166.102 219.497 166.556C219.936 167.009 220.53 167.265 221.15 167.265H431.702C432.322 167.265 432.917 167.009 433.355 166.556C433.794 166.102 434.041 165.487 434.041 164.846V110.837C434.041 110.196 433.794 109.581 433.355 109.127C432.917 108.674 432.322 108.419 431.702 108.418L221.15 108.418Z" fill="#E6E6E6"/>
<path d="M253.866 152.193C262.638 152.193 269.749 144.84 269.749 135.769C269.749 126.698 262.638 119.345 253.866 119.345C245.094 119.345 237.983 126.698 237.983 135.769C237.983 144.84 245.094 152.193 253.866 152.193Z" fill="#E6E6E6"/>
<path d="M290.548 124.82C290.2 124.819 289.855 124.89 289.533 125.027C289.212 125.164 288.92 125.366 288.673 125.62C288.427 125.874 288.232 126.176 288.098 126.509C287.965 126.841 287.896 127.197 287.896 127.557C287.896 127.917 287.965 128.273 288.098 128.606C288.232 128.938 288.427 129.24 288.673 129.494C288.92 129.749 289.212 129.95 289.533 130.087C289.855 130.225 290.2 130.295 290.548 130.295H415.342C416.044 130.295 416.717 130.006 417.213 129.493C417.71 128.979 417.989 128.283 417.989 127.557C417.989 126.831 417.71 126.135 417.213 125.622C416.717 125.108 416.044 124.82 415.342 124.82H290.548Z" fill="#E6E6E6"/>
<path d="M290.548 141.244C289.846 141.244 289.172 141.532 288.676 142.046C288.18 142.559 287.901 143.255 287.901 143.981C287.901 144.707 288.18 145.404 288.676 145.917C289.172 146.43 289.846 146.719 290.548 146.719H344.247C344.949 146.719 345.622 146.43 346.119 145.917C346.615 145.404 346.894 144.707 346.894 143.981C346.894 143.255 346.615 142.559 346.119 142.046C345.622 141.532 344.949 141.244 344.247 141.244H290.548Z" fill="#E6E6E6"/>
<path d="M174.131 142.351L135.208 163.749L134.716 145.918C147.42 143.725 159.506 139.906 170.682 133.69L174.752 123.29C175.196 122.157 175.917 121.163 176.844 120.405C177.772 119.646 178.874 119.151 180.043 118.966C181.212 118.782 182.407 118.915 183.511 119.352C184.615 119.789 185.59 120.516 186.34 121.461C187.438 122.843 187.987 124.605 187.876 126.39C187.764 128.175 187.001 129.849 185.74 131.074L174.131 142.351Z" fill="#FFB8B8"/>
<path d="M79.0283 265.896C78.7444 264.819 78.6841 263.692 78.8514 262.589C79.0188 261.487 79.4099 260.433 79.9992 259.498L88.5493 245.929C90.5716 242.72 93.6746 240.402 97.2564 239.424C100.838 238.447 104.643 238.881 107.933 240.641C104.34 246.966 104.841 252.514 109.174 257.336C102.447 260.732 96.2298 265.115 90.7147 270.35C89.7078 271.06 88.5516 271.51 87.3422 271.664C86.1328 271.819 84.9053 271.672 83.7619 271.236C82.6186 270.8 81.5925 270.088 80.7691 269.159C79.9457 268.23 79.3489 267.111 79.0283 265.896Z" fill="#2F2E41"/>
<path d="M175.903 248.154C174.609 250.384 172.783 252.233 170.6 253.522C168.416 254.812 165.948 255.5 163.434 255.52L106.633 255.965L104.169 241.19L129.296 233.548L108.111 216.735L131.267 188.714L173.326 229.25C175.784 231.619 177.381 234.79 177.85 238.23C178.32 241.671 177.632 245.175 175.903 248.154Z" fill="#2F2E41"/>
<path d="M97.7644 349.199H84.4619C72.5182 264.539 60.3607 179.643 96.2864 147.956L138.657 155.088L133.238 192.28L109.589 220.301L97.7644 349.199Z" fill="#2F2E41"/>
<path d="M109.458 368.377C108.417 368.671 107.327 368.733 106.261 368.56C105.194 368.387 104.175 367.983 103.271 367.373L88.8272 365.366C85.7235 363.275 83.4816 360.066 82.5365 356.362C81.5913 352.658 82.0103 348.724 83.7121 345.321C89.8288 349.037 95.1946 348.518 99.8573 344.037C103.152 350.916 108.58 350.496 113.765 356.292C114.451 357.333 114.887 358.529 115.036 359.779C115.185 361.03 115.043 362.299 114.622 363.482C114.2 364.664 113.512 365.725 112.614 366.577C111.716 367.428 110.634 368.045 109.458 368.377Z" fill="#2F2E41"/>
<path d="M129.296 91.4037L104.662 85.29C108.753 76.6299 109.09 66.9937 107.125 56.7593L123.877 56.2498C124.402 68.9766 125.989 80.8666 129.296 91.4037Z" fill="#FFB8B8"/>
<path d="M136.067 170.428C118.134 183.065 105.463 170.861 95.7937 152.031C97.1373 140.51 94.9618 126.721 90.9325 111.739C89.1406 105.131 89.8096 98.0687 92.8075 91.9458C95.8053 85.8229 100.914 81.0847 107.125 78.6667L128.311 87.8374C146.3 103 149.84 119.424 143.091 136.747L136.067 170.428Z" fill="white"/>
<path d="M84.4619 104.141L64.7546 114.84L99.7352 136.238L104.602 148.653C104.927 149.482 105.086 150.37 105.068 151.264C105.05 152.158 104.856 153.039 104.498 153.853C104.14 154.667 103.625 155.397 102.986 155.998C102.346 156.6 101.595 157.061 100.777 157.352C99.8478 157.683 98.857 157.788 97.8823 157.657C96.9075 157.526 95.9753 157.164 95.1585 156.599C94.3417 156.033 93.6627 155.28 93.1745 154.398C92.6862 153.515 92.4022 152.528 92.3444 151.514L91.8522 142.861L47.3923 127.689C45.8943 127.178 44.5285 126.321 43.3982 125.183C42.268 124.045 41.4029 122.656 40.8686 121.121C40.0898 118.884 40.0502 116.443 40.7559 114.18C41.4616 111.917 42.8729 109.96 44.769 108.615L80.5205 83.2521L84.4619 104.141Z" fill="#FFB8B8"/>
<path d="M104.169 106.179C95.9501 102.454 88.4762 106.5 79.0424 109.745L77.5644 82.7426C86.9317 77.5797 95.8628 76.1878 104.169 80.1952L104.169 106.179Z" fill="black"/>
<path d="M114.001 69.6249C122.688 69.6249 129.729 62.3433 129.729 53.3609C129.729 44.3785 122.688 37.0968 114.001 37.0968C105.315 37.0968 98.2734 44.3785 98.2734 53.3609C98.2734 62.3433 105.315 69.6249 114.001 69.6249Z" fill="#FFB8B8"/>
<path d="M132.817 51.3088C117.245 52.8859 105.379 50.2524 97.7957 42.7538V36.7149H131.496L132.817 51.3088Z" fill="#2F2E41"/>
</svg>
	
