
		<svg  viewBox="0 0 421 316" fill="none" xmlns="http://www.w3.org/2000/svg">
<g clip-path="url(#clip0)" filter="url(#filter0_d)">
<path d="M351.787 0.71571L6.46045 91.0955L52.9873 254.476L398.314 164.096L351.787 0.71571Z" fill="#F5F5F5"/>
<path d="M353.682 -7.25634e-05L4.00305 91.5188L51.6688 258.898L401.348 167.379L353.682 -7.25634e-05Z" fill="url(#paint0_linear)"/>
<path d="M356.481 17.2011L11.1539 107.581L52.9553 254.367L398.282 163.988L356.481 17.2011Z" fill="white"/>
<path d="M17.1983 100.64C19.5902 100.019 21.0041 97.6568 20.3562 95.3638C19.7084 93.0707 17.2442 91.7153 14.8523 92.3363C12.4604 92.9573 11.0465 95.3197 11.6943 97.6127C12.3421 99.9058 14.8063 101.261 17.1983 100.64Z" fill="#FF5252"/>
<path d="M31.1877 97.6404C33.5913 97.0113 35.0079 94.6334 34.3517 92.3291C33.6955 90.0248 31.215 88.6668 28.8114 89.2959C26.4077 89.925 24.9912 92.3029 25.6474 94.6072C26.3036 96.9115 28.7841 98.2695 31.1877 97.6404Z" fill="#FFFF00"/>
<path d="M44.2482 94.221C46.6519 93.592 48.0684 91.214 47.4122 88.9097C46.756 86.6054 44.2755 85.2474 41.8719 85.8765C39.4683 86.5056 38.0517 88.8835 38.7079 91.1878C39.3641 93.4921 41.8446 94.8501 44.2482 94.221Z" fill="#69F0AE"/>
<path d="M102.022 83.588L11.0964 107.385L52.9532 254.366L143.879 230.569L102.022 83.588Z" fill="#41FF98"/>
<path d="M93.8351 135.056C90.3719 122.893 76.7348 115.867 63.383 119.353C50.0313 122.839 42.024 135.554 45.4684 147.721C48.1875 157.268 57.1682 163.648 67.3656 164.263L65.7511 158.587C64.5811 154.487 67.3142 150.166 71.8349 148.986C76.337 147.806 80.9794 150.198 82.1307 154.303L83.7452 159.978C92.1971 154.473 96.5541 144.581 93.8351 135.056Z" fill="url(#paint1_linear)"/>
<path d="M71.0038 145.523L70.6788 145.608C69.9657 145.795 69.5454 146.5 69.7401 147.184L71.6949 154.048C71.8896 154.732 72.6255 155.135 73.3386 154.948L73.6636 154.863C74.3767 154.677 74.797 153.971 74.6023 153.287L72.6475 146.423C72.4528 145.739 71.7169 145.337 71.0038 145.523Z" fill="url(#paint2_linear)"/>
<path d="M71.2114 146.817C76.3452 145.474 79.4277 140.594 78.0962 135.919C76.7648 131.243 71.5236 128.542 66.3897 129.886C61.2558 131.23 58.1734 136.109 59.5048 140.785C60.8363 145.46 66.0775 148.161 71.2114 146.817Z" fill="url(#paint3_linear)"/>
<path d="M71.8163 148.982C67.3142 150.162 64.5858 154.482 65.7324 158.583L67.347 164.258C73.1499 164.597 78.9075 163.091 83.7266 159.974L82.112 154.298C80.9608 150.198 76.3183 147.806 71.8163 148.982Z" fill="url(#paint4_linear)"/>
<path d="M59.2976 140.336C58.1846 139.23 57.4205 137.844 57.0934 136.339C56.9395 135.581 56.945 134.801 57.1098 134.046C57.2745 133.29 57.5951 132.573 58.0527 131.938C59.1057 130.534 60.8607 129.695 62.5735 129.089C64.2864 128.483 66.1302 128.102 67.7869 127.335C70.515 126.07 72.6158 123.829 73.6368 121.094C74.1632 122.286 74.5068 123.545 74.657 124.831C74.725 125.486 74.6498 126.148 74.4363 126.774C74.2228 127.399 73.8755 127.975 73.4168 128.465C74.657 127.501 74.905 128.914 74.8208 129.852C75.7568 130.439 77.4743 130.121 77.844 131.094C78.2627 132.052 78.4237 133.095 78.312 134.127C78.1482 135.155 79.0654 136.658 77.9937 137.012" fill="url(#paint5_linear)"/>
<path d="M91.6823 132.131C90.5326 128.099 88.2504 124.447 85.0845 121.573C81.9187 118.699 77.9906 116.713 73.7284 115.832C69.4663 114.951 65.0337 115.209 60.9138 116.577C56.794 117.945 53.1449 120.372 50.3644 123.591C47.584 126.811 45.7788 130.7 45.1457 134.836C44.5126 138.971 45.0759 143.194 46.7741 147.044C48.4724 150.894 51.2404 154.223 54.7765 156.668C58.3126 159.113 62.481 160.581 66.8274 160.911L65.2129 155.236C64.656 153.259 64.9379 151.15 65.9972 149.372C67.0564 147.593 68.8069 146.288 70.8662 145.743C72.9288 145.209 75.128 145.479 76.9834 146.495C78.8389 147.51 80.1997 149.188 80.7688 151.162L82.3834 156.838C86.3975 154.138 89.4447 150.316 91.109 145.894C92.7732 141.472 92.9734 136.666 91.6823 132.131Z" fill="#41FF98"/>
<path d="M69.9907 142.305L69.8101 142.352C69.097 142.539 68.6767 143.244 68.8714 143.928L70.8262 150.792C71.0209 151.476 71.7568 151.879 72.4699 151.692L72.6505 151.645C73.3636 151.458 73.7839 150.753 73.5892 150.069L71.6344 143.205C71.4397 142.521 70.7038 142.118 69.9907 142.305Z" fill="white" stroke="white" stroke-miterlimit="10"/>
<path d="M70.2705 143.58C75.1476 142.304 78.0218 137.479 76.6904 132.803C75.3589 128.128 70.3259 125.372 65.4488 126.649C60.5718 127.925 57.6975 132.75 59.029 137.426C60.3605 142.101 65.3935 144.857 70.2705 143.58Z" fill="white" stroke="white" stroke-miterlimit="10"/>
<path d="M70.8709 145.743C68.8116 146.288 67.0611 147.593 66.0019 149.372C64.9426 151.15 64.6607 153.259 65.2176 155.236L66.8275 160.911C72.3484 161.322 77.8468 159.882 82.3834 156.838L80.7688 151.162C80.1997 149.189 78.8396 147.512 76.9852 146.496C75.1309 145.481 72.9329 145.21 70.8709 145.743Z" fill="white" stroke="white" stroke-miterlimit="10"/>
<path d="M58.8203 136.954C57.74 135.826 56.9964 134.441 56.6675 132.943C56.3468 131.433 56.6542 129.864 57.5239 128.568C58.5114 127.182 60.1493 126.352 61.7967 125.782C63.444 125.213 65.1755 124.845 66.7433 124.095C68.0384 123.47 69.191 122.604 70.1342 121.549C71.0774 120.493 71.7923 119.268 72.2375 117.945C72.7563 119.139 73.1011 120.397 73.2624 121.682C73.3363 122.323 73.2736 122.971 73.0781 123.588C72.8826 124.205 72.5584 124.778 72.1252 125.271C73.2951 124.324 73.5291 125.755 73.4964 126.671C74.3809 127.267 76.0329 126.971 76.3979 127.945C76.8147 128.902 76.9864 129.94 76.8986 130.973C76.7536 131.996 77.6521 133.504 76.6319 133.845" fill="white"/>
<path d="M58.8203 136.954C57.74 135.826 56.9964 134.441 56.6675 132.943C56.3468 131.433 56.6542 129.864 57.5239 128.568C58.5114 127.182 60.1493 126.352 61.7967 125.782C63.444 125.213 65.1755 124.845 66.7433 124.095C68.0384 123.47 69.191 122.604 70.1342 121.549C71.0774 120.493 71.7923 119.268 72.2375 117.945C72.7563 119.139 73.1011 120.397 73.2624 121.682C73.3363 122.323 73.2736 122.971 73.0781 123.588C72.8826 124.205 72.5584 124.778 72.1252 125.271C73.2951 124.324 73.5291 125.755 73.4964 126.671C74.3809 127.267 76.0329 126.971 76.3979 127.945C76.8147 128.902 76.9864 129.94 76.8986 130.973C76.7536 131.996 77.6521 133.504 76.6319 133.845" stroke="white" stroke-miterlimit="10"/>
<path d="M72.5557 124.979C72.5557 124.979 78.8642 123.88 76.9735 133.795L72.5557 124.979Z" fill="white"/>
<path opacity="0.1" d="M122.712 157.139L31.7864 180.936L52.6482 254.193L143.574 230.396L122.712 157.139Z" fill="black"/>
<path d="M98.1829 180.504L53.6864 192.15L54.8746 196.322L99.3711 184.676L98.1829 180.504Z" fill="white"/>
<path d="M111.596 187.455L56.4589 201.886L57.647 206.058L112.785 191.628L111.596 187.455Z" fill="white"/>
<path d="M185.857 71.324L120.083 88.5386L128.93 119.605L194.705 102.391L185.857 71.324Z" fill="#F5F5F5"/>
<path d="M194.442 101.459L128.667 118.673L137.515 149.74L203.289 132.526L194.442 101.459Z" fill="#E0E0E0"/>
<path d="M342.079 30.44L276.304 47.6545L285.152 78.7214L350.926 61.5068L342.079 30.44Z" fill="#F5F5F5"/>
<path d="M350.658 60.5748L284.884 77.7894L293.731 108.856L359.505 91.6417L350.658 60.5748Z" fill="#E0E0E0"/>
<path d="M263.726 50.9429L197.952 68.1575L206.799 99.2244L272.573 82.0098L263.726 50.9429Z" fill="#F5F5F5"/>
<path d="M272.307 81.0833L206.533 98.2979L215.38 129.365L281.154 112.15L272.307 81.0833Z" fill="#E0E0E0"/>
<path d="M203.909 141.779L138.455 158.774L147.189 189.69L212.643 172.695L203.909 141.779Z" fill="#E0E0E0"/>
<path d="M214.508 171.937L148.734 189.152L157.581 220.218L223.355 203.004L214.508 171.937Z" fill="#BDBDBD"/>
<path d="M362.144 100.914L296.37 118.128L305.217 149.195L370.991 131.981L362.144 100.914Z" fill="#F5F5F5"/>
<path d="M370.73 131.053L304.956 148.268L313.803 179.334L379.577 162.12L370.73 131.053Z" fill="#BDBDBD"/>
<path d="M283.793 121.421L218.019 138.636L226.866 169.703L292.64 152.488L283.793 121.421Z" fill="#F5F5F5"/>
<path d="M292.377 151.556L226.603 168.771L235.45 199.837L301.224 182.623L292.377 151.556Z" fill="#BDBDBD"/>
<path d="M140.318 123.1C144.325 122.051 146.746 118.294 145.725 114.709C144.704 111.123 140.628 109.067 136.621 110.115C132.614 111.164 130.193 114.921 131.215 118.506C132.236 122.092 136.312 124.148 140.318 123.1Z" fill="url(#paint6_linear)"/>
<path d="M138.477 122.049C141.933 121.151 143.976 117.737 143.04 114.424C142.104 111.11 138.543 109.152 135.087 110.049C131.631 110.947 129.587 114.36 130.524 117.674C131.46 120.987 135.02 122.946 138.477 122.049Z" fill="#41FF98"/>
<path d="M217.22 102.972C221.227 101.923 223.647 98.1666 222.626 94.5811C221.605 90.9956 217.529 88.9392 213.522 89.9878C209.516 91.0365 207.095 94.7933 208.116 98.3788C209.137 101.964 213.213 104.021 217.22 102.972Z" fill="url(#paint7_linear)"/>
<path d="M216.956 102.047C220.43 101.138 222.477 97.7017 221.528 94.3719C220.58 91.0422 216.996 89.0798 213.523 89.9889C210.049 90.8979 208.002 94.3341 208.951 97.6638C209.899 100.994 213.483 102.956 216.956 102.047Z" fill="#41FF98"/>
<path d="M296.54 82.2111C300.546 81.1624 302.967 77.4056 301.946 73.8202C300.925 70.2347 296.849 68.1782 292.842 69.2269C288.835 70.2755 286.415 74.0323 287.436 77.6178C288.457 81.2033 292.533 83.2598 296.54 82.2111Z" fill="url(#paint8_linear)"/>
<path d="M296.276 81.286C299.749 80.3769 301.796 76.9407 300.848 73.611C299.9 70.2813 296.315 68.3189 292.842 69.2279C289.369 70.137 287.322 73.5732 288.27 76.9029C289.218 80.2326 292.803 82.195 296.276 81.286Z" fill="#41FF98"/>
<path d="M160.521 194.039C164.528 192.99 166.949 189.233 165.928 185.648C164.906 182.062 160.831 180.006 156.824 181.054C152.817 182.103 150.396 185.86 151.417 189.445C152.438 193.031 156.514 195.087 160.521 194.039Z" fill="url(#paint9_linear)"/>
<path d="M160.258 193.115C163.731 192.206 165.778 188.769 164.83 185.44C163.881 182.11 160.297 180.148 156.824 181.057C153.351 181.966 151.304 185.402 152.252 188.732C153.2 192.061 156.784 194.024 160.258 193.115Z" fill="#2196F3"/>
<path d="M237.423 173.911C241.43 172.862 243.85 169.106 242.829 165.52C241.808 161.935 237.732 159.878 233.725 160.927C229.718 161.976 227.298 165.732 228.319 169.318C229.34 172.903 233.416 174.96 237.423 173.911Z" fill="url(#paint10_linear)"/>
<path d="M237.155 172.987C240.628 172.078 242.675 168.642 241.727 165.312C240.779 161.982 237.194 160.02 233.721 160.929C230.248 161.838 228.201 165.274 229.149 168.604C230.097 171.934 233.682 173.896 237.155 172.987Z" fill="#2196F3"/>
<path d="M316.738 153.151C320.745 152.103 323.165 148.346 322.144 144.76C321.123 141.175 317.047 139.118 313.04 140.167C309.034 141.216 306.613 144.973 307.634 148.558C308.655 152.144 312.731 154.2 316.738 153.151Z" fill="url(#paint11_linear)"/>
<path d="M316.474 152.226C319.948 151.317 321.994 147.881 321.046 144.551C320.098 141.221 316.514 139.259 313.04 140.168C309.567 141.077 307.52 144.513 308.468 147.843C309.417 151.173 313.001 153.135 316.474 152.226Z" fill="#2196F3"/>
<path d="M414.978 134.706H57.0138V304.065H414.978V134.706Z" fill="#F5F5F5"/>
<path d="M417 134.495H54.524V308H417V134.495Z" fill="url(#paint12_linear)"/>
<path d="M414.978 151.799H57.0138V303.958H414.978V151.799Z" fill="white"/>
<path d="M65.5358 147.268C68.0274 147.268 70.0472 145.332 70.0472 142.943C70.0472 140.555 68.0274 138.618 65.5358 138.618C63.0442 138.618 61.0244 140.555 61.0244 142.943C61.0244 145.332 63.0442 147.268 65.5358 147.268Z" fill="#FF5252"/>
<path d="M79.07 147.268C81.5616 147.268 83.5814 145.332 83.5814 142.943C83.5814 140.555 81.5616 138.618 79.07 138.618C76.5784 138.618 74.5586 140.555 74.5586 142.943C74.5586 145.332 76.5784 147.268 79.07 147.268Z" fill="#FFFF00"/>
<path d="M92.6089 147.268C95.1005 147.268 97.1204 145.332 97.1204 142.943C97.1204 140.555 95.1005 138.618 92.6089 138.618C90.1174 138.618 88.0975 140.555 88.0975 142.943C88.0975 145.332 90.1174 147.268 92.6089 147.268Z" fill="#69F0AE"/>
<path d="M151.267 151.597H57.0138V303.958H151.267V151.597Z" fill="#41FF98"/>
<path d="M129.224 199.181C129.224 186.574 117.993 176.349 104.159 176.349C90.3253 176.349 79.0889 186.569 79.0889 199.181C79.0889 209.078 86.0011 217.499 95.6697 220.667V214.785C95.6697 210.532 99.4885 207.055 104.159 207.055C108.839 207.055 112.648 210.532 112.648 214.785V220.667C122.312 217.499 129.224 209.074 129.224 199.181Z" fill="url(#paint13_linear)"/>
<path d="M104.323 203.515H103.986C103.247 203.515 102.647 204.089 102.647 204.798V211.913C102.647 212.622 103.247 213.197 103.986 213.197H104.323C105.062 213.197 105.661 212.622 105.661 211.913V204.798C105.661 204.089 105.062 203.515 104.323 203.515Z" fill="url(#paint14_linear)"/>
<path d="M104.173 204.816C109.495 204.816 113.809 200.887 113.809 196.04C113.809 191.194 109.495 187.265 104.173 187.265C98.8512 187.265 94.5371 191.194 94.5371 196.04C94.5371 200.887 98.8512 204.816 104.173 204.816Z" fill="url(#paint15_linear)"/>
<path d="M104.159 207.055C99.4791 207.055 95.6697 210.532 95.6697 214.785V220.667C101.174 222.457 107.14 222.457 112.644 220.667V214.785C112.644 210.532 108.825 207.055 104.159 207.055Z" fill="url(#paint16_linear)"/>
<path d="M94.4389 195.551C93.6683 194.202 93.3114 192.672 93.4093 191.137C93.4692 190.367 93.6888 189.617 94.0552 188.929C94.4217 188.242 94.9276 187.632 95.5433 187.135C96.9473 186.045 98.852 185.659 100.691 185.524C102.53 185.39 104.393 185.47 106.204 185.147C109.183 184.616 111.825 182.984 113.561 180.602C113.741 181.885 113.727 183.186 113.519 184.465C113.404 185.114 113.15 185.733 112.772 186.282C112.394 186.831 111.901 187.299 111.324 187.655C112.789 187.041 112.63 188.485 112.311 189.351C113.037 190.15 114.801 190.28 114.89 191.312C115.036 192.342 114.909 193.391 114.52 194.362C114.076 195.314 114.553 196.992 113.42 197.054" fill="url(#paint17_linear)"/>
<path d="M127.951 195.816C127.951 191.636 126.753 187.536 124.489 183.963C122.225 180.391 118.981 177.483 115.111 175.556C111.242 173.63 106.894 172.759 102.544 173.038C98.1929 173.317 94.0057 174.737 90.4385 177.141C86.8713 179.545 84.0611 182.842 82.3142 186.672C80.5674 190.502 79.9509 194.719 80.5321 198.861C81.1132 203.004 82.8697 206.915 85.61 210.167C88.3502 213.418 91.9691 215.886 96.0721 217.302V211.429C96.0783 209.381 96.9298 207.418 98.4406 205.969C99.9515 204.521 101.999 203.705 104.136 203.699C106.276 203.699 108.33 204.512 109.846 205.961C111.361 207.411 112.216 209.377 112.222 211.429V217.311C116.832 215.715 120.817 212.794 123.632 208.947C126.446 205.1 127.955 200.515 127.951 195.816Z" fill="#41FF98"/>
<path d="M104.234 200.15H104.047C103.307 200.15 102.708 200.724 102.708 201.433V208.549C102.708 209.257 103.307 209.832 104.047 209.832H104.234C104.973 209.832 105.572 209.257 105.572 208.549V201.433C105.572 200.724 104.973 200.15 104.234 200.15Z" fill="white" stroke="white" stroke-miterlimit="10"/>
<path d="M104.154 201.451C109.21 201.451 113.308 197.522 113.308 192.676C113.308 187.829 109.21 183.9 104.154 183.9C99.0987 183.9 95.0004 187.829 95.0004 192.676C95.0004 197.522 99.0987 201.451 104.154 201.451Z" fill="white" stroke="white" stroke-miterlimit="10"/>
<path d="M104.14 203.69C102.002 203.696 99.9532 204.513 98.442 205.964C96.9309 207.414 96.0805 209.379 96.0768 211.429V217.311C101.29 219.101 106.99 219.101 112.204 217.311V211.429C112.2 209.379 111.35 207.414 109.838 205.964C108.327 204.513 106.279 203.696 104.14 203.69Z" fill="white" stroke="white" stroke-miterlimit="10"/>
<path d="M94.9068 192.191C94.173 190.83 93.8351 189.305 93.9287 187.776C94.0353 186.239 94.7642 184.803 95.9598 183.774C97.2936 182.684 99.1 182.298 100.846 182.164C102.591 182.029 104.36 182.11 106.082 181.787C107.504 181.511 108.854 180.967 110.054 180.187C111.254 179.407 112.281 178.406 113.074 177.242C113.246 178.525 113.234 179.825 113.037 181.105C112.933 181.745 112.695 182.358 112.336 182.906C111.977 183.455 111.505 183.927 110.949 184.295C112.353 183.68 112.19 185.125 111.885 185.991C112.573 186.789 114.225 186.919 114.333 187.951C114.472 188.98 114.352 190.027 113.982 191.002C113.561 191.953 114.01 193.631 112.938 193.694" fill="white"/>
<path d="M94.9068 192.191C94.173 190.83 93.8351 189.305 93.9287 187.776C94.0353 186.239 94.7642 184.803 95.9598 183.774C97.2936 182.684 99.1 182.298 100.846 182.164C102.591 182.029 104.36 182.11 106.082 181.787C107.504 181.511 108.854 180.967 110.054 180.187C111.254 179.407 112.281 178.406 113.074 177.242C113.246 178.525 113.234 179.825 113.037 181.105C112.933 181.745 112.695 182.358 112.336 182.906C111.977 183.455 111.505 183.927 110.949 184.295C112.353 183.68 112.19 185.125 111.885 185.991C112.573 186.789 114.225 186.919 114.333 187.951C114.472 188.98 114.352 190.027 113.982 191.002C113.561 191.953 114.01 193.631 112.938 193.694" stroke="white" stroke-miterlimit="10"/>
<path d="M111.469 184.062C111.469 184.062 117.857 184.595 113.308 193.685L111.469 184.062Z" fill="white"/>
<path opacity="0.1" d="M151.014 227.778H56.761V303.715H151.014V227.778Z" fill="black"/>
<path d="M120.936 244.117H74.8113V248.442H120.936V244.117Z" fill="white"/>
<path d="M232.734 177.309H186.609V181.634H232.734V177.309Z" fill="#BDBDBD"/>
<path d="M351.552 203.264H186.609V207.589H351.552V203.264Z" fill="#E0E0E0"/>
<path d="M351.552 229.218H186.609V233.543H351.552V229.218Z" fill="#E0E0E0"/>
<path d="M232.734 255.172H186.609V259.497H232.734V255.172Z" fill="#64FFDA"/>
<path d="M291.893 255.172H245.768V259.497H291.893V255.172Z" fill="#F5F5F5"/>
<path d="M351.557 255.172H305.432V259.497H351.557V255.172Z" fill="#64FFDA"/>
<path d="M131.967 254.212H74.8113V258.537H131.967V254.212Z" fill="white"/>
</g>
<defs>
<filter id="filter0_d" x="0" y="0" width="421" height="316" filterUnits="userSpaceOnUse" color-interpolation-filters="sRGB">
<feFlood flood-opacity="0" result="BackgroundImageFix"/>
<feColorMatrix in="SourceAlpha" type="matrix" values="0 0 0 0 0 0 0 0 0 0 0 0 0 0 0 0 0 0 127 0"/>
<feOffset dy="4"/>
<feGaussianBlur stdDeviation="2"/>
<feColorMatrix type="matrix" values="0 0 0 0 0 0 0 0 0 0 0 0 0 0 0 0 0 0 0.25 0"/>
<feBlend mode="normal" in2="BackgroundImageFix" result="effect1_dropShadow"/>
<feBlend mode="normal" in="SourceGraphic" in2="effect1_dropShadow" result="shape"/>
</filter>
<linearGradient id="paint0_linear" x1="226.504" y1="213.14" x2="182.449" y2="44.8154" gradientUnits="userSpaceOnUse">
<stop stop-color="#808080" stop-opacity="0.25"/>
<stop offset="0.54" stop-color="#808080" stop-opacity="0.12"/>
<stop offset="1" stop-color="#808080" stop-opacity="0.1"/>
</linearGradient>
<linearGradient id="paint1_linear" x1="75.553" y1="162.114" x2="64.3016" y2="119.124" gradientUnits="userSpaceOnUse">
<stop stop-opacity="0.12"/>
<stop offset="0.55" stop-opacity="0.09"/>
<stop offset="1" stop-opacity="0.02"/>
</linearGradient>
<linearGradient id="paint2_linear" x1="-84.2433" y1="2816.01" x2="-137.293" y2="2613.31" gradientUnits="userSpaceOnUse">
<stop stop-opacity="0.12"/>
<stop offset="0.55" stop-opacity="0.09"/>
<stop offset="1" stop-opacity="0.02"/>
</linearGradient>
<linearGradient id="paint3_linear" x1="-5952.16" y1="6057.59" x2="-6126.49" y2="5391.5" gradientUnits="userSpaceOnUse">
<stop stop-opacity="0.12"/>
<stop offset="0.55" stop-opacity="0.09"/>
<stop offset="1" stop-opacity="0.02"/>
</linearGradient>
<linearGradient id="paint4_linear" x1="-7278.86" y1="4404.95" x2="-7278.86" y2="3884.09" gradientUnits="userSpaceOnUse">
<stop stop-opacity="0.12"/>
<stop offset="0.55" stop-opacity="0.09"/>
<stop offset="1" stop-opacity="0.02"/>
</linearGradient>
<linearGradient id="paint5_linear" x1="-8607.86" y1="4293.82" x2="-8607.86" y2="3587.62" gradientUnits="userSpaceOnUse">
<stop stop-opacity="0.12"/>
<stop offset="0.55" stop-opacity="0.09"/>
<stop offset="1" stop-opacity="0.02"/>
</linearGradient>
<linearGradient id="paint6_linear" x1="131.215" y1="118.506" x2="145.637" y2="114.399" gradientUnits="userSpaceOnUse">
<stop stop-opacity="0.09"/>
<stop offset="0.55" stop-opacity="0.07"/>
<stop offset="1" stop-opacity="0.02"/>
</linearGradient>
<linearGradient id="paint7_linear" x1="-34.0516" y1="3096.22" x2="429.472" y2="2964.22" gradientUnits="userSpaceOnUse">
<stop stop-opacity="0.09"/>
<stop offset="0.55" stop-opacity="0.07"/>
<stop offset="1" stop-opacity="0.02"/>
</linearGradient>
<linearGradient id="paint8_linear" x1="2586.04" y1="2388.97" x2="3049.56" y2="2256.97" gradientUnits="userSpaceOnUse">
<stop stop-opacity="0.09"/>
<stop offset="0.55" stop-opacity="0.07"/>
<stop offset="1" stop-opacity="0.02"/>
</linearGradient>
<linearGradient id="paint9_linear" x1="-1929.17" y1="5973.47" x2="-1465.65" y2="5841.47" gradientUnits="userSpaceOnUse">
<stop stop-opacity="0.09"/>
<stop offset="0.55" stop-opacity="0.07"/>
<stop offset="1" stop-opacity="0.02"/>
</linearGradient>
<linearGradient id="paint10_linear" x1="610.995" y1="5287.79" x2="1074.52" y2="5155.79" gradientUnits="userSpaceOnUse">
<stop stop-opacity="0.09"/>
<stop offset="0.55" stop-opacity="0.07"/>
<stop offset="1" stop-opacity="0.02"/>
</linearGradient>
<linearGradient id="paint11_linear" x1="3231.09" y1="4580.53" x2="3694.62" y2="4448.53" gradientUnits="userSpaceOnUse">
<stop stop-opacity="0.09"/>
<stop offset="0.55" stop-opacity="0.07"/>
<stop offset="1" stop-opacity="0.02"/>
</linearGradient>
<linearGradient id="paint12_linear" x1="179563" y1="119247" x2="179563" y2="52147.8" gradientUnits="userSpaceOnUse">
<stop stop-color="#808080" stop-opacity="0.25"/>
<stop offset="0.54" stop-color="#808080" stop-opacity="0.12"/>
<stop offset="1" stop-color="#808080" stop-opacity="0.1"/>
</linearGradient>
<linearGradient id="paint13_linear" x1="18768.1" y1="26704.2" x2="18768.1" y2="22326.6" gradientUnits="userSpaceOnUse">
<stop stop-opacity="0.12"/>
<stop offset="0.55" stop-opacity="0.09"/>
<stop offset="1" stop-opacity="0.02"/>
</linearGradient>
<linearGradient id="paint14_linear" x1="747.671" y1="4804.21" x2="747.671" y2="4595.37" gradientUnits="userSpaceOnUse">
<stop stop-opacity="0.12"/>
<stop offset="0.55" stop-opacity="0.09"/>
<stop offset="1" stop-opacity="0.02"/>
</linearGradient>
<linearGradient id="paint15_linear" x1="4219.66" y1="8199.48" x2="4219.66" y2="7513.06" gradientUnits="userSpaceOnUse">
<stop stop-opacity="0.12"/>
<stop offset="0.55" stop-opacity="0.09"/>
<stop offset="1" stop-opacity="0.02"/>
</linearGradient>
<linearGradient id="paint16_linear" x1="6423.04" y1="9203.64" x2="6423.04" y2="8705.19" gradientUnits="userSpaceOnUse">
<stop stop-opacity="0.12"/>
<stop offset="0.55" stop-opacity="0.09"/>
<stop offset="1" stop-opacity="0.02"/>
</linearGradient>
<linearGradient id="paint17_linear" x1="8129.42" y1="9163.14" x2="8129.42" y2="8559.36" gradientUnits="userSpaceOnUse">
<stop stop-opacity="0.12"/>
<stop offset="0.55" stop-opacity="0.09"/>
<stop offset="1" stop-opacity="0.02"/>
</linearGradient>
<clipPath id="clip0">
<rect width="413" height="308" fill="white" transform="translate(4)"/>
</clipPath>
</defs>
</svg>

