
		<svg  viewBox="0 0 404 240" fill="none" xmlns="http://www.w3.org/2000/svg">
<g clip-path="url(#clip0)">
<path d="M85.3595 -0.000156086C74.3834 -0.0225867 63.5077 2.48622 53.3344 7.38738C52.9248 7.58705 52.5136 7.78768 52.1025 7.99285C36.6418 15.7526 23.4506 28.7672 14.1821 45.4055C4.91357 62.0438 -0.0198591 81.5658 6.00819e-05 101.525V212.307C0.00116866 213.477 0.392419 214.598 1.08798 215.426C1.78354 216.253 2.7266 216.718 3.71026 216.719L3.78394 216.727C75.2947 232.173 144.815 240 210.472 240C211.456 240 212.44 239.998 213.422 239.995C277.961 239.761 340.803 231.934 400.203 216.73L400.29 216.719C401.274 216.718 402.217 216.253 402.912 215.426C403.608 214.598 403.999 213.477 404 212.307V4.41272C403.999 3.24276 403.608 2.1211 402.912 1.29381C402.217 0.46653 401.274 0.00119106 400.29 -0.000126159L85.3595 -0.000156086Z" fill="#41FF98"/>
<path d="M307.452 88.3513C306.809 88.3639 306.196 88.6766 305.745 89.2219C305.294 89.7673 305.041 90.5017 305.041 91.2667C305.041 92.0317 305.294 92.7661 305.745 93.3115C306.196 93.8569 306.809 94.1696 307.452 94.1821H368.912C369.234 94.1889 369.554 94.12 369.854 93.9795C370.154 93.839 370.427 93.6296 370.659 93.3633C370.89 93.097 371.076 92.7789 371.204 92.4274C371.332 92.0759 371.401 91.6978 371.406 91.3146C371.412 90.9315 371.353 90.5509 371.235 90.1946C371.116 89.8382 370.94 89.5132 370.716 89.2379C370.492 88.9627 370.224 88.7428 369.928 88.5906C369.633 88.4385 369.315 88.3572 368.993 88.3513C368.966 88.3508 368.939 88.3508 368.912 88.3513H307.452Z" fill="#3F3D56"/>
<path d="M382.85 87.5395C382.805 87.5928 382.769 87.656 382.745 87.7256C382.721 87.7952 382.708 87.8698 382.708 87.9452C382.708 88.0205 382.721 88.0951 382.745 88.1647C382.769 88.2343 382.805 88.2976 382.85 88.3508L384.92 90.8136H379.814C379.686 90.8136 379.564 90.8741 379.473 90.9817C379.383 91.0892 379.332 91.2352 379.332 91.3873C379.332 91.5395 379.383 91.6854 379.473 91.793C379.564 91.9006 379.686 91.961 379.814 91.961H384.92L382.85 94.4238C382.805 94.4771 382.769 94.5403 382.745 94.6099C382.721 94.6795 382.708 94.7541 382.708 94.8295C382.708 94.9048 382.721 94.9794 382.745 95.049C382.769 95.1186 382.805 95.1819 382.85 95.2351C382.895 95.2884 382.948 95.3307 383.006 95.3595C383.065 95.3884 383.127 95.4032 383.191 95.4032C383.254 95.4032 383.317 95.3884 383.375 95.3595C383.434 95.3307 383.487 95.2884 383.532 95.2352L386.426 91.793C386.516 91.6854 386.567 91.5395 386.567 91.3873C386.567 91.2352 386.516 91.0893 386.426 90.9817L383.532 87.5395C383.487 87.4862 383.434 87.444 383.375 87.4151C383.317 87.3863 383.254 87.3715 383.191 87.3715C383.127 87.3715 383.065 87.3863 383.006 87.4151C382.948 87.444 382.895 87.4862 382.85 87.5395Z" fill="white"/>
<path d="M293.488 87.5395C293.533 87.5928 293.569 87.656 293.593 87.7256C293.617 87.7952 293.63 87.8698 293.63 87.9452C293.63 88.0205 293.617 88.0951 293.593 88.1647C293.569 88.2343 293.533 88.2976 293.488 88.3508L291.418 90.8136H296.524C296.587 90.8134 296.65 90.8281 296.709 90.8568C296.768 90.8856 296.821 90.9278 296.866 90.9811C296.911 91.0344 296.946 91.0977 296.971 91.1674C296.995 91.2371 297.008 91.3118 297.008 91.3873C297.008 91.4628 296.995 91.5375 296.971 91.6073C296.946 91.677 296.911 91.7403 296.866 91.7936C296.821 91.8469 296.768 91.8891 296.709 91.9178C296.65 91.9466 296.587 91.9613 296.524 91.961H291.418L293.488 94.4238C293.579 94.5314 293.63 94.6773 293.63 94.8295C293.63 94.9816 293.579 95.1276 293.488 95.2351C293.398 95.3427 293.275 95.4032 293.147 95.4032C293.019 95.4032 292.897 95.3427 292.806 95.2352L289.912 91.793C289.822 91.6854 289.771 91.5395 289.771 91.3873C289.771 91.2352 289.822 91.0893 289.912 90.9817L292.806 87.5395C292.851 87.4862 292.904 87.444 292.963 87.4151C293.021 87.3863 293.084 87.3715 293.147 87.3715C293.211 87.3715 293.273 87.3863 293.332 87.4151C293.391 87.444 293.444 87.4862 293.488 87.5395Z" fill="white"/>
<g opacity="0.4">
<path opacity="0.4" d="M309.934 27.84C311.389 27.84 312.568 26.4373 312.568 24.707C312.568 22.9766 311.389 21.5739 309.934 21.5739C308.479 21.5739 307.3 22.9766 307.3 24.707C307.3 26.4373 308.479 27.84 309.934 27.84Z" fill="white"/>
<path opacity="0.4" d="M320.91 27.84C322.365 27.84 323.544 26.4373 323.544 24.707C323.544 22.9766 322.365 21.5739 320.91 21.5739C319.455 21.5739 318.276 22.9766 318.276 24.707C318.276 26.4373 319.455 27.84 320.91 27.84Z" fill="white"/>
<path opacity="0.4" d="M331.886 27.84C333.34 27.84 334.52 26.4373 334.52 24.707C334.52 22.9766 333.34 21.5739 331.886 21.5739C330.431 21.5739 329.251 22.9766 329.251 24.707C329.251 26.4373 330.431 27.84 331.886 27.84Z" fill="white"/>
<path opacity="0.4" d="M342.862 27.84C344.317 27.84 345.496 26.4373 345.496 24.707C345.496 22.9766 344.317 21.5739 342.862 21.5739C341.407 21.5739 340.228 22.9766 340.228 24.707C340.228 26.4373 341.407 27.84 342.862 27.84Z" fill="white"/>
<path opacity="0.4" d="M353.837 27.84C355.292 27.84 356.472 26.4373 356.472 24.707C356.472 22.9766 355.292 21.5739 353.837 21.5739C352.383 21.5739 351.203 22.9766 351.203 24.707C351.203 26.4373 352.383 27.84 353.837 27.84Z" fill="white"/>
<path opacity="0.4" d="M364.813 27.84C366.268 27.84 367.448 26.4373 367.448 24.707C367.448 22.9766 366.268 21.5739 364.813 21.5739C363.359 21.5739 362.179 22.9766 362.179 24.707C362.179 26.4373 363.359 27.84 364.813 27.84Z" fill="white"/>
<path opacity="0.4" d="M375.789 27.84C377.244 27.84 378.423 26.4373 378.423 24.707C378.423 22.9766 377.244 21.5739 375.789 21.5739C374.334 21.5739 373.155 22.9766 373.155 24.707C373.155 26.4373 374.334 27.84 375.789 27.84Z" fill="white"/>
<path opacity="0.4" d="M309.934 37.7614C311.389 37.7614 312.568 36.3587 312.568 34.6284C312.568 32.898 311.389 31.4953 309.934 31.4953C308.479 31.4953 307.3 32.898 307.3 34.6284C307.3 36.3587 308.479 37.7614 309.934 37.7614Z" fill="white"/>
<path opacity="0.4" d="M320.91 37.7614C322.365 37.7614 323.544 36.3587 323.544 34.6284C323.544 32.898 322.365 31.4953 320.91 31.4953C319.455 31.4953 318.276 32.898 318.276 34.6284C318.276 36.3587 319.455 37.7614 320.91 37.7614Z" fill="white"/>
<path opacity="0.4" d="M331.886 37.7614C333.34 37.7614 334.52 36.3587 334.52 34.6284C334.52 32.898 333.34 31.4953 331.886 31.4953C330.431 31.4953 329.251 32.898 329.251 34.6284C329.251 36.3587 330.431 37.7614 331.886 37.7614Z" fill="white"/>
<path opacity="0.4" d="M342.862 37.7614C344.317 37.7614 345.496 36.3587 345.496 34.6284C345.496 32.898 344.317 31.4953 342.862 31.4953C341.407 31.4953 340.228 32.898 340.228 34.6284C340.228 36.3587 341.407 37.7614 342.862 37.7614Z" fill="white"/>
<path opacity="0.4" d="M353.837 37.7614C355.292 37.7614 356.472 36.3587 356.472 34.6284C356.472 32.898 355.292 31.4953 353.837 31.4953C352.383 31.4953 351.203 32.898 351.203 34.6284C351.203 36.3587 352.383 37.7614 353.837 37.7614Z" fill="white"/>
<path opacity="0.4" d="M364.813 37.7614C366.268 37.7614 367.448 36.3587 367.448 34.6284C367.448 32.898 366.268 31.4953 364.813 31.4953C363.359 31.4953 362.179 32.898 362.179 34.6284C362.179 36.3587 363.359 37.7614 364.813 37.7614Z" fill="white"/>
<path opacity="0.4" d="M375.789 37.7614C377.244 37.7614 378.423 36.3587 378.423 34.6284C378.423 32.898 377.244 31.4953 375.789 31.4953C374.334 31.4953 373.155 32.898 373.155 34.6284C373.155 36.3587 374.334 37.7614 375.789 37.7614Z" fill="white"/>
<path opacity="0.4" d="M309.934 47.6828C311.389 47.6828 312.568 46.2801 312.568 44.5497C312.568 42.8194 311.389 41.4167 309.934 41.4167C308.479 41.4167 307.3 42.8194 307.3 44.5497C307.3 46.2801 308.479 47.6828 309.934 47.6828Z" fill="white"/>
<path opacity="0.4" d="M320.91 47.6828C322.365 47.6828 323.544 46.2801 323.544 44.5497C323.544 42.8194 322.365 41.4167 320.91 41.4167C319.455 41.4167 318.276 42.8194 318.276 44.5497C318.276 46.2801 319.455 47.6828 320.91 47.6828Z" fill="white"/>
<path opacity="0.4" d="M331.886 47.6828C333.34 47.6828 334.52 46.2801 334.52 44.5497C334.52 42.8194 333.34 41.4167 331.886 41.4167C330.431 41.4167 329.251 42.8194 329.251 44.5497C329.251 46.2801 330.431 47.6828 331.886 47.6828Z" fill="white"/>
<path opacity="0.4" d="M342.862 47.6828C344.317 47.6828 345.496 46.2801 345.496 44.5497C345.496 42.8194 344.317 41.4167 342.862 41.4167C341.407 41.4167 340.228 42.8194 340.228 44.5497C340.228 46.2801 341.407 47.6828 342.862 47.6828Z" fill="white"/>
<path opacity="0.4" d="M353.837 47.6828C355.292 47.6828 356.472 46.2801 356.472 44.5497C356.472 42.8194 355.292 41.4167 353.837 41.4167C352.383 41.4167 351.203 42.8194 351.203 44.5497C351.203 46.2801 352.383 47.6828 353.837 47.6828Z" fill="white"/>
<path opacity="0.4" d="M364.813 47.6828C366.268 47.6828 367.448 46.2801 367.448 44.5497C367.448 42.8194 366.268 41.4167 364.813 41.4167C363.359 41.4167 362.179 42.8194 362.179 44.5497C362.179 46.2801 363.359 47.6828 364.813 47.6828Z" fill="white"/>
<path opacity="0.4" d="M375.789 47.6828C377.244 47.6828 378.423 46.2801 378.423 44.5497C378.423 42.8194 377.244 41.4167 375.789 41.4167C374.334 41.4167 373.155 42.8194 373.155 44.5497C373.155 46.2801 374.334 47.6828 375.789 47.6828Z" fill="white"/>
<path opacity="0.4" d="M309.934 57.6042C311.389 57.6042 312.568 56.2015 312.568 54.4711C312.568 52.7408 311.389 51.3381 309.934 51.3381C308.479 51.3381 307.3 52.7408 307.3 54.4711C307.3 56.2015 308.479 57.6042 309.934 57.6042Z" fill="white"/>
<path opacity="0.4" d="M320.91 57.6042C322.365 57.6042 323.544 56.2015 323.544 54.4711C323.544 52.7408 322.365 51.3381 320.91 51.3381C319.455 51.3381 318.276 52.7408 318.276 54.4711C318.276 56.2015 319.455 57.6042 320.91 57.6042Z" fill="white"/>
<path opacity="0.4" d="M309.934 67.5256C311.389 67.5256 312.568 66.1228 312.568 64.3925C312.568 62.6622 311.389 61.2594 309.934 61.2594C308.479 61.2594 307.3 62.6622 307.3 64.3925C307.3 66.1228 308.479 67.5256 309.934 67.5256Z" fill="white"/>
<path opacity="0.4" d="M320.91 67.5256C322.365 67.5256 323.544 66.1228 323.544 64.3925C323.544 62.6622 322.365 61.2594 320.91 61.2594C319.455 61.2594 318.276 62.6622 318.276 64.3925C318.276 66.1228 319.455 67.5256 320.91 67.5256Z" fill="white"/>
<path opacity="0.4" d="M331.886 67.5256C333.34 67.5256 334.52 66.1228 334.52 64.3925C334.52 62.6622 333.34 61.2594 331.886 61.2594C330.431 61.2594 329.251 62.6622 329.251 64.3925C329.251 66.1228 330.431 67.5256 331.886 67.5256Z" fill="white"/>
<path opacity="0.4" d="M331.886 57.6042C333.34 57.6042 334.52 56.2015 334.52 54.4711C334.52 52.7408 333.34 51.3381 331.886 51.3381C330.431 51.3381 329.251 52.7408 329.251 54.4711C329.251 56.2015 330.431 57.6042 331.886 57.6042Z" fill="white"/>
<path opacity="0.4" d="M342.862 57.6042C344.317 57.6042 345.496 56.2015 345.496 54.4711C345.496 52.7408 344.317 51.3381 342.862 51.3381C341.407 51.3381 340.228 52.7408 340.228 54.4711C340.228 56.2015 341.407 57.6042 342.862 57.6042Z" fill="white"/>
<path opacity="0.4" d="M353.837 57.6042C355.292 57.6042 356.472 56.2015 356.472 54.4711C356.472 52.7408 355.292 51.3381 353.837 51.3381C352.383 51.3381 351.203 52.7408 351.203 54.4711C351.203 56.2015 352.383 57.6042 353.837 57.6042Z" fill="white"/>
<path opacity="0.4" d="M364.813 57.6042C366.268 57.6042 367.448 56.2015 367.448 54.4711C367.448 52.7408 366.268 51.3381 364.813 51.3381C363.359 51.3381 362.179 52.7408 362.179 54.4711C362.179 56.2015 363.359 57.6042 364.813 57.6042Z" fill="white"/>
<path opacity="0.4" d="M375.789 57.6042C377.244 57.6042 378.423 56.2015 378.423 54.4711C378.423 52.7408 377.244 51.3381 375.789 51.3381C374.334 51.3381 373.155 52.7408 373.155 54.4711C373.155 56.2015 374.334 57.6042 375.789 57.6042Z" fill="white"/>
</g>
<path d="M272.146 184.093C269.27 184.093 266.459 183.079 264.068 181.179C261.677 179.278 259.813 176.577 258.712 173.417C257.612 170.257 257.324 166.78 257.885 163.425C258.446 160.07 259.831 156.988 261.864 154.57C263.898 152.151 266.489 150.504 269.31 149.837C272.13 149.169 275.054 149.512 277.711 150.821C280.368 152.13 282.639 154.346 284.237 157.19C285.834 160.035 286.687 163.378 286.687 166.799C286.683 171.384 285.15 175.78 282.424 179.022C279.698 182.264 276.002 184.088 272.146 184.093ZM272.146 150.485C269.434 150.485 266.782 151.442 264.526 153.234C262.27 155.027 260.512 157.575 259.474 160.556C258.436 163.537 258.164 166.817 258.694 169.982C259.223 173.146 260.529 176.053 262.447 178.335C264.366 180.616 266.81 182.17 269.47 182.799C272.131 183.429 274.889 183.106 277.395 181.871C279.902 180.636 282.044 178.545 283.551 175.862C285.058 173.18 285.863 170.025 285.863 166.799C285.859 162.474 284.412 158.327 281.841 155.268C279.269 152.21 275.783 150.49 272.146 150.485Z" fill="#3F3D56"/>
<path d="M277.721 165.141H273.54V160.168C273.54 159.729 273.393 159.307 273.132 158.996C272.87 158.685 272.516 158.511 272.146 158.511C271.777 158.511 271.422 158.685 271.161 158.996C270.899 159.307 270.753 159.729 270.753 160.168V165.141H266.571C266.202 165.141 265.847 165.316 265.586 165.627C265.325 165.938 265.178 166.359 265.178 166.799C265.178 167.238 265.325 167.66 265.586 167.971C265.847 168.282 266.202 168.456 266.571 168.456H270.753V173.429C270.753 173.869 270.899 174.291 271.161 174.602C271.422 174.912 271.777 175.087 272.146 175.087C272.516 175.087 272.87 174.912 273.132 174.602C273.393 174.291 273.54 173.869 273.54 173.429V168.456H277.721C278.091 168.456 278.445 168.282 278.707 167.971C278.968 167.66 279.115 167.238 279.115 166.799C279.115 166.359 278.968 165.938 278.707 165.627C278.445 165.316 278.091 165.141 277.721 165.141Z" fill="white"/>
<g opacity="0.4">
<path opacity="0.4" d="M22.2713 186.217C23.4151 186.217 24.3424 185.114 24.3424 183.753C24.3424 182.393 23.4151 181.29 22.2713 181.29C21.1275 181.29 20.2002 182.393 20.2002 183.753C20.2002 185.114 21.1275 186.217 22.2713 186.217Z" fill="white"/>
<path opacity="0.4" d="M22.2713 175.953C23.4151 175.953 24.3424 174.85 24.3424 173.49C24.3424 172.129 23.4151 171.026 22.2713 171.026C21.1275 171.026 20.2002 172.129 20.2002 173.49C20.2002 174.85 21.1275 175.953 22.2713 175.953Z" fill="white"/>
<path opacity="0.4" d="M22.2713 165.689C23.4151 165.689 24.3424 164.586 24.3424 163.226C24.3424 161.865 23.4151 160.763 22.2713 160.763C21.1275 160.763 20.2002 161.865 20.2002 163.226C20.2002 164.586 21.1275 165.689 22.2713 165.689Z" fill="white"/>
<path opacity="0.4" d="M22.2713 155.425C23.4151 155.425 24.3424 154.323 24.3424 152.962C24.3424 151.602 23.4151 150.499 22.2713 150.499C21.1275 150.499 20.2002 151.602 20.2002 152.962C20.2002 154.323 21.1275 155.425 22.2713 155.425Z" fill="white"/>
<path opacity="0.4" d="M22.2713 145.162C23.4151 145.162 24.3424 144.059 24.3424 142.698C24.3424 141.338 23.4151 140.235 22.2713 140.235C21.1275 140.235 20.2002 141.338 20.2002 142.698C20.2002 144.059 21.1275 145.162 22.2713 145.162Z" fill="white"/>
<path opacity="0.4" d="M22.2713 134.898C23.4151 134.898 24.3424 133.795 24.3424 132.435C24.3424 131.074 23.4151 129.971 22.2713 129.971C21.1275 129.971 20.2002 131.074 20.2002 132.435C20.2002 133.795 21.1275 134.898 22.2713 134.898Z" fill="white"/>
<path opacity="0.4" d="M22.2713 124.634C23.4151 124.634 24.3424 123.531 24.3424 122.171C24.3424 120.81 23.4151 119.708 22.2713 119.708C21.1275 119.708 20.2002 120.81 20.2002 122.171C20.2002 123.531 21.1275 124.634 22.2713 124.634Z" fill="white"/>
<path opacity="0.4" d="M28.8294 186.217C29.9732 186.217 30.9005 185.114 30.9005 183.753C30.9005 182.393 29.9732 181.29 28.8294 181.29C27.6856 181.29 26.7583 182.393 26.7583 183.753C26.7583 185.114 27.6856 186.217 28.8294 186.217Z" fill="white"/>
<path opacity="0.4" d="M28.8294 175.953C29.9732 175.953 30.9005 174.85 30.9005 173.49C30.9005 172.129 29.9732 171.026 28.8294 171.026C27.6856 171.026 26.7583 172.129 26.7583 173.49C26.7583 174.85 27.6856 175.953 28.8294 175.953Z" fill="white"/>
<path opacity="0.4" d="M28.8294 165.689C29.9732 165.689 30.9005 164.586 30.9005 163.226C30.9005 161.865 29.9732 160.763 28.8294 160.763C27.6856 160.763 26.7583 161.865 26.7583 163.226C26.7583 164.586 27.6856 165.689 28.8294 165.689Z" fill="white"/>
<path opacity="0.4" d="M28.8294 155.425C29.9732 155.425 30.9005 154.323 30.9005 152.962C30.9005 151.602 29.9732 150.499 28.8294 150.499C27.6856 150.499 26.7583 151.602 26.7583 152.962C26.7583 154.323 27.6856 155.425 28.8294 155.425Z" fill="white"/>
<path opacity="0.4" d="M28.8294 145.162C29.9732 145.162 30.9005 144.059 30.9005 142.698C30.9005 141.338 29.9732 140.235 28.8294 140.235C27.6856 140.235 26.7583 141.338 26.7583 142.698C26.7583 144.059 27.6856 145.162 28.8294 145.162Z" fill="white"/>
<path opacity="0.4" d="M28.8294 134.898C29.9732 134.898 30.9005 133.795 30.9005 132.435C30.9005 131.074 29.9732 129.971 28.8294 129.971C27.6856 129.971 26.7583 131.074 26.7583 132.435C26.7583 133.795 27.6856 134.898 28.8294 134.898Z" fill="white"/>
<path opacity="0.4" d="M28.8294 124.634C29.9732 124.634 30.9005 123.531 30.9005 122.171C30.9005 120.81 29.9732 119.708 28.8294 119.708C27.6856 119.708 26.7583 120.81 26.7583 122.171C26.7583 123.531 27.6856 124.634 28.8294 124.634Z" fill="white"/>
<path opacity="0.4" d="M35.388 186.217C36.5318 186.217 37.4591 185.114 37.4591 183.753C37.4591 182.393 36.5318 181.29 35.388 181.29C34.2441 181.29 33.3169 182.393 33.3169 183.753C33.3169 185.114 34.2441 186.217 35.388 186.217Z" fill="white"/>
<path opacity="0.4" d="M35.388 175.953C36.5318 175.953 37.4591 174.85 37.4591 173.49C37.4591 172.129 36.5318 171.026 35.388 171.026C34.2441 171.026 33.3169 172.129 33.3169 173.49C33.3169 174.85 34.2441 175.953 35.388 175.953Z" fill="white"/>
<path opacity="0.4" d="M35.388 165.689C36.5318 165.689 37.4591 164.586 37.4591 163.226C37.4591 161.865 36.5318 160.763 35.388 160.763C34.2441 160.763 33.3169 161.865 33.3169 163.226C33.3169 164.586 34.2441 165.689 35.388 165.689Z" fill="white"/>
<path opacity="0.4" d="M35.388 155.425C36.5318 155.425 37.4591 154.323 37.4591 152.962C37.4591 151.602 36.5318 150.499 35.388 150.499C34.2441 150.499 33.3169 151.602 33.3169 152.962C33.3169 154.323 34.2441 155.425 35.388 155.425Z" fill="white"/>
<path opacity="0.4" d="M35.388 145.162C36.5318 145.162 37.4591 144.059 37.4591 142.698C37.4591 141.338 36.5318 140.235 35.388 140.235C34.2441 140.235 33.3169 141.338 33.3169 142.698C33.3169 144.059 34.2441 145.162 35.388 145.162Z" fill="white"/>
<path opacity="0.4" d="M35.388 134.898C36.5318 134.898 37.4591 133.795 37.4591 132.435C37.4591 131.074 36.5318 129.971 35.388 129.971C34.2441 129.971 33.3169 131.074 33.3169 132.435C33.3169 133.795 34.2441 134.898 35.388 134.898Z" fill="white"/>
<path opacity="0.4" d="M35.388 124.634C36.5318 124.634 37.4591 123.531 37.4591 122.171C37.4591 120.81 36.5318 119.708 35.388 119.708C34.2441 119.708 33.3169 120.81 33.3169 122.171C33.3169 123.531 34.2441 124.634 35.388 124.634Z" fill="white"/>
<path opacity="0.4" d="M41.9466 186.217C43.0904 186.217 44.0177 185.114 44.0177 183.753C44.0177 182.393 43.0904 181.29 41.9466 181.29C40.8027 181.29 39.8755 182.393 39.8755 183.753C39.8755 185.114 40.8027 186.217 41.9466 186.217Z" fill="white"/>
<path opacity="0.4" d="M41.9466 175.953C43.0904 175.953 44.0177 174.85 44.0177 173.49C44.0177 172.129 43.0904 171.026 41.9466 171.026C40.8027 171.026 39.8755 172.129 39.8755 173.49C39.8755 174.85 40.8027 175.953 41.9466 175.953Z" fill="white"/>
<path opacity="0.4" d="M48.5052 186.217C49.649 186.217 50.5762 185.114 50.5762 183.753C50.5762 182.393 49.649 181.29 48.5052 181.29C47.3613 181.29 46.4341 182.393 46.4341 183.753C46.4341 185.114 47.3613 186.217 48.5052 186.217Z" fill="white"/>
<path opacity="0.4" d="M48.5052 175.953C49.649 175.953 50.5762 174.85 50.5762 173.49C50.5762 172.129 49.649 171.026 48.5052 171.026C47.3613 171.026 46.4341 172.129 46.4341 173.49C46.4341 174.85 47.3613 175.953 48.5052 175.953Z" fill="white"/>
<path opacity="0.4" d="M48.5052 165.689C49.649 165.689 50.5762 164.586 50.5762 163.226C50.5762 161.865 49.649 160.763 48.5052 160.763C47.3613 160.763 46.4341 161.865 46.4341 163.226C46.4341 164.586 47.3613 165.689 48.5052 165.689Z" fill="white"/>
<path opacity="0.4" d="M41.9466 165.689C43.0904 165.689 44.0177 164.586 44.0177 163.226C44.0177 161.865 43.0904 160.763 41.9466 160.763C40.8027 160.763 39.8755 161.865 39.8755 163.226C39.8755 164.586 40.8027 165.689 41.9466 165.689Z" fill="white"/>
<path opacity="0.4" d="M41.9466 155.425C43.0904 155.425 44.0177 154.323 44.0177 152.962C44.0177 151.602 43.0904 150.499 41.9466 150.499C40.8027 150.499 39.8755 151.602 39.8755 152.962C39.8755 154.323 40.8027 155.425 41.9466 155.425Z" fill="white"/>
<path opacity="0.4" d="M41.9466 145.162C43.0904 145.162 44.0177 144.059 44.0177 142.698C44.0177 141.338 43.0904 140.235 41.9466 140.235C40.8027 140.235 39.8755 141.338 39.8755 142.698C39.8755 144.059 40.8027 145.162 41.9466 145.162Z" fill="white"/>
<path opacity="0.4" d="M41.9466 134.898C43.0904 134.898 44.0177 133.795 44.0177 132.435C44.0177 131.074 43.0904 129.971 41.9466 129.971C40.8027 129.971 39.8755 131.074 39.8755 132.435C39.8755 133.795 40.8027 134.898 41.9466 134.898Z" fill="white"/>
<path opacity="0.4" d="M41.9466 124.634C43.0904 124.634 44.0177 123.531 44.0177 122.171C44.0177 120.81 43.0904 119.708 41.9466 119.708C40.8027 119.708 39.8755 120.81 39.8755 122.171C39.8755 123.531 40.8027 124.634 41.9466 124.634Z" fill="white"/>
</g>
<path d="M205.054 16.1815H67.4705C66.7948 16.1823 66.1469 16.502 65.6691 17.0703C65.1913 17.6386 64.9226 18.4091 64.9219 19.2128V159.141C64.9226 159.944 65.1913 160.715 65.6691 161.283C66.1469 161.852 66.7948 162.171 67.4705 162.172H205.054C205.73 162.171 206.378 161.852 206.855 161.283C207.333 160.715 207.602 159.944 207.603 159.141V19.2128C207.602 18.4091 207.333 17.6386 206.855 17.0703C206.378 16.502 205.73 16.1823 205.054 16.1815ZM206.581 159.141C206.581 159.623 206.42 160.085 206.134 160.427C205.848 160.768 205.459 160.961 205.054 160.963H67.4705C67.0648 160.962 66.676 160.77 66.3896 160.428C66.1032 160.086 65.9426 159.623 65.9432 159.141V19.2128C65.9426 18.7303 66.1032 18.2673 66.3896 17.9255C66.676 17.5838 67.0648 17.3914 67.4705 17.3906H205.054C205.459 17.3924 205.848 17.5851 206.134 17.9266C206.42 18.2681 206.581 18.7306 206.581 19.2128V159.141Z" fill="#3F3D56"/>
<path d="M99.2283 137.292C99.2283 137.507 99.2235 137.723 99.2139 137.933C99.0752 141.091 97.9228 144.065 95.9944 146.242C94.066 148.419 91.5087 149.632 88.85 149.632C86.1913 149.632 83.634 148.419 81.7056 146.242C79.7771 144.065 78.6247 141.091 78.486 137.933C78.4764 137.723 78.4717 137.507 78.4717 137.292C78.4708 135.67 78.7386 134.064 79.2598 132.565C79.781 131.067 80.5453 129.705 81.5091 128.558C82.4729 127.411 83.6173 126.501 84.8769 125.88C86.1364 125.26 87.4865 124.94 88.85 124.94C90.2134 124.94 91.5635 125.26 92.8231 125.88C94.0827 126.501 95.2271 127.411 96.1909 128.558C97.1547 129.705 97.919 131.067 98.4402 132.565C98.9613 134.064 99.2291 135.67 99.2283 137.292Z" fill="white"/>
<path d="M194.363 129.06H112.816C112.358 129.061 111.919 129.278 111.595 129.664C111.271 130.05 111.089 130.573 111.089 131.118C111.089 131.663 111.271 132.186 111.595 132.572C111.919 132.958 112.358 133.175 112.816 133.176H194.363C194.822 133.175 195.261 132.958 195.585 132.572C195.909 132.186 196.091 131.663 196.091 131.118C196.091 130.573 195.909 130.05 195.585 129.664C195.261 129.278 194.822 129.061 194.363 129.06Z" fill="#3F3D56"/>
<path d="M147.906 141.407H112.817C112.358 141.407 111.919 141.624 111.595 142.009C111.271 142.394 111.089 142.917 111.089 143.462C111.089 144.007 111.271 144.53 111.595 144.915C111.919 145.3 112.358 145.517 112.817 145.517H147.906C148.364 145.517 148.803 145.3 149.127 144.915C149.451 144.53 149.633 144.007 149.633 143.462C149.633 142.917 149.451 142.394 149.127 142.009C148.803 141.624 148.364 141.407 147.906 141.407Z" fill="white"/>
<path d="M237.741 114.528H100.158C99.2236 114.527 98.3278 114.085 97.6671 113.299C97.0064 112.513 96.6348 111.448 96.6338 110.336V38.5238C96.6348 37.4124 97.0065 36.347 97.6671 35.5611C98.3278 34.7753 99.2236 34.3332 100.158 34.3319H237.741C238.675 34.3332 239.571 34.7753 240.232 35.5611C240.892 36.347 241.264 37.4124 241.265 38.5238V110.336C241.264 111.448 240.892 112.513 240.232 113.299C239.571 114.085 238.675 114.527 237.741 114.528ZM100.158 35.8029C99.5515 35.8037 98.9701 36.0906 98.5412 36.6007C98.1124 37.1108 97.8712 37.8024 97.8705 38.5238V110.336C97.8712 111.058 98.1124 111.749 98.5412 112.259C98.97 112.77 99.5515 113.057 100.158 113.058H237.741C238.347 113.057 238.929 112.77 239.358 112.259C239.786 111.749 240.028 111.058 240.028 110.336V38.5238C240.028 37.8024 239.786 37.1108 239.358 36.6007C238.929 36.0906 238.347 35.8037 237.741 35.8029H100.158Z" fill="white"/>
<path d="M128.177 60.5243C127.718 60.5243 127.278 60.7411 126.954 61.1269C126.63 61.5127 126.447 62.036 126.447 62.5816C126.447 63.1273 126.63 63.6505 126.954 64.0364C127.278 64.4222 127.718 64.6389 128.177 64.6389H209.722C210.181 64.6389 210.621 64.4222 210.945 64.0364C211.27 63.6505 211.452 63.1273 211.452 62.5816C211.452 62.036 211.27 61.5127 210.945 61.1269C210.621 60.7411 210.181 60.5243 209.722 60.5243H128.177Z" fill="white"/>
<path d="M128.177 72.4451C127.718 72.4451 127.278 72.6619 126.954 73.0477C126.63 73.4335 126.447 73.9568 126.447 74.5025C126.447 75.0481 126.63 75.5714 126.954 75.9572C127.278 76.343 127.718 76.5598 128.177 76.5598H209.722C210.18 76.5589 210.62 76.3418 210.943 75.9561C211.267 75.5704 211.449 75.0476 211.449 74.5025C211.449 73.9574 211.267 73.4346 210.943 73.0488C210.62 72.6631 210.18 72.446 209.722 72.4451H128.177Z" fill="white"/>
<path d="M128.177 84.2214C127.718 84.2214 127.278 84.4382 126.954 84.824C126.63 85.2098 126.447 85.7331 126.447 86.2787C126.447 86.8244 126.63 87.3477 126.954 87.7335C127.278 88.1193 127.718 88.3361 128.177 88.3361H163.266C163.724 88.3352 164.164 88.1181 164.488 87.7324C164.811 87.3466 164.993 86.8238 164.993 86.2787C164.993 85.7337 164.811 85.2109 164.488 84.8251C164.164 84.4394 163.724 84.2223 163.266 84.2214H128.177Z" fill="white"/>
<path d="M260.425 144.953L246.606 121.758L251.08 122.867C251.159 122.886 251.241 122.887 251.321 122.869C251.401 122.851 251.477 122.815 251.545 122.762C251.613 122.709 251.671 122.64 251.717 122.56C251.763 122.481 251.795 122.391 251.812 122.296C251.828 122.201 251.829 122.104 251.814 122.009C251.799 121.914 251.768 121.823 251.723 121.743C251.679 121.662 251.621 121.592 251.554 121.538C251.487 121.483 251.411 121.445 251.332 121.425L244.666 119.775L243.766 127.802C243.755 127.898 243.76 127.995 243.781 128.089C243.802 128.182 243.838 128.27 243.887 128.347C243.936 128.424 243.998 128.489 244.068 128.538C244.139 128.586 244.217 128.618 244.297 128.631C244.378 128.643 244.46 128.637 244.539 128.612C244.617 128.587 244.691 128.544 244.756 128.485C244.82 128.426 244.875 128.352 244.915 128.269C244.956 128.185 244.982 128.092 244.993 127.996L245.596 122.606L259.416 145.804C259.463 145.883 259.522 145.95 259.591 146.001C259.66 146.053 259.736 146.087 259.816 146.104C259.896 146.12 259.978 146.117 260.057 146.096C260.137 146.074 260.211 146.034 260.278 145.979C260.344 145.923 260.4 145.852 260.443 145.77C260.487 145.688 260.516 145.597 260.53 145.502C260.543 145.407 260.541 145.31 260.523 145.215C260.505 145.121 260.472 145.032 260.425 144.953V144.953Z" fill="white"/>
<path d="M185.373 212.464H87.1524C86.6702 212.463 86.2078 212.235 85.8669 211.83C85.5259 211.424 85.3341 210.874 85.3335 210.301V181.322C85.3341 180.749 85.5259 180.199 85.8669 179.793C86.2078 179.388 86.6702 179.16 87.1524 179.159H185.373C185.855 179.16 186.317 179.388 186.658 179.793C186.999 180.199 187.191 180.749 187.192 181.322V210.301C187.191 210.874 186.999 211.424 186.658 211.83C186.317 212.235 185.855 212.463 185.373 212.464ZM87.1524 180.024C86.863 180.025 86.5856 180.161 86.381 180.405C86.1764 180.648 86.0614 180.978 86.0611 181.322V210.301C86.0614 210.645 86.1764 210.975 86.381 211.218C86.5856 211.461 86.863 211.598 87.1524 211.599H185.373C185.662 211.598 185.939 211.461 186.144 211.218C186.349 210.975 186.464 210.645 186.464 210.301V181.322C186.464 180.978 186.349 180.648 186.144 180.405C185.939 180.161 185.662 180.025 185.373 180.024H87.1524Z" fill="#3F3D56"/>
<path d="M102.414 203.512C106.506 203.512 109.823 199.566 109.823 194.699C109.823 189.833 106.506 185.887 102.414 185.887C98.3216 185.887 95.0044 189.833 95.0044 194.699C95.0044 199.566 98.3216 203.512 102.414 203.512Z" fill="white"/>
<path d="M119.525 188.825C119.363 188.824 119.202 188.862 119.052 188.936C118.902 189.009 118.765 189.117 118.651 189.254C118.536 189.39 118.444 189.552 118.382 189.731C118.32 189.909 118.288 190.1 118.288 190.293C118.288 190.486 118.32 190.678 118.382 190.856C118.444 191.034 118.536 191.196 118.651 191.333C118.765 191.469 118.902 191.577 119.052 191.651C119.202 191.725 119.363 191.762 119.525 191.762H177.74C178.068 191.762 178.382 191.607 178.614 191.332C178.845 191.056 178.975 190.683 178.975 190.293C178.975 189.904 178.845 189.53 178.614 189.255C178.382 188.979 178.068 188.825 177.74 188.825H119.525Z" fill="white"/>
<path d="M119.525 197.637C119.363 197.637 119.202 197.674 119.052 197.748C118.902 197.822 118.765 197.93 118.651 198.066C118.536 198.203 118.444 198.365 118.382 198.543C118.32 198.721 118.288 198.913 118.288 199.106C118.288 199.299 118.32 199.49 118.382 199.668C118.444 199.847 118.536 200.009 118.651 200.145C118.765 200.282 118.902 200.39 119.052 200.463C119.202 200.537 119.363 200.575 119.525 200.574H144.575C144.903 200.574 145.217 200.42 145.449 200.144C145.68 199.869 145.81 199.495 145.81 199.106C145.81 198.716 145.68 198.343 145.449 198.067C145.217 197.792 144.903 197.637 144.575 197.637H119.525Z" fill="white"/>
<path d="M314.965 109.221H358.619C359.101 109.221 359.563 109.45 359.904 109.855C360.245 110.261 360.437 110.811 360.438 111.384V165.457C360.437 166.031 360.245 166.581 359.904 166.986C359.563 167.392 359.101 167.62 358.619 167.621H314.965C314.483 167.62 314.021 167.392 313.68 166.986C313.339 166.581 313.147 166.031 313.146 165.457V111.384C313.147 110.811 313.339 110.261 313.68 109.855C314.021 109.45 314.483 109.221 314.965 109.221ZM358.619 166.755C358.908 166.755 359.186 166.618 359.39 166.375C359.595 166.131 359.71 165.801 359.71 165.457V111.384C359.71 111.04 359.595 110.71 359.39 110.467C359.186 110.223 358.908 110.086 358.619 110.086H314.965C314.676 110.086 314.399 110.223 314.194 110.467C313.989 110.71 313.874 111.04 313.874 111.384V165.457C313.874 165.801 313.989 166.131 314.194 166.375C314.399 166.618 314.676 166.755 314.965 166.755H358.619Z" fill="#3F3D56"/>
<path d="M349.317 156.47C349.644 156.47 349.958 156.315 350.19 156.04C350.422 155.764 350.552 155.391 350.552 155.001C350.552 154.611 350.422 154.238 350.19 153.962C349.958 153.687 349.644 153.532 349.317 153.532H324.267C323.939 153.532 323.625 153.687 323.393 153.962C323.162 154.238 323.032 154.611 323.032 155.001C323.032 155.391 323.162 155.764 323.393 156.04C323.625 156.315 323.939 156.47 324.267 156.47H349.317Z" fill="white"/>
<path d="M349.317 147.816C349.479 147.817 349.64 147.779 349.79 147.705C349.94 147.632 350.077 147.524 350.192 147.387C350.307 147.251 350.398 147.089 350.46 146.91C350.522 146.732 350.554 146.541 350.554 146.348C350.554 146.155 350.522 145.963 350.46 145.785C350.398 145.607 350.307 145.445 350.192 145.308C350.077 145.172 349.94 145.064 349.79 144.99C349.64 144.916 349.479 144.879 349.317 144.879H324.267C324.105 144.879 323.944 144.916 323.794 144.99C323.644 145.064 323.507 145.172 323.392 145.308C323.277 145.445 323.186 145.607 323.124 145.785C323.062 145.963 323.03 146.155 323.03 146.348C323.03 146.541 323.062 146.732 323.124 146.91C323.186 147.089 323.277 147.251 323.392 147.387C323.507 147.524 323.644 147.632 323.794 147.705C323.944 147.779 324.105 147.817 324.267 147.816H349.317Z" fill="white"/>
<path d="M336.792 120.372C338.329 120.372 339.832 120.914 341.11 121.93C342.389 122.945 343.385 124.389 343.973 126.079C344.561 127.768 344.715 129.627 344.415 131.42C344.116 133.213 343.375 134.861 342.288 136.154C341.201 137.447 339.816 138.327 338.308 138.684C336.801 139.041 335.238 138.857 333.817 138.158C332.397 137.458 331.183 136.273 330.329 134.753C329.475 133.232 329.019 131.445 329.019 129.617C329.021 127.165 329.841 124.816 331.298 123.082C332.755 121.349 334.731 120.374 336.792 120.372Z" fill="white"/>
</g>
<defs>
<clipPath id="clip0">
<rect width="404" height="240" fill="white"/>
</clipPath>
</defs>
</svg>

