
		<svg  viewBox="0 0 462 325" fill="none" xmlns="http://www.w3.org/2000/svg">
<path d="M222.406 70.1784V130.065H335.752" fill="#F2F2F2"/>
<path d="M352.34 130.529H221.946V12.149H222.867V129.6H352.34V130.529Z" fill="#3F3D56"/>
<path d="M223.829 130.663L223.004 130.248C228.672 118.822 240.494 110.718 253.122 109.6C255.301 109.408 257.584 109.389 259.791 109.37C265.892 109.319 272.2 109.267 276.799 105.508C280.204 102.726 281.85 98.634 283.593 94.3018C284.445 92.0427 285.443 89.8422 286.58 87.7143C288.781 83.9226 291.867 80.7292 295.57 78.4108C299.274 76.0925 303.482 74.7192 307.831 74.4102C308.168 74.3904 308.511 74.3784 308.859 74.3746C309.603 73.3736 310.418 72.4292 311.3 71.549C315.765 67.0996 321.483 64.1829 327.012 61.3624L328.321 60.6937C334.172 57.6941 340.232 54.3297 344.37 49.1177C346.957 45.7813 348.682 41.8506 349.391 37.6775C350.101 33.5043 349.772 29.2191 348.434 25.2056L349.304 24.9C350.691 29.0622 351.033 33.506 350.297 37.8336C349.562 42.1613 347.772 46.2376 345.09 49.6976C340.837 55.0542 334.68 58.4757 328.739 61.5211L327.428 62.1907C321.962 64.979 316.31 67.8621 311.948 72.2091C311.259 72.8968 310.611 73.6254 310.009 74.3909C315.216 74.5972 321.274 76.6221 324.678 81.8681C325.634 83.401 326.262 85.1179 326.522 86.9092C326.783 88.7005 326.67 90.5269 326.19 92.2716C325.369 95.3166 323.54 97.6829 321.039 98.9348C318.4 100.257 315.28 100.218 312.254 98.8265C310.492 98.021 308.924 96.8387 307.661 95.3616C306.398 93.8845 305.468 92.1481 304.938 90.2728C303.545 84.8466 305.38 79.4773 308.187 75.3216C308.087 75.3259 307.985 75.3312 307.884 75.3373C303.688 75.6355 299.628 76.9604 296.055 79.1971C292.482 81.4338 289.505 84.5149 287.381 88.1731C286.265 90.2659 285.285 92.4296 284.447 94.6506C282.737 98.9013 280.969 103.297 277.38 106.229C272.53 110.192 266.058 110.246 259.799 110.299C257.609 110.317 255.345 110.336 253.203 110.525C240.886 111.615 229.356 119.52 223.829 130.663ZM309.325 75.301C306.435 79.3368 304.452 84.6732 305.83 90.0402C306.325 91.7823 307.19 93.395 308.365 94.7664C309.541 96.1377 310.998 97.235 312.637 97.9819C315.405 99.2547 318.243 99.298 320.629 98.1034C322.891 96.9711 324.55 94.8136 325.301 92.0282C325.737 90.4089 325.838 88.7167 325.598 87.0564C325.358 85.3961 324.783 83.8031 323.907 82.3763C321.095 78.0436 315.477 75.3522 309.325 75.301Z" fill="#3F3D56"/>
<path d="M285.991 98.0326C290.571 98.0326 294.285 94.2914 294.285 89.6764C294.285 85.0614 290.571 81.3202 285.991 81.3202C281.41 81.3202 277.697 85.0614 277.697 89.6764C277.697 94.2914 281.41 98.0326 285.991 98.0326Z" fill="#41FF98"/>
<path d="M199.493 241.459H0V145.849H199.493V241.459ZM0.921514 240.531H198.572V146.777H0.921514V240.531Z" fill="#3F3D56"/>
<path d="M455.088 313.438H148.685V314.366H455.088V313.438Z" fill="#3F3D56"/>
<path d="M383.511 107.934L379.722 127.023C379.722 127.023 374.85 137.93 377.015 145.566L378.639 148.838L388.924 139.567L392.713 113.933L383.511 107.934Z" fill="#A0616A"/>
<path d="M362.4 284.641L356.445 307.547L363.482 310.82L369.978 305.366L373.767 287.913L362.4 284.641Z" fill="#A0616A"/>
<path d="M442.243 275.642L445.22 308.638H460.376L453.069 272.369L442.243 275.642Z" fill="#A0616A"/>
<path d="M418.696 154.292L421.762 139.185L386.217 130.84L378.639 142.839C378.639 142.839 365.648 163.564 362.4 226.829C359.152 290.095 358.069 289.549 358.069 289.549L384.593 292.276L398.126 203.923L431.687 284.641L457.128 277.551L425.191 180.471C425.191 180.471 427.357 166.291 418.696 154.292Z" fill="#2F2E41"/>
<path d="M364.023 302.639L360.234 306.457L358.069 304.275L359.251 296.261L353.197 299.912C353.197 299.912 342.371 298.276 343.454 309.729C343.454 309.729 341.83 313.547 351.032 317.91C360.234 322.273 365.106 325 365.106 325C365.106 325 373.767 324.455 373.767 321.728C373.767 319.001 371.038 300.484 371.038 300.484L364.023 302.639Z" fill="#2F2E41"/>
<path d="M452.256 302.639L448.467 306.457L446.302 304.275L444.03 296.261L441.43 299.912C441.43 299.912 430.604 298.276 431.687 309.729C431.687 309.729 430.063 313.547 439.265 317.91C448.467 322.273 453.339 325 453.339 325C453.339 325 462 324.455 462 321.728C462 319.001 459.271 300.484 459.271 300.484L452.256 302.639Z" fill="#2F2E41"/>
<path d="M409.493 76.3011C418.163 76.3011 425.191 69.2198 425.191 60.4847C425.191 51.7495 418.163 44.6683 409.493 44.6683C400.824 44.6683 393.795 51.7495 393.795 60.4847C393.795 69.2198 400.824 76.3011 409.493 76.3011Z" fill="#A0616A"/>
<path d="M404.622 72.4833L405.704 91.0267H426.274L420.32 65.9386L404.622 72.4833Z" fill="#A0616A"/>
<path d="M392.713 83.3912L409.493 82.3004L427.357 83.3912C427.357 83.3912 442.513 91.5721 434.393 113.933C426.274 136.294 420.319 143.384 420.319 143.384L402.998 135.749H397.585C397.585 135.749 395.961 134.113 395.419 134.113C394.878 134.113 384.593 135.749 384.593 135.749C384.593 135.749 381.887 124.296 385.676 123.205C389.465 122.114 391.63 116.115 391.63 116.115L392.713 83.3912Z" fill="#D0CDE1"/>
<path d="M395.961 85.0274L392.713 83.391L381.346 110.116L393.795 118.296L395.961 85.0274Z" fill="#D0CDE1"/>
<path d="M387.029 59.1212C387.029 59.1212 379.451 39.4871 394.432 37.6083C394.432 37.6083 413.321 25.9174 425.462 45.4864L435.043 69.3144L431.842 68.6733L431.435 71.8838L427.351 74.4084L424.279 71.2097L424.787 76.1063L389.596 91.1643C389.596 91.1643 402.864 76.3612 397.746 58.9084L395.668 63.1808L387.029 59.1212Z" fill="#2F2E41"/>
<path d="M168.176 302.023C166.208 309.353 159.467 313.893 159.467 313.893C159.467 313.893 155.916 306.548 157.884 299.218C159.853 291.887 166.594 287.347 166.594 287.347C166.594 287.347 170.144 294.692 168.176 302.023Z" fill="#41FF98"/>
<path d="M150.271 302.023C152.239 309.353 158.981 313.893 158.981 313.893C158.981 313.893 162.531 306.548 160.563 299.218C158.595 291.887 151.853 287.347 151.853 287.347C151.853 287.347 148.303 294.692 150.271 302.023Z" fill="#41FF98"/>
<path d="M153.163 300.447C158.564 305.744 159.224 313.887 159.224 313.887C159.224 313.887 151.127 313.442 145.726 308.145C140.326 302.848 139.666 294.705 139.666 294.705C139.666 294.705 147.763 295.15 153.163 300.447Z" fill="#3F3D56"/>
<path d="M165.284 300.447C159.883 305.744 159.224 313.887 159.224 313.887C159.224 313.887 167.32 313.442 172.721 308.145C178.122 302.848 178.781 294.705 178.781 294.705C178.781 294.705 170.685 295.15 165.284 300.447Z" fill="#3F3D56"/>
<path d="M86.081 39.3901C88.0841 32.7791 91.78 26.8163 96.7968 22.1016C101.814 17.387 107.974 14.0869 114.659 12.5333C109.98 7.47661 104.062 3.75018 97.5003 1.72866C90.9385 -0.292859 83.9641 -0.538218 77.2783 1.01725C70.5925 2.57272 64.4309 5.87419 59.4131 10.5898C54.3953 15.3053 50.698 21.2688 48.693 27.8805C46.6881 34.4923 46.446 41.5194 47.9913 48.2554C49.5365 54.9913 52.8145 61.1986 57.4958 66.2533C62.1771 71.308 68.0967 75.0319 74.6594 77.0507C81.222 79.0694 88.1965 79.3118 94.8817 77.7534C90.2001 72.7009 86.9219 66.495 85.377 59.7604C83.8321 53.0258 84.0749 46.0001 86.081 39.3901Z" fill="#41FF98"/>
<path d="M140.695 15.0257C134.134 12.998 127.158 12.7557 120.474 14.3232C125.154 19.3767 128.431 25.5825 129.976 32.3168C131.521 39.0511 131.279 46.0764 129.274 52.6866C127.27 59.2968 123.574 65.2588 118.557 69.9732C113.54 74.6876 107.38 77.9882 100.696 79.5433C104.785 83.9605 109.828 87.3708 115.434 89.5102C121.041 91.6495 127.06 92.4608 133.028 91.8811C138.995 91.3014 144.75 89.3463 149.848 86.1671C154.945 82.9879 159.248 78.6698 162.424 73.5468C165.6 68.4238 167.564 62.6334 168.164 56.6234C168.763 50.6134 167.982 44.545 165.882 38.8877C163.781 33.2304 160.417 28.1358 156.05 23.998C151.682 19.8603 146.428 16.7903 140.695 15.0257Z" fill="#3F3D56"/>
<path d="M125.952 51.6638C131.413 33.6537 127.473 16.4779 117.151 13.3004C106.829 10.1229 94.0343 22.1471 88.5729 40.1571C83.1114 58.1672 87.0516 75.3431 97.3735 78.5205C107.695 81.698 120.49 69.6738 125.952 51.6638Z" fill="#D0CDE1"/>
<path d="M350.036 35.8252C354.616 35.8252 358.329 32.084 358.329 27.4689C358.329 22.8539 354.616 19.1127 350.036 19.1127C345.455 19.1127 341.742 22.8539 341.742 27.4689C341.742 32.084 345.455 35.8252 350.036 35.8252Z" fill="#41FF98"/>
<path d="M327.459 70.1786C332.04 70.1786 335.753 66.4373 335.753 61.8223C335.753 57.2073 332.04 53.4661 327.459 53.4661C322.879 53.4661 319.166 57.2073 319.166 61.8223C319.166 66.4373 322.879 70.1786 327.459 70.1786Z" fill="#41FF98"/>
<path d="M155.63 167.503H4.00732V234.982H155.63V167.503Z" fill="#F2F2F2"/>
<path d="M155.905 162.968H11.5391V175.874H155.905V162.968Z" fill="#41FF98"/>
<path d="M146.731 167.677H20.7134V171.165H146.731V167.677Z" fill="#3F3D56"/>
<path d="M83.549 174.13C86.2258 174.13 88.3958 171.944 88.3958 169.247C88.3958 166.55 86.2258 164.364 83.549 164.364C80.8721 164.364 78.7021 166.55 78.7021 169.247C78.7021 171.944 80.8721 174.13 83.549 174.13Z" fill="#3F3D56"/>
<path d="M121.285 185.99H45.813V222.267H121.285V185.99Z" fill="#41FF98"/>
<path opacity="0.15" d="M83.549 211.105C87.3731 211.105 90.473 207.981 90.473 204.128C90.473 200.276 87.3731 197.152 83.549 197.152C79.725 197.152 76.625 200.276 76.625 204.128C76.625 207.981 79.725 211.105 83.549 211.105Z" fill="black"/>
<path opacity="0.3" d="M107.783 211.105C111.607 211.105 114.707 207.981 114.707 204.128C114.707 200.276 111.607 197.152 107.783 197.152C103.959 197.152 100.859 200.276 100.859 204.128C100.859 207.981 103.959 211.105 107.783 211.105Z" fill="white"/>
<path opacity="0.3" d="M59.3151 211.105C63.1392 211.105 66.2392 207.981 66.2392 204.128C66.2392 200.276 63.1392 197.152 59.3151 197.152C55.4911 197.152 52.3911 200.276 52.3911 204.128C52.3911 207.981 55.4911 211.105 59.3151 211.105Z" fill="black"/>
</svg>
