<svg  viewBox="0 0 649 596" fill="none" xmlns="http://www.w3.org/2000/svg">
<path d="M222.406 341.178V401.065H335.752" fill="#F2F2F2"/>
<path d="M352.34 401.529H221.946V283.149H222.867V400.601H352.34V401.529Z" fill="#3F3D56"/>
<path d="M223.829 401.663L223.004 401.248C228.672 389.822 240.494 381.718 253.122 380.6C255.301 380.408 257.584 380.389 259.791 380.37C265.892 380.319 272.2 380.267 276.799 376.508C280.204 373.726 281.85 369.634 283.593 365.302C284.445 363.043 285.443 360.842 286.58 358.714C288.781 354.923 291.867 351.729 295.57 349.411C299.274 347.092 303.482 345.719 307.831 345.41C308.168 345.39 308.511 345.378 308.859 345.375C309.603 344.374 310.418 343.429 311.3 342.549C315.765 338.1 321.483 335.183 327.012 332.362L328.321 331.694C334.172 328.694 340.232 325.33 344.37 320.118C346.957 316.781 348.682 312.851 349.391 308.677C350.101 304.504 349.772 300.219 348.434 296.206L349.304 295.9C350.691 300.062 351.033 304.506 350.297 308.834C349.562 313.161 347.772 317.238 345.09 320.698C340.837 326.054 334.68 329.476 328.739 332.521L327.428 333.191C321.962 335.979 316.31 338.862 311.948 343.209C311.259 343.897 310.611 344.625 310.009 345.391C315.216 345.597 321.274 347.622 324.678 352.868C325.634 354.401 326.262 356.118 326.522 357.909C326.783 359.701 326.67 361.527 326.19 363.272C325.369 366.317 323.54 368.683 321.039 369.935C318.4 371.257 315.28 371.218 312.254 369.826C310.492 369.021 308.924 367.839 307.661 366.362C306.398 364.885 305.468 363.148 304.938 361.273C303.545 355.847 305.38 350.477 308.187 346.322C308.087 346.326 307.985 346.331 307.884 346.337C303.688 346.635 299.628 347.96 296.055 350.197C292.482 352.434 289.505 355.515 287.381 359.173C286.265 361.266 285.285 363.43 284.447 365.651C282.737 369.901 280.969 374.297 277.38 377.229C272.53 381.192 266.058 381.246 259.799 381.299C257.609 381.317 255.345 381.336 253.203 381.525C240.886 382.615 229.356 390.52 223.829 401.663ZM309.325 346.301C306.435 350.337 304.452 355.673 305.83 361.04C306.325 362.782 307.19 364.395 308.365 365.766C309.541 367.138 310.998 368.235 312.637 368.982C315.405 370.255 318.243 370.298 320.629 369.103C322.891 367.971 324.55 365.814 325.301 363.028C325.737 361.409 325.838 359.717 325.598 358.056C325.358 356.396 324.783 354.803 323.907 353.376C321.095 349.044 315.477 346.352 309.325 346.301Z" fill="#3F3D56"/>
<path d="M285.991 369.033C290.571 369.033 294.285 365.291 294.285 360.676C294.285 356.061 290.571 352.32 285.991 352.32C281.41 352.32 277.697 356.061 277.697 360.676C277.697 365.291 281.41 369.033 285.991 369.033Z" fill="#41FF98"/>
<path d="M199.493 512.459H0V416.849H199.493V512.459ZM0.921514 511.531H198.572V417.777H0.921514V511.531Z" fill="#3F3D56"/>
<path d="M455.088 584.438H148.685V585.366H455.088V584.438Z" fill="#3F3D56"/>
<path d="M383.511 378.934L379.722 398.023C379.722 398.023 374.85 408.93 377.015 416.566L378.639 419.838L388.924 410.567L392.713 384.933L383.511 378.934Z" fill="#A0616A"/>
<path d="M362.4 555.641L356.445 578.547L363.482 581.82L369.978 576.366L373.767 558.913L362.4 555.641Z" fill="#A0616A"/>
<path d="M442.243 546.642L445.22 579.638H460.376L453.069 543.369L442.243 546.642Z" fill="#A0616A"/>
<path d="M418.696 425.292L421.762 410.185L386.217 401.84L378.639 413.839C378.639 413.839 365.648 434.564 362.4 497.829C359.152 561.095 358.069 560.55 358.069 560.55L384.593 563.276L398.126 474.923L431.687 555.641L457.128 548.551L425.191 451.471C425.191 451.471 427.357 437.291 418.696 425.292Z" fill="#2F2E41"/>
<path d="M364.023 573.639L360.234 577.457L358.069 575.275L359.251 567.261L353.197 570.912C353.197 570.912 342.371 569.276 343.454 580.729C343.454 580.729 341.83 584.547 351.032 588.91C360.234 593.273 365.106 596 365.106 596C365.106 596 373.767 595.455 373.767 592.728C373.767 590.001 371.038 571.484 371.038 571.484L364.023 573.639Z" fill="#2F2E41"/>
<path d="M452.256 573.639L448.467 577.457L446.302 575.275L444.03 567.261L441.43 570.912C441.43 570.912 430.604 569.276 431.687 580.729C431.687 580.729 430.063 584.547 439.265 588.91C448.467 593.273 453.339 596 453.339 596C453.339 596 462 595.455 462 592.728C462 590.001 459.271 571.484 459.271 571.484L452.256 573.639Z" fill="#2F2E41"/>
<path d="M409.493 347.301C418.163 347.301 425.191 340.22 425.191 331.485C425.191 322.75 418.163 315.668 409.493 315.668C400.824 315.668 393.795 322.75 393.795 331.485C393.795 340.22 400.824 347.301 409.493 347.301Z" fill="#A0616A"/>
<path d="M404.622 343.483L405.704 362.027H426.274L420.32 336.939L404.622 343.483Z" fill="#A0616A"/>
<path d="M392.713 354.391L409.493 353.3L427.357 354.391C427.357 354.391 442.513 362.572 434.393 384.933C426.274 407.294 420.32 414.384 420.32 414.384L402.998 406.749H397.585C397.585 406.749 395.961 405.113 395.419 405.113C394.878 405.113 384.593 406.749 384.593 406.749C384.593 406.749 381.887 395.296 385.676 394.205C389.465 393.114 391.63 387.115 391.63 387.115L392.713 354.391Z" fill="#D0CDE1"/>
<path d="M395.961 356.027L392.713 354.391L381.346 381.116L393.795 389.296L395.961 356.027Z" fill="#D0CDE1"/>
<path d="M387.029 330.121C387.029 330.121 379.451 310.487 394.432 308.608C394.432 308.608 413.321 296.917 425.462 316.486L435.043 340.314L431.842 339.673L431.435 342.884L427.351 345.408L424.279 342.21L424.787 347.106L389.596 362.164C389.596 362.164 402.864 347.361 397.746 329.908L395.668 334.181L387.029 330.121Z" fill="#2F2E41"/>
<path d="M168.176 573.023C166.208 580.353 159.467 584.893 159.467 584.893C159.467 584.893 155.916 577.548 157.884 570.218C159.853 562.887 166.594 558.347 166.594 558.347C166.594 558.347 170.144 565.692 168.176 573.023Z" fill="#41FF98"/>
<path d="M150.271 573.023C152.239 580.353 158.981 584.893 158.981 584.893C158.981 584.893 162.531 577.548 160.563 570.218C158.595 562.887 151.853 558.347 151.853 558.347C151.853 558.347 148.303 565.692 150.271 573.023Z" fill="#41FF98"/>
<path d="M153.163 571.447C158.564 576.744 159.224 584.887 159.224 584.887C159.224 584.887 151.127 584.442 145.726 579.145C140.326 573.848 139.666 565.705 139.666 565.705C139.666 565.705 147.763 566.15 153.163 571.447Z" fill="#3F3D56"/>
<path d="M165.284 571.447C159.883 576.744 159.224 584.887 159.224 584.887C159.224 584.887 167.32 584.442 172.721 579.145C178.122 573.848 178.781 565.705 178.781 565.705C178.781 565.705 170.685 566.15 165.284 571.447Z" fill="#3F3D56"/>
<path d="M86.081 310.39C88.0841 303.779 91.78 297.816 96.7968 293.102C101.814 288.387 107.974 285.087 114.659 283.533C109.98 278.477 104.062 274.75 97.5003 272.729C90.9385 270.707 83.9641 270.462 77.2783 272.017C70.5925 273.573 64.4309 276.874 59.4131 281.59C54.3953 286.305 50.698 292.269 48.693 298.881C46.6881 305.492 46.446 312.519 47.9913 319.255C49.5365 325.991 52.8145 332.199 57.4958 337.253C62.1771 342.308 68.0967 346.032 74.6594 348.051C81.222 350.069 88.1965 350.312 94.8817 348.753C90.2001 343.701 86.9219 337.495 85.377 330.76C83.8321 324.026 84.0749 317 86.081 310.39V310.39Z" fill="#41FF98"/>
<path d="M140.695 286.026C134.134 283.998 127.158 283.756 120.474 285.323C125.154 290.377 128.431 296.583 129.976 303.317C131.521 310.051 131.279 317.076 129.274 323.687C127.27 330.297 123.574 336.259 118.557 340.973C113.54 345.688 107.38 348.988 100.696 350.543C104.785 354.961 109.828 358.371 115.434 360.51C121.041 362.65 127.06 363.461 133.028 362.881C138.995 362.301 144.75 360.346 149.848 357.167C154.945 353.988 159.248 349.67 162.424 344.547C165.6 339.424 167.564 333.633 168.164 327.623C168.763 321.613 167.982 315.545 165.882 309.888C163.781 304.23 160.417 299.136 156.05 294.998C151.682 290.86 146.428 287.79 140.695 286.026V286.026Z" fill="#3F3D56"/>
<path d="M125.952 322.664C131.413 304.654 127.473 287.478 117.151 284.3C106.829 281.123 94.0343 293.147 88.5729 311.157C83.1114 329.167 87.0516 346.343 97.3735 349.521C107.695 352.698 120.49 340.674 125.952 322.664Z" fill="#D0CDE1"/>
<path d="M350.036 306.825C354.616 306.825 358.329 303.084 358.329 298.469C358.329 293.854 354.616 290.113 350.036 290.113C345.455 290.113 341.742 293.854 341.742 298.469C341.742 303.084 345.455 306.825 350.036 306.825Z" fill="#41FF98"/>
<path d="M327.459 341.179C332.04 341.179 335.753 337.437 335.753 332.822C335.753 328.207 332.04 324.466 327.459 324.466C322.879 324.466 319.166 328.207 319.166 332.822C319.166 337.437 322.879 341.179 327.459 341.179Z" fill="#41FF98"/>
<path d="M155.63 438.503H4.00732V505.982H155.63V438.503Z" fill="#F2F2F2"/>
<path d="M155.905 433.968H11.5391V446.874H155.905V433.968Z" fill="#41FF98"/>
<path d="M146.731 438.677H20.7134V442.165H146.731V438.677Z" fill="#3F3D56"/>
<path d="M83.549 445.13C86.2258 445.13 88.3958 442.944 88.3958 440.247C88.3958 437.55 86.2258 435.364 83.549 435.364C80.8721 435.364 78.7021 437.55 78.7021 440.247C78.7021 442.944 80.8721 445.13 83.549 445.13Z" fill="#3F3D56"/>
<path d="M121.285 456.99H45.813V493.267H121.285V456.99Z" fill="#41FF98"/>
<path opacity="0.15" d="M83.549 482.105C87.3731 482.105 90.473 478.981 90.473 475.128C90.473 471.275 87.3731 468.152 83.549 468.152C79.725 468.152 76.625 471.275 76.625 475.128C76.625 478.981 79.725 482.105 83.549 482.105Z" fill="black"/>
<path opacity="0.3" d="M107.783 482.105C111.607 482.105 114.707 478.981 114.707 475.128C114.707 471.275 111.607 468.152 107.783 468.152C103.959 468.152 100.859 471.275 100.859 475.128C100.859 478.981 103.959 482.105 107.783 482.105Z" fill="white"/>
<path opacity="0.3" d="M59.3151 482.105C63.1392 482.105 66.2392 478.981 66.2392 475.128C66.2392 471.275 63.1392 468.152 59.3151 468.152C55.4911 468.152 52.3911 471.275 52.3911 475.128C52.3911 478.981 55.4911 482.105 59.3151 482.105Z" fill="black"/>
<g clip-path="url(#clip0)">
<path d="M330.36 -0.000156086C319.383 -0.0225867 308.508 2.48622 298.334 7.38738C297.925 7.58705 297.514 7.78768 297.103 7.99285C281.642 15.7526 268.451 28.7672 259.182 45.4055C249.914 62.0438 244.98 81.5658 245 101.525V212.307C245.001 213.477 245.392 214.598 246.088 215.426C246.784 216.253 247.727 216.718 248.71 216.719L248.784 216.727C320.295 232.173 389.815 240 455.472 240C456.456 240 457.44 239.998 458.422 239.995C522.961 239.761 585.803 231.934 645.203 216.73L645.29 216.719C646.274 216.718 647.217 216.253 647.912 215.426C648.608 214.598 648.999 213.477 649 212.307V4.41272C648.999 3.24276 648.608 2.1211 647.912 1.29381C647.217 0.46653 646.274 0.00119106 645.29 -0.000126159L330.36 -0.000156086Z" fill="#41FF98"/>
<path d="M552.452 88.3513C551.809 88.3639 551.196 88.6766 550.745 89.2219C550.294 89.7673 550.041 90.5017 550.041 91.2667C550.041 92.0317 550.294 92.7661 550.745 93.3115C551.196 93.8569 551.809 94.1696 552.452 94.1821H613.912C614.234 94.1889 614.554 94.12 614.854 93.9795C615.154 93.839 615.427 93.6296 615.659 93.3633C615.89 93.097 616.076 92.7789 616.204 92.4274C616.332 92.0759 616.401 91.6978 616.406 91.3146C616.412 90.9315 616.353 90.5509 616.235 90.1946C616.116 89.8382 615.94 89.5132 615.716 89.2379C615.492 88.9627 615.224 88.7428 614.928 88.5906C614.633 88.4385 614.315 88.3572 613.993 88.3513C613.966 88.3508 613.939 88.3508 613.912 88.3513H552.452Z" fill="#3F3D56"/>
<path d="M627.85 87.5395C627.805 87.5928 627.769 87.656 627.745 87.7256C627.721 87.7952 627.708 87.8698 627.708 87.9452C627.708 88.0205 627.721 88.0951 627.745 88.1647C627.769 88.2343 627.805 88.2976 627.85 88.3508L629.92 90.8136H624.814C624.686 90.8136 624.564 90.8741 624.473 90.9817C624.383 91.0892 624.332 91.2352 624.332 91.3873C624.332 91.5395 624.383 91.6854 624.473 91.793C624.564 91.9006 624.686 91.961 624.814 91.961H629.92L627.85 94.4238C627.805 94.4771 627.769 94.5403 627.745 94.6099C627.721 94.6795 627.708 94.7541 627.708 94.8295C627.708 94.9048 627.721 94.9794 627.745 95.049C627.769 95.1186 627.805 95.1819 627.85 95.2351C627.895 95.2884 627.948 95.3307 628.006 95.3595C628.065 95.3884 628.127 95.4032 628.191 95.4032C628.254 95.4032 628.317 95.3884 628.375 95.3595C628.434 95.3307 628.487 95.2884 628.532 95.2352L631.426 91.793C631.516 91.6854 631.567 91.5395 631.567 91.3873C631.567 91.2352 631.516 91.0893 631.426 90.9817L628.532 87.5395C628.487 87.4862 628.434 87.444 628.375 87.4151C628.317 87.3863 628.254 87.3715 628.191 87.3715C628.127 87.3715 628.065 87.3863 628.006 87.4151C627.948 87.444 627.895 87.4862 627.85 87.5395Z" fill="white"/>
<path d="M538.488 87.5395C538.533 87.5928 538.569 87.656 538.593 87.7256C538.617 87.7952 538.63 87.8698 538.63 87.9452C538.63 88.0205 538.617 88.0951 538.593 88.1647C538.569 88.2343 538.533 88.2976 538.488 88.3508L536.418 90.8136H541.524C541.587 90.8134 541.65 90.8281 541.709 90.8568C541.768 90.8856 541.821 90.9278 541.866 90.9811C541.911 91.0344 541.946 91.0977 541.971 91.1674C541.995 91.2371 542.008 91.3118 542.008 91.3873C542.008 91.4628 541.995 91.5375 541.971 91.6073C541.946 91.677 541.911 91.7403 541.866 91.7936C541.821 91.8469 541.768 91.8891 541.709 91.9178C541.65 91.9466 541.587 91.9613 541.524 91.961H536.418L538.488 94.4238C538.579 94.5314 538.63 94.6773 538.63 94.8295C538.63 94.9816 538.579 95.1276 538.488 95.2351C538.398 95.3427 538.275 95.4032 538.147 95.4032C538.019 95.4032 537.897 95.3427 537.806 95.2352L534.912 91.793C534.822 91.6854 534.771 91.5395 534.771 91.3873C534.771 91.2352 534.822 91.0893 534.912 90.9817L537.806 87.5395C537.851 87.4862 537.904 87.444 537.963 87.4151C538.021 87.3863 538.084 87.3715 538.147 87.3715C538.211 87.3715 538.273 87.3863 538.332 87.4151C538.391 87.444 538.444 87.4862 538.488 87.5395V87.5395Z" fill="white"/>
<g opacity="0.4">
<path opacity="0.4" d="M554.934 27.84C556.389 27.84 557.568 26.4373 557.568 24.707C557.568 22.9766 556.389 21.5739 554.934 21.5739C553.479 21.5739 552.3 22.9766 552.3 24.707C552.3 26.4373 553.479 27.84 554.934 27.84Z" fill="white"/>
<path opacity="0.4" d="M565.91 27.84C567.365 27.84 568.544 26.4373 568.544 24.707C568.544 22.9766 567.365 21.5739 565.91 21.5739C564.455 21.5739 563.276 22.9766 563.276 24.707C563.276 26.4373 564.455 27.84 565.91 27.84Z" fill="white"/>
<path opacity="0.4" d="M576.886 27.84C578.34 27.84 579.52 26.4373 579.52 24.707C579.52 22.9766 578.34 21.5739 576.886 21.5739C575.431 21.5739 574.251 22.9766 574.251 24.707C574.251 26.4373 575.431 27.84 576.886 27.84Z" fill="white"/>
<path opacity="0.4" d="M587.862 27.84C589.317 27.84 590.496 26.4373 590.496 24.707C590.496 22.9766 589.317 21.5739 587.862 21.5739C586.407 21.5739 585.228 22.9766 585.228 24.707C585.228 26.4373 586.407 27.84 587.862 27.84Z" fill="white"/>
<path opacity="0.4" d="M598.837 27.84C600.292 27.84 601.472 26.4373 601.472 24.707C601.472 22.9766 600.292 21.5739 598.837 21.5739C597.383 21.5739 596.203 22.9766 596.203 24.707C596.203 26.4373 597.383 27.84 598.837 27.84Z" fill="white"/>
<path opacity="0.4" d="M609.813 27.84C611.268 27.84 612.448 26.4373 612.448 24.707C612.448 22.9766 611.268 21.5739 609.813 21.5739C608.359 21.5739 607.179 22.9766 607.179 24.707C607.179 26.4373 608.359 27.84 609.813 27.84Z" fill="white"/>
<path opacity="0.4" d="M620.789 27.84C622.244 27.84 623.423 26.4373 623.423 24.707C623.423 22.9766 622.244 21.5739 620.789 21.5739C619.334 21.5739 618.155 22.9766 618.155 24.707C618.155 26.4373 619.334 27.84 620.789 27.84Z" fill="white"/>
<path opacity="0.4" d="M554.934 37.7614C556.389 37.7614 557.568 36.3587 557.568 34.6284C557.568 32.898 556.389 31.4953 554.934 31.4953C553.479 31.4953 552.3 32.898 552.3 34.6284C552.3 36.3587 553.479 37.7614 554.934 37.7614Z" fill="white"/>
<path opacity="0.4" d="M565.91 37.7614C567.365 37.7614 568.544 36.3587 568.544 34.6284C568.544 32.898 567.365 31.4953 565.91 31.4953C564.455 31.4953 563.276 32.898 563.276 34.6284C563.276 36.3587 564.455 37.7614 565.91 37.7614Z" fill="white"/>
<path opacity="0.4" d="M576.886 37.7614C578.34 37.7614 579.52 36.3587 579.52 34.6284C579.52 32.898 578.34 31.4953 576.886 31.4953C575.431 31.4953 574.251 32.898 574.251 34.6284C574.251 36.3587 575.431 37.7614 576.886 37.7614Z" fill="white"/>
<path opacity="0.4" d="M587.862 37.7614C589.317 37.7614 590.496 36.3587 590.496 34.6284C590.496 32.898 589.317 31.4953 587.862 31.4953C586.407 31.4953 585.228 32.898 585.228 34.6284C585.228 36.3587 586.407 37.7614 587.862 37.7614Z" fill="white"/>
<path opacity="0.4" d="M598.837 37.7614C600.292 37.7614 601.472 36.3587 601.472 34.6284C601.472 32.898 600.292 31.4953 598.837 31.4953C597.383 31.4953 596.203 32.898 596.203 34.6284C596.203 36.3587 597.383 37.7614 598.837 37.7614Z" fill="white"/>
<path opacity="0.4" d="M609.813 37.7614C611.268 37.7614 612.448 36.3587 612.448 34.6284C612.448 32.898 611.268 31.4953 609.813 31.4953C608.359 31.4953 607.179 32.898 607.179 34.6284C607.179 36.3587 608.359 37.7614 609.813 37.7614Z" fill="white"/>
<path opacity="0.4" d="M620.789 37.7614C622.244 37.7614 623.423 36.3587 623.423 34.6284C623.423 32.898 622.244 31.4953 620.789 31.4953C619.334 31.4953 618.155 32.898 618.155 34.6284C618.155 36.3587 619.334 37.7614 620.789 37.7614Z" fill="white"/>
<path opacity="0.4" d="M554.934 47.6828C556.389 47.6828 557.568 46.2801 557.568 44.5498C557.568 42.8194 556.389 41.4167 554.934 41.4167C553.479 41.4167 552.3 42.8194 552.3 44.5498C552.3 46.2801 553.479 47.6828 554.934 47.6828Z" fill="white"/>
<path opacity="0.4" d="M565.91 47.6828C567.365 47.6828 568.544 46.2801 568.544 44.5498C568.544 42.8194 567.365 41.4167 565.91 41.4167C564.455 41.4167 563.276 42.8194 563.276 44.5498C563.276 46.2801 564.455 47.6828 565.91 47.6828Z" fill="white"/>
<path opacity="0.4" d="M576.886 47.6828C578.34 47.6828 579.52 46.2801 579.52 44.5498C579.52 42.8194 578.34 41.4167 576.886 41.4167C575.431 41.4167 574.251 42.8194 574.251 44.5498C574.251 46.2801 575.431 47.6828 576.886 47.6828Z" fill="white"/>
<path opacity="0.4" d="M587.862 47.6828C589.317 47.6828 590.496 46.2801 590.496 44.5498C590.496 42.8194 589.317 41.4167 587.862 41.4167C586.407 41.4167 585.228 42.8194 585.228 44.5498C585.228 46.2801 586.407 47.6828 587.862 47.6828Z" fill="white"/>
<path opacity="0.4" d="M598.837 47.6828C600.292 47.6828 601.472 46.2801 601.472 44.5498C601.472 42.8194 600.292 41.4167 598.837 41.4167C597.383 41.4167 596.203 42.8194 596.203 44.5498C596.203 46.2801 597.383 47.6828 598.837 47.6828Z" fill="white"/>
<path opacity="0.4" d="M609.813 47.6828C611.268 47.6828 612.448 46.2801 612.448 44.5498C612.448 42.8194 611.268 41.4167 609.813 41.4167C608.359 41.4167 607.179 42.8194 607.179 44.5498C607.179 46.2801 608.359 47.6828 609.813 47.6828Z" fill="white"/>
<path opacity="0.4" d="M620.789 47.6828C622.244 47.6828 623.423 46.2801 623.423 44.5498C623.423 42.8194 622.244 41.4167 620.789 41.4167C619.334 41.4167 618.155 42.8194 618.155 44.5498C618.155 46.2801 619.334 47.6828 620.789 47.6828Z" fill="white"/>
<path opacity="0.4" d="M554.934 57.6042C556.389 57.6042 557.568 56.2015 557.568 54.4711C557.568 52.7408 556.389 51.3381 554.934 51.3381C553.479 51.3381 552.3 52.7408 552.3 54.4711C552.3 56.2015 553.479 57.6042 554.934 57.6042Z" fill="white"/>
<path opacity="0.4" d="M565.91 57.6042C567.365 57.6042 568.544 56.2015 568.544 54.4711C568.544 52.7408 567.365 51.3381 565.91 51.3381C564.455 51.3381 563.276 52.7408 563.276 54.4711C563.276 56.2015 564.455 57.6042 565.91 57.6042Z" fill="white"/>
<path opacity="0.4" d="M554.934 67.5256C556.389 67.5256 557.568 66.1229 557.568 64.3925C557.568 62.6622 556.389 61.2595 554.934 61.2595C553.479 61.2595 552.3 62.6622 552.3 64.3925C552.3 66.1229 553.479 67.5256 554.934 67.5256Z" fill="white"/>
<path opacity="0.4" d="M565.91 67.5256C567.365 67.5256 568.544 66.1229 568.544 64.3925C568.544 62.6622 567.365 61.2595 565.91 61.2595C564.455 61.2595 563.276 62.6622 563.276 64.3925C563.276 66.1229 564.455 67.5256 565.91 67.5256Z" fill="white"/>
<path opacity="0.4" d="M576.886 67.5256C578.34 67.5256 579.52 66.1229 579.52 64.3925C579.52 62.6622 578.34 61.2595 576.886 61.2595C575.431 61.2595 574.251 62.6622 574.251 64.3925C574.251 66.1229 575.431 67.5256 576.886 67.5256Z" fill="white"/>
<path opacity="0.4" d="M576.886 57.6042C578.34 57.6042 579.52 56.2015 579.52 54.4711C579.52 52.7408 578.34 51.3381 576.886 51.3381C575.431 51.3381 574.251 52.7408 574.251 54.4711C574.251 56.2015 575.431 57.6042 576.886 57.6042Z" fill="white"/>
<path opacity="0.4" d="M587.862 57.6042C589.317 57.6042 590.496 56.2015 590.496 54.4711C590.496 52.7408 589.317 51.3381 587.862 51.3381C586.407 51.3381 585.228 52.7408 585.228 54.4711C585.228 56.2015 586.407 57.6042 587.862 57.6042Z" fill="white"/>
<path opacity="0.4" d="M598.837 57.6042C600.292 57.6042 601.472 56.2015 601.472 54.4711C601.472 52.7408 600.292 51.3381 598.837 51.3381C597.383 51.3381 596.203 52.7408 596.203 54.4711C596.203 56.2015 597.383 57.6042 598.837 57.6042Z" fill="white"/>
<path opacity="0.4" d="M609.813 57.6042C611.268 57.6042 612.448 56.2015 612.448 54.4711C612.448 52.7408 611.268 51.3381 609.813 51.3381C608.359 51.3381 607.179 52.7408 607.179 54.4711C607.179 56.2015 608.359 57.6042 609.813 57.6042Z" fill="white"/>
<path opacity="0.4" d="M620.789 57.6042C622.244 57.6042 623.423 56.2015 623.423 54.4711C623.423 52.7408 622.244 51.3381 620.789 51.3381C619.334 51.3381 618.155 52.7408 618.155 54.4711C618.155 56.2015 619.334 57.6042 620.789 57.6042Z" fill="white"/>
</g>
<path d="M517.146 184.093C514.27 184.093 511.459 183.079 509.068 181.179C506.677 179.278 504.813 176.577 503.712 173.417C502.612 170.257 502.324 166.78 502.885 163.425C503.446 160.07 504.831 156.988 506.864 154.57C508.898 152.151 511.489 150.504 514.31 149.836C517.13 149.169 520.054 149.512 522.711 150.821C525.368 152.13 527.639 154.346 529.237 157.19C530.834 160.035 531.687 163.378 531.687 166.799C531.683 171.384 530.15 175.78 527.424 179.022C524.698 182.264 521.002 184.088 517.146 184.093V184.093ZM517.146 150.485C514.434 150.485 511.782 151.442 509.526 153.234C507.27 155.027 505.512 157.575 504.474 160.556C503.436 163.537 503.164 166.817 503.694 169.982C504.223 173.146 505.529 176.053 507.447 178.335C509.366 180.616 511.81 182.17 514.47 182.799C517.131 183.429 519.889 183.106 522.395 181.871C524.902 180.636 527.044 178.545 528.551 175.862C530.058 173.18 530.863 170.025 530.863 166.799C530.859 162.474 529.412 158.327 526.841 155.268C524.269 152.21 520.783 150.49 517.146 150.485V150.485Z" fill="#3F3D56"/>
<path d="M522.721 165.141H518.54V160.168C518.54 159.729 518.393 159.307 518.132 158.996C517.87 158.685 517.516 158.51 517.146 158.51C516.777 158.51 516.422 158.685 516.161 158.996C515.899 159.307 515.753 159.729 515.753 160.168V165.141H511.571C511.202 165.141 510.847 165.316 510.586 165.627C510.325 165.937 510.178 166.359 510.178 166.799C510.178 167.238 510.325 167.66 510.586 167.971C510.847 168.282 511.202 168.456 511.571 168.456H515.753V173.429C515.753 173.869 515.899 174.291 516.161 174.601C516.422 174.912 516.777 175.087 517.146 175.087C517.516 175.087 517.87 174.912 518.132 174.601C518.393 174.291 518.54 173.869 518.54 173.429V168.456H522.721C523.091 168.456 523.445 168.282 523.707 167.971C523.968 167.66 524.115 167.238 524.115 166.799C524.115 166.359 523.968 165.937 523.707 165.627C523.445 165.316 523.091 165.141 522.721 165.141V165.141Z" fill="white"/>
<g opacity="0.4">
<path opacity="0.4" d="M267.271 186.217C268.415 186.217 269.342 185.114 269.342 183.753C269.342 182.393 268.415 181.29 267.271 181.29C266.127 181.29 265.2 182.393 265.2 183.753C265.2 185.114 266.127 186.217 267.271 186.217Z" fill="white"/>
<path opacity="0.4" d="M267.271 175.953C268.415 175.953 269.342 174.85 269.342 173.49C269.342 172.129 268.415 171.026 267.271 171.026C266.127 171.026 265.2 172.129 265.2 173.49C265.2 174.85 266.127 175.953 267.271 175.953Z" fill="white"/>
<path opacity="0.4" d="M267.271 165.689C268.415 165.689 269.342 164.586 269.342 163.226C269.342 161.866 268.415 160.763 267.271 160.763C266.127 160.763 265.2 161.866 265.2 163.226C265.2 164.586 266.127 165.689 267.271 165.689Z" fill="white"/>
<path opacity="0.4" d="M267.271 155.426C268.415 155.426 269.342 154.323 269.342 152.962C269.342 151.602 268.415 150.499 267.271 150.499C266.127 150.499 265.2 151.602 265.2 152.962C265.2 154.323 266.127 155.426 267.271 155.426Z" fill="white"/>
<path opacity="0.4" d="M267.271 145.162C268.415 145.162 269.342 144.059 269.342 142.698C269.342 141.338 268.415 140.235 267.271 140.235C266.127 140.235 265.2 141.338 265.2 142.698C265.2 144.059 266.127 145.162 267.271 145.162Z" fill="white"/>
<path opacity="0.4" d="M267.271 134.898C268.415 134.898 269.342 133.795 269.342 132.435C269.342 131.074 268.415 129.971 267.271 129.971C266.127 129.971 265.2 131.074 265.2 132.435C265.2 133.795 266.127 134.898 267.271 134.898Z" fill="white"/>
<path opacity="0.4" d="M267.271 124.634C268.415 124.634 269.342 123.531 269.342 122.171C269.342 120.81 268.415 119.708 267.271 119.708C266.127 119.708 265.2 120.81 265.2 122.171C265.2 123.531 266.127 124.634 267.271 124.634Z" fill="white"/>
<path opacity="0.4" d="M273.829 186.217C274.973 186.217 275.9 185.114 275.9 183.753C275.9 182.393 274.973 181.29 273.829 181.29C272.686 181.29 271.758 182.393 271.758 183.753C271.758 185.114 272.686 186.217 273.829 186.217Z" fill="white"/>
<path opacity="0.4" d="M273.829 175.953C274.973 175.953 275.9 174.85 275.9 173.49C275.9 172.129 274.973 171.026 273.829 171.026C272.686 171.026 271.758 172.129 271.758 173.49C271.758 174.85 272.686 175.953 273.829 175.953Z" fill="white"/>
<path opacity="0.4" d="M273.829 165.689C274.973 165.689 275.9 164.586 275.9 163.226C275.9 161.866 274.973 160.763 273.829 160.763C272.686 160.763 271.758 161.866 271.758 163.226C271.758 164.586 272.686 165.689 273.829 165.689Z" fill="white"/>
<path opacity="0.4" d="M273.829 155.426C274.973 155.426 275.9 154.323 275.9 152.962C275.9 151.602 274.973 150.499 273.829 150.499C272.686 150.499 271.758 151.602 271.758 152.962C271.758 154.323 272.686 155.426 273.829 155.426Z" fill="white"/>
<path opacity="0.4" d="M273.829 145.162C274.973 145.162 275.9 144.059 275.9 142.698C275.9 141.338 274.973 140.235 273.829 140.235C272.686 140.235 271.758 141.338 271.758 142.698C271.758 144.059 272.686 145.162 273.829 145.162Z" fill="white"/>
<path opacity="0.4" d="M273.829 134.898C274.973 134.898 275.9 133.795 275.9 132.435C275.9 131.074 274.973 129.971 273.829 129.971C272.686 129.971 271.758 131.074 271.758 132.435C271.758 133.795 272.686 134.898 273.829 134.898Z" fill="white"/>
<path opacity="0.4" d="M273.829 124.634C274.973 124.634 275.9 123.531 275.9 122.171C275.9 120.81 274.973 119.708 273.829 119.708C272.686 119.708 271.758 120.81 271.758 122.171C271.758 123.531 272.686 124.634 273.829 124.634Z" fill="white"/>
<path opacity="0.4" d="M280.388 186.217C281.532 186.217 282.459 185.114 282.459 183.753C282.459 182.393 281.532 181.29 280.388 181.29C279.244 181.29 278.317 182.393 278.317 183.753C278.317 185.114 279.244 186.217 280.388 186.217Z" fill="white"/>
<path opacity="0.4" d="M280.388 175.953C281.532 175.953 282.459 174.85 282.459 173.49C282.459 172.129 281.532 171.026 280.388 171.026C279.244 171.026 278.317 172.129 278.317 173.49C278.317 174.85 279.244 175.953 280.388 175.953Z" fill="white"/>
<path opacity="0.4" d="M280.388 165.689C281.532 165.689 282.459 164.586 282.459 163.226C282.459 161.866 281.532 160.763 280.388 160.763C279.244 160.763 278.317 161.866 278.317 163.226C278.317 164.586 279.244 165.689 280.388 165.689Z" fill="white"/>
<path opacity="0.4" d="M280.388 155.426C281.532 155.426 282.459 154.323 282.459 152.962C282.459 151.602 281.532 150.499 280.388 150.499C279.244 150.499 278.317 151.602 278.317 152.962C278.317 154.323 279.244 155.426 280.388 155.426Z" fill="white"/>
<path opacity="0.4" d="M280.388 145.162C281.532 145.162 282.459 144.059 282.459 142.698C282.459 141.338 281.532 140.235 280.388 140.235C279.244 140.235 278.317 141.338 278.317 142.698C278.317 144.059 279.244 145.162 280.388 145.162Z" fill="white"/>
<path opacity="0.4" d="M280.388 134.898C281.532 134.898 282.459 133.795 282.459 132.435C282.459 131.074 281.532 129.971 280.388 129.971C279.244 129.971 278.317 131.074 278.317 132.435C278.317 133.795 279.244 134.898 280.388 134.898Z" fill="white"/>
<path opacity="0.4" d="M280.388 124.634C281.532 124.634 282.459 123.531 282.459 122.171C282.459 120.81 281.532 119.708 280.388 119.708C279.244 119.708 278.317 120.81 278.317 122.171C278.317 123.531 279.244 124.634 280.388 124.634Z" fill="white"/>
<path opacity="0.4" d="M286.947 186.217C288.09 186.217 289.018 185.114 289.018 183.753C289.018 182.393 288.09 181.29 286.947 181.29C285.803 181.29 284.875 182.393 284.875 183.753C284.875 185.114 285.803 186.217 286.947 186.217Z" fill="white"/>
<path opacity="0.4" d="M286.947 175.953C288.09 175.953 289.018 174.85 289.018 173.49C289.018 172.129 288.09 171.026 286.947 171.026C285.803 171.026 284.875 172.129 284.875 173.49C284.875 174.85 285.803 175.953 286.947 175.953Z" fill="white"/>
<path opacity="0.4" d="M293.505 186.217C294.649 186.217 295.576 185.114 295.576 183.753C295.576 182.393 294.649 181.29 293.505 181.29C292.361 181.29 291.434 182.393 291.434 183.753C291.434 185.114 292.361 186.217 293.505 186.217Z" fill="white"/>
<path opacity="0.4" d="M293.505 175.953C294.649 175.953 295.576 174.85 295.576 173.49C295.576 172.129 294.649 171.026 293.505 171.026C292.361 171.026 291.434 172.129 291.434 173.49C291.434 174.85 292.361 175.953 293.505 175.953Z" fill="white"/>
<path opacity="0.4" d="M293.505 165.689C294.649 165.689 295.576 164.586 295.576 163.226C295.576 161.866 294.649 160.763 293.505 160.763C292.361 160.763 291.434 161.866 291.434 163.226C291.434 164.586 292.361 165.689 293.505 165.689Z" fill="white"/>
<path opacity="0.4" d="M286.947 165.689C288.09 165.689 289.018 164.586 289.018 163.226C289.018 161.866 288.09 160.763 286.947 160.763C285.803 160.763 284.875 161.866 284.875 163.226C284.875 164.586 285.803 165.689 286.947 165.689Z" fill="white"/>
<path opacity="0.4" d="M286.947 155.426C288.09 155.426 289.018 154.323 289.018 152.962C289.018 151.602 288.09 150.499 286.947 150.499C285.803 150.499 284.875 151.602 284.875 152.962C284.875 154.323 285.803 155.426 286.947 155.426Z" fill="white"/>
<path opacity="0.4" d="M286.947 145.162C288.09 145.162 289.018 144.059 289.018 142.698C289.018 141.338 288.09 140.235 286.947 140.235C285.803 140.235 284.875 141.338 284.875 142.698C284.875 144.059 285.803 145.162 286.947 145.162Z" fill="white"/>
<path opacity="0.4" d="M286.947 134.898C288.09 134.898 289.018 133.795 289.018 132.435C289.018 131.074 288.09 129.971 286.947 129.971C285.803 129.971 284.875 131.074 284.875 132.435C284.875 133.795 285.803 134.898 286.947 134.898Z" fill="white"/>
<path opacity="0.4" d="M286.947 124.634C288.09 124.634 289.018 123.531 289.018 122.171C289.018 120.81 288.09 119.708 286.947 119.708C285.803 119.708 284.875 120.81 284.875 122.171C284.875 123.531 285.803 124.634 286.947 124.634Z" fill="white"/>
</g>
<path d="M450.054 16.1815H312.471C311.795 16.1823 311.147 16.502 310.669 17.0703C310.191 17.6386 309.923 18.4091 309.922 19.2128V159.141C309.923 159.944 310.191 160.715 310.669 161.283C311.147 161.852 311.795 162.171 312.471 162.172H450.054C450.73 162.171 451.378 161.852 451.855 161.283C452.333 160.715 452.602 159.944 452.603 159.141V19.2128C452.602 18.4091 452.333 17.6386 451.855 17.0703C451.378 16.502 450.73 16.1823 450.054 16.1815ZM451.581 159.141C451.581 159.623 451.42 160.085 451.134 160.427C450.848 160.768 450.459 160.961 450.054 160.963H312.471C312.065 160.962 311.676 160.77 311.39 160.428C311.103 160.086 310.943 159.623 310.943 159.141V19.2128C310.943 18.7303 311.103 18.2673 311.39 17.9255C311.676 17.5838 312.065 17.3914 312.471 17.3906H450.054C450.459 17.3924 450.848 17.5851 451.134 17.9266C451.42 18.2681 451.581 18.7306 451.581 19.2128V159.141Z" fill="#3F3D56"/>
<path d="M344.228 137.291C344.228 137.507 344.224 137.723 344.214 137.933C344.075 141.091 342.923 144.065 340.994 146.242C339.066 148.419 336.509 149.632 333.85 149.632C331.191 149.632 328.634 148.419 326.706 146.242C324.777 144.065 323.625 141.091 323.486 137.933C323.476 137.723 323.472 137.507 323.472 137.291C323.471 135.67 323.739 134.064 324.26 132.565C324.781 131.067 325.545 129.705 326.509 128.558C327.473 127.411 328.617 126.501 329.877 125.88C331.136 125.259 332.487 124.94 333.85 124.94C335.213 124.94 336.564 125.259 337.823 125.88C339.083 126.501 340.227 127.411 341.191 128.558C342.155 129.705 342.919 131.067 343.44 132.565C343.961 134.064 344.229 135.67 344.228 137.291Z" fill="white"/>
<path d="M439.363 129.06H357.816C357.358 129.061 356.919 129.278 356.595 129.664C356.271 130.05 356.089 130.573 356.089 131.118C356.089 131.663 356.271 132.186 356.595 132.572C356.919 132.958 357.358 133.175 357.816 133.176H439.363C439.822 133.175 440.261 132.958 440.585 132.572C440.909 132.186 441.091 131.663 441.091 131.118C441.091 130.573 440.909 130.05 440.585 129.664C440.261 129.278 439.822 129.061 439.363 129.06V129.06Z" fill="#3F3D56"/>
<path d="M392.906 141.407H357.817C357.358 141.407 356.919 141.623 356.595 142.009C356.271 142.394 356.089 142.917 356.089 143.462C356.089 144.007 356.271 144.53 356.595 144.915C356.919 145.3 357.358 145.517 357.817 145.517H392.906C393.364 145.517 393.803 145.3 394.127 144.915C394.451 144.53 394.633 144.007 394.633 143.462C394.633 142.917 394.451 142.394 394.127 142.009C393.803 141.623 393.364 141.407 392.906 141.407Z" fill="white"/>
<path d="M482.741 114.528H345.158C344.224 114.527 343.328 114.085 342.667 113.299C342.006 112.513 341.635 111.448 341.634 110.336V38.5238C341.635 37.4124 342.006 36.347 342.667 35.5611C343.328 34.7753 344.224 34.3332 345.158 34.3319H482.741C483.675 34.3332 484.571 34.7753 485.232 35.5611C485.892 36.347 486.264 37.4124 486.265 38.5238V110.336C486.264 111.448 485.892 112.513 485.232 113.299C484.571 114.085 483.675 114.527 482.741 114.528V114.528ZM345.158 35.8029C344.552 35.8037 343.97 36.0906 343.541 36.6007C343.112 37.1108 342.871 37.8024 342.871 38.5238V110.336C342.871 111.058 343.112 111.749 343.541 112.259C343.97 112.77 344.551 113.057 345.158 113.058H482.741C483.347 113.057 483.929 112.77 484.358 112.259C484.786 111.749 485.028 111.058 485.028 110.336V38.5238C485.028 37.8024 484.786 37.1108 484.358 36.6007C483.929 36.0906 483.347 35.8037 482.741 35.8029H345.158Z" fill="white"/>
<path d="M373.177 60.5243C372.718 60.5243 372.278 60.741 371.954 61.1269C371.63 61.5127 371.447 62.036 371.447 62.5816C371.447 63.1272 371.63 63.6505 371.954 64.0364C372.278 64.4222 372.718 64.6389 373.177 64.6389H454.722C455.181 64.6389 455.621 64.4222 455.945 64.0364C456.27 63.6505 456.452 63.1272 456.452 62.5816C456.452 62.036 456.27 61.5127 455.945 61.1269C455.621 60.741 455.181 60.5243 454.722 60.5243H373.177Z" fill="white"/>
<path d="M373.177 72.4451C372.718 72.4451 372.278 72.6619 371.954 73.0477C371.63 73.4335 371.447 73.9568 371.447 74.5025C371.447 75.0481 371.63 75.5714 371.954 75.9572C372.278 76.343 372.718 76.5598 373.177 76.5598H454.722C455.18 76.5589 455.62 76.3418 455.943 75.9561C456.267 75.5703 456.449 75.0475 456.449 74.5025C456.449 73.9574 456.267 73.4346 455.943 73.0488C455.62 72.6631 455.18 72.446 454.722 72.4451H373.177Z" fill="white"/>
<path d="M373.177 84.2214C372.718 84.2214 372.278 84.4382 371.954 84.824C371.63 85.2098 371.447 85.7331 371.447 86.2788C371.447 86.8244 371.63 87.3477 371.954 87.7335C372.278 88.1193 372.718 88.3361 373.177 88.3361H408.266C408.724 88.3352 409.164 88.1181 409.488 87.7324C409.811 87.3467 409.993 86.8238 409.993 86.2788C409.993 85.7337 409.811 85.2109 409.488 84.8251C409.164 84.4394 408.724 84.2223 408.266 84.2214H373.177Z" fill="white"/>
<path d="M505.425 144.953L491.606 121.758L496.08 122.867C496.159 122.886 496.241 122.887 496.321 122.869C496.401 122.851 496.477 122.815 496.545 122.762C496.613 122.709 496.671 122.64 496.717 122.56C496.763 122.481 496.795 122.391 496.812 122.296C496.828 122.201 496.829 122.104 496.814 122.009C496.799 121.914 496.768 121.823 496.723 121.743C496.679 121.662 496.621 121.592 496.554 121.538C496.487 121.483 496.411 121.445 496.332 121.425L489.666 119.775L488.766 127.802C488.755 127.898 488.76 127.995 488.781 128.089C488.802 128.182 488.838 128.27 488.887 128.347C488.936 128.424 488.998 128.489 489.068 128.538C489.139 128.586 489.217 128.618 489.297 128.631C489.378 128.643 489.46 128.637 489.539 128.612C489.617 128.587 489.691 128.544 489.756 128.485C489.82 128.426 489.875 128.352 489.915 128.269C489.956 128.185 489.982 128.092 489.993 127.996L490.596 122.606L504.416 145.804C504.463 145.883 504.522 145.95 504.591 146.001C504.66 146.053 504.736 146.087 504.816 146.104C504.896 146.12 504.978 146.117 505.057 146.096C505.137 146.074 505.211 146.034 505.278 145.979C505.344 145.923 505.4 145.852 505.443 145.77C505.487 145.688 505.516 145.597 505.53 145.502C505.543 145.407 505.541 145.31 505.523 145.215C505.505 145.121 505.472 145.032 505.425 144.953V144.953Z" fill="white"/>
<path d="M430.373 212.464H332.152C331.67 212.463 331.208 212.235 330.867 211.83C330.526 211.424 330.334 210.874 330.333 210.301V181.322C330.334 180.749 330.526 180.199 330.867 179.793C331.208 179.388 331.67 179.159 332.152 179.159H430.373C430.855 179.159 431.317 179.388 431.658 179.793C431.999 180.199 432.191 180.749 432.192 181.322V210.301C432.191 210.874 431.999 211.424 431.658 211.83C431.317 212.235 430.855 212.463 430.373 212.464V212.464ZM332.152 180.024C331.863 180.025 331.586 180.161 331.381 180.405C331.176 180.648 331.061 180.978 331.061 181.322V210.301C331.061 210.645 331.176 210.975 331.381 211.218C331.586 211.461 331.863 211.598 332.152 211.599H430.373C430.662 211.598 430.939 211.461 431.144 211.218C431.349 210.975 431.464 210.645 431.464 210.301V181.322C431.464 180.978 431.349 180.648 431.144 180.405C430.939 180.161 430.662 180.025 430.373 180.024H332.152Z" fill="#3F3D56"/>
<path d="M347.414 203.512C351.506 203.512 354.823 199.566 354.823 194.699C354.823 189.833 351.506 185.887 347.414 185.887C343.322 185.887 340.004 189.833 340.004 194.699C340.004 199.566 343.322 203.512 347.414 203.512Z" fill="white"/>
<path d="M364.525 188.825C364.363 188.824 364.202 188.862 364.052 188.936C363.902 189.009 363.765 189.117 363.651 189.254C363.536 189.39 363.444 189.552 363.382 189.731C363.32 189.909 363.288 190.1 363.288 190.293C363.288 190.486 363.32 190.678 363.382 190.856C363.444 191.034 363.536 191.196 363.651 191.333C363.765 191.469 363.902 191.577 364.052 191.651C364.202 191.725 364.363 191.762 364.525 191.762H422.74C423.068 191.762 423.382 191.607 423.614 191.332C423.845 191.056 423.975 190.683 423.975 190.293C423.975 189.904 423.845 189.53 423.614 189.255C423.382 188.979 423.068 188.825 422.74 188.825H364.525Z" fill="white"/>
<path d="M364.525 197.637C364.363 197.637 364.202 197.674 364.052 197.748C363.902 197.822 363.765 197.93 363.651 198.066C363.536 198.203 363.444 198.365 363.382 198.543C363.32 198.721 363.288 198.913 363.288 199.106C363.288 199.299 363.32 199.49 363.382 199.668C363.444 199.847 363.536 200.009 363.651 200.145C363.765 200.282 363.902 200.39 364.052 200.463C364.202 200.537 364.363 200.575 364.525 200.574H389.575C389.903 200.574 390.217 200.42 390.449 200.144C390.68 199.869 390.81 199.495 390.81 199.106C390.81 198.716 390.68 198.343 390.449 198.067C390.217 197.792 389.903 197.637 389.575 197.637H364.525Z" fill="white"/>
<path d="M559.965 109.221H603.619C604.101 109.221 604.563 109.45 604.904 109.855C605.245 110.261 605.437 110.811 605.438 111.384V165.457C605.437 166.031 605.245 166.581 604.904 166.986C604.563 167.392 604.101 167.62 603.619 167.621H559.965C559.483 167.62 559.021 167.392 558.68 166.986C558.339 166.581 558.147 166.031 558.146 165.457V111.384C558.147 110.811 558.339 110.261 558.68 109.855C559.021 109.45 559.483 109.221 559.965 109.221V109.221ZM603.619 166.755C603.908 166.755 604.186 166.618 604.39 166.375C604.595 166.131 604.71 165.801 604.71 165.457V111.384C604.71 111.04 604.595 110.71 604.39 110.467C604.186 110.223 603.908 110.086 603.619 110.086H559.965C559.676 110.086 559.399 110.223 559.194 110.467C558.989 110.71 558.874 111.04 558.874 111.384V165.457C558.874 165.801 558.989 166.131 559.194 166.375C559.399 166.618 559.676 166.755 559.965 166.755H603.619Z" fill="#3F3D56"/>
<path d="M594.317 156.47C594.644 156.47 594.958 156.315 595.19 156.04C595.422 155.764 595.552 155.391 595.552 155.001C595.552 154.612 595.422 154.238 595.19 153.963C594.958 153.687 594.644 153.532 594.317 153.532H569.267C568.939 153.532 568.625 153.687 568.393 153.963C568.162 154.238 568.032 154.612 568.032 155.001C568.032 155.391 568.162 155.764 568.393 156.04C568.625 156.315 568.939 156.47 569.267 156.47H594.317Z" fill="white"/>
<path d="M594.317 147.816C594.479 147.817 594.64 147.779 594.79 147.705C594.94 147.632 595.077 147.524 595.192 147.387C595.307 147.251 595.398 147.089 595.46 146.91C595.522 146.732 595.554 146.541 595.554 146.348C595.554 146.155 595.522 145.963 595.46 145.785C595.398 145.607 595.307 145.445 595.192 145.308C595.077 145.172 594.94 145.064 594.79 144.99C594.64 144.916 594.479 144.879 594.317 144.879H569.267C569.105 144.879 568.944 144.916 568.794 144.99C568.644 145.064 568.507 145.172 568.392 145.308C568.277 145.445 568.186 145.607 568.124 145.785C568.062 145.963 568.03 146.155 568.03 146.348C568.03 146.541 568.062 146.732 568.124 146.91C568.186 147.089 568.277 147.251 568.392 147.387C568.507 147.524 568.644 147.632 568.794 147.705C568.944 147.779 569.105 147.817 569.267 147.816H594.317Z" fill="white"/>
<path d="M581.792 120.372C583.329 120.372 584.832 120.914 586.11 121.93C587.389 122.945 588.385 124.389 588.973 126.079C589.561 127.768 589.715 129.627 589.415 131.42C589.116 133.213 588.375 134.861 587.288 136.154C586.201 137.447 584.816 138.327 583.308 138.684C581.801 139.041 580.238 138.857 578.817 138.158C577.397 137.458 576.183 136.273 575.329 134.753C574.475 133.232 574.019 131.445 574.019 129.617C574.021 127.165 574.841 124.816 576.298 123.082C577.755 121.349 579.731 120.374 581.792 120.372Z" fill="white"/>
</g>
<defs>
<clipPath id="clip0">
<rect width="404" height="240" fill="white" transform="translate(245)"/>
</clipPath>
</defs>
</svg>
