<svg  viewBox="0 0 628 658" fill="none" xmlns="http://www.w3.org/2000/svg">
<g clip-path="url(#clip0)" filter="url(#filter0_d)">
<path d="M558.787 0.71571L213.46 91.0955L259.987 254.476L605.314 164.096L558.787 0.71571Z" fill="#F5F5F5"/>
<path d="M560.682 -7.25634e-05L211.003 91.5188L258.669 258.898L608.348 167.379L560.682 -7.25634e-05Z" fill="url(#paint0_linear)"/>
<path d="M563.481 17.2011L218.154 107.581L259.955 254.367L605.282 163.988L563.481 17.2011Z" fill="white"/>
<path d="M224.198 100.64C226.59 100.019 228.004 97.6568 227.356 95.3637C226.708 93.0707 224.244 91.7152 221.852 92.3363C219.46 92.9573 218.047 95.3197 218.694 97.6127C219.342 99.9058 221.806 101.261 224.198 100.64Z" fill="#FF5252"/>
<path d="M238.188 97.6404C240.591 97.0113 242.008 94.6333 241.352 92.3291C240.695 90.0248 238.215 88.6668 235.811 89.2959C233.408 89.925 231.991 92.3029 232.647 94.6072C233.304 96.9115 235.784 98.2695 238.188 97.6404Z" fill="#FFFF00"/>
<path d="M251.248 94.221C253.652 93.592 255.068 91.214 254.412 88.9097C253.756 86.6054 251.276 85.2474 248.872 85.8765C246.468 86.5056 245.052 88.8835 245.708 91.1878C246.364 93.4921 248.845 94.8501 251.248 94.221Z" fill="#69F0AE"/>
<path d="M309.022 83.588L218.096 107.385L259.953 254.366L350.879 230.569L309.022 83.588Z" fill="#41FF98"/>
<path d="M300.835 135.056C297.372 122.893 283.735 115.867 270.383 119.353C257.031 122.839 249.024 135.554 252.468 147.721C255.187 157.268 264.168 163.648 274.366 164.263L272.751 158.587C271.581 154.487 274.314 150.166 278.835 148.986C283.337 147.806 287.979 150.198 289.131 154.303L290.745 159.978C299.197 154.473 303.554 144.581 300.835 135.056Z" fill="url(#paint1_linear)"/>
<path d="M278.004 145.523L277.679 145.608C276.966 145.795 276.545 146.5 276.74 147.184L278.695 154.048C278.89 154.732 279.625 155.135 280.339 154.948L280.664 154.863C281.377 154.677 281.797 153.971 281.602 153.287L279.648 146.423C279.453 145.739 278.717 145.337 278.004 145.523Z" fill="url(#paint2_linear)"/>
<path d="M278.211 146.817C283.345 145.474 286.428 140.594 285.096 135.919C283.765 131.243 278.524 128.542 273.39 129.886C268.256 131.23 265.173 136.109 266.505 140.785C267.836 145.46 273.077 148.161 278.211 146.817Z" fill="url(#paint3_linear)"/>
<path d="M278.816 148.982C274.314 150.162 271.586 154.482 272.732 158.583L274.347 164.258C280.15 164.598 285.907 163.091 290.727 159.974L289.112 154.298C287.961 150.198 283.318 147.806 278.816 148.982Z" fill="url(#paint4_linear)"/>
<path d="M266.298 140.336C265.185 139.23 264.42 137.844 264.093 136.339C263.939 135.581 263.945 134.801 264.11 134.046C264.275 133.29 264.595 132.573 265.053 131.938C266.106 130.534 267.861 129.695 269.574 129.089C271.286 128.483 273.13 128.102 274.787 127.335C277.515 126.07 279.616 123.829 280.637 121.094C281.163 122.286 281.507 123.545 281.657 124.831C281.725 125.486 281.65 126.148 281.436 126.774C281.223 127.399 280.876 127.975 280.417 128.465C281.657 127.501 281.905 128.914 281.821 129.852C282.757 130.439 284.474 130.121 284.844 131.094C285.263 132.052 285.424 133.095 285.312 134.127C285.148 135.155 286.065 136.658 284.994 137.012" fill="url(#paint5_linear)"/>
<path d="M298.682 132.131C297.533 128.099 295.25 124.447 292.085 121.573C288.919 118.699 284.991 116.713 280.728 115.832C276.466 114.951 272.034 115.209 267.914 116.577C263.794 117.945 260.145 120.372 257.364 123.591C254.584 126.811 252.779 130.7 252.146 134.836C251.513 138.971 252.076 143.194 253.774 147.044C255.472 150.894 258.24 154.223 261.776 156.668C265.313 159.113 269.481 160.581 273.827 160.911L272.213 155.236C271.656 153.259 271.938 151.15 272.997 149.372C274.056 147.593 275.807 146.288 277.866 145.743V145.743C279.929 145.209 282.128 145.479 283.983 146.495C285.839 147.51 287.2 149.188 287.769 151.162L289.383 156.838C293.398 154.138 296.445 150.316 298.109 145.894C299.773 141.472 299.973 136.666 298.682 132.131V132.131Z" fill="#41FF98"/>
<path d="M276.991 142.305L276.81 142.352C276.097 142.539 275.677 143.244 275.871 143.928L277.826 150.792C278.021 151.476 278.757 151.879 279.47 151.692L279.651 151.645C280.364 151.458 280.784 150.753 280.589 150.069L278.634 143.205C278.44 142.521 277.704 142.118 276.991 142.305Z" fill="white" stroke="white" stroke-miterlimit="10"/>
<path d="M277.271 143.58C282.148 142.304 285.022 137.479 283.69 132.803C282.359 128.128 277.326 125.372 272.449 126.649C267.572 127.925 264.698 132.75 266.029 137.426C267.36 142.101 272.393 144.857 277.271 143.58Z" fill="white" stroke="white" stroke-miterlimit="10"/>
<path d="M277.871 145.743C275.812 146.288 274.061 147.593 273.002 149.372C271.943 151.15 271.661 153.259 272.218 155.236L273.827 160.911C279.348 161.322 284.847 159.882 289.383 156.838L287.769 151.162C287.2 149.189 285.84 147.512 283.985 146.496C282.131 145.481 279.933 145.21 277.871 145.743Z" fill="white" stroke="white" stroke-miterlimit="10"/>
<path d="M265.82 136.954C264.74 135.826 263.996 134.441 263.667 132.943C263.347 131.433 263.654 129.864 264.524 128.569C265.511 127.182 267.149 126.352 268.797 125.782C270.444 125.213 272.176 124.845 273.743 124.096C275.038 123.47 276.191 122.604 277.134 121.549C278.077 120.493 278.792 119.268 279.237 117.945C279.756 119.139 280.101 120.397 280.262 121.682C280.336 122.323 280.274 122.971 280.078 123.588C279.883 124.205 279.558 124.778 279.125 125.271C280.295 124.324 280.529 125.755 280.496 126.671C281.381 127.267 283.033 126.971 283.398 127.945C283.815 128.902 283.986 129.94 283.899 130.973C283.754 131.996 284.652 133.504 283.632 133.845" fill="white"/>
<path d="M265.82 136.954C264.74 135.826 263.996 134.441 263.667 132.943C263.347 131.433 263.654 129.864 264.524 128.569C265.511 127.182 267.149 126.352 268.797 125.782C270.444 125.213 272.176 124.845 273.743 124.096C275.038 123.47 276.191 122.604 277.134 121.549C278.077 120.493 278.792 119.268 279.237 117.945C279.756 119.139 280.101 120.397 280.262 121.682C280.336 122.323 280.274 122.971 280.078 123.588C279.883 124.205 279.558 124.778 279.125 125.271C280.295 124.324 280.529 125.755 280.496 126.671C281.381 127.267 283.033 126.971 283.398 127.945C283.815 128.902 283.986 129.94 283.899 130.973C283.754 131.996 284.652 133.504 283.632 133.845" stroke="white" stroke-miterlimit="10"/>
<path d="M279.556 124.979C279.556 124.979 285.864 123.88 283.973 133.795Z" fill="white"/>
<path opacity="0.1" d="M329.712 157.139L238.786 180.936L259.648 254.193L350.574 230.396L329.712 157.139Z" fill="black"/>
<path d="M305.183 180.504L260.686 192.15L261.875 196.322L306.371 184.676L305.183 180.504Z" fill="white"/>
<path d="M318.596 187.455L263.459 201.886L264.647 206.058L319.785 191.628L318.596 187.455Z" fill="white"/>
<path d="M392.857 71.324L327.083 88.5386L335.93 119.605L401.704 102.391L392.857 71.324Z" fill="#F5F5F5"/>
<path d="M401.442 101.459L335.667 118.673L344.515 149.74L410.289 132.526L401.442 101.459Z" fill="#E0E0E0"/>
<path d="M549.079 30.44L483.304 47.6545L492.152 78.7214L557.926 61.5068L549.079 30.44Z" fill="#F5F5F5"/>
<path d="M557.658 60.5748L491.884 77.7894L500.731 108.856L566.505 91.6417L557.658 60.5748Z" fill="#E0E0E0"/>
<path d="M470.726 50.9429L404.952 68.1575L413.799 99.2244L479.573 82.0098L470.726 50.9429Z" fill="#F5F5F5"/>
<path d="M479.307 81.0833L413.533 98.2979L422.38 129.365L488.154 112.15L479.307 81.0833Z" fill="#E0E0E0"/>
<path d="M410.909 141.779L345.455 158.774L354.189 189.69L419.643 172.695L410.909 141.779Z" fill="#E0E0E0"/>
<path d="M421.508 171.937L355.734 189.152L364.581 220.218L430.355 203.004L421.508 171.937Z" fill="#BDBDBD"/>
<path d="M569.144 100.914L503.37 118.128L512.217 149.195L577.991 131.981L569.144 100.914Z" fill="#F5F5F5"/>
<path d="M577.73 131.053L511.956 148.268L520.803 179.334L586.577 162.12L577.73 131.053Z" fill="#BDBDBD"/>
<path d="M490.793 121.421L425.019 138.636L433.866 169.703L499.64 152.488L490.793 121.421Z" fill="#F5F5F5"/>
<path d="M499.377 151.556L433.603 168.771L442.45 199.837L508.224 182.623L499.377 151.556Z" fill="#BDBDBD"/>
<path d="M347.318 123.1C351.325 122.051 353.746 118.294 352.725 114.709C351.703 111.123 347.628 109.067 343.621 110.115C339.614 111.164 337.193 114.921 338.214 118.506C339.235 122.092 343.311 124.148 347.318 123.1Z" fill="url(#paint6_linear)"/>
<path d="M345.477 122.049C348.933 121.151 350.976 117.737 350.04 114.424C349.104 111.11 345.543 109.152 342.087 110.049C338.631 110.947 336.587 114.36 337.524 117.674C338.46 120.987 342.02 122.946 345.477 122.049Z" fill="#41FF98"/>
<path d="M424.22 102.972C428.227 101.923 430.647 98.1666 429.626 94.5811C428.605 90.9956 424.529 88.9392 420.522 89.9878C416.516 91.0365 414.095 94.7933 415.116 98.3788C416.137 101.964 420.213 104.021 424.22 102.972Z" fill="url(#paint7_linear)"/>
<path d="M423.956 102.047C427.43 101.138 429.477 97.7017 428.528 94.3719C427.58 91.0422 423.996 89.0798 420.523 89.9889C417.049 90.8979 415.002 94.3341 415.951 97.6638C416.899 100.994 420.483 102.956 423.956 102.047Z" fill="#41FF98"/>
<path d="M503.54 82.2111C507.546 81.1624 509.967 77.4056 508.946 73.8202C507.925 70.2347 503.849 68.1782 499.842 69.2269C495.835 70.2755 493.415 74.0323 494.436 77.6178C495.457 81.2033 499.533 83.2598 503.54 82.2111Z" fill="url(#paint8_linear)"/>
<path d="M503.276 81.286C506.749 80.3769 508.796 76.9407 507.848 73.611C506.9 70.2813 503.315 68.3189 499.842 69.2279C496.369 70.137 494.322 73.5732 495.27 76.9029C496.218 80.2326 499.803 82.195 503.276 81.286Z" fill="#41FF98"/>
<path d="M367.521 194.039C371.528 192.99 373.948 189.233 372.927 185.648C371.906 182.062 367.83 180.006 363.824 181.054C359.817 182.103 357.396 185.86 358.417 189.445C359.438 193.031 363.514 195.087 367.521 194.039Z" fill="url(#paint9_linear)"/>
<path d="M367.258 193.115C370.731 192.206 372.778 188.769 371.83 185.44C370.882 182.11 367.297 180.148 363.824 181.057C360.351 181.966 358.304 185.402 359.252 188.732C360.2 192.061 363.785 194.024 367.258 193.115Z" fill="#2196F3"/>
<path d="M444.423 173.911C448.43 172.862 450.85 169.106 449.829 165.52C448.808 161.935 444.732 159.878 440.725 160.927C436.718 161.976 434.298 165.732 435.319 169.318C436.34 172.903 440.416 174.96 444.423 173.911Z" fill="url(#paint10_linear)"/>
<path d="M444.155 172.987C447.628 172.078 449.675 168.642 448.727 165.312C447.779 161.982 444.194 160.02 440.721 160.929C437.248 161.838 435.201 165.274 436.149 168.604C437.097 171.934 440.682 173.896 444.155 172.987Z" fill="#2196F3"/>
<path d="M523.738 153.151C527.745 152.103 530.165 148.346 529.144 144.76C528.123 141.175 524.047 139.118 520.04 140.167C516.034 141.216 513.613 144.973 514.634 148.558C515.655 152.143 519.731 154.2 523.738 153.151Z" fill="url(#paint11_linear)"/>
<path d="M523.474 152.226C526.948 151.317 528.994 147.881 528.046 144.551C527.098 141.221 523.514 139.259 520.04 140.168C516.567 141.077 514.52 144.513 515.468 147.843C516.417 151.173 520.001 153.135 523.474 152.226Z" fill="#2196F3"/>
<path d="M621.978 134.706H264.014V304.065H621.978V134.706Z" fill="#F5F5F5"/>
<path d="M624 134.495H261.524V308H624V134.495Z" fill="url(#paint12_linear)"/>
<path d="M621.978 151.799H264.014V303.958H621.978V151.799Z" fill="white"/>
<path d="M272.536 147.268C275.027 147.268 277.047 145.332 277.047 142.943C277.047 140.555 275.027 138.618 272.536 138.618C270.044 138.618 268.024 140.555 268.024 142.943C268.024 145.332 270.044 147.268 272.536 147.268Z" fill="#FF5252"/>
<path d="M286.07 147.268C288.562 147.268 290.581 145.332 290.581 142.943C290.581 140.555 288.562 138.618 286.07 138.618C283.578 138.618 281.559 140.555 281.559 142.943C281.559 145.332 283.578 147.268 286.07 147.268Z" fill="#FFFF00"/>
<path d="M299.609 147.268C302.101 147.268 304.12 145.332 304.12 142.943C304.12 140.555 302.101 138.618 299.609 138.618C297.117 138.618 295.098 140.555 295.098 142.943C295.098 145.332 297.117 147.268 299.609 147.268Z" fill="#69F0AE"/>
<path d="M358.267 151.597H264.014V303.958H358.267V151.597Z" fill="#41FF98"/>
<path d="M336.224 199.181C336.224 186.574 324.993 176.349 311.159 176.349C297.325 176.349 286.089 186.569 286.089 199.181C286.089 209.078 293.001 217.499 302.67 220.667V214.785C302.67 210.532 306.488 207.055 311.159 207.055C315.839 207.055 319.648 210.532 319.648 214.785V220.667C329.312 217.499 336.224 209.074 336.224 199.181Z" fill="url(#paint13_linear)"/>
<path d="M311.323 203.515H310.986C310.247 203.515 309.647 204.089 309.647 204.798V211.913C309.647 212.622 310.247 213.197 310.986 213.197H311.323C312.062 213.197 312.661 212.622 312.661 211.913V204.798C312.661 204.089 312.062 203.515 311.323 203.515Z" fill="url(#paint14_linear)"/>
<path d="M311.173 204.816C316.495 204.816 320.809 200.887 320.809 196.04C320.809 191.194 316.495 187.265 311.173 187.265C305.851 187.265 301.537 191.194 301.537 196.04C301.537 200.887 305.851 204.816 311.173 204.816Z" fill="url(#paint15_linear)"/>
<path d="M311.159 207.055C306.479 207.055 302.67 210.532 302.67 214.785V220.667C308.174 222.457 314.14 222.457 319.644 220.667V214.785C319.644 210.532 315.825 207.055 311.159 207.055Z" fill="url(#paint16_linear)"/>
<path d="M301.439 195.551C300.668 194.202 300.311 192.672 300.409 191.137C300.469 190.367 300.689 189.617 301.055 188.929C301.422 188.242 301.928 187.632 302.543 187.135C303.947 186.045 305.852 185.659 307.691 185.524C309.53 185.39 311.393 185.47 313.204 185.147C316.183 184.616 318.825 182.984 320.561 180.602C320.741 181.885 320.727 183.186 320.519 184.465C320.404 185.114 320.15 185.733 319.772 186.282C319.394 186.831 318.901 187.299 318.324 187.655C319.789 187.041 319.63 188.485 319.311 189.351C320.037 190.15 321.801 190.28 321.89 191.312C322.036 192.342 321.909 193.391 321.52 194.362C321.076 195.314 321.553 196.992 320.42 197.054" fill="url(#paint17_linear)"/>
<path d="M334.951 195.816C334.951 191.636 333.753 187.536 331.489 183.963C329.225 180.391 325.981 177.483 322.111 175.556C318.242 173.63 313.894 172.759 309.544 173.038C305.193 173.317 301.006 174.737 297.438 177.141C293.871 179.545 291.061 182.842 289.314 186.672C287.567 190.502 286.951 194.719 287.532 198.861C288.113 203.004 289.87 206.915 292.61 210.167C295.35 213.418 298.969 215.886 303.072 217.302V211.429C303.078 209.381 303.93 207.418 305.441 205.969C306.951 204.521 308.999 203.705 311.136 203.699C313.276 203.699 315.33 204.512 316.846 205.961C318.361 207.411 319.216 209.377 319.222 211.429V217.311C323.832 215.715 327.817 212.794 330.632 208.947C333.446 205.1 334.955 200.515 334.951 195.816Z" fill="#41FF98"/>
<path d="M311.234 200.15H311.047C310.307 200.15 309.708 200.724 309.708 201.433V208.549C309.708 209.257 310.307 209.832 311.047 209.832H311.234C311.973 209.832 312.572 209.257 312.572 208.549V201.433C312.572 200.724 311.973 200.15 311.234 200.15Z" fill="white" stroke="white" stroke-miterlimit="10"/>
<path d="M311.154 201.451C316.21 201.451 320.308 197.522 320.308 192.676C320.308 187.829 316.21 183.9 311.154 183.9C306.099 183.9 302 187.829 302 192.676C302 197.522 306.099 201.451 311.154 201.451Z" fill="white" stroke="white" stroke-miterlimit="10"/>
<path d="M311.14 203.69C309.002 203.696 306.953 204.513 305.442 205.964C303.931 207.414 303.08 209.379 303.077 211.429V217.311C308.29 219.101 313.99 219.101 319.204 217.311V211.429C319.2 209.379 318.35 207.414 316.838 205.964C315.327 204.513 313.279 203.696 311.14 203.69V203.69Z" fill="white" stroke="white" stroke-miterlimit="10"/>
<path d="M301.907 192.191C301.173 190.83 300.835 189.305 300.929 187.776C301.035 186.239 301.764 184.803 302.96 183.774C304.294 182.684 306.1 182.298 307.846 182.164C309.591 182.029 311.36 182.11 313.082 181.787C314.504 181.511 315.854 180.967 317.054 180.187C318.254 179.407 319.281 178.406 320.074 177.242C320.246 178.525 320.234 179.825 320.037 181.105C319.933 181.745 319.695 182.358 319.336 182.906C318.977 183.455 318.505 183.927 317.949 184.295C319.353 183.68 319.19 185.125 318.885 185.991C319.573 186.789 321.225 186.919 321.333 187.951C321.472 188.981 321.352 190.027 320.982 191.002C320.561 191.953 321.01 193.631 319.938 193.694" fill="white"/>
<path d="M301.907 192.191C301.173 190.83 300.835 189.305 300.929 187.776C301.035 186.239 301.764 184.803 302.96 183.774C304.294 182.684 306.1 182.298 307.846 182.164C309.591 182.029 311.36 182.11 313.082 181.787C314.504 181.511 315.854 180.967 317.054 180.187C318.254 179.407 319.281 178.406 320.074 177.242C320.246 178.525 320.234 179.825 320.037 181.105C319.933 181.745 319.695 182.358 319.336 182.906C318.977 183.455 318.505 183.927 317.949 184.295C319.353 183.68 319.19 185.125 318.885 185.991C319.573 186.789 321.225 186.919 321.333 187.951C321.472 188.981 321.352 190.027 320.982 191.002C320.561 191.953 321.01 193.631 319.938 193.694" stroke="white" stroke-miterlimit="10"/>
<path d="M318.469 184.062C318.469 184.062 324.857 184.595 320.308 193.685Z" fill="white"/>
<path opacity="0.1" d="M358.014 227.778H263.761V303.715H358.014V227.778Z" fill="black"/>
<path d="M327.936 244.117H281.811V248.442H327.936V244.117Z" fill="white"/>
<path d="M439.734 177.309H393.609V181.634H439.734V177.309Z" fill="#BDBDBD"/>
<path d="M558.552 203.264H393.609V207.588H558.552V203.264Z" fill="#E0E0E0"/>
<path d="M558.552 229.218H393.609V233.543H558.552V229.218Z" fill="#E0E0E0"/>
<path d="M439.734 255.172H393.609V259.497H439.734V255.172Z" fill="#64FFDA"/>
<path d="M498.893 255.172H452.768V259.497H498.893V255.172Z" fill="#F5F5F5"/>
<path d="M558.557 255.172H512.432V259.497H558.557V255.172Z" fill="#64FFDA"/>
<path d="M338.967 254.212H281.811V258.537H338.967V254.212Z" fill="white"/>
</g>
<g clip-path="url(#clip1)">
<g opacity="0.5">
<path opacity="0.5" d="M147.214 359H0V536.669H147.214V359Z" fill="url(#paint18_linear)"/>
</g>
<path d="M145.213 362.361H1.71643V533.729H145.213V362.361Z" fill="#F2F2F2"/>
<path d="M145.213 362.361H1.71643V400.583H145.213V362.361Z" fill="#41FF98"/>
<path opacity="0.1" d="M145.213 362.361H1.71643V400.583H145.213V362.361Z" fill="black"/>
<path d="M133.78 414.44H13.1503V436.701H133.78V414.44Z" fill="#E0E0E0"/>
<path d="M101.191 453.501H13.1503V461.063H101.191V453.501Z" fill="#E0E0E0"/>
<path d="M70.3193 466.524H13.1503V474.085H70.3193V466.524Z" fill="#E0E0E0"/>
<path d="M88.6154 479.546H13.1503V487.107H88.6154V479.546Z" fill="#E0E0E0"/>
<path d="M101.191 492.563H13.1503V500.124H101.191V492.563Z" fill="#E0E0E0"/>
<path d="M42.593 505.585H13.1503V513.146H42.593V505.585Z" fill="#E0E0E0"/>
<g opacity="0.5">
<path opacity="0.5" d="M335 359H187.786V536.669H335V359Z" fill="url(#paint19_linear)"/>
</g>
<path d="M189.79 533.725H333.287V362.356H189.79L189.79 533.725Z" fill="#F2F2F2"/>
<path d="M189.79 400.579H333.287V362.356H189.79V400.579Z" fill="#41FF98"/>
<path opacity="0.1" d="M189.79 400.579H333.287V362.356H189.79V400.579Z" fill="black"/>
<path d="M201.224 436.706H321.853V414.445H201.224V436.706Z" fill="#E0E0E0"/>
<path d="M233.809 461.067H321.85V453.506H233.809V461.067Z" fill="#E0E0E0"/>
<path d="M264.681 474.085H321.85V466.524H264.681V474.085Z" fill="#E0E0E0"/>
<path d="M246.388 487.102H321.853V479.541H246.388V487.102Z" fill="#E0E0E0"/>
<path d="M233.809 500.124H321.85V492.563H233.809V500.124Z" fill="#E0E0E0"/>
<path d="M292.41 513.146H321.853V505.585H292.41V513.146Z" fill="#E0E0E0"/>
<g opacity="0.5">
<path opacity="0.5" d="M259.439 436.517H75.9174V658.005H259.439V436.517Z" fill="url(#paint20_linear)"/>
</g>
<path d="M256.947 440.702H78.0562V654.333H256.947V440.702Z" fill="white"/>
<path d="M256.947 440.702H78.0562V488.348H256.947V440.702Z" fill="#41FF98"/>
<path d="M242.691 505.629H92.3088V533.38H242.691V505.629Z" fill="#F5F5F5"/>
<path d="M202.065 554.327H92.3088V563.751H202.065V554.327Z" fill="#E0E0E0"/>
<path d="M163.579 570.56H92.3088V579.984H163.579V570.56Z" fill="#E0E0E0"/>
<path d="M186.387 586.788H92.3088V596.212H186.387V586.788Z" fill="#E0E0E0"/>
<path d="M202.065 603.021H92.3088V612.444H202.065V603.021Z" fill="#E0E0E0"/>
<path d="M129.013 619.254H92.3088V628.677H129.013V619.254Z" fill="#E0E0E0"/>
<path d="M142.909 515.057H100.148V523.433H142.909V515.057Z" fill="#69F0AE"/>
</g>
<defs>
<filter id="filter0_d" x="207" y="0" width="421" height="316" filterUnits="userSpaceOnUse" color-interpolation-filters="sRGB">
<feFlood flood-opacity="0" result="BackgroundImageFix"/>
<feColorMatrix in="SourceAlpha" type="matrix" values="0 0 0 0 0 0 0 0 0 0 0 0 0 0 0 0 0 0 127 0"/>
<feOffset dy="4"/>
<feGaussianBlur stdDeviation="2"/>
<feColorMatrix type="matrix" values="0 0 0 0 0 0 0 0 0 0 0 0 0 0 0 0 0 0 0.25 0"/>
<feBlend mode="normal" in2="BackgroundImageFix" result="effect1_dropShadow"/>
<feBlend mode="normal" in="SourceGraphic" in2="effect1_dropShadow" result="shape"/>
</filter>
<linearGradient id="paint0_linear" x1="433.504" y1="213.14" x2="389.449" y2="44.8154" gradientUnits="userSpaceOnUse">
<stop stop-color="#808080" stop-opacity="0.25"/>
<stop offset="0.54" stop-color="#808080" stop-opacity="0.12"/>
<stop offset="1" stop-color="#808080" stop-opacity="0.1"/>
</linearGradient>
<linearGradient id="paint1_linear" x1="282.553" y1="162.114" x2="271.302" y2="119.124" gradientUnits="userSpaceOnUse">
<stop stop-opacity="0.12"/>
<stop offset="0.55" stop-opacity="0.09"/>
<stop offset="1" stop-opacity="0.02"/>
</linearGradient>
<linearGradient id="paint2_linear" x1="122.757" y1="2816.01" x2="69.7072" y2="2613.31" gradientUnits="userSpaceOnUse">
<stop stop-opacity="0.12"/>
<stop offset="0.55" stop-opacity="0.09"/>
<stop offset="1" stop-opacity="0.02"/>
</linearGradient>
<linearGradient id="paint3_linear" x1="-5745.16" y1="6057.59" x2="-5919.49" y2="5391.5" gradientUnits="userSpaceOnUse">
<stop stop-opacity="0.12"/>
<stop offset="0.55" stop-opacity="0.09"/>
<stop offset="1" stop-opacity="0.02"/>
</linearGradient>
<linearGradient id="paint4_linear" x1="-7071.86" y1="4404.95" x2="-7071.86" y2="3884.09" gradientUnits="userSpaceOnUse">
<stop stop-opacity="0.12"/>
<stop offset="0.55" stop-opacity="0.09"/>
<stop offset="1" stop-opacity="0.02"/>
</linearGradient>
<linearGradient id="paint5_linear" x1="-8400.86" y1="4293.82" x2="-8400.86" y2="3587.62" gradientUnits="userSpaceOnUse">
<stop stop-opacity="0.12"/>
<stop offset="0.55" stop-opacity="0.09"/>
<stop offset="1" stop-opacity="0.02"/>
</linearGradient>
<linearGradient id="paint6_linear" x1="338.214" y1="118.506" x2="352.636" y2="114.399" gradientUnits="userSpaceOnUse">
<stop stop-opacity="0.09"/>
<stop offset="0.55" stop-opacity="0.07"/>
<stop offset="1" stop-opacity="0.02"/>
</linearGradient>
<linearGradient id="paint7_linear" x1="172.948" y1="3096.22" x2="636.472" y2="2964.22" gradientUnits="userSpaceOnUse">
<stop stop-opacity="0.09"/>
<stop offset="0.55" stop-opacity="0.07"/>
<stop offset="1" stop-opacity="0.02"/>
</linearGradient>
<linearGradient id="paint8_linear" x1="2793.04" y1="2388.97" x2="3256.56" y2="2256.97" gradientUnits="userSpaceOnUse">
<stop stop-opacity="0.09"/>
<stop offset="0.55" stop-opacity="0.07"/>
<stop offset="1" stop-opacity="0.02"/>
</linearGradient>
<linearGradient id="paint9_linear" x1="-1722.17" y1="5973.47" x2="-1258.65" y2="5841.47" gradientUnits="userSpaceOnUse">
<stop stop-opacity="0.09"/>
<stop offset="0.55" stop-opacity="0.07"/>
<stop offset="1" stop-opacity="0.02"/>
</linearGradient>
<linearGradient id="paint10_linear" x1="817.995" y1="5287.79" x2="1281.52" y2="5155.79" gradientUnits="userSpaceOnUse">
<stop stop-opacity="0.09"/>
<stop offset="0.55" stop-opacity="0.07"/>
<stop offset="1" stop-opacity="0.02"/>
</linearGradient>
<linearGradient id="paint11_linear" x1="3438.09" y1="4580.53" x2="3901.62" y2="4448.53" gradientUnits="userSpaceOnUse">
<stop stop-opacity="0.09"/>
<stop offset="0.55" stop-opacity="0.07"/>
<stop offset="1" stop-opacity="0.02"/>
</linearGradient>
<linearGradient id="paint12_linear" x1="179770" y1="119247" x2="179770" y2="52147.8" gradientUnits="userSpaceOnUse">
<stop stop-color="#808080" stop-opacity="0.25"/>
<stop offset="0.54" stop-color="#808080" stop-opacity="0.12"/>
<stop offset="1" stop-color="#808080" stop-opacity="0.1"/>
</linearGradient>
<linearGradient id="paint13_linear" x1="18975.1" y1="26704.2" x2="18975.1" y2="22326.6" gradientUnits="userSpaceOnUse">
<stop stop-opacity="0.12"/>
<stop offset="0.55" stop-opacity="0.09"/>
<stop offset="1" stop-opacity="0.02"/>
</linearGradient>
<linearGradient id="paint14_linear" x1="954.671" y1="4804.21" x2="954.671" y2="4595.37" gradientUnits="userSpaceOnUse">
<stop stop-opacity="0.12"/>
<stop offset="0.55" stop-opacity="0.09"/>
<stop offset="1" stop-opacity="0.02"/>
</linearGradient>
<linearGradient id="paint15_linear" x1="4426.66" y1="8199.48" x2="4426.66" y2="7513.06" gradientUnits="userSpaceOnUse">
<stop stop-opacity="0.12"/>
<stop offset="0.55" stop-opacity="0.09"/>
<stop offset="1" stop-opacity="0.02"/>
</linearGradient>
<linearGradient id="paint16_linear" x1="6630.04" y1="9203.64" x2="6630.04" y2="8705.19" gradientUnits="userSpaceOnUse">
<stop stop-opacity="0.12"/>
<stop offset="0.55" stop-opacity="0.09"/>
<stop offset="1" stop-opacity="0.02"/>
</linearGradient>
<linearGradient id="paint17_linear" x1="8336.42" y1="9163.14" x2="8336.42" y2="8559.36" gradientUnits="userSpaceOnUse">
<stop stop-opacity="0.12"/>
<stop offset="0.55" stop-opacity="0.09"/>
<stop offset="1" stop-opacity="0.02"/>
</linearGradient>
<linearGradient id="paint18_linear" x1="73.6068" y1="536.669" x2="73.6068" y2="359" gradientUnits="userSpaceOnUse">
<stop stop-color="#808080" stop-opacity="0.25"/>
<stop offset="0.54" stop-color="#808080" stop-opacity="0.12"/>
<stop offset="1" stop-color="#808080" stop-opacity="0.1"/>
</linearGradient>
<linearGradient id="paint19_linear" x1="-46194.7" y1="85893.1" x2="-46194.7" y2="20809.5" gradientUnits="userSpaceOnUse">
<stop stop-color="#808080" stop-opacity="0.25"/>
<stop offset="0.54" stop-color="#808080" stop-opacity="0.12"/>
<stop offset="1" stop-color="#808080" stop-opacity="0.1"/>
</linearGradient>
<linearGradient id="paint20_linear" x1="93305" y1="136984" x2="93305" y2="35836.9" gradientUnits="userSpaceOnUse">
<stop stop-color="#808080" stop-opacity="0.25"/>
<stop offset="0.54" stop-color="#808080" stop-opacity="0.12"/>
<stop offset="1" stop-color="#808080" stop-opacity="0.1"/>
</linearGradient>
<clipPath id="clip0">
<rect width="413" height="308" fill="white" transform="translate(211)"/>
</clipPath>
<clipPath id="clip1">
<rect width="335" height="299" fill="white" transform="translate(0 359)"/>
</clipPath>
</defs>
</svg>
