<svg width="158" height="73" viewBox="0 0 158 73" fill="none" xmlns="http://www.w3.org/2000/svg">
<g clip-path="url(#clip0)">
<path d="M44.4833 55.0002C44.1862 55.0002 43.8912 54.9225 43.6308 54.7728L40.9174 53.1699C40.5121 52.9438 40.7099 52.8638 40.8435 52.8177C41.3839 52.6289 41.4936 52.5863 42.0703 52.2594C42.131 52.2249 42.2103 52.2371 42.2724 52.2736L44.3569 53.5079C44.4322 53.5485 44.539 53.5485 44.6088 53.5079L52.7366 48.8266C52.8118 48.784 52.8607 48.6967 52.8607 48.6074V39.2488C52.8607 39.1554 52.8118 39.0722 52.7349 39.0255L44.6104 34.3483C44.5351 34.3036 44.4354 34.3036 44.3602 34.3483L36.2373 39.0255C36.1585 39.0702 36.1085 39.1575 36.1085 39.2468V48.6053C36.1085 48.6947 36.1573 48.7799 36.2346 48.8226L38.4603 50.1056C39.6688 50.7085 40.4074 49.998 40.4074 49.2834V40.0466C40.4074 39.9147 40.5111 39.8132 40.6434 39.8132H41.6728C41.801 39.8132 41.9068 39.9147 41.9068 40.0466V49.2874C41.9068 50.8952 41.0279 51.8189 39.5 51.8189C39.03 51.8189 38.6597 51.8189 37.6262 51.3114L35.4941 50.0853C34.9671 49.7807 34.6416 49.2123 34.6416 48.6053V39.2468C34.6416 38.6378 34.9671 38.0694 35.4941 37.7689L43.63 33.0856C44.1447 32.7953 44.8283 32.7953 45.339 33.0856L53.4647 37.7709C53.9896 38.0734 54.3172 38.6398 54.3172 39.2488V48.6074C54.3172 49.2144 53.9896 49.7807 53.4647 50.0853L45.339 54.7686C45.0785 54.9188 44.7835 54.996 44.4824 54.996" fill="#689F63"/>
<path d="M46.9943 48.5515C43.438 48.5515 42.6924 46.9226 42.6924 45.5564C42.6924 45.4264 42.7974 45.3229 42.9278 45.3229H43.9776C44.0935 45.3229 44.1912 45.4072 44.2095 45.5214C44.3682 46.5888 44.8402 47.1272 46.9906 47.1272C48.7037 47.1272 49.432 46.7411 49.432 45.8347C49.432 45.313 49.2245 44.9252 46.5634 44.6654C44.3377 44.4461 42.9624 43.9569 42.9624 42.1806C42.9624 40.5444 44.3458 39.57 46.6631 39.57C49.2652 39.57 50.5551 40.4713 50.7178 42.408C50.7239 42.475 50.6995 42.5399 50.6548 42.5886C50.61 42.6353 50.5469 42.6637 50.4818 42.6637H49.4259C49.3161 42.6637 49.2204 42.5866 49.1981 42.481C48.9438 41.3584 48.3293 40.9991 46.659 40.9991C44.7893 40.9991 44.5716 41.6487 44.5716 42.1359C44.5716 42.7267 44.828 42.8992 47.3508 43.2322C49.8491 43.5631 51.0352 44.03 51.0352 45.7819C51.0352 47.548 49.5582 48.561 46.9825 48.561L46.9943 48.5515ZM56.8823 38.6361H57.1549C57.3787 38.6361 57.4215 38.4798 57.4215 38.3885C57.4215 38.1489 57.2567 38.1489 57.1651 38.1489H56.8844L56.8823 38.6361ZM56.5507 37.8688H57.1549C57.3625 37.8688 57.7694 37.8688 57.7694 38.3316C57.7694 38.6544 57.5618 38.7214 57.4377 38.762C57.6798 38.7782 57.6961 38.9366 57.7287 39.1599C57.7449 39.3 57.7714 39.5415 57.8202 39.6227H57.4479C57.4377 39.5415 57.3808 39.0949 57.3808 39.0706C57.3564 38.9711 57.3218 38.9224 57.1977 38.9224H56.8905V39.6248H56.5507V37.8688ZM55.8244 38.7417C55.8244 39.4685 56.4124 40.0572 57.1346 40.0572C57.863 40.0572 58.4509 39.4563 58.4509 38.7417C58.4509 38.0129 57.8548 37.4343 57.1326 37.4343C56.4205 37.4343 55.8224 38.0048 55.8224 38.7397L55.8244 38.7417ZM58.7032 38.7458C58.7032 39.6065 57.9972 40.3089 57.1366 40.3089C56.2822 40.3089 55.5701 39.6146 55.5701 38.7458C55.5701 37.8607 56.2984 37.1826 57.1366 37.1826C57.9809 37.1826 58.7012 37.8627 58.7012 38.7458" fill="#689F63"/>
<path fill-rule="evenodd" clip-rule="evenodd" d="M19.3146 18.3823C19.3146 18.0088 19.1173 17.6657 18.7942 17.48L10.1769 12.5327C10.0315 12.4475 9.8685 12.4028 9.7033 12.3967H9.61419C9.44899 12.4028 9.28603 12.4475 9.13812 12.5327L0.521237 17.48C0.200194 17.6667 0 18.0098 0 18.3833L0.0189208 31.7086C0.0189208 31.8933 0.114542 32.0659 0.277301 32.1572C0.435991 32.2547 0.635372 32.2547 0.794062 32.1572L5.91691 29.2299C6.24039 29.0379 6.43774 28.6984 6.43774 28.3286V22.1034C6.43774 21.7319 6.63509 21.3888 6.95755 21.2041L9.13853 19.9507C9.30047 19.8574 9.47829 19.8111 9.65936 19.8111C9.83758 19.8111 10.0195 19.857 10.1769 19.9505L12.3569 21.2035C12.6796 21.3882 12.8777 21.7313 12.8777 22.1028V28.3275C12.8777 28.697 13.0777 29.0381 13.3996 29.2289L18.5192 32.1542C18.6799 32.2496 18.8799 32.2496 19.04 32.1542C19.1979 32.0628 19.298 31.8903 19.298 31.7056L19.3146 18.3823ZM59.9776 25.3202C59.9776 25.413 59.9282 25.4989 59.8474 25.5448L56.8876 27.2472C56.8073 27.2932 56.708 27.2932 56.6278 27.2472L53.6676 25.5448C53.5863 25.4987 53.5374 25.4128 53.5374 25.3202V21.9106C53.5374 21.8176 53.5863 21.7319 53.6656 21.6852L56.6237 19.98C56.7051 19.9333 56.8048 19.9333 56.8862 19.98L59.8464 21.6852C59.9278 21.7319 59.9766 21.8176 59.9766 21.9106L59.9776 25.3202ZM60.7772 0.0659739C60.6156 -0.0237544 60.4191 -0.0213183 60.2596 0.071455C60.1009 0.164837 60.0028 0.335362 60.0028 0.520097V13.7154C60.0028 13.8454 59.9337 13.9651 59.8209 14.0301C59.709 14.0951 59.5697 14.0951 59.4568 14.0301L57.2982 12.7895C56.9767 12.604 56.5808 12.604 56.2581 12.7895L47.638 17.7536C47.3159 17.9384 47.1172 18.2814 47.1172 18.6509V28.5819C47.1172 28.9534 47.3159 29.2945 47.638 29.4812L56.2581 34.4488C56.58 34.6335 56.9763 34.6335 57.2992 34.4488L65.9193 29.4792C66.2408 29.2924 66.4402 28.9514 66.4402 28.5799V3.82949C66.4402 3.45271 66.2347 3.10618 65.9051 2.92205L60.7772 0.0659739ZM89.4824 21.8208C89.8026 21.6353 89.9998 21.2926 89.9998 20.9231V18.5163C89.9998 18.146 89.8024 17.8044 89.4816 17.618L80.9164 12.6566C80.5929 12.4698 80.1962 12.4698 79.8727 12.6566L71.2546 17.62C70.9311 17.8068 70.7338 18.1479 70.7338 18.5194V28.4463C70.7338 28.8198 70.9352 29.1649 71.2587 29.3497L79.8218 34.2198C80.1372 34.4005 80.5237 34.4025 80.8431 34.2259L86.0229 31.3533C86.1857 31.262 86.2895 31.0894 86.2895 30.9027C86.2895 30.7159 86.1898 30.5413 86.027 30.45L77.356 25.4845C77.1933 25.3931 77.0936 25.2206 77.0936 25.0358V21.9217C77.0936 21.7358 77.1912 21.5644 77.354 21.4719L80.0517 19.9189C80.2124 19.8255 80.4098 19.8255 80.5705 19.9189L83.2703 21.4719C83.431 21.5632 83.5307 21.7358 83.5307 21.9205V24.3687C83.5307 24.5535 83.6304 24.726 83.7911 24.8194C83.9518 24.9108 84.1512 24.9108 84.3119 24.8174L89.4824 21.8208Z" fill="#333333"/>
<path fill-rule="evenodd" clip-rule="evenodd" d="M80.2684 21.3562C80.3295 21.3202 80.406 21.3202 80.4678 21.3562L82.1219 22.3083C82.1837 22.344 82.2216 22.4098 82.2216 22.4808V24.387C82.2216 24.4581 82.1837 24.5239 82.1219 24.5596L80.4678 25.5117C80.406 25.5476 80.3295 25.5476 80.2684 25.5117L78.6154 24.5596C78.5523 24.5239 78.5137 24.4581 78.5137 24.387V22.4808C78.5137 22.4098 78.5503 22.344 78.6134 22.3083L80.2684 21.3562Z" fill="#689F63"/>
<mask id="mask0" mask-type="alpha" maskUnits="userSpaceOnUse" x="20" y="10" width="24" height="28">
<path d="M31.891 10.6578L43.2555 17.2808V30.5269L31.891 37.15L20.5266 30.5269V17.2808L31.891 10.6578Z" fill="#C4C4C4"/>
</mask>
<g mask="url(#mask0)">
<path d="M13.2754 17.357V39.1658H31.9282V17.357H13.2754Z" fill="url(#paint0_linear)"/>
<path d="M8.69727 19.9763L25.7514 43.0079L48.3058 26.3806L31.2506 3.34961L8.69727 19.9763Z" fill="url(#paint1_linear)"/>
<path d="M54.3889 11.9652L30.2365 0.152283L17.8525 25.3602L42.0044 37.1737L54.3889 11.9652Z" fill="url(#paint2_linear)"/>
</g>
</g>
<path d="M98.3428 72.0985V53.278H99.354V56.2387C99.4734 56.1076 99.5838 55.9682 99.6842 55.8217C100.097 54.9552 100.747 54.2255 101.556 53.7184C102.365 53.2112 103.3 52.9476 104.252 52.9583C106.556 52.8888 108.427 53.7506 109.528 55.8217C110.228 57.1083 110.614 58.5456 110.652 60.0134C110.69 61.4812 110.38 62.9369 109.748 64.259C108.723 66.5803 106.192 67.734 103.481 67.31C102.638 67.2374 101.826 66.9526 101.119 66.4816C100.413 66.0106 99.8343 65.3683 99.4365 64.6134V72.0985H98.3428ZM99.354 59.9361C99.4434 60.8535 99.4778 61.5068 99.581 62.1462C99.98 64.6621 101.452 66.1563 103.763 66.4274C104.849 66.6076 105.962 66.402 106.914 65.8457C107.866 65.2893 108.598 64.4166 108.985 63.3763C109.429 62.3063 109.643 61.153 109.612 59.9931C109.581 58.8332 109.306 57.6932 108.806 56.6488C108.393 55.7164 107.692 54.9449 106.807 54.4509C105.922 53.9569 104.902 53.7672 103.901 53.9105C102.961 53.9793 102.066 54.3422 101.34 54.9488C100.614 55.5554 100.093 56.3755 99.8493 57.2951C99.6338 58.165 99.4685 59.0468 99.354 59.9361Z" fill="black"/>
<path d="M131.279 62.4936C131.126 63.8187 130.501 65.0425 129.522 65.9374C128.543 66.8323 127.275 67.3373 125.955 67.3586C121.717 67.5741 119.729 64.7315 119.413 61.4512C119.193 59.6697 119.479 57.8619 120.238 56.2387C120.767 55.1252 121.632 54.2106 122.709 53.6271C123.786 53.0436 125.019 52.8215 126.23 52.9931C127.381 53.0916 128.471 53.5534 129.348 54.313C130.225 55.0726 130.842 56.0916 131.114 57.2256C131.329 58.2584 131.488 59.3025 131.589 60.3531H120.451C120.245 63.3276 121.827 65.7184 124.07 66.2953C126.863 66.9903 129.25 65.7671 130.116 63.0844C130.309 62.3963 130.66 62.299 131.279 62.4936ZM120.451 59.4009H130.405C130.343 56.2317 128.39 53.9382 125.741 53.9035C122.742 53.8548 120.582 56.0649 120.451 59.4009Z" fill="black"/>
<path d="M133.329 62.5632H134.306C134.342 63.2894 134.576 63.9914 134.981 64.5922C135.386 65.193 135.948 65.6693 136.604 65.9687C137.427 66.3431 138.324 66.525 139.227 66.501C140.129 66.4769 141.015 66.2475 141.818 65.8297C142.255 65.6304 142.622 65.3003 142.868 64.884C143.114 64.4677 143.228 63.9851 143.194 63.5014C143.219 63.0349 143.093 62.5729 142.835 62.1854C142.576 61.7978 142.2 61.5059 141.763 61.3539C140.69 60.9508 139.548 60.7284 138.454 60.3739C137.316 60.0465 136.203 59.6354 135.125 59.1438C133.364 58.2751 133.254 54.8904 135.248 53.8201C136.27 53.2378 137.42 52.9231 138.592 52.9049C139.765 52.8867 140.924 53.1655 141.962 53.7159C142.592 54.0672 143.1 54.604 143.419 55.2547C143.739 55.9053 143.855 56.6389 143.751 57.3577H142.912C142.912 57.316 142.836 57.2812 142.836 57.2395C142.733 54.536 140.49 53.702 138.083 53.9383C137.364 54.0279 136.666 54.2418 136.019 54.5707C135.63 54.7503 135.306 55.0473 135.092 55.4208C134.878 55.7942 134.783 56.2257 134.822 56.6557C134.823 57.0859 134.956 57.5051 135.202 57.856C135.449 58.2069 135.796 58.4722 136.198 58.6156C137.257 59.0048 138.365 59.255 139.452 59.5608C140.325 59.804 141.233 59.9639 142.079 60.2558C142.677 60.4536 143.2 60.8299 143.581 61.3351C143.962 61.8402 144.182 62.4502 144.212 63.0844C144.314 63.7793 144.197 64.4891 143.877 65.1129C143.557 65.7366 143.051 66.2428 142.43 66.5594C140.133 67.873 136.349 67.5255 134.664 65.8644C134.237 65.4304 133.899 64.9152 133.67 64.3486C133.441 63.782 133.325 63.1752 133.329 62.5632Z" fill="black"/>
<path d="M156.594 57.3577H155.679C155.679 57.2326 155.631 57.1214 155.617 57.0171C155.602 56.3243 155.352 55.6576 154.909 55.1287C154.465 54.5999 153.856 54.2409 153.182 54.112C151.91 53.7434 150.553 53.8094 149.322 54.2997C148.836 54.4406 148.408 54.7367 148.101 55.1438C147.795 55.5509 147.627 56.0471 147.623 56.5584C147.606 57.0606 147.761 57.5533 148.062 57.9534C148.363 58.3535 148.791 58.6365 149.274 58.7546C150.65 59.1855 152.06 59.4496 153.457 59.8388C153.909 59.9485 154.355 60.0855 154.791 60.2489C155.443 60.4844 156.009 60.9131 156.416 61.4788C156.822 62.0446 157.051 62.7211 157.071 63.42C157.091 64.1189 156.902 64.8077 156.528 65.3963C156.155 65.9849 155.614 66.446 154.977 66.7193C154.006 67.1646 152.954 67.4002 151.888 67.411C150.822 67.4218 149.765 67.2075 148.786 66.7818C147.981 66.4309 147.301 65.8391 146.838 65.0861C146.376 64.3331 146.153 63.4551 146.199 62.5701H146.585H147.094C147.259 63.3765 147.617 64.13 148.135 64.7654C148.654 65.4007 149.318 65.8988 150.07 66.2164C150.822 66.534 151.639 66.6616 152.451 66.5882C153.263 66.5148 154.045 66.2425 154.729 65.7949C155.146 65.5761 155.492 65.2412 155.726 64.8297C155.96 64.4183 156.073 63.9477 156.05 63.4736C156.071 63.0069 155.94 62.546 155.678 62.161C155.417 61.776 155.037 61.4877 154.599 61.34C153.526 60.9369 152.384 60.7215 151.29 60.367C150.145 60.0446 149.026 59.6381 147.94 59.1508C146.22 58.2959 146.082 54.9391 148.043 53.8688C149.077 53.262 150.249 52.9361 151.445 52.9227C152.641 52.9093 153.82 53.2089 154.867 53.7923C155.466 54.1536 155.948 54.6829 156.255 55.3159C156.561 55.9489 156.679 56.6583 156.594 57.3577Z" fill="black"/>
<path d="M96.6709 67.0181C96.3108 67.1559 95.9131 67.1556 95.5531 67.0173C95.1932 66.879 94.8958 66.6122 94.7173 66.2675C93.596 64.5717 92.3578 62.9523 91.1677 61.2983L90.6518 60.6033C89.2347 62.5214 87.8176 64.3632 86.5243 66.2744C86.3558 66.6039 86.0745 66.8603 85.7329 66.9958C85.3912 67.1314 85.0124 67.1368 84.667 67.0111L89.9845 59.804L85.0385 53.2919C85.3945 53.162 85.784 53.1602 86.1412 53.2869C86.4983 53.4135 86.8013 53.6607 86.999 53.9869C88.1478 55.6827 89.4204 57.302 90.6862 59.0187C91.9588 57.3159 93.2176 55.6896 94.394 54.0077C94.5634 53.6836 94.8448 53.4337 95.1847 53.3056C95.5247 53.1774 95.8994 53.18 96.2375 53.3128L94.3183 55.8842C93.4584 57.031 92.6123 58.1847 91.718 59.3036C91.6459 59.3688 91.5883 59.4486 91.5488 59.5378C91.5094 59.627 91.489 59.7237 91.489 59.8214C91.489 59.9191 91.5094 60.0157 91.5488 60.1049C91.5883 60.1942 91.6459 60.274 91.718 60.3392C93.3621 62.5423 94.9924 64.7524 96.6709 67.0181Z" fill="black"/>
<path d="M119.247 53.2224V54.1954C118.552 54.1493 117.854 54.2511 117.2 54.4942C116.545 54.7374 115.949 55.1164 115.448 55.6069C114.948 56.0975 114.555 56.6886 114.294 57.342C114.034 57.9955 113.912 58.6969 113.937 59.4009C113.937 61.6898 113.937 63.9786 113.937 66.2675C113.937 66.5107 113.937 66.754 113.937 67.0459H112.953V53.278H113.916V56.0997C115.106 54.0425 116.943 53.278 119.247 53.2224Z" fill="black"/>
<path d="M71.9268 59.7137C72.0712 59.0187 72.1606 58.2611 72.3601 57.5523C73.5502 53.278 78.3999 51.4988 81.7363 54.1468C83.6899 55.6966 84.1783 57.8928 84.082 60.367H73.0756C72.8967 64.7872 76.0542 67.4559 80.0922 66.0938C80.7472 65.857 81.3336 65.4592 81.7983 64.9363C82.2631 64.4133 82.5917 63.7817 82.7544 63.0983C82.9676 62.4033 83.3116 62.2852 83.9651 62.4867C83.8574 63.3328 83.5613 64.1432 83.099 64.8571C82.6367 65.5709 82.0203 66.1696 81.296 66.608C80.0993 67.2692 78.7264 67.5311 77.3735 67.3564C76.0206 67.1816 74.757 66.5791 73.7635 65.6351C72.7806 64.5185 72.1862 63.1077 72.0712 61.618C72.0712 61.3817 71.9818 61.1454 71.9336 60.923C71.9291 60.5106 71.9268 60.1075 71.9268 59.7137ZM73.0893 59.4148H83.0433C82.9814 56.2109 80.9796 53.9383 78.3105 53.9174C75.3388 53.8757 73.2131 56.0997 73.0824 59.4009L73.0893 59.4148Z" fill="black"/>
<defs>
<linearGradient id="paint0_linear" x1="13.2817" y1="28.262" x2="31.9317" y2="28.262" gradientUnits="userSpaceOnUse">
<stop offset="0.16" stop-color="#6BBF47"/>
<stop offset="0.38" stop-color="#79B461"/>
<stop offset="0.47" stop-color="#75AC64"/>
<stop offset="0.7" stop-color="#659E5A"/>
<stop offset="0.9" stop-color="#3E863D"/>
</linearGradient>
<linearGradient id="paint1_linear" x1="17.3265" y1="31.6241" x2="39.847" y2="14.9478" gradientUnits="userSpaceOnUse">
<stop offset="0.57" stop-color="#3E863D"/>
<stop offset="0.72" stop-color="#619857"/>
<stop offset="1" stop-color="#76AC64"/>
</linearGradient>
<linearGradient id="paint2_linear" x1="42.3055" y1="6.04014" x2="29.9659" y2="31.2677" gradientUnits="userSpaceOnUse">
<stop offset="0.3" stop-color="#3E863D"/>
<stop offset="0.5" stop-color="#55934F"/>
<stop offset="0.8" stop-color="#5AAD45"/>
</linearGradient>
<clipPath id="clip0">
<rect width="90" height="55" fill="white"/>
</clipPath>
</defs>
</svg>
