<svg width="221" height="63" viewBox="0 0 221 63" fill="none" xmlns="http://www.w3.org/2000/svg">
<path fill-rule="evenodd" clip-rule="evenodd" d="M205.769 26.0901C205.57 26.1299 205.371 26.5681 205.371 26.8069C205.331 28.3996 205.291 32.6208 205.291 35.4877C205.291 35.5674 205.41 35.7265 205.53 35.7265C206.127 35.7663 207.561 35.8062 208.796 35.8062C210.509 35.8062 211.505 35.5674 212.062 35.3286C213.496 34.6118 214.173 33.0585 214.173 31.3462C214.173 27.4838 211.465 26.0103 207.442 26.0103C207.163 25.9708 206.366 25.9708 205.769 26.0901ZM216.046 43.8898C216.046 39.9476 213.138 37.7573 207.88 37.7573C207.641 37.7573 205.968 37.7175 205.57 37.7972C205.45 37.8371 205.291 37.9168 205.291 38.0364C205.291 40.8634 205.251 45.3633 205.371 47.1151C205.45 47.8717 206.008 48.947 206.685 49.2655C207.402 49.6638 209.035 49.7431 210.15 49.7431C213.297 49.7431 216.046 47.9913 216.046 43.8898ZM197.643 23.9001C198.041 23.9001 199.236 24.0193 202.303 24.0193C205.211 24.0193 207.521 23.94 210.35 23.94C213.815 23.94 218.595 25.1743 218.595 30.3507C218.595 32.8994 216.802 34.9303 214.452 35.9258C214.333 35.9657 214.333 36.045 214.452 36.0849C217.798 36.9213 220.746 38.992 220.746 42.8943C220.746 46.7172 218.356 49.1459 214.89 50.6593C212.779 51.575 210.15 51.8936 207.481 51.8936C205.45 51.8936 199.993 51.6548 196.966 51.7345C196.647 51.6149 197.245 50.1813 197.523 49.9425C198.24 49.9026 198.798 49.8627 199.555 49.6239C200.63 49.3452 200.75 49.0267 200.909 47.3941C200.989 46.0003 200.989 41.0624 200.989 37.5584C200.989 32.74 201.029 29.4748 200.989 27.8821C200.949 26.6478 200.511 26.2495 199.635 26.0103C198.957 25.8911 197.842 25.7316 196.926 25.6124C196.727 25.4131 197.404 24.0592 197.643 23.9001ZM174.659 48.6683C175.616 49.4246 177.488 49.7431 179.161 49.7431C181.312 49.7431 183.462 49.3452 185.534 47.4735C187.645 45.5622 189.119 42.6156 189.119 37.9168C189.119 33.4169 187.406 29.7535 183.901 27.6034C181.909 26.3687 179.36 25.8512 176.412 25.8512C175.536 25.8512 174.699 25.8911 174.182 26.1299C174.062 26.2097 173.783 26.5681 173.783 26.767C173.703 27.5636 173.703 33.6956 173.703 37.2797C173.703 40.983 173.703 46.1594 173.783 46.7567C173.783 47.3542 174.062 48.27 174.659 48.6683ZM165.617 23.9001C166.374 23.9001 169.282 24.0193 170.676 24.0193C173.186 24.0193 174.978 23.9001 179.718 23.9001C183.701 23.9001 187.047 24.9753 189.437 27.0058C192.345 29.5147 193.859 32.9792 193.859 37.2C193.859 43.2128 191.11 46.6773 188.362 48.6683C185.614 50.6991 182.028 51.8936 176.93 51.8936C174.221 51.8936 169.561 51.8139 165.697 51.774H165.657C165.458 51.416 165.976 50.0222 166.295 49.9823C167.33 49.8627 167.609 49.8229 168.127 49.6239C168.963 49.3054 169.123 48.8672 169.242 47.3941C169.362 44.6464 169.322 41.3414 169.322 37.5982C169.322 34.9303 169.362 29.7136 169.282 28.0412C169.163 26.6478 168.565 26.2894 167.37 26.0502C166.773 25.931 165.976 25.7715 164.861 25.6523C164.701 25.3732 165.418 24.1389 165.617 23.9001Z" fill="#8E714E"/>
<path fill-rule="evenodd" clip-rule="evenodd" d="M117.42 50.2212C116.425 50.1016 115.708 49.9425 114.831 49.5442C114.712 49.4645 114.512 49.0666 114.512 48.9071C114.433 47.5134 114.433 43.5314 114.433 40.8634C114.433 38.713 114.075 36.8416 113.158 35.5275C112.083 34.0142 110.529 33.1383 108.538 33.1383C106.785 33.1383 104.435 34.3331 102.483 36.0055C102.443 36.045 102.125 36.3241 102.164 35.8859C102.164 35.4478 102.244 34.5719 102.284 33.9747C102.324 33.417 102.005 33.1383 102.005 33.1383C100.73 33.7754 97.1455 34.6118 95.8311 34.731C94.8751 34.9303 94.6362 35.8461 95.632 36.1646H95.6719C96.7471 36.4832 97.4641 36.8416 98.0217 37.2C98.4201 37.5185 98.3802 37.9567 98.3802 38.3151C98.4201 41.3016 98.4201 45.8808 98.3008 48.3896C98.2609 49.3851 97.9822 49.7432 97.2651 49.9026L97.3445 49.8628C96.787 49.9824 96.3487 50.1016 95.6715 50.1813C95.4327 50.4201 95.4327 51.6947 95.6715 51.9733C96.1098 51.9733 98.4201 51.8538 100.332 51.8538C102.961 51.8538 104.316 51.9733 104.993 51.9733C105.271 51.6548 105.351 50.46 105.192 50.1813C104.435 50.1414 103.877 50.0621 103.36 49.9026C102.643 49.7432 102.443 49.3851 102.403 48.5487C102.324 46.4381 102.324 41.9785 102.324 38.9522C102.324 38.1158 102.563 37.7175 102.802 37.4787C103.718 36.6825 105.192 36.1248 106.506 36.1248C107.781 36.1248 108.617 36.523 109.255 37.0409C110.131 37.7573 110.41 38.7927 110.529 39.5494C110.728 41.2617 110.649 44.6465 110.649 47.5931C110.649 49.1858 110.529 49.5841 109.932 49.783C109.653 49.9026 108.936 50.0621 108.099 50.1414C107.821 50.4201 107.9 51.6548 108.099 51.9335C109.255 51.9335 110.609 51.8139 112.601 51.8139C115.07 51.8139 116.664 51.9335 117.301 51.9335C117.5 51.6947 117.58 50.5397 117.42 50.2212H117.42ZM128.454 35.01C126.343 35.01 125.028 36.6426 125.028 39.191C125.028 41.7792 126.183 44.7657 129.45 44.7657C130.007 44.7657 131.043 44.5269 131.521 43.9695C132.278 43.2527 132.796 41.8191 132.796 40.3061C132.796 37.001 131.162 35.01 128.454 35.01ZM128.175 52.6104C127.379 52.6104 126.821 52.8492 126.462 53.0486C124.789 54.1234 124.033 55.1588 124.033 56.3935C124.033 57.548 124.47 58.4638 125.427 59.2604C126.582 60.2559 128.175 60.7339 130.206 60.7339C134.269 60.7339 136.062 58.5435 136.062 56.3935C136.062 54.8801 135.305 53.8846 133.752 53.3272C132.636 52.8492 130.605 52.6104 128.175 52.6104ZM128.454 62.9637C126.024 62.9637 124.271 62.4458 122.758 61.2912C121.284 60.1761 120.647 58.5037 120.647 57.3491C120.647 57.0306 120.727 56.1543 121.444 55.3581C121.881 54.8801 122.837 53.9643 125.108 52.4115C125.188 52.3716 125.227 52.3318 125.227 52.252C125.227 52.1723 125.148 52.0926 125.068 52.0531C123.196 51.3363 122.638 50.1813 122.479 49.5442V49.4645C122.439 49.2257 122.36 48.9869 122.718 48.7477C122.997 48.5487 123.395 48.3099 123.833 48.0312C124.51 47.633 125.227 47.1948 125.666 46.8364C125.745 46.7567 125.745 46.6773 125.745 46.5976C125.745 46.5179 125.666 46.4381 125.586 46.3986C122.798 45.4825 121.404 43.4118 121.404 40.3061C121.404 38.2752 122.32 36.4433 123.953 35.2887C125.068 34.4125 127.856 33.3376 129.689 33.3376H129.808C131.68 33.3771 132.716 33.7754 134.19 34.2932C134.986 34.5719 135.743 34.6911 136.779 34.6911C138.332 34.6911 139.01 34.2135 139.567 33.6561C139.607 33.7355 139.687 33.9348 139.727 34.4523C139.766 34.9702 139.607 35.7265 139.209 36.2842C138.89 36.722 138.173 37.0409 137.456 37.0409H137.257C136.54 36.9612 136.221 36.8814 136.221 36.8814L136.062 36.9612C136.022 37.0409 136.062 37.1203 136.102 37.2399L136.142 37.3196C136.221 37.678 136.381 38.7528 136.381 39.0319C136.381 42.2971 135.066 43.7303 133.672 44.8055C132.318 45.801 130.764 46.4381 129.012 46.5976C128.972 46.5976 128.813 46.5976 128.454 46.6375C128.255 46.6375 127.976 46.6773 127.936 46.6773H127.896C127.578 46.7567 126.781 47.155 126.781 47.8319C126.781 48.4291 127.14 49.1459 128.852 49.2655C129.211 49.3054 129.569 49.3054 129.968 49.3453C132.238 49.5044 135.066 49.7037 136.381 50.1414C138.213 50.8184 139.368 52.451 139.368 54.4025C139.368 57.3491 137.257 60.0968 133.752 61.8087C132.039 62.5654 130.326 62.9637 128.454 62.9637ZM151.159 35.209C150.322 35.209 149.565 35.4079 149.007 35.8062C147.454 36.7619 146.657 38.6735 146.657 41.4607C146.657 46.6773 149.286 50.3408 153.031 50.3408C154.146 50.3408 155.022 50.0222 155.779 49.3851C156.934 48.4291 157.532 46.5179 157.532 43.8499C157.532 38.6735 154.942 35.209 151.159 35.209ZM151.876 52.252C145.104 52.252 142.674 47.2745 142.674 42.6156C142.674 39.3504 143.989 36.8416 146.617 35.0495C148.49 33.895 150.72 33.2579 152.712 33.2579C157.89 33.2579 161.515 36.9612 161.515 42.2971C161.515 45.9206 160.081 48.7875 157.332 50.5397C156.018 51.4156 153.748 52.252 151.875 52.252H151.876ZM80.894 35.209C80.0573 35.209 79.3008 35.4079 78.7429 35.8062C77.1895 36.7619 76.3927 38.6735 76.3927 41.4607C76.3927 46.6773 79.0216 50.3408 82.766 50.3408C83.8814 50.3408 84.7576 50.0222 85.5145 49.3851C86.6694 48.4291 87.2672 46.5179 87.2672 43.8499C87.2672 38.6735 84.7177 35.209 80.894 35.209ZM81.611 52.252C74.8394 52.252 72.4095 47.2745 72.4095 42.6156C72.4095 39.3504 73.724 36.8416 76.3529 35.0495C78.2252 33.895 80.4557 33.2579 82.4473 33.2579C87.6257 33.2579 91.2504 36.9612 91.2504 42.2971C91.2504 45.9206 89.8163 48.7875 87.0678 50.5397C85.7933 51.4156 83.5229 52.252 81.611 52.252ZM36.0824 51.8538C36.0027 51.7345 35.9229 51.3761 35.9628 50.938C35.9628 50.6194 36.0425 50.4201 36.0824 50.3408C36.9187 50.2212 37.357 50.1016 37.8348 49.9824C38.6316 49.783 38.9502 49.3453 38.9901 48.3498C39.1097 45.9605 39.1097 41.4208 39.0698 38.2752V38.1955C39.0698 37.8371 39.0698 37.3989 38.6316 37.0804C37.9943 36.6825 37.2374 36.3241 36.2416 36.045C35.883 35.9258 35.6441 35.7265 35.684 35.4877C35.684 35.2489 35.9229 34.9702 36.4409 34.8905C37.7554 34.7709 41.1807 33.9348 42.535 33.3376C42.6148 33.417 42.7344 33.6561 42.7344 33.9747L42.6945 34.4125C42.6547 34.8506 42.6148 35.3685 42.6148 35.8859C42.6148 36.045 42.7743 36.1646 42.9334 36.1646C43.0132 36.1646 43.0929 36.1248 43.1727 36.0849C45.7218 34.0939 48.0321 33.3771 49.2269 33.3771C51.179 33.3771 52.6925 34.2932 53.8478 36.2045C53.9271 36.3241 54.0069 36.3636 54.1265 36.3636C54.2063 36.3636 54.3255 36.3241 54.3654 36.2444C56.7155 34.4523 59.0657 33.3771 60.619 33.3771C64.3235 33.3771 66.5145 36.1248 66.5145 40.7837C66.5145 42.0977 66.5145 43.8101 66.4746 45.3633C66.4746 46.7567 66.4347 48.0312 66.4347 48.947C66.4347 49.1459 66.7135 49.783 67.1517 49.9026C67.7093 50.1813 68.4662 50.3009 69.462 50.46H69.5019C69.5816 50.7387 69.4221 51.774 69.263 51.9733C69.0237 51.9733 68.6652 51.9733 68.2672 51.9335C67.5103 51.8936 66.4347 51.8538 65.2399 51.8538C62.7701 51.8538 61.4956 51.8936 60.2605 51.9733C60.1811 51.6548 60.1412 50.6992 60.2605 50.46C60.9775 50.3408 61.3361 50.2212 61.7743 50.1016C62.5711 49.8628 62.7701 49.5044 62.81 48.469C62.81 47.7127 62.9691 41.2617 62.7302 39.7085C62.4914 38.1158 61.2962 36.2444 58.6673 36.2444C57.6715 36.2444 56.1181 36.6426 54.6043 37.7972C54.5249 37.8769 54.4452 38.0759 54.4452 38.1955V38.2353C54.6043 39.0714 54.6043 40.0274 54.6043 41.5005V44.0887C54.6043 45.8808 54.5644 47.5532 54.6043 48.8274C54.6043 49.7037 55.1223 49.9026 55.5606 50.0621C55.7995 50.1016 55.9586 50.1414 56.158 50.1813C56.5165 50.261 56.8751 50.3408 57.4326 50.46C57.5123 50.6194 57.5123 51.1369 57.3927 51.5751C57.3528 51.8139 57.2731 51.9335 57.2336 51.9733C55.8793 51.9335 54.485 51.8936 52.4536 51.8936C51.8562 51.8936 50.8205 51.9335 49.9439 51.9335C49.2269 51.9335 48.5497 51.9733 48.1517 51.9733C48.1118 51.8936 48.0321 51.6149 48.0321 51.1768C48.0321 50.8184 48.1118 50.5397 48.1916 50.46C48.3906 50.4201 48.5497 50.3806 48.7491 50.3806C49.2269 50.3009 49.6253 50.2212 50.0237 50.1414C50.7008 49.9425 50.9397 49.5841 50.9796 48.7082C51.0992 46.7172 51.2185 41.0229 50.9397 39.5893C50.462 37.2797 49.1475 36.1248 47.0363 36.1248C45.8016 36.1248 44.2479 36.722 42.9733 37.678C42.7743 37.8371 42.6148 38.2353 42.6148 38.5938V40.9432C42.6148 43.8101 42.6148 47.3941 42.6547 48.947C42.6945 49.4246 42.8537 49.9824 43.7701 50.1813C43.9691 50.2212 44.2877 50.3009 44.6861 50.3408L45.4032 50.46C45.4829 50.6992 45.4431 51.6548 45.2835 51.9733C44.8852 51.9733 44.4074 51.9335 43.8495 51.9335C43.0132 51.8936 41.9376 51.8538 40.7428 51.8538C39.3486 51.8538 38.3528 51.8936 37.556 51.9335C36.9985 51.8538 36.5602 51.8538 36.0824 51.8538Z" fill="#442D22"/>
<path fill-rule="evenodd" clip-rule="evenodd" d="M15.1303 61.4108L13.4972 60.8531C13.4972 60.8531 13.6966 52.5307 10.7092 51.9335C8.71757 49.624 11.0278 -46.0241 18.1975 51.6149C18.1975 51.6149 15.7281 52.8493 15.2898 54.9598C14.8117 57.0306 15.1303 61.4108 15.1303 61.4108Z" fill="white"/>
<path fill-rule="evenodd" clip-rule="evenodd" d="M15.1303 61.4108L13.4972 60.8531C13.4972 60.8531 13.6966 52.5307 10.7092 51.9335C8.71757 49.624 11.0278 -46.0241 18.1975 51.6149C18.1975 51.6149 15.7281 52.8493 15.2898 54.9598C14.8117 57.0306 15.1303 61.4108 15.1303 61.4108Z" fill="#A6A385"/>
<path fill-rule="evenodd" clip-rule="evenodd" d="M16.0067 53.3671C16.0067 53.3671 30.3065 43.9695 26.9606 24.4176C23.7343 10.202 16.126 5.54303 15.2897 3.75099C14.3736 2.47682 13.4971 0.247009 13.4971 0.247009L14.0949 39.7882C14.0949 39.828 12.8598 51.8936 16.0067 53.3671Z" fill="white"/>
<path fill-rule="evenodd" clip-rule="evenodd" d="M16.0067 53.3671C16.0067 53.3671 30.3065 43.9695 26.9606 24.4176C23.7343 10.202 16.126 5.54303 15.2897 3.75099C14.3736 2.47682 13.4971 0.247009 13.4971 0.247009L14.0949 39.7882C14.0949 39.828 12.8598 51.8936 16.0067 53.3671Z" fill="#499D4A"/>
<path fill-rule="evenodd" clip-rule="evenodd" d="M12.6609 53.8846C12.6609 53.8846 -0.762674 44.7258 0.0341184 28.5989C0.790661 12.4717 10.2709 4.54757 12.103 3.11394C13.2982 1.83976 13.3381 1.36176 13.4178 0.0875854C14.2541 1.87963 14.095 26.8866 14.2143 29.8332C14.5728 41.182 13.577 51.7345 12.6609 53.8846Z" fill="white"/>
<path fill-rule="evenodd" clip-rule="evenodd" d="M12.6609 53.8846C12.6609 53.8846 -0.762674 44.7258 0.0341184 28.5989C0.790661 12.4717 10.2709 4.54757 12.103 3.11394C13.2982 1.83976 13.3381 1.36176 13.4178 0.0875854C14.2541 1.87963 14.095 26.8866 14.2143 29.8332C14.5728 41.182 13.577 51.7345 12.6609 53.8846Z" fill="#58AA50"/>
</svg>
